<svg width="960" height="600" viewBox="0 0 960 600" fill="none" xmlns="http://www.w3.org/2000/svg">
<rect width="960" height="600" fill="black"/>
<path d="M299.14 344.714H326.878V316.706H299.14V344.714V344.714ZM336.919 316.705V330.647L350.725 344.714H364.657V316.705H336.919ZM479.374 316.705V330.647L493.181 344.714H507.112V316.705H479.374ZM757.005 316.705V330.647L770.812 344.714H784.743V316.705H757.005ZM280.69 288.697L266.884 302.638V344.714H296.881V316.705H294.622V288.697H280.69V288.697ZM350.725 312.016H366.917V288.697H350.725V312.016ZM509.371 288.697V312.016H511.63V316.705H509.371V344.714H525.563L539.368 330.647V302.638L525.563 288.697H509.371ZM579.407 288.697V312.016H581.666V344.714H595.599L609.404 330.647V302.638L595.599 288.697H579.407ZM174.257 256V286.289L169.738 290.978V284.008H171.997V256H155.806L142 270.068V330.647L155.806 344.714H169.738V314.425L174.257 309.735V316.705H171.997V344.714H188.188L201.995 330.647V270.068L188.188 256H174.257ZM223.08 256L209.525 269.687V283.248H225.339V256H223.08ZM227.598 256V283.248H229.858V344.714H256.843V256H227.598ZM280.69 256L266.884 270.068V284.008H294.622V256H280.69ZM296.881 256V284.008H299.14V288.697H296.881V312.016H313.072L326.878 298.076V270.068L313.072 256H296.881ZM350.725 256L336.919 270.068V284.008H364.657V256H350.725ZM366.917 256V284.008H369.176V316.705H366.917V344.714H383.108L396.914 330.647V305.046L392.396 300.357L396.914 295.668V270.068L383.108 256H366.917ZM420.76 256L406.955 270.068V312.016H436.951V288.697H434.692V256H420.76ZM439.336 256V344.714H467.074V312.016H469.334V288.697H467.074V256H439.336ZM479.374 256V298.076L493.181 312.016H507.112V284.008H509.371V256H479.374ZM511.63 284.008H539.368V256H511.63V284.008ZM563.216 256L549.409 270.068V298.076L551.669 300.357L549.409 302.638V330.647L563.216 344.714H579.407V316.705H577.147V284.008H579.407V256H563.216ZM581.666 256V284.008H609.404V270.068L595.599 256H581.666ZM616.936 284.008H644.673V256H616.936V284.008ZM646.932 256V284.008H649.191V344.714H663.123L676.929 330.647V256H646.932ZM700.776 256L686.97 270.068V298.076L689.23 300.357L686.97 302.638V330.647L700.776 344.714H714.708V312.016H716.967V288.697H714.708V284.008H716.967V256H700.776ZM719.226 256V316.705H716.967V344.714H733.159L746.964 330.647V302.638L744.705 300.357L746.964 298.076V270.068L733.159 256H719.226ZM770.812 256L757.005 270.068V298.076L770.812 312.016H787.003V288.697H784.743V256H770.812ZM787.003 256V284.008H789.262V316.705H787.003V344.714H803.194L817 330.647V302.638L814.741 300.357L817 298.076V270.068L803.194 256H787.003Z" fill="white"/>
</svg>
