<svg width="960" height="600" viewBox="0 0 960 600" fill="none" xmlns="http://www.w3.org/2000/svg">
<rect width="960" height="600" fill="black"/>
<g clip-path="url(#clip0)">
<path d="M184.388 428.124V442.195L198.496 456.393H212.732V428.124H184.388ZM639.175 428.124V442.195L653.283 456.393H667.519V428.124H639.175ZM743.702 456.393H772.046V428.124H743.702V456.393ZM581.717 411.623L567.609 425.821V456.393H595.953V411.623H581.717ZM598.262 411.623V425.821H600.571V456.393H628.915V425.821L614.807 411.623H598.262ZM672.137 411.623V428.124H669.828V456.393H686.373L700.48 442.195V425.821L686.373 411.623H672.137ZM268.523 456.393H296.996V399.854H268.523V456.393ZM724.849 399.854L710.74 413.926V456.393H741.393V428.124H739.085V399.854H724.849ZM198.496 366.853L184.388 381.051V413.926L193.751 423.391H217.349V428.124H215.041V456.393H231.585L245.694 442.195V409.321L236.331 399.854H212.732V395.121H215.041V366.853H198.496ZM217.349 366.853V395.121H245.694V381.051L231.585 366.853H217.349V366.853ZM252.106 366.853V395.121H268.523V397.424H296.996V395.121H313.411V366.853H252.106ZM319.823 366.853V442.195L333.93 456.393H350.476V428.124H348.167V366.853H319.823ZM352.785 366.853V456.393H367.02L381.129 442.195V366.853H352.785ZM391.388 366.853V442.195L405.496 456.393H422.041V428.124H419.733V381.051L405.496 366.853H391.388ZM438.586 366.853L424.35 381.051V456.393H438.586L452.694 442.195V366.853H438.586ZM462.954 366.853V442.195L477.062 456.393H493.607V428.124H491.299V381.051L477.062 366.853H462.954ZM510.152 366.853L495.916 381.051V456.393H510.152L526.697 439.893V411.623H524.388V366.853H510.152ZM543.242 366.853L529.005 381.051V456.393H543.242L557.35 442.195V366.853H543.242ZM567.609 366.853V395.121L581.717 409.321H598.262V395.121H595.953V366.853H567.609V366.853ZM600.571 366.853V409.321H614.807L628.915 395.121V366.853H600.571ZM639.175 366.853V395.121L653.283 409.321H669.828V395.121H667.519V366.853H639.175V366.853ZM672.137 366.853V409.321H686.373L700.48 395.121V366.853H672.137ZM710.74 395.121H739.085V366.853H710.74V395.121ZM741.393 366.853V395.121H743.702V399.854H741.393V423.391H757.939L772.046 409.321V366.853H741.393ZM288.274 344.467H316.618V316.198H288.274V344.467V344.467ZM671.752 316.198V344.467H676.498H702.405V330.268L688.297 316.198H671.752V316.198ZM216.709 299.696V344.467H245.053V313.896L230.944 299.696H216.709ZM748.064 299.696H743.319V313.896H745.627V344.467H773.971V313.896L759.863 299.696H748.064ZM183.748 254.926V344.467H212.092V313.896H214.4V285.498H212.092V254.926H183.748ZM216.709 254.926V297.394H230.944L245.053 283.196V254.926H216.709ZM255.313 254.926V344.467H281.22H285.966V316.198H283.657V254.926H255.313ZM324.313 254.926V344.467H352.657V299.696H354.966V271.427L352.657 269.125L338.422 254.926H324.313ZM357.274 254.926V330.268L371.511 344.467H385.748V299.696H388.055V271.427L385.748 269.125L371.511 254.926H357.274ZM390.365 254.926V330.268L404.6 344.467H418.708V269.125L404.6 254.926H390.365ZM428.969 254.926V344.467H457.313V299.696H459.621V271.427L457.313 269.125L443.076 254.926H428.969ZM461.929 254.926V330.268L476.165 344.467H490.273V254.926H461.929ZM526.441 254.926H514.642L500.534 269.125V330.268L514.642 344.467H528.878V283.196H531.187V254.926H526.441ZM533.495 254.926V316.198H531.187V344.467H547.731L561.839 330.268V269.125L547.731 254.926H533.495ZM572.1 254.926V344.467H600.444V283.196H602.753V254.926H572.1ZM605.061 254.926V311.465H619.297L633.405 297.394V269.125L619.297 254.926H605.061ZM655.208 254.926L641.1 269.125V330.268L655.208 344.467H669.443V283.196H671.752V254.926H655.208ZM674.06 254.926V313.896H702.405V269.125L688.297 254.926H674.06ZM712.665 254.926V344.467H741.01V283.196H743.319V254.926H712.665ZM745.627 254.926V297.394H759.863L773.971 283.196V269.125L759.863 254.926H745.627ZM318.478 204.271V232.542H332.585L346.822 218.47V204.271H318.478ZM461.609 204.271V232.542H475.845L489.953 218.343V204.271H461.609ZM755.695 204.271V218.343L769.802 232.542H784.039V204.271H755.695ZM604.74 190.074V204.271H602.431V232.542H618.976L633.084 218.343V190.074H604.74ZM246.784 187.771V204.271H244.475V232.542H261.02L275.128 218.343V201.969L261.02 187.771H246.784V187.771ZM175.09 143V176.002H170.472V171.269H172.781V143H156.236L142 157.071V232.542H170.472V199.539H175.09V232.542H203.562V157.071L189.326 143H175.09ZM213.822 143V232.542H242.167V171.269H244.475V143H213.822ZM246.784 143V185.469H261.02L275.128 171.269V157.199L261.02 143H246.784ZM299.496 143L285.388 157.199V218.47L299.496 232.542H311.296H316.041V204.271H313.733V171.269H316.041V143H299.496ZM318.478 143V171.269H346.822V157.199L332.585 143H318.478ZM357.081 143V232.542H385.425V171.269H387.734V143H357.081ZM390.043 143V204.271H387.734V232.542H392.479H404.279L418.387 218.343V157.199L404.279 143H390.043ZM428.647 143V232.542H459.3V204.271H456.991V199.539H489.953V176.002H456.991V171.269H459.3V143H428.647ZM461.609 143V171.269H489.953V157.199L475.845 143H461.609ZM500.212 143V232.542H528.557V199.539H561.518V176.002H528.557V171.269H530.865V143H500.212ZM533.174 143V171.269H561.518V157.199L547.411 143H533.174ZM585.887 143L571.778 157.199V218.343L585.887 232.542H600.123V171.269H602.431V143H585.887ZM604.74 143V171.269H633.084V157.199L618.976 143H604.74ZM676.306 143V176.002H671.689V143H643.344V232.542H671.689V199.539H676.306V232.542H704.65V143H676.306ZM714.91 143V171.269H717.219V204.271H714.91V232.542H748V204.271H745.691V171.269H748V143H714.91ZM786.348 143V171.269H788.657V204.271H786.348V232.542H802.893L817 218.343V143H786.348Z" fill="white"/>
</g>
<defs>
<clipPath id="clip0">
<rect width="675" height="313.393" fill="white" transform="translate(142 143)"/>
</clipPath>
</defs>
</svg>
