<svg width="960" height="600" viewBox="0 0 960 600" fill="none" xmlns="http://www.w3.org/2000/svg">
<rect width="960" height="600" fill="black"/>
<g clip-path="url(#clip0)">
<path d="M814.737 187.054L817 185.736L814.831 181.969L808.043 180.18V175.094H803.705L798.802 179.991L796.634 178.767L794.371 177.449L792.202 181.216L793.145 184.794L793.994 187.996L791.825 189.22L789.562 190.539L791.731 194.306L795.314 195.342L798.52 196.189V201.181H802.857L807.76 196.284L809.928 197.508L812.191 198.826L814.36 195.059L813.417 191.481L812.568 188.279L814.737 187.054ZM781.453 231.317L785.791 214.93H775.419L778.908 211.54V190.727L768.442 180.274H758.07V204.571H756.279V217.944L757.316 221.899L758.07 224.442L763.822 246.196H785.414L781.453 231.317ZM756.279 225.384H754.581V201.086H756.279V180.274H744.115L733.744 190.727V211.54L735.441 213.235L733.744 214.93V235.743L744.115 246.196H762.03L756.279 225.384ZM721.581 180.274H687.449L680.943 204.571H702.535L703.289 201.651L704.515 197.037L705.741 201.651L706.495 204.571H728.087L721.581 180.274ZM677.172 215.024L666.707 204.571H654.543V221.899H656.335V246.196H666.707L677.172 235.837V215.024ZM652.846 225.384V204.571H648.038L654.543 180.274H633.046L631.726 185.171L626.823 180.274H614.66V201.086H616.357V221.899H621.825L615.32 246.196H636.912L638.043 241.864L642.38 246.196H654.543V225.384H652.846ZM612.868 204.571V180.274H602.496L592.03 190.727V211.54L602.496 221.899H614.66V204.571H612.868ZM541.21 225.384V235.743L551.676 246.196H562.048V225.384H541.21ZM586.374 213.235H541.21V216.719H563.745V221.899H565.536V225.384H563.745V246.196H575.908L586.374 235.743V223.688L579.397 216.719H586.374V213.235ZM586.374 201.086V180.274H565.536V211.54H586.374V208.055H579.397L586.374 201.086ZM541.21 211.54H563.745V201.086H562.048V180.274H541.21V201.086L548.187 208.055H541.21V211.54ZM512.829 246.196H533.667V225.384H512.829V246.196ZM533.667 190.727L523.295 180.274H512.829V201.086H533.667V190.727ZM509.341 225.384V211.54H528.481V208.055H509.341V201.086H511.132V180.274H498.969L488.503 190.727V208.055H486.806V211.54H488.503V221.899L491.992 225.384H488.503V246.196H507.643H511.132V225.384H509.341ZM458.426 225.384V246.196H468.892L479.264 235.743V225.384H458.426ZM479.264 190.727L468.892 180.274H458.426V201.086H479.264V190.727ZM454.937 225.384V216.719H468.892L472.381 213.235H454.937V211.54H474.078L477.566 208.055H454.937V201.086H456.729V180.274H453.24H444.566L434.1 190.727V208.055H432.402V211.54H434.1V213.235H432.402V216.719H434.1V235.743L444.566 246.196H453.24H456.729V225.384H454.937ZM405.909 220.204V246.196H412.886V241.017H416.281L426.747 230.563V220.204H405.909ZM426.747 195.907L416.281 185.453H412.886V180.274H405.909V206.266H426.747V195.907ZM404.118 206.266V180.274H395.443V185.453H392.049L381.583 195.907V230.563L392.049 241.017H395.443V246.196H404.118V220.204H402.42V206.266H404.118ZM328.781 225.384V235.837L339.247 246.29H342.736V251.47H349.713V225.384H328.781ZM374.04 190.633L363.574 180.18H360.085V175H353.108V201.086H374.04V190.633ZM367.062 204.571H349.713V201.086H351.411V175H342.736V180.18H339.247L328.781 190.633V214.93L335.759 221.899H353.108V225.384H351.411V251.47H360.085V246.29H363.574L374.04 235.837V211.54L367.062 204.571ZM312.471 211.54H321.24V190.727H312.471V180.274H302.099L291.633 190.727V214.93H289.936V235.743H291.633V246.196H302.099L312.471 235.743H321.24V214.93H312.471V211.54ZM288.239 211.54H289.936V190.727H288.239V180.274H277.773L267.401 190.727H258.633V211.54H267.401V214.93H258.633V235.743H267.401V246.196H277.773L288.239 235.743V211.54ZM214.695 204.571H202.531L192.065 214.93V235.743L202.531 246.196H212.903H214.695V225.384H212.903V221.899H214.695V204.571ZM251.09 235.743V190.727L240.718 180.274H214.695V201.086H230.252V208.055L226.858 204.571H216.392V246.196H226.858L230.252 242.712V246.196H240.718L251.09 235.743ZM203.569 201.086H212.903V180.274H194.894L169.531 205.701V235.743L179.902 246.196H190.368V214.271L203.569 201.086ZM142 246.196H162.932V225.384H142V246.196ZM142 221.899V180.274H162.932V211.54L152.466 221.899H142ZM752.502 338.401H728.176V261.931H752.502V338.401ZM713.657 333.127H692.065L700.928 300.166L692.065 267.204H713.657L722.52 300.166L713.657 333.127ZM678.489 300.166L687.352 333.127H665.76L656.897 300.166L665.76 267.204H687.352L678.489 300.166ZM648.695 277.658V296.681L652.183 300.166L648.695 303.65V322.673L638.229 333.127H626.066V312.314H627.857V303.65L631.346 300.166L627.857 296.681V288.017H626.066V267.204H638.229L648.695 277.658ZM618.523 288.017H616.732V296.681L613.243 300.166L616.732 303.65V312.314H618.523V333.127H606.36L595.894 322.673V303.65L592.405 300.166L595.894 296.681V277.658L606.36 267.204H618.523V288.017ZM586.75 333.127H564.215V312.314H565.912V288.017H564.215V267.204H586.75V333.127ZM556.673 288.017H554.976V312.314H556.673V333.127H534.138V267.204H556.673V288.017ZM526.597 277.658V322.673L516.225 333.127H504.062V312.314H505.759V288.017H504.062V267.204H516.225L526.597 277.658ZM496.52 288.017H494.823V312.314H496.52V333.127H484.357L473.986 322.673V277.658L484.357 267.204H496.52V288.017ZM466.444 308.83H421.94V291.501H466.444V308.83ZM414.398 308.83H386.3V291.501H414.398V308.83ZM378.758 308.83H355.091V291.501H378.758V308.83ZM333.783 282.272L348.492 296.964L343.589 301.861L348.492 306.852L333.783 321.543L328.88 316.646L323.883 321.543L309.174 306.852L314.077 301.861L309.174 296.964L323.883 282.272L328.88 287.169L333.783 282.272ZM304.46 291.501V308.83H297.483V315.799H276.645V308.83H269.668V291.501H276.645V284.533H297.483V291.501H304.46ZM229.219 312.314H264.011V294.986H229.219V312.314V312.314ZM229.219 291.501H264.011V274.173H229.219V291.501V291.501ZM210.269 277.658C210.269 279.165 211.495 280.483 213.097 280.483C214.7 280.483 216.02 279.165 216.02 277.658C216.02 276.057 214.7 274.738 213.097 274.738C211.495 274.738 210.269 276.057 210.269 277.658ZM223.563 277.658C223.563 283.402 218.849 288.017 213.097 288.017C207.346 288.017 202.726 283.402 202.726 277.658C202.726 271.819 207.346 267.204 213.097 267.204C218.849 267.204 223.563 271.819 223.563 277.658ZM717.948 420.057H738.785V399.245H717.948V420.057ZM749.157 385.401V364.588L738.785 354.135H730.111H726.622V374.948H728.319L717.948 385.401V395.76H738.785L749.157 385.401ZM724.925 374.948V354.135H714.459L704.087 364.588V374.948H724.925ZM682.684 354.135H661.092L678.724 420.057H700.316L682.684 354.135ZM639.689 420.057L657.321 354.135H635.729L618.097 420.057H639.689ZM593.49 399.245H614.327V420.057H593.49V399.245ZM566.902 399.245V420.152H568.693V425.331H577.368L587.834 414.878V399.245H566.902ZM515.894 380.316H536.731V348.955H515.894V380.316ZM559.36 348.861H538.523V380.221H559.36V348.861ZM508.351 348.861H487.513V380.221H508.351V348.861ZM459.134 354.135V375.042H460.831V380.221H469.6L474.786 375.042L479.971 369.768V354.135H459.134V354.135ZM436.505 375.042V354.135H457.342V369.768L452.157 375.042L446.876 380.221H438.202V375.042H436.505V375.042ZM408.125 375.042V354.135H428.962V369.768L423.777 375.042L418.496 380.221H409.822V375.042H408.125V375.042ZM379.651 399.245V420.152L400.583 420.057V399.245H379.651ZM379.651 354.135H400.583V374.948H379.651V354.135ZM351.177 399.245V420.152H352.969V425.331H361.643L372.109 414.878V399.245H351.177ZM351.177 354.135H372.109V374.948H351.177V354.135ZM322.797 378.432H343.635V399.245H322.797V378.432ZM310.541 366.472H288.949L294.606 387.285L288.949 408.097H310.541L316.198 387.285L310.541 366.472ZM286.498 366.472H264.906L270.563 387.285L264.906 408.097H286.498L292.155 387.285L286.498 366.472ZM253.592 387.285L259.249 366.472H237.657L232 387.285L237.657 408.097H259.249L253.592 387.285ZM229.549 387.285L235.206 366.472H213.614L207.957 387.285L213.614 408.097H235.206L229.549 387.285Z" fill="white"/>
</g>
<defs>
<clipPath id="clip0">
<rect width="675" height="250.331" fill="white" transform="translate(142 175)"/>
</clipPath>
</defs>
</svg>
