<svg width="431" height="250" viewBox="0 0 431 250" fill="none" xmlns="http://www.w3.org/2000/svg">
<path d="M303.68 116.697L321 106.588L304.402 77.7076L252.443 63.9892V25H219.247L181.722 62.5452L165.124 53.1589L147.804 43.0506L131.206 71.9314L138.423 99.3683L144.918 123.917L128.32 133.303L111 143.412L127.598 172.292L155.021 180.235L179.557 186.733V225H212.753L250.278 187.455L266.876 196.841L284.196 206.949L300.794 178.069L293.577 150.632L287.082 126.083L303.68 116.697Z" fill="url(#paint0_linear_1971_1873)"/>
<path d="M95 82H121.73V111.021H123.907V137.979H121.73V167H95V82ZM139.509 122.314L152.813 108.836V82H126.084V122.314H139.509ZM126.084 124.5V167H152.813V137.979L139.509 124.5H126.084Z" fill="white"/>
<path d="M156.396 167H185.302V140.164H183.125V135.671H214.209V113.329H183.125V108.836H185.302V82H156.396V167ZM214.209 95.4786V108.836H187.479V82H200.905L214.209 95.4786ZM200.905 167L214.209 153.521V140.164H187.479V167H200.905Z" fill="white"/>
<path d="M246.698 122.314V108.836H244.521V82H217.791V108.836L231.095 122.314H246.698ZM248.875 122.314V82H275.604V108.836L262.3 122.314H248.875ZM262.3 124.5H248.875V140.164H246.698V167H262.3L275.604 153.521V137.979L262.3 124.5ZM217.791 140.164V153.521L231.095 167H244.521V140.164H217.791Z" fill="white"/>
<path d="M337 153.521V122.314L328.171 113.329H305.916V108.836H308.093V82H292.491L279.187 95.4786V126.686L288.016 135.671H310.27V140.164H308.093V167H323.696L337 153.521ZM337 95.4786V108.836H310.27V82H323.696L337 95.4786ZM305.916 167V140.164H279.187V153.521L292.491 167H305.916Z" fill="white"/>
<defs>
<linearGradient id="paint0_linear_1971_1873" x1="216" y1="25" x2="216" y2="225" gradientUnits="userSpaceOnUse">
<stop stop-color="#1502FF"/>
<stop offset="1" stop-color="#4402FF"/>
</linearGradient>
</defs>
</svg>
