<svg width="345" height="242" viewBox="0 0 345 242" fill="none" xmlns="http://www.w3.org/2000/svg">
<g clip-path="url(#clip0)">
<path d="M119.439 242H154.799V206.64H119.439V242V242ZM167.599 206.64V224.24L185.199 242H202.959V206.64H167.599ZM95.919 171.28L78.319 188.88V242H116.559V206.64H113.679V171.28H95.919V171.28ZM185.199 200.72H205.839V171.28H185.199V200.72ZM22.479 130L5.199 147.28V164.4H25.359V130H22.479ZM28.239 130V164.4H31.119V242H65.52V130H28.239ZM95.919 130L78.319 147.76V165.36H113.679V130H95.919ZM116.559 130V165.36H119.439V171.28H116.559V200.72H137.199L154.799 183.12V147.76L137.199 130H116.559ZM185.199 130L167.599 147.76V165.36H202.959V130H185.199ZM205.839 130V165.36H208.719V206.64H205.839V242H226.479L244.079 224.24V191.92L238.319 186L244.079 180.08V147.76L226.479 130H205.839V130ZM274.478 130L256.879 147.76V200.72H295.119V171.28H292.239V130H274.478ZM298.158 130V242H333.518V200.72H336.398V171.28H333.518V130H298.158ZM220.16 76.64V112.001H237.759L255.519 94.4V76.64H220.16ZM130.72 56V76.64H127.84V112.001H148.479L166.08 94.24V73.76L148.479 56H130.72ZM41.28 0V41.28H35.52V35.36H38.4V0H17.76L0 17.6V112.001H35.52V70.72H41.28V112.001H76.8V17.6L59.04 0H41.28ZM89.6 0V112.001H124.96V35.36H127.84V0H89.6ZM130.72 0V53.12H148.479L166.08 35.36V17.76L148.479 0H130.72ZM196.479 0L178.88 17.76V94.4L196.479 112.001H211.199H217.12V76.64H214.24V35.36H217.12V0H196.479ZM220.16 0V35.36H255.519V17.76L237.759 0H220.16ZM268.318 0V112.001H303.678V35.36H306.558V0H268.318ZM309.438 0V76.64H306.558V112.001H312.478H327.198L344.798 94.24V17.76L327.198 0H309.438Z" fill="white"/>
</g>
<defs>
<clipPath id="clip0">
<rect width="344.798" height="242" fill="white"/>
</clipPath>
</defs>
</svg>
