<svg width="960" height="600" viewBox="0 0 960 600" fill="none" xmlns="http://www.w3.org/2000/svg">
<rect width="960" height="600" fill="black"/>
<g clip-path="url(#clip0)">
<path d="M777.536 188.112H787.516V193.101H777.536V188.112ZM760.751 183.122V129.593L770.822 119.613H782.526V139.664H780.893V143.02H784.159V119.613H794.229L804.3 129.593V183.122H784.159V159.714H780.893V183.122H760.751ZM776.628 109.724H785.066L788.423 113.081L788.332 114.714V116.438L786.608 117.98H781.709L783.433 116.347V114.714L776.628 114.623V109.724ZM726.729 188.112H736.709V193.101H726.729V188.112ZM709.944 183.122V129.593L720.015 119.613H731.719V139.664H730.087V143.02H733.352V119.613H743.423L753.493 129.593V183.122H733.352V159.714H730.087V183.122H709.944ZM744.33 116.347L732.626 109.633L720.922 116.347V117.98H729.269L732.626 116.347L735.984 117.98H744.33V116.347V116.347ZM675.923 188.112H685.903V193.101H675.923V188.112ZM659.139 183.122V129.593L669.209 119.613H680.913V139.664H679.28V143.02H682.546V119.613H692.617L702.687 129.593V183.122H682.546V159.714H679.28V183.122H659.139ZM631.739 159.714H628.473V183.122H628.201L626.477 184.755V186.478H633.191V191.468H624.844L621.487 188.112V184.755L623.211 183.122H608.332V129.593L618.402 119.613H630.106V139.664H628.473V143.02H631.739V119.613H641.81L651.88 129.593V183.122H631.739V159.714ZM557.525 183.122V129.593L567.595 119.613H579.299V139.664H577.666V143.02H580.932V119.613H591.003L601.074 129.593V183.122H580.932V159.714H577.666V183.122H557.525ZM591.003 111.266C591.003 111.266 588.372 117.98 579.299 117.98C570.227 117.98 567.595 111.266 567.595 111.266V109.633H575.942C575.942 109.633 576.577 111.266 579.299 111.266C582.021 111.266 582.656 109.633 582.656 109.633H591.003V111.266ZM506.718 183.122V129.593L516.789 119.613H528.492V139.664H526.859V143.02H530.125V119.613H540.196L550.267 129.593V183.122H530.125V159.714H526.859V183.122H506.718ZM540.105 111.266H516.789V116.256H540.105V111.266ZM455.912 183.122V129.593L465.983 119.613H477.686V139.664H476.053V143.02H479.319V119.613H489.39L499.461 129.593V183.122H479.319V159.714H476.053V183.122H455.912ZM476.598 112.99C476.598 113.625 477.051 114.079 477.686 114.079C478.321 114.079 478.775 113.625 478.775 112.99C478.775 112.355 478.321 111.901 477.686 111.901C477.051 111.901 476.598 112.355 476.598 112.99ZM482.676 112.99C482.676 115.802 480.408 117.98 477.686 117.98C474.874 117.98 472.696 115.802 472.696 112.99C472.696 110.268 474.874 108 477.686 108C480.408 108 482.676 110.268 482.676 112.99ZM405.105 183.122V129.593L415.176 119.613H426.879V139.664H425.246V143.02H428.513V119.613H438.583L448.654 129.593V183.122H428.513V159.714H425.246V183.122H405.105ZM436.859 109.633C436.859 109.633 435.226 111.266 431.869 111.266C428.513 111.266 425.246 109.633 421.89 109.633C418.442 109.633 415.176 111.266 415.176 111.266V117.98H416.809C416.809 117.98 418.533 116.347 421.89 116.347C425.156 116.347 428.513 117.98 431.869 117.98C435.226 117.98 438.583 116.347 438.583 116.347V109.633H436.859ZM354.298 183.122V129.593L364.369 119.613H376.073V139.664H374.44V143.02H377.706V119.613H387.776L397.847 129.593V183.122H377.706V159.714H374.44V183.122H354.298ZM377.706 111.266H387.686V116.256H377.706V111.266ZM374.349 111.266H364.369V116.256H374.349V111.266ZM303.491 183.122V129.593L313.562 119.613H325.266V139.664H323.633V143.02H326.899V119.613H336.97L347.04 129.593V183.122H326.899V159.714H323.633V183.122H303.491ZM321.909 109.633H313.562V111.266L325.266 117.98L336.97 111.266V109.633H328.623L325.266 111.266L321.909 109.633ZM252.685 183.122V129.593L262.756 119.613H274.46V139.664H272.827V143.02H276.093V119.613H286.164L296.234 129.593V183.122H276.093V159.714H272.827V183.122H252.685ZM286.164 116.347L274.46 109.633L262.756 116.347V117.98H271.103L274.46 116.347L277.817 117.98H286.164V116.347V116.347ZM201.879 183.122V129.593L211.949 119.613H223.653V139.664H222.02V143.02H225.286V119.613H235.357L245.427 129.593V183.122H225.286V159.714H222.02V183.122H201.879ZM235.357 111.357V109.633H225.286L211.949 116.347V117.98H221.929L235.357 111.357ZM151.072 183.122V129.593L161.142 119.613H172.846V139.664H171.213V143.02H174.479V119.613H184.55L194.62 129.593V183.122H174.479V159.714H171.213V183.122H151.072ZM161.142 111.357V109.633H171.122L184.55 116.347V117.98H174.479L161.142 111.357ZM807.02 282.921L817 272.85V262.87H796.95V282.921H807.02ZM817 229.483V239.463H796.95V219.412H807.02L817 229.483ZM773.634 282.921H795.317V262.87H793.684V259.513H817V242.82H793.684V239.463H795.317V219.412H773.634V282.921ZM795.408 211.065L798.765 209.432H807.112V211.065L795.408 217.779L783.704 211.065V209.432H792.05L795.408 211.065ZM756.396 282.921L766.375 272.85V262.87H746.325V282.921H756.396ZM766.375 229.483V239.463H746.325V219.412H756.396L766.375 229.483ZM723.008 282.921H744.692V262.87H743.059V259.513H766.375V242.82H743.059V239.463H744.692V219.412H723.008V282.921ZM756.486 217.779H748.139L744.783 216.146L741.426 217.779H733.079V216.146L744.783 209.432L756.486 216.146V217.779V217.779ZM705.77 282.921L715.75 272.85V262.87H695.7V282.921H705.77ZM715.75 229.483V239.463H695.7V219.412H705.77L715.75 229.483ZM672.383 282.921H694.066V262.87H692.433V259.513H715.75V242.82H692.433V239.463H694.066V219.412H672.383V282.921ZM692.433 217.779H682.453V216.146L695.79 209.432H705.861V211.156L692.433 217.779ZM655.145 282.921L665.125 272.85V262.87H645.074V282.921H655.145ZM665.125 229.483V239.463H645.074V219.412H655.145L665.125 229.483ZM621.757 282.921H643.441V262.87H641.808V259.513H665.125V242.82H641.808V239.463H643.441V219.412H621.757V282.921ZM645.165 217.779H655.235V216.146L641.808 209.432H631.828V211.156L645.165 217.779ZM594.449 262.87H592.816V282.921H596.173H604.519L614.499 272.85V229.483L604.519 219.412H594.449V262.87V262.87ZM591.183 239.463V282.921H571.132V219.412H592.816V239.463H591.183ZM581.203 211.065H604.519V216.055H581.203V211.065ZM543.823 262.87H542.19V282.921H545.547H553.894L563.874 272.85V229.483L553.894 219.412H543.823V262.87V262.87ZM540.557 239.463V282.921H520.507V219.412H542.19V239.463H540.557ZM542.281 211.065L545.638 209.432H553.985V211.065L542.281 217.779L530.577 211.065V209.432H538.924L542.281 211.065ZM493.199 262.87V282.921H503.179L513.249 272.941V262.87H493.199ZM513.249 229.483L503.179 219.412H493.199V239.463H513.249V229.483ZM491.747 284.009H488.753L489.842 282.921H491.475V262.87H489.842V239.463H491.475V219.412H479.771L469.791 229.483V272.941L479.771 282.921H486.848L484.671 285.098V286.459H490.205V288.001H484.671V292.175H491.566L494.378 289.362V286.641L491.747 284.009ZM452.463 282.921L462.534 272.941V262.87H442.484V282.921H452.463ZM462.534 229.483V239.463H442.484V219.412H452.463L462.534 229.483ZM419.076 229.483V272.941L429.056 282.921H437.403H440.76V262.87H439.127V239.463H440.76V219.412H437.403H429.056L419.076 229.483ZM445.84 211.065H435.861V216.055H445.84V211.065ZM401.748 282.921L411.819 272.941V262.87H391.768V282.921H401.748ZM411.819 229.483V239.463H391.768V219.412H401.748L411.819 229.483ZM368.361 229.483V272.941L378.341 282.921H386.688H390.045V262.87H388.411V239.463H390.045V219.412H386.688H378.341L368.361 229.483ZM390.135 211.065L393.492 209.432H401.839V211.065L390.135 217.779L378.432 211.065V209.432H386.778L390.135 211.065ZM351.033 282.921L361.104 272.941V262.87H341.053V282.921H351.033ZM361.104 229.483V239.463H341.053V219.412H351.033L361.104 229.483ZM317.646 229.483V272.941L327.626 282.921H335.972H339.329V262.87H337.696V239.463H339.329V219.412H335.972H327.626L317.646 229.483ZM337.696 217.779H327.716V216.146L341.053 209.432H351.124V211.156L337.696 217.779ZM290.246 242.82H286.98V219.412H266.839V272.941L276.909 282.921H288.613V262.87H286.98V259.513H290.246V282.921H300.317L310.388 272.941V219.412H290.246V242.82ZM239.531 262.87V282.921H249.602L259.582 272.85V262.87H239.531ZM259.582 229.483L249.602 219.412H239.531V239.463H259.582V229.483ZM236.265 242.82V239.463H237.898V219.412H216.124V242.82H212.857V239.463H214.491V219.412H202.787L192.807 229.483V282.921H212.857V259.513H216.124V282.921H234.541H237.898V262.87H236.265V259.513H259.582V242.82H236.265ZM168.764 287.911H158.784V292.901H168.764V287.911ZM162.141 282.921V259.513H165.407V282.921H185.549V229.392L175.478 219.412H165.407V242.82H162.141V239.463H163.774V219.412H152.071L142 229.392V282.921H162.141ZM175.478 209.432H167.131C167.131 209.432 166.496 211.065 163.774 211.065C161.053 211.065 160.417 209.432 160.417 209.432H152.071V211.065C152.071 211.065 154.702 217.779 163.774 217.779C172.847 217.779 175.478 211.065 175.478 211.065V209.432ZM734.26 352.599H754.311V372.649L744.331 382.72H732.627V362.669H734.26V352.599ZM744.331 319.211H734.26V339.262H754.311V329.282L744.331 319.211ZM710.943 372.649V329.282L720.923 319.211H729.27H732.627V339.262H730.994V382.72H720.923L710.943 372.649ZM738.252 312.044V310.592H732.627L727.093 316.217V317.578H732.627L738.252 312.044ZM687.627 385.532V384.081H682.002L676.467 389.706V391.067H682.002L687.627 385.532ZM683.635 352.599H703.685V372.649L693.705 382.72H682.002V362.669H683.635V352.599ZM693.705 319.211H683.635V339.262H703.685V329.282L693.705 319.211ZM660.318 372.649V329.282L670.298 319.211H678.645H682.002V339.262H680.369V382.72H670.298L660.318 372.649ZM633.009 352.599H653.06V372.649L643.08 382.72H631.376V362.669H633.009V352.599ZM643.08 319.211H633.009V339.262H653.06V329.282L643.08 319.211ZM609.693 372.649V329.282L619.673 319.211H628.019H631.376V339.262H629.743V382.72H619.673L609.693 372.649ZM626.477 310.865H636.457V315.855H626.477V310.865ZM582.384 352.599H602.434V372.649L592.455 382.72H580.751V362.669H582.384V352.599V352.599ZM592.455 319.211H582.384V339.262H602.434V329.282L592.455 319.211ZM559.067 372.649V329.282L569.047 319.211H577.394H580.751V339.262H579.118V382.72H569.047L559.067 372.649ZM592.545 310.865C592.545 310.865 589.914 317.578 580.842 317.578C571.769 317.578 569.138 310.865 569.138 310.865V309.231H577.485C577.485 309.231 578.12 310.865 580.842 310.865C583.563 310.865 584.198 309.231 584.198 309.231H592.545V310.865ZM526.133 387.71H536.113V392.7H526.133V387.71ZM531.758 382.72V362.669H551.809V372.649L541.829 382.72H531.758ZM541.829 319.211H531.758V339.262H551.809V329.282L541.829 319.211ZM508.442 319.211H530.125V339.262H528.492V342.619H551.809V359.313H528.492V362.669H530.125V382.72H508.442V319.211ZM542.555 315.945L530.851 309.231L519.147 315.945V317.578H527.494L530.851 315.945L534.208 317.578H542.555V315.945ZM475.508 387.71H485.488V392.7H475.508V387.71ZM481.133 382.72V362.669H501.184V372.649L491.204 382.72H481.133ZM491.204 319.211H481.133V339.262H501.184V329.282L491.204 319.211ZM457.816 319.211H479.5V339.262H477.867V342.619H501.184V359.313H477.867V362.669H479.5V382.72H457.816V319.211ZM450.558 362.669V372.649L440.578 382.72H430.508V362.669H450.558ZM450.558 339.262H430.508V319.211H440.578L450.558 329.282V339.262ZM450.558 342.619V359.313H427.242V362.669H428.875V382.72H427.06L425.336 384.353V386.077H432.05V391.067H423.703L420.346 387.71V384.353L422.07 382.72H407.191V319.211H428.875V339.262H427.242V342.619H450.558ZM379.883 382.72V362.669H399.934V372.649L389.954 382.72H379.883ZM389.954 319.211H379.883V339.262H399.934V329.282L389.954 319.211ZM356.566 319.211H378.25V339.262H376.617V342.619H399.934V359.313H376.617V362.669H378.25V382.72H356.566V319.211V319.211ZM373.351 310.865H383.331V315.855H373.351V310.865ZM329.258 382.72V362.669H349.308V372.649L339.328 382.72H329.258ZM339.328 319.211H329.258V339.262H349.308V329.282L339.328 319.211ZM305.941 319.211H327.625V339.262H325.992V342.619H349.308V359.313H325.992V362.669H327.625V382.72H305.941V319.211ZM339.328 310.865H316.012V315.855H339.328V310.865ZM278.632 382.72V362.669H298.683V372.649L288.703 382.72H278.632ZM288.703 319.211H278.632V339.262H298.683V329.282L288.703 319.211ZM255.316 319.211H276.999V339.262H275.366V342.619H298.683V359.313H275.366V362.669H276.999V382.72H255.316V319.211ZM287.07 309.231C287.07 309.231 285.437 310.865 282.08 310.865C278.723 310.865 275.457 309.231 272.1 309.231C268.652 309.231 265.386 310.865 265.386 310.865V317.578H267.019C267.019 317.578 268.743 315.945 272.1 315.945C275.366 315.945 278.723 317.578 282.08 317.578C285.437 317.578 288.794 315.945 288.794 315.945V309.231H287.07ZM228.007 382.72V362.669H248.058V372.649L238.078 382.72H228.007ZM238.078 319.211H228.007V339.262H248.058V329.282L238.078 319.211ZM204.69 319.211H226.374V339.262H224.741V342.619H248.058V359.313H224.741V362.669H226.374V382.72H204.69V319.211V319.211ZM228.098 310.865H238.078V315.855H228.098V310.865ZM224.741 310.865H214.761V315.855H224.741V310.865ZM786.336 419.011V472.449L796.407 482.519H806.387V419.011H786.336ZM783.07 450.765V482.519H763.019V419.011H772.999L783.07 429.081L784.703 430.714V450.765H783.07V450.765ZM784.794 410.664L788.151 409.031H796.498V410.664L784.794 417.377L773.09 410.664V409.031H781.437L784.794 410.664ZM734.078 490.866H728.543V489.505L734.078 483.88H739.703V485.332L734.078 490.866ZM735.711 419.011V472.449L745.781 482.519H755.761V419.011H735.711ZM732.445 450.765V482.519H712.394V419.011H722.374L732.445 429.081L734.078 430.714V450.765H732.445V450.765ZM685.085 419.011V472.449L695.156 482.519H705.136V419.011H685.085ZM681.819 450.765V482.519H661.769V419.011H671.749L681.819 429.081L683.452 430.714V450.765H681.819V450.765ZM695.247 409.031V415.744C695.247 415.744 691.89 417.377 688.533 417.377C685.176 417.377 681.819 415.744 678.553 415.744C675.196 415.744 673.472 417.377 673.472 417.377H671.839V410.664C671.839 410.664 675.105 409.031 678.553 409.031C681.91 409.031 685.176 410.664 688.533 410.664C691.89 410.664 693.523 409.031 693.523 409.031H695.247ZM634.46 419.011V472.449L644.531 482.519H654.511V419.011H634.46ZM631.194 450.765V482.519H611.143V419.011H621.123L631.194 429.081L632.827 430.714V450.765H631.194V450.765ZM631.194 417.377H621.214V415.744L634.551 409.031H644.621V410.754L631.194 417.377ZM582.202 490.866H576.667V489.505L582.202 483.88H587.827V485.332L582.202 490.866ZM603.885 462.469H583.835V482.519H603.885V462.469ZM560.518 419.011H580.568V462.469H582.202V482.519H578.845H560.518V419.011V419.011ZM553.26 462.469H533.209V482.519H553.26V462.469ZM509.892 419.011H529.943V462.469H531.576V482.519H528.219H509.892V419.011V419.011ZM529.943 417.377H519.963V415.744L533.3 409.031H543.371V410.754L529.943 417.377ZM480.951 490.866H475.416V489.505L480.951 483.88H486.576V485.332L480.951 490.866ZM482.584 450.765V482.519H502.634V460.835L492.654 450.765H482.584ZM492.654 449.132L502.634 439.061V419.011H482.584V449.132H492.654ZM459.267 419.011H479.318V440.694H480.951V460.835H479.318V482.519H459.267V419.011ZM428.602 419.011H452.01V439.061H450.377V462.469H452.01V482.519H428.602V462.469H430.235V439.061H428.602V419.011ZM445.387 410.664H435.407V415.654H445.387V410.664ZM414.631 487.509H404.651V492.499H414.631V487.509ZM397.937 419.011H421.344V439.061H419.711V462.469H421.344V482.519H397.937V462.469H399.57V439.061H397.937V419.011ZM389.046 439.061H390.679V419.011H367.271V439.061H368.904V462.469H367.271V482.519H374.802L373.078 484.152V487.509L376.435 490.866H384.781V485.876H378.068V484.152L379.792 482.519H390.679V462.469H389.046V439.061ZM336.606 419.011H360.013V439.061H358.38V462.469H360.013V482.519H336.606V462.469H338.239V439.061H336.606V419.011ZM336.696 410.664H360.013V415.654H336.696V410.664ZM305.941 419.011H329.348V439.061H327.715V462.469H329.348V482.519H305.941V462.469H307.574V439.061H305.941V419.011ZM329.439 409.031V415.744C329.439 415.744 326.082 417.377 322.725 417.377C319.369 417.377 316.012 415.744 312.746 415.744C309.389 415.744 307.665 417.377 307.665 417.377H306.032V410.664C306.032 410.664 309.298 409.031 312.746 409.031C316.102 409.031 319.369 410.664 322.725 410.664C326.082 410.664 327.715 409.031 327.715 409.031H329.439ZM275.275 419.011H298.683V439.061H297.05V462.469H298.683V482.519H275.275V462.469H276.909V439.061H275.275V419.011ZM298.683 410.664H288.703V415.654H298.683V410.664ZM275.366 410.664H285.346V415.654H275.366V410.664ZM244.61 419.011H268.017V439.061H266.384V462.469H268.017V482.519H244.61V462.469H246.243V439.061H244.61V419.011ZM256.404 410.664L259.761 409.031H268.108V410.664L256.404 417.377L244.701 410.664V409.031H253.047L256.404 410.664ZM213.944 419.011H237.352V439.061H235.719V462.469H237.352V482.519H213.944V462.469H215.577V439.061H213.944V419.011ZM237.443 417.377H229.096L225.739 415.744L222.382 417.377H214.035V415.744L225.739 409.031L237.443 415.744V417.377ZM183.28 419.011H206.687V439.061H205.054V462.469H206.687V482.519H183.28V462.469H184.913V439.061H183.28V419.011V419.011ZM196.072 417.377H186.092V415.744L199.429 409.031H209.5V410.754L196.072 417.377ZM152.614 419.011H176.022V439.061H174.388V462.469H176.022V482.519H152.614V462.469H154.247V439.061H152.614V419.011V419.011ZM166.042 417.377H176.112V415.744L162.685 409.031H152.705V410.754L166.042 417.377Z" fill="white"/>
</g>
<defs>
<clipPath id="clip0">
<rect width="675" height="384.499" fill="white" transform="translate(142 108)"/>
</clipPath>
</defs>
</svg>
