<svg width="960" height="600" viewBox="0 0 960 600" fill="none" xmlns="http://www.w3.org/2000/svg">
<rect width="960" height="600" fill="black"/>
<g clip-path="url(#clip0)">
<path d="M193 498.661V500.384L194.723 502.124H196.462V498.661H193ZM281.345 502.124H284.808V498.661H281.345V502.124ZM298.563 498.661V502.124H300.287L302.025 500.4V498.661H298.563V498.661ZM320.465 498.661V502.124H321.046H324.21V500.384L322.486 498.661H320.465ZM363.393 502.124H366.855V498.661H363.393V502.124ZM368.108 498.661V502.139H368.406V503H369.847L371.587 501.261V498.661H368.108ZM377.226 498.661V500.384L378.949 502.124H380.688V498.661H377.226ZM415.908 498.661V502.124H417.647L419.37 500.384V498.661H415.908ZM438.107 498.661V500.384L439.83 502.124H441.569V498.661H438.107ZM407.165 496.922V498.661H406.883V502.124H408.905L410.628 500.384V496.922H407.165V496.922ZM234.674 496.641L232.95 498.379V502.124H236.413V496.641H234.674ZM236.695 496.641V498.379H236.977V502.124H240.44V498.379L238.716 496.641H236.695ZM272.603 496.641V498.661H272.321V502.124H274.342L276.066 500.384V498.379L274.342 496.641H272.603V496.641ZM307.306 496.641V502.124H310.767V498.379L309.045 496.641H307.306V496.641ZM347.303 496.641H346.723V498.379H347.005V502.124H350.467V498.379L348.744 496.641H347.303V496.641ZM442.133 496.641V498.661H441.851V502.124H443.873L445.596 500.384V498.379L443.873 496.641H442.133V496.641ZM353.099 502.124H356.578V495.2H353.099V502.124ZM361.09 495.2L359.365 496.922V502.124H363.111V498.661H362.829V495.2H361.09V495.2ZM194.723 491.158L193 492.897V496.922L194.144 498.082H197.026V498.661H196.744V502.124H198.765L200.489 500.384V496.359L199.345 495.2H196.462V494.62H196.744V491.158H194.723ZM197.026 491.158V494.62H200.489V492.897L198.765 491.158H197.026ZM201.742 491.158V502.124H205.205V494.62H205.487V491.158H201.742ZM205.769 491.158V498.082H207.508L209.231 496.359V492.897L207.508 491.158H205.769V491.158ZM214.197 491.158V495.2H213.633V491.158H210.17V502.124H213.633V498.082H214.197V502.124H217.66V491.158H214.197ZM218.912 491.158V494.62H219.194V498.661H218.912V502.124H222.955V498.661H222.673V494.62H222.955V491.158H218.912ZM224.208 491.158V502.124H227.671V496.641H227.953V493.179L227.671 492.897L225.932 491.158H224.208ZM228.235 491.158V500.384L229.973 502.124H231.697V491.158H228.235ZM232.95 491.158V494.62L234.674 496.359H236.695V494.62H236.413V491.158H232.95ZM236.977 491.158V496.359H238.716L240.44 494.62V491.158H236.977ZM249.558 491.158H248.116L246.392 492.897V500.384L248.116 502.124H249.855V494.62H250.137V491.158H249.558ZM250.419 491.158V498.661H250.137V502.124H252.159L253.881 500.384V492.897L252.159 491.158H250.419ZM258.3 491.158H255.135V502.124H258.597V498.082H262.623V495.2H258.597V494.62H258.879V491.158H258.3ZM259.161 491.158V494.62H262.623V492.897L260.901 491.158H259.161ZM268.577 491.158V502.124H272.039V494.62H272.321V491.158H268.577ZM272.603 491.158V496.359H274.342L276.066 494.62V492.897L274.342 491.158H272.603V491.158ZM277.319 491.158V502.124H280.484H281.063V498.661H280.781V491.158H277.319ZM289.79 491.158V495.2H289.226V494.62H289.508V491.158H287.487L285.748 492.881V502.124H289.226V498.082H289.79V502.124H293.268V492.881L291.529 491.158H289.79ZM297.686 491.158H296.244L294.521 492.897V500.4L296.244 502.124H297.686H298.266V498.661H297.984V494.62H298.266V491.158H297.686ZM298.563 491.158V494.62H302.025V492.897L300.287 491.158H298.563ZM303.279 491.158V502.124H306.742V498.379H307.024V494.902H306.742V491.158H303.279ZM307.306 491.158V496.359H309.045L310.767 494.62V491.158H307.306ZM318.445 491.158L316.721 492.897V500.384L318.445 502.124H320.183V494.62H320.465V491.158H318.445ZM320.747 491.158V498.379H324.21V492.897L322.486 491.158H320.747ZM325.463 491.158V500.384L327.187 502.124H329.207V498.661H328.925V491.158H325.463ZM329.489 491.158V502.124H331.228L332.952 500.384V491.158H329.489ZM338.248 491.158V495.2H337.684V494.62H337.966V491.158H335.944L334.205 492.881V502.124H337.684V498.082H338.248V502.124H341.725V492.881L339.986 491.158H338.248ZM342.979 491.158V502.124H346.441V494.62H346.723V491.158H342.979ZM347.005 491.158V496.359H348.744L350.467 494.62V492.897L348.744 491.158H347.005V491.158ZM351.094 491.158V494.62H353.099V494.902H356.578V494.62H358.583V491.158H351.094ZM359.365 494.62H362.829V491.158H359.365V494.62ZM363.111 491.158V494.62H363.393V495.2H363.111V498.082H365.131L366.855 496.359V491.158H363.111ZM380.97 491.158V494.62H381.252V498.661H380.97V502.124H382.991L384.715 500.384V491.158H380.97ZM385.655 491.158V500.384L387.378 502.124H389.399V498.661H389.117V491.158H385.655ZM389.681 491.158V502.124H391.42L393.144 500.384V491.158H389.681ZM394.397 491.158V502.124H397.859V494.62H398.141V491.158H394.397ZM398.423 491.158V498.661H398.141V502.124H398.721H400.162L401.886 500.384V492.897L400.162 491.158H398.423V491.158ZM406.304 491.158H404.862L403.138 492.897V500.384L404.862 502.124H406.601V494.62H406.883V491.158H406.304ZM407.165 491.158V494.62H410.628V492.897L408.905 491.158H407.165ZM411.88 491.158V502.124H415.626V498.661H415.344V498.082H419.37V495.2H415.344V494.62H415.626V491.158H411.88ZM415.908 491.158V494.62H419.37V492.897L417.647 491.158H415.908ZM425.324 491.158V502.124H428.786V496.641H429.068V493.179L428.786 492.897L427.046 491.158H425.324V491.158ZM429.35 491.158V500.384L431.089 502.124H432.827V496.641H433.109V493.179L432.827 492.897L431.089 491.158H429.35V491.158ZM433.391 491.158V500.384L435.131 502.124H436.854V492.897L435.131 491.158H433.391ZM438.107 491.158V494.62L439.83 496.359H441.851V494.62H441.569V491.158H438.107ZM442.133 491.158V496.359H443.873L445.596 494.62V491.158H442.133ZM451.549 491.158V500.384L453.273 502.124H455.294V498.661H455.012V492.897L453.273 491.158H451.549V491.158ZM457.315 491.158L455.576 492.897V502.124H457.315L459.039 500.384V491.158H457.315ZM463.456 491.158H462.015L460.291 492.897V500.384L462.015 502.124H463.754V494.62H464.036V491.158H463.456ZM464.318 491.158V498.661H464.036V502.124H466.057L467.781 500.384V492.897L466.057 491.158H464.318V491.158ZM469.034 491.158V500.384L470.757 502.124H472.778V498.661H472.496V492.897L470.757 491.158H469.034V491.158ZM474.799 491.158L473.06 492.897V502.124H474.799L476.82 500.102V496.641H476.538V491.158H474.799ZM478.841 491.158L477.102 492.897V502.124H478.841L480.565 500.384V491.158H478.841ZM236.648 448.208V455.132H240.126L243.572 451.655V448.208H236.648V448.208ZM309.092 448.208V455.132H312.57L316.016 451.655V448.208H309.092V448.208ZM479.548 455.132H486.473V448.208H479.548V455.132ZM541.18 448.208V451.655L544.628 455.132H548.105V448.208H541.18V448.208ZM567.438 448.208V451.655L570.885 455.132H574.363V448.208H567.438V448.208ZM661.095 448.208V455.132H662.253H668.583V451.655L665.136 448.208H661.095V448.208ZM707.249 448.208V455.132H710.696L714.174 451.686V448.208H707.249ZM742.218 455.132H749.142V448.208H742.218V455.132ZM751.022 448.208V451.655L754.468 455.132H757.947V448.208H751.022V448.208ZM416.504 444.731V448.208H415.94V455.132H419.982L423.429 451.655V444.731H416.504V444.731ZM335.975 444.167V448.208H335.411V455.132H339.454L342.901 451.655V447.645L339.454 444.167H335.975ZM366.338 444.167L362.891 447.645V455.132H369.816V444.167H366.338ZM370.38 444.167V447.645H370.944V455.132H377.87V447.645L374.423 444.167H370.38ZM515.174 444.167H514.014V447.645H514.578V455.132H521.503V447.645L518.056 444.167H515.174ZM724.733 444.167V455.132H731.658V447.645L728.211 444.167H724.733ZM759.075 444.167V448.208H758.511V455.132H762.553L766 451.655V447.645L762.553 444.167H759.075ZM197.637 455.132H204.593V441.285H197.637V455.132ZM474.941 441.285L471.494 444.731V455.132H478.984V448.208H478.42V441.285H474.941V441.285ZM193.627 433.203V440.126H197.637V440.69H204.593V440.126H208.604V433.203H193.627ZM219.164 433.203V441.285H218.036V433.203H211.111V455.132H218.036V447.049H219.164V455.132H226.088V433.203H219.164ZM228.595 433.203V455.132H236.084V448.208H235.52V447.049H243.572V441.285H235.52V440.126H236.084V433.203H228.595ZM236.648 433.203V440.126H243.572V436.68L240.126 433.203H236.648ZM261.809 433.203H255.48V455.132H262.404V447.049H270.457V441.285H262.404V440.126H262.968V433.203H261.809ZM263.532 433.203V440.126H270.457V436.68L267.01 433.203H263.532ZM272.964 433.203V440.126H273.528V448.208H272.964V455.132H281.048V448.208H280.484V440.126H281.048V433.203H272.964ZM283.554 433.203V451.655L287.001 455.132H291.043V448.208H290.479V436.68L287.001 433.203H283.554ZM295.085 433.203L291.607 436.68V455.132H295.085L298.532 451.655V433.203H295.085ZM301.039 433.203V455.132H308.528V448.208H307.964V447.049H316.016V441.285H307.964V440.126H308.528V433.203H301.039ZM309.092 433.203V440.126H316.016V436.68L312.57 433.203H309.092ZM327.923 433.203V455.132H334.847V440.126H335.411V433.203H327.923ZM335.975 433.203V443.603H339.454L342.901 440.126V436.68L339.454 433.203H335.975ZM351.736 433.203H348.854L345.407 436.68V451.655L348.854 455.132H352.332V440.126H352.896V433.203H351.736ZM353.46 433.203V448.208H352.896V455.132H356.939L360.385 451.655V436.68L356.939 433.203H353.46ZM362.891 433.203V440.126L366.338 443.603H370.38V440.126H369.816V433.203H362.891ZM370.944 433.203V443.603H374.423L377.87 440.126V433.203H370.944ZM380.376 433.203V440.126H380.94V448.208H380.376V455.132H388.46V448.208H387.896V440.126H388.46V433.203H380.376ZM390.967 433.203V455.132H397.891V444.167H398.455V437.244L397.891 436.68L394.413 433.203H390.967ZM399.019 433.203V451.655L402.497 455.132H405.944V433.203H399.019ZM414.78 433.203H411.898L408.451 436.68V451.655L411.898 455.132H415.376V440.126H415.94V433.203H414.78ZM416.504 433.203V440.126H423.429V436.68L419.982 433.203H416.504ZM435.336 433.203V451.655L438.782 455.132H442.824V448.208H442.26V436.68L438.782 433.203H435.336ZM446.866 433.203L443.388 436.68V455.132H446.866L450.909 451.091V444.167H450.345V433.203H446.866ZM454.95 433.203L451.473 436.68V455.132H454.95L458.397 451.655V433.203H454.95ZM460.903 433.203V440.126H461.467V448.208H460.903V455.132H468.987V448.208H468.423V440.126H468.987V433.203H460.903ZM471.494 440.126H478.42V433.203H471.494V440.126ZM478.984 433.203V440.126H479.548V441.285H478.984V447.049H483.025L486.472 443.603V433.203H478.984ZM497.063 433.203V441.285H495.935V440.126H496.499V433.203H492.457L488.979 436.649V455.132H495.935V447.049H497.063V455.132H504.019V436.649L500.541 433.203H497.063ZM506.526 433.203V455.132H513.45V440.126H514.014V433.203H506.526ZM514.578 433.203V443.603H518.056L521.503 440.126V436.68L518.056 433.203H514.578ZM523.696 433.203V455.132H530.621V440.126H531.185V433.203H523.696ZM531.749 433.203V448.208H531.185V455.132H532.345H535.228L538.674 451.655V436.68L535.228 433.203H531.749ZM544.628 433.203L541.18 436.68V444.731L543.468 447.049H549.233V448.208H548.669V455.132H552.712L556.159 451.655V443.603L553.87 441.285H548.105V440.126H548.669V433.203H544.628ZM549.233 433.203V440.126H556.159V436.68L552.712 433.203H549.233ZM574.927 433.203V440.126H575.491V448.208H574.927V455.132H578.969L582.416 451.655V433.203H574.927ZM584.296 433.203V451.655L587.742 455.132H591.785V448.208H591.221V433.203H584.296ZM592.349 433.203V455.132H595.826L599.273 451.655V433.203H592.349ZM601.779 433.203V455.132H608.705V444.167H609.269V437.244L608.705 436.68L605.226 433.203H601.779ZM609.833 433.203V451.655L613.31 455.132H616.788V444.167H617.352V437.244L616.788 436.68L613.31 433.203H609.833ZM617.916 433.203V451.655L621.395 455.132H624.842V436.68L621.395 433.203H617.916ZM627.348 433.203V455.132H634.273V440.126H634.837V433.203H627.348ZM635.401 433.203V447.049H638.879L642.326 443.603V436.68L638.879 433.203H635.401V433.203ZM657.052 433.203L653.606 436.68V451.655L657.052 455.132H660.531V440.126H661.095V433.203H657.052ZM661.659 433.203V447.645H668.583V436.68L665.136 433.203H661.659ZM671.089 433.203V451.655L674.536 455.132H678.579V448.208H678.015V433.203H671.089ZM679.143 433.203V455.132H682.62L686.068 451.655V433.203H679.143ZM688.574 433.203V440.126H689.138V448.208H688.574V455.132H696.658V448.208H696.094V440.126H696.658V433.203H688.574ZM705.494 433.203H702.611L699.165 436.68V451.686L702.611 455.132H705.494H706.654V448.208H706.09V440.126H706.654V433.203H705.494ZM707.249 433.203V440.126H714.174V436.68L710.696 433.203H707.249ZM716.68 433.203V455.132H723.605V447.645H724.169V440.69H723.605V433.203H716.68ZM724.733 433.203V443.603H728.211L731.658 440.126V433.203H724.733ZM734.165 433.203V455.132H740.494H741.653V448.208H741.09V433.203H734.165ZM751.022 433.203V440.126L754.468 443.603H758.511V440.126H757.947V433.203H751.022ZM759.075 433.203V443.603H762.553L766 440.126V433.203H759.075ZM258.786 392.477H269.173V382.092H258.786V392.477ZM285.012 382.092V392.477H290.229L295.399 387.261V382.092H285.012V382.092ZM351.565 392.477H361.952V382.092H351.565V392.477ZM391.891 382.092V392.477H393.63H403.124V387.261L397.954 382.092H391.891V382.092ZM498.253 382.092V387.261L503.423 392.477H508.64V382.092H498.253V382.092ZM575.992 382.092V387.261L581.162 392.477H586.379V382.092H575.992V382.092ZM561.844 376.876V382.092H560.998V392.477H567.061L572.232 387.261V376.876H561.844ZM472.31 376.03H470.571V381.246H471.417V392.477H481.804V381.246L476.634 376.03H472.31ZM251.877 371.707L246.706 376.876V392.477H257.94V382.092H257.094V371.707H251.877ZM194.253 359.583V392.477H204.641V369.968H205.487V359.583H194.253ZM206.333 359.583V382.092H205.487V392.477H207.226H211.55L216.719 387.261V364.799L211.55 359.583H206.333ZM229.973 359.583H225.65L220.48 364.799V387.261L225.65 392.477H230.867V369.968H231.713V359.583H229.973ZM232.559 359.583V382.092H231.713V392.477H237.776L242.946 387.261V364.799L237.776 359.583H232.559ZM246.706 369.968H257.094V359.583H246.706V369.968ZM257.94 359.583V369.968H258.786V371.707H257.94V380.353H264.003L269.172 375.184V359.583H257.94ZM272.933 359.583V392.477H284.166V382.092H283.32V380.353H295.399V371.707H283.32V369.968H284.166V359.583H272.933ZM285.012 359.583V369.968H295.399V364.799L290.229 359.583H285.012ZM299.159 359.583V392.477H309.547V376.03H310.393V365.645L309.547 364.799L304.33 359.583H299.159ZM311.239 359.583V387.261L316.456 392.477H321.625V359.583H311.239V359.583ZM339.486 359.583V392.477H348.979H350.719V382.092H349.873V359.583H339.486ZM364.771 359.583V369.968H365.617V382.092H364.771V392.477H376.898V382.092H376.052V369.968H376.898V359.583H364.771ZM385.828 359.583L380.658 364.799V387.261L385.828 392.477H391.045V369.968H391.891V359.583H385.828ZM392.737 359.583V381.246H403.124V364.799L397.954 359.583H392.737ZM406.884 359.583V387.261L412.054 392.477H418.117V382.092H417.271V359.583H406.884ZM418.964 359.583V392.477H424.181L429.351 387.261V359.583H418.964ZM442.605 359.583H438.281L433.111 364.799V387.261L438.281 392.477H443.498V369.968H444.344V359.583H442.605ZM445.19 359.583V382.092H444.344V392.477H450.407L455.577 387.261V364.799L450.407 359.583H445.19V359.583ZM459.337 359.583V392.477H469.725V369.968H470.571V359.583H459.337ZM471.417 359.583V375.184H476.634L481.804 369.968V364.799L476.634 359.583H471.417V359.583ZM509.486 359.583V369.968H510.332V382.092H509.486V392.477H515.549L520.72 387.261V359.583H509.486ZM523.539 359.583V387.261L528.708 392.477H534.772V382.092H533.926V359.583H523.539ZM535.618 359.583V392.477H540.836L546.006 387.261V359.583H535.618ZM559.26 359.583H554.935L549.766 364.799V387.261L554.935 392.477H560.152V369.968H560.998V359.583H559.26ZM561.844 359.583V369.968H572.232V364.799L567.061 359.583H561.844V359.583ZM581.162 359.583L575.992 364.799V376.876L579.423 380.353H588.071V382.092H587.225V392.477H593.288L598.459 387.261V375.184L595.028 371.707H586.379V369.968H587.225V359.583H581.162ZM588.071 359.583V369.968H598.459V364.799L593.288 359.583H588.071V359.583ZM258.927 335.101V345.486H264.096L269.313 340.317V335.101H258.927V335.101ZM351.752 335.101V340.27L356.922 345.486H362.139V335.101H351.752V335.101ZM683.247 335.101V345.486H688.464L693.633 340.27V335.101H683.247V335.101ZM285.152 329.039V345.486H295.54V334.255L290.37 329.039H285.152ZM363.831 329.039V335.101H362.985V345.486H369.048L374.219 340.27V334.255L369.048 329.039H363.831V329.039ZM404.157 329.039V335.101H403.311V345.486H409.375L414.545 340.27V334.255L409.375 329.039H404.157V329.039ZM449.701 329.039L444.531 334.255V345.486H454.918V329.039H449.701ZM455.765 329.039V334.255H456.611V345.486H466.998V334.255L461.828 329.039H455.765ZM543.703 345.486H554.137V324.717H543.703V345.486ZM194.253 312.592V345.486H204.641V322.977H205.487V312.592H194.253ZM206.333 312.592V333.362H211.55L216.719 328.193V317.808L211.55 312.592H206.333ZM232.606 312.592V324.716H230.914V322.977H231.76V312.592H225.697L220.48 317.761V345.486H230.914V333.362H232.606V345.486H243.04V317.761L237.823 312.592H232.606ZM256.295 312.592H251.97L246.8 317.808V340.317L251.97 345.486H256.295H258.033V335.101H257.187V322.977H258.033V312.592H256.295ZM258.927 312.592V322.977H269.313V317.808L264.096 312.592H258.927V312.592ZM273.073 312.592V345.486H283.46V334.255H284.306V323.823H283.46V312.592H273.073ZM285.152 312.592V328.193H290.37L295.54 322.977V312.592H285.152ZM313.399 312.592V345.486H323.787V329.039H324.633V318.654L323.787 317.808L318.569 312.592H313.399ZM325.479 312.592V340.27L330.696 345.486H335.913V329.039H336.759V318.654L335.913 317.808L330.696 312.592H325.479V312.592ZM337.605 312.592V340.27L342.822 345.486H347.992V317.808L342.822 312.592H337.605V312.592ZM351.752 312.592V322.977L356.922 328.193H362.985V322.977H362.139V312.592H351.752ZM363.831 312.592V328.193H369.048L374.219 322.977V312.592H363.831ZM392.078 312.592V345.486H402.465V322.977H403.311V312.592H392.078ZM404.157 312.592V328.193H409.375L414.545 322.977V317.808L409.375 312.592H404.157V312.592ZM427.799 312.592H423.475L418.305 317.808V340.27L423.475 345.486H428.692V322.977H429.538V312.592H427.799ZM430.384 312.592V335.101H429.538V345.486H435.601L440.771 340.27V317.808L435.601 312.592H430.384V312.592ZM444.531 312.592V322.977L449.701 328.193H455.765V322.977H454.918V312.592H444.531ZM456.611 312.592V328.193H461.828L466.998 322.977V312.592H456.611ZM484.857 312.592V340.27L490.027 345.486H496.091V335.101H495.245V317.808L490.027 312.592H484.857V312.592ZM502.154 312.592L496.937 317.808V345.486H502.154L508.217 339.424V329.039H507.371V312.592H502.154ZM514.28 312.592L509.063 317.808V345.486H514.28L519.45 340.27V312.592H514.28ZM523.209 312.592V322.977H524.055V335.101H523.209V345.486H535.336V335.101H534.49V322.977H535.336V312.592H523.209ZM537.686 312.592V322.977H543.703V323.823H554.137V322.977H560.152V312.592H537.686ZM574.581 312.592V324.716H572.889V312.592H562.501V345.486H572.889V333.362H574.581V345.486H584.969V312.592H574.581ZM612.322 312.592H602.828V345.486H613.215V333.362H625.295V324.716H613.215V322.977H614.061V312.592H612.322ZM614.908 312.592V322.977H625.295V317.808L620.125 312.592H614.908V312.592ZM629.054 312.592V322.977H629.9V335.101H629.054V345.486H641.18V335.101H640.334V322.977H641.18V312.592H629.054ZM644.941 312.592V340.27L650.111 345.486H656.174V335.101H655.328V317.808L650.111 312.592H644.941V312.592ZM662.237 312.592L657.02 317.808V345.486H662.237L667.407 340.27V312.592H662.237ZM671.168 312.592V345.486H682.401V335.101H681.555V333.362H693.633V324.716H681.555V322.977H682.401V312.592H671.168ZM683.247 312.592V322.977H693.633V317.808L688.464 312.592H683.247V312.592ZM277.162 253.321V267.168H284.118L291.012 260.214V253.321H277.162V253.321ZM330.931 267.168H344.78V253.321H330.931V267.168ZM399.739 267.168H413.589V253.321H399.739V267.168ZM418.602 253.321V260.214L425.495 267.168H432.452V253.321H418.602V253.321ZM558.413 246.366V253.321H557.285V267.168H565.369L572.264 260.214V246.366H558.413ZM434.708 245.239V253.321H433.58V267.168H441.664L448.557 260.214V252.193L441.664 245.239H434.708ZM201.022 267.168H214.934V239.474H201.022V267.168ZM390.526 239.474L383.634 246.366V267.168H398.611V253.321H397.483V239.474H390.526ZM193 223.309V237.156H201.022V238.284H214.934V237.156H222.955V223.309H193ZM242.194 223.309V239.474H239.938V223.309H226.088V267.168H239.938V251.003H242.194V267.168H256.043V223.309H242.194ZM261.057 223.309V267.168H276.034V253.321H274.905V251.003H291.012V239.474H274.905V237.156H276.034V223.309H261.057ZM277.162 223.309V237.156H291.012V230.264L284.118 223.309H277.162ZM314.824 223.309V267.168H327.483H329.803V253.321H328.675V223.309H314.824ZM364.708 223.309V239.474H362.452V237.156H363.58V223.309H355.496L348.54 230.201V267.168H362.452V251.003H364.708V267.168H378.62V230.201L371.664 223.309H364.708ZM383.634 237.156H397.483V223.309H383.634V237.156V237.156ZM398.611 223.309V237.156H399.739V239.474H398.611V251.003H406.695L413.589 244.111V223.309H398.611ZM418.602 223.309V237.156L425.495 244.111H433.58V237.156H432.452V223.309H418.602ZM434.708 223.309V244.111H441.664L448.557 237.156V223.309H434.708ZM472.371 223.309V267.168H486.22V237.156H487.348V223.309H472.371ZM488.476 223.309V253.321H487.348V267.168H489.666H495.432L502.326 260.214V230.264L495.432 223.309H488.476ZM519.998 223.309H514.233L507.339 230.264V260.214L514.233 267.168H521.188V237.156H522.316V223.309H519.998ZM523.444 223.309V253.321H522.316V267.168H530.401L537.295 260.214V230.264L530.401 223.309H523.444ZM554.966 223.309H549.202L542.308 230.264V260.214L549.202 267.168H556.157V237.156H557.285V223.309H554.966ZM558.413 223.309V237.156H572.264V230.264L565.369 223.309H558.413ZM317.332 190.666V197.558L324.226 204.513H331.182V190.666H317.332ZM470.868 190.666V197.558L477.761 204.513H484.716V190.666H470.868ZM610.679 190.666V204.513H617.634L624.528 197.558V190.666H610.679V190.666ZM271.71 182.584L264.817 189.539V204.513H278.667V182.584H271.71ZM279.795 182.584V189.539H280.923V204.513H294.772V189.539L287.879 182.584H279.795ZM646.838 182.584H644.519V189.539H645.647V204.513H659.497V189.539L652.603 182.584H646.838ZM207.539 160.655H194.88V204.513H208.73V188.348H224.835V176.82H208.73V174.502H209.858V160.655H207.539ZM210.986 160.655V174.502H224.835V167.609L217.942 160.655H210.986ZM242.508 160.655H236.741L229.849 167.609V197.558L236.741 204.513H243.698V174.502H244.826V160.655H242.508ZM245.954 160.655V190.666H244.826V204.513H252.911L259.803 197.558V167.609L252.911 160.655H245.954ZM264.817 160.655V174.502L271.71 181.456H279.795V174.502H278.667V160.655H264.817ZM280.923 160.655V181.456H287.879L294.772 174.502V160.655H280.923ZM332.31 160.655V174.502H333.438V190.666H332.31V204.513H340.394L347.287 197.558V160.655H332.31ZM351.046 160.655V197.558L357.94 204.513H366.025V190.666H364.897V160.655H351.046ZM367.153 160.655V204.513H374.109L381.002 197.558V160.655H367.153ZM386.015 160.655V204.513H399.865V182.584H400.993V168.737L399.865 167.609L392.909 160.655H386.015ZM402.122 160.655V197.558L409.077 204.513H416.033V182.584H417.161V168.737L416.033 167.609L409.077 160.655H402.122ZM418.289 160.655V197.558L425.246 204.513H432.139V167.609L425.246 160.655H418.289ZM437.152 160.655V204.513H451.002V174.502H452.13V160.655H437.152ZM453.258 160.655V188.348H460.214L467.107 181.456V167.609L460.214 160.655H453.258ZM477.761 160.655L470.868 167.609V183.712L475.442 188.348H486.972V190.666H485.844V204.513H493.929L500.823 197.558V181.456L496.248 176.82H484.716V174.502H485.844V160.655H477.761ZM486.972 160.655V174.502H500.823V167.609L493.929 160.655H486.972ZM537.295 160.655H531.529L524.635 167.609V197.558L531.529 204.513H538.485V174.502H539.614V160.655H537.295ZM540.742 160.655V190.666H539.614V204.513H547.697L554.59 197.558V167.609L547.697 160.655H540.742ZM559.604 160.655V197.558L566.497 204.513H574.582V190.666H573.454V167.609L566.497 160.655H559.604ZM582.666 160.655L575.71 167.609V204.513H582.666L589.559 197.558V160.655H582.666ZM594.573 160.655V204.513H609.551V190.666H608.423V188.348H624.528V176.82H608.423V174.502H609.551V160.655H594.573ZM610.679 160.655V174.502H624.528V167.609L617.634 160.655H610.679ZM629.541 160.655V204.513H643.391V174.502H644.519V160.655H629.541ZM645.647 160.655V181.456H652.603L659.497 174.502V167.609L652.603 160.655H645.647ZM280.923 128.012V141.858H287.879L294.772 134.904V128.012H280.923V128.012ZM333.563 128.012V141.858H335.881H348.541V134.904L341.647 128.012H333.563V128.012ZM425.873 128.012V141.858H432.766L439.722 134.966V128.012H425.873ZM460.841 119.929V141.858H474.69V126.884L467.797 119.929H460.841ZM514.609 119.929V128.012H513.481V141.858H521.566L528.459 134.904V126.884L521.566 119.929H514.609ZM550.768 119.929H548.45V126.884H549.578V141.858H563.427V126.884L556.534 119.929H550.768ZM202.901 141.858H216.814V114.166H202.901V141.858ZM194.88 98V111.847H202.901V112.974H216.814V111.847H224.835V98H194.88ZM245.954 98V114.166H243.698V98H229.849V141.858H243.698V125.693H245.954V141.858H259.803V98H245.954ZM264.817 98V141.858H279.795V128.012H278.667V125.693H294.772V114.166H278.667V111.847H279.795V98H264.817ZM280.923 98V111.847H294.772V104.955L287.879 98H280.923ZM325.479 98L318.586 104.955V134.904L325.479 141.858H332.435V111.847H333.563V98H325.479ZM334.691 98V126.884H348.541V104.955L341.647 98H334.691ZM353.555 98V134.904L360.448 141.858H368.531V128.012H367.403V98H353.555ZM369.659 98V141.858H376.616L383.51 134.904V98H369.659ZM388.523 98V111.847H389.651V128.012H388.523V141.858H404.691V128.012H403.563V111.847H404.691V98H388.523ZM416.598 98L409.704 104.955V134.966L416.598 141.858H422.363H424.682V128.012H423.554V111.847H424.682V98H416.598ZM425.873 98V111.847H439.722V104.955L432.766 98H425.873ZM444.735 98V141.858H458.585V126.884H459.713V112.974H458.585V98H444.735ZM460.841 98V118.801H467.797L474.69 111.847V98H460.841ZM498.503 98V141.858H512.353V111.847H513.481V98H498.503ZM514.609 98V118.801H521.566L528.459 111.847V104.955L521.566 98H514.609ZM533.472 98V141.858H547.322V111.847H548.45V98H533.472ZM549.578 98V118.801H556.534L563.427 111.847V104.955L556.534 98H549.578V98ZM574.707 98L567.813 104.955V134.904L574.707 141.858H581.663V111.847H582.791V98H574.707ZM583.919 98V128.012H582.791V141.858H590.876L597.769 134.904V104.955L590.876 98H583.919ZM602.782 98V134.904L609.675 141.858H617.76V128.012H616.632V104.955L609.675 98H602.782ZM625.844 98L618.888 104.955V141.858H625.844L633.928 133.776V119.929H632.8V98H625.844ZM642.012 98L635.056 104.955V141.858H642.012L648.906 134.904V98H642.012ZM653.919 98V141.858H667.769V119.929H668.897V106.082L667.769 104.955L660.813 98H653.919ZM670.025 98V134.904L676.98 141.858H683.874V98H670.025Z" fill="white"/>
</g>
<defs>
<clipPath id="clip0">
<rect width="573" height="405" fill="white" transform="translate(193 98)"/>
</clipPath>
</defs>
</svg>
