<svg width="431" height="250" viewBox="0 0 431 250" fill="none" xmlns="http://www.w3.org/2000/svg">
<circle cx="214.265" cy="124.769" r="57.6282" fill="#636CF7"/>
<path fill-rule="evenodd" clip-rule="evenodd" d="M196.901 98.8496C200.237 98.8496 202.941 101.554 202.941 104.889V118.228H220.053V130.307H202.941V144.902C202.941 148.237 200.237 150.941 196.901 150.941C193.565 150.941 190.861 148.237 190.861 144.902V104.889C190.861 101.554 193.565 98.8496 196.901 98.8496ZM237.92 104.889C237.92 101.554 235.216 98.8496 231.881 98.8496C228.545 98.8496 225.841 101.554 225.841 104.889V144.902C225.841 148.237 228.545 150.941 231.881 150.941C235.216 150.941 237.92 148.237 237.92 144.902V104.889Z" fill="white"/>
<path d="M143.682 49.3534L142.508 50.021L141.549 48.2988L139.478 49.4356L140.455 51.1892L139.268 51.8648L140.104 53.312C139.512 54.0465 139.401 55.0973 139.905 55.9636L140.373 56.7697C138.206 58.0175 136.536 59.508 135.603 61.3607C134.704 63.1472 134.533 65.1798 135.133 67.4844C133.49 68.9272 132.453 71.0432 132.453 73.4014C132.453 74.5211 132.687 75.5861 133.108 76.5505H158.433C158.868 76.5505 159.22 76.198 159.22 75.7632C159.22 75.3284 158.868 74.9759 158.433 74.9759H148.041C148.144 74.4672 148.198 73.9406 148.198 73.4014C148.198 72.1918 147.926 71.0458 147.438 70.0218L156.918 64.6793L156.137 63.3125L146.627 68.6718L147.408 70.0385L142.28 72.9285L141.498 71.5617L146.622 68.6744C145.185 66.7642 142.9 65.5288 140.326 65.5288C138.946 65.5288 137.65 65.8836 136.522 66.5068C136.175 64.766 136.381 63.3162 137.009 62.069C137.756 60.5871 139.147 59.2913 141.165 58.1308L143.465 62.0861C144.121 63.2136 145.57 63.6019 146.701 62.9532L147.227 62.6522L147.706 63.579L149.811 62.5065L149.278 61.4763L149.946 61.0934C151.078 60.4448 151.464 59.0049 150.808 57.8773L147.247 51.7549C146.675 50.77 145.497 50.3492 144.454 50.6906L143.682 49.3534Z" fill="#ABA1FA"/>
<path fill-rule="evenodd" clip-rule="evenodd" d="M85.4646 119.846C85.4646 116.802 87.9318 114.335 90.9754 114.335C94.0189 114.335 96.4862 116.802 96.4862 119.846V123.569C96.2153 122.967 95.924 122.37 95.6153 121.802C95.0194 120.704 94.3387 119.673 93.5883 118.906C92.8509 118.152 91.9427 117.548 90.8988 117.548C89.855 117.548 88.9468 118.152 88.2094 118.906C87.459 119.673 86.7782 120.704 86.1824 121.802C85.931 122.265 85.6912 122.746 85.4646 123.234V119.846ZM98.0607 116.697C98.0607 112.784 94.8885 109.611 90.9754 109.611C87.0623 109.611 83.89 112.784 83.89 116.697V127.247C83.6721 127.039 83.4521 126.852 83.2327 126.688C82.7817 126.351 82.3038 126.089 81.8259 125.964C81.3438 125.838 80.8109 125.842 80.3341 126.117L77.7992 127.581C77.3225 127.856 77.053 128.316 76.9208 128.796C76.7899 129.272 76.7777 129.817 76.8444 130.376C76.9781 131.498 77.4468 132.824 78.1914 134.114C78.936 135.403 79.8503 136.473 80.7546 137.149C81.2055 137.486 81.6835 137.748 82.1613 137.873C82.6435 137.999 83.1764 137.995 83.6532 137.72L83.6591 137.717L86.188 136.256C86.6648 135.981 86.9343 135.521 87.0664 135.041C87.115 134.864 87.1472 134.679 87.1651 134.486C87.1898 134.488 87.2148 134.49 87.2401 134.49H94.5575C94.5828 134.49 94.6079 134.488 94.6326 134.486C94.6506 134.679 94.6828 134.864 94.7313 135.041C94.8634 135.521 95.1329 135.981 95.6097 136.256L98.1445 137.72C98.6213 137.995 99.1544 137.998 99.6365 137.872C100.114 137.748 100.592 137.486 101.043 137.148C101.948 136.472 102.862 135.403 103.606 134.113C104.351 132.823 104.82 131.497 104.954 130.376C105.02 129.816 105.008 129.272 104.877 128.795C104.745 128.315 104.475 127.855 103.999 127.58C103.987 127.573 103.975 127.566 103.963 127.56L101.464 126.117C100.987 125.842 100.454 125.838 99.9718 125.964C99.4939 126.089 99.016 126.35 98.565 126.688C98.3969 126.814 98.2284 126.953 98.0607 127.105V116.697ZM80.6979 128.152C80.5531 128.043 80.4056 127.943 80.2561 127.852L81.0658 127.385C81.114 127.357 81.2245 127.32 81.4565 127.38C81.6927 127.442 81.9995 127.593 82.356 127.86C83.0668 128.392 83.8586 129.295 84.5285 130.455C85.1983 131.615 85.5846 132.753 85.6897 133.634C85.7425 134.076 85.7201 134.417 85.6553 134.653C85.5918 134.884 85.5045 134.961 85.4563 134.989L84.6466 135.456C84.6428 135.282 84.6295 135.104 84.6081 134.924C84.4743 133.803 84.0057 132.477 83.2611 131.187C82.5164 129.897 81.6021 128.828 80.6979 128.152ZM101.541 127.852L100.732 127.384C100.684 127.357 100.573 127.32 100.341 127.38C100.105 127.442 99.7982 127.593 99.4417 127.86C98.7309 128.391 97.9391 129.295 97.2693 130.455C96.5994 131.615 96.2131 132.752 96.108 133.634C96.0553 134.076 96.0776 134.417 96.1424 134.653C96.2059 134.884 96.2933 134.961 96.3414 134.989L97.1513 135.456C97.1551 135.281 97.1683 135.103 97.1898 134.924C97.3235 133.802 97.7922 132.476 98.5368 131.186C99.2814 129.896 100.196 128.827 101.1 128.151C101.245 128.043 101.392 127.942 101.541 127.852ZM90.9754 112.76C93.075 112.76 94.9613 113.674 96.2587 115.125C95.582 112.847 93.4727 111.186 90.9754 111.186C88.4781 111.186 86.3688 112.847 85.6921 115.125C86.9895 113.674 88.8758 112.76 90.9754 112.76ZM91.6306 127.117C91.6306 127.521 91.303 127.848 90.8989 127.848C90.4947 127.848 90.1671 127.521 90.1671 127.117C90.1671 126.712 90.4947 126.385 90.8989 126.385C91.303 126.385 91.6306 126.712 91.6306 127.117ZM91.6306 130.044C91.6306 130.448 91.303 130.775 90.8989 130.775C90.4947 130.775 90.1671 130.448 90.1671 130.044C90.1671 129.64 90.4947 129.312 90.8989 129.312C91.303 129.312 91.6306 129.64 91.6306 130.044ZM92.3624 129.312C92.7665 129.312 93.0941 128.984 93.0941 128.58C93.0941 128.176 92.7665 127.848 92.3624 127.848C91.9582 127.848 91.6306 128.176 91.6306 128.58C91.6306 128.984 91.9582 129.312 92.3624 129.312ZM90.1671 128.58C90.1671 128.984 89.8395 129.312 89.4353 129.312C89.0312 129.312 88.7036 128.984 88.7036 128.58C88.7036 128.176 89.0312 127.848 89.4353 127.848C89.8395 127.848 90.1671 128.176 90.1671 128.58ZM90.8988 119.744C90.3398 119.744 89.8779 120.026 89.5288 120.352C89.1764 120.682 88.865 121.122 88.5889 121.602C88.3724 121.979 88.5024 122.461 88.8795 122.677C89.2565 122.894 89.7377 122.764 89.9542 122.387C90.1913 121.974 90.4116 121.682 90.6036 121.503C90.7988 121.321 90.894 121.318 90.8988 121.318C90.9036 121.318 90.9988 121.321 91.1941 121.503C91.386 121.682 91.6063 121.974 91.8434 122.387C92.06 122.764 92.5412 122.894 92.9182 122.677C93.2952 122.461 93.4252 121.979 93.2087 121.602C92.9326 121.122 92.6212 120.682 92.2688 120.352C91.9197 120.026 91.4579 119.744 90.8988 119.744ZM94.5576 128.58C94.5576 130.601 92.9195 132.239 90.8989 132.239C88.8782 132.239 87.2402 130.601 87.2402 128.58C87.2402 126.559 88.8782 124.921 90.8989 124.921C92.9195 124.921 94.5576 126.559 94.5576 128.58Z" fill="#ABA1FA"/>
<path fill-rule="evenodd" clip-rule="evenodd" d="M90.9857 54.9036C90.9794 55.0331 90.9762 55.1634 90.9762 55.2945C90.9762 55.4212 90.9792 55.5471 90.9851 55.6723L90.9806 61.1941C90.9797 62.2939 91.4231 62.7225 91.7688 62.9246C91.8048 62.9456 91.841 62.9649 91.8772 62.9825C91.8782 62.8999 91.8788 62.8194 91.8789 62.7408C91.879 62.5741 91.8772 62.3895 91.8752 62.1906C91.8669 61.3485 91.856 60.2482 91.9805 59.145C93.3291 61.5454 95.8996 63.1671 98.8488 63.1671C99.8817 63.1671 100.868 62.9682 101.772 62.6066C103.553 68.1145 104.193 74.5953 102.875 75.6896C100.515 77.6482 95.7986 76.468 93.4419 74.1134C91.5481 72.2212 91.7062 67.8151 91.8269 64.6324C91.5764 64.5678 91.2774 64.4611 90.9742 64.2839C90.6941 64.1202 90.4251 63.9043 90.1914 63.6271C89.9572 63.9039 89.6878 64.1194 89.4075 64.2826C89.1047 64.4589 88.8062 64.565 88.556 64.6293C88.6706 67.7928 88.8095 72.1423 86.9316 74.0125C84.5826 76.3518 79.8875 77.5185 77.542 75.5656C75.1965 73.6127 79.124 54.496 84.6005 54.5005C88.5982 54.5038 88.54 59.5558 88.5101 62.15C88.5078 62.3481 88.5057 62.5318 88.5055 62.6979C88.5055 62.789 88.5061 62.8829 88.5073 62.9794C88.5432 62.962 88.5793 62.9429 88.6151 62.922C88.9611 62.7205 89.4052 62.2926 89.4061 61.1928L89.4063 60.8971C89.4072 59.3902 89.4072 56.3794 89.407 53.6686L89.4061 48.2097C89.4061 48.2097 89.4061 48.2093 90.1934 48.2091C90.9807 48.2089 90.9807 48.209 90.9807 48.2091L90.981 49.7844L90.9899 49.7844L90.9899 49.7879L90.9857 54.9036ZM101.02 58.5787C100.606 58.8523 100.139 59.0501 99.6361 59.1521V60.0181C100.071 60.0181 100.423 60.3706 100.423 60.8054C100.423 61.2402 100.071 61.5926 99.6361 61.5926H98.0616C97.6268 61.5926 97.2743 61.2402 97.2743 60.8054C97.2743 60.3706 97.6268 60.0181 98.0616 60.0181V59.1521C97.559 59.0501 97.0912 58.8523 96.678 58.5787L96.0258 59.2309C96.3333 59.5383 96.3333 60.0368 96.0258 60.3443C95.7184 60.6517 95.2199 60.6517 94.9125 60.3443L93.7991 59.2309C93.4917 58.9235 93.4917 58.425 93.7991 58.1175C94.1066 57.8101 94.605 57.8101 94.9125 58.1175L95.5647 57.4653C95.291 57.0522 95.0933 56.5844 94.9913 56.0818H94.1252C94.1252 56.5166 93.7728 56.8691 93.338 56.8691C92.9032 56.8691 92.5507 56.5166 92.5507 56.0818V54.5073C92.5507 54.0725 92.9032 53.72 93.338 53.72C93.7728 53.72 94.1252 54.0725 94.1252 54.5073H94.9913C95.0933 54.0047 95.291 53.5369 95.5647 53.1237L94.9125 52.4716C94.6051 52.7791 94.1066 52.7791 93.7992 52.4716C93.4917 52.1642 93.4917 51.6657 93.7992 51.3583L94.3485 50.809C94.3509 50.8065 94.3534 50.804 94.3558 50.8015C94.3583 50.7991 94.3608 50.7966 94.3633 50.7942L94.9125 50.2449C95.22 49.9375 95.7185 49.9375 96.0259 50.2449C96.3333 50.5524 96.3333 51.0508 96.0259 51.3583L96.678 52.0104C97.0912 51.7367 97.559 51.539 98.0616 51.437V50.571C97.6268 50.571 97.2743 50.2185 97.2743 49.7837C97.2743 49.3489 97.6268 48.9964 98.0616 48.9964L99.6361 48.9964C100.071 48.9964 100.423 49.3489 100.423 49.7837C100.423 50.2185 100.071 50.571 99.6361 50.571V51.437C100.139 51.539 100.606 51.7367 101.02 52.0104L101.672 51.3582C101.364 51.0507 101.364 50.5523 101.672 50.2448C101.979 49.9374 102.478 49.9374 102.785 50.2448L103.899 51.3582C104.206 51.6656 104.206 52.1641 103.899 52.4715C103.591 52.779 103.093 52.779 102.785 52.4715L102.133 53.1237C102.407 53.5369 102.604 54.0047 102.706 54.5073H103.572C103.572 54.0725 103.925 53.72 104.36 53.72C104.794 53.72 105.147 54.0725 105.147 54.5073V56.0818C105.147 56.5166 104.794 56.8691 104.36 56.8691C103.925 56.8691 103.572 56.5166 103.572 56.0818H102.706C102.604 56.5844 102.407 57.0522 102.133 57.4653L102.785 58.1175C103.093 57.8101 103.591 57.8101 103.899 58.1175C104.206 58.425 104.206 58.9235 103.899 59.2309L102.785 60.3443C102.478 60.6517 101.979 60.6517 101.672 60.3443C101.364 60.0368 101.364 59.5383 101.672 59.2309L101.02 58.5787Z" fill="#ABA1FA"/>
<path fill-rule="evenodd" clip-rule="evenodd" d="M339.708 57.448C340.004 57.5817 340.333 57.6561 340.679 57.6561H343.828V52.9326H345.402V51.358L342.772 51.358C342.123 49.5234 340.374 48.209 338.317 48.209C335.708 48.209 333.593 50.3238 333.593 52.9326C333.593 55.5413 335.708 57.6561 338.317 57.6561C338.801 57.6561 339.268 57.5833 339.708 57.448ZM338.317 49.7835C337.151 49.7835 336.134 50.4168 335.589 51.358H341.045C340.5 50.4168 339.483 49.7835 338.317 49.7835ZM340.679 56.0816C340.244 56.0816 339.892 55.7291 339.892 55.2943V52.9326H342.253V56.0816H340.679Z" fill="#ABA1FA"/>
<path d="M328.083 59.2306C326.343 59.2306 324.934 60.6405 324.934 62.3797V67.1033C324.934 68.8424 326.343 70.2523 328.083 70.2523H328.125C328.327 72.103 329.243 73.6215 330.61 74.6996C332.15 75.9147 334.233 76.5504 336.474 76.5504C340.058 76.5504 343.371 75.1074 344.483 71.8217C345.168 71.8797 345.836 71.4807 346.089 70.8052C346.272 70.3185 346.198 69.7985 345.935 69.3937L348.918 67.7703L348.165 66.3873L344.342 68.4682L340.402 66.9909L340.401 66.9905C340.095 66.8749 339.892 66.5815 339.892 66.2538V63.9542C339.892 63.0846 339.187 62.3797 338.317 62.3797C337.447 62.3797 336.743 63.0846 336.743 63.9542V67.8905C336.743 68.5468 337.15 69.1343 337.764 69.3648L342.989 71.324C342.172 73.7067 339.712 74.9759 336.474 74.9759C334.516 74.9759 332.796 74.4191 331.585 73.4634C330.552 72.6487 329.865 71.53 329.697 70.1425C331.035 69.7791 332.019 68.5561 332.019 67.1033V62.3797C332.019 60.6405 330.609 59.2306 328.87 59.2306H330.051C330.486 59.2306 330.838 58.8782 330.838 58.4434C330.838 58.0086 330.486 57.6561 330.051 57.6561H326.902C326.467 57.6561 326.114 58.0086 326.114 58.4434C326.114 58.8782 326.467 59.2306 326.902 59.2306H328.083Z" fill="#ABA1FA"/>
<path d="M353.155 63.5842L351.82 62.7497L349.099 67.1033H353.275V65.5287H351.94L353.155 63.5842Z" fill="#ABA1FA"/>
<path d="M334.381 59.2306C333.511 59.2306 332.806 59.9356 332.806 60.8052V68.2841C332.806 70.6755 334.745 72.6141 337.136 72.6141C338.096 72.6141 338.983 72.3016 339.701 71.7728L337.211 70.8391C335.982 70.3782 335.168 69.2032 335.168 67.8905V63.9542C335.168 62.215 336.578 60.8052 338.317 60.8052C340.056 60.8052 341.466 62.215 341.466 63.9542V61.5924C341.466 60.288 340.409 59.2306 339.104 59.2306H334.381Z" fill="#ABA1FA"/>
<path fill-rule="evenodd" clip-rule="evenodd" d="M98.173 179.576C99.8426 179.576 101.196 178.222 101.196 176.552C101.196 174.883 99.8426 173.529 98.173 173.529C96.5033 173.529 95.1498 174.883 95.1498 176.552C95.1498 178.222 96.5033 179.576 98.173 179.576ZM101.04 180.31C101.487 180.235 101.936 180.423 102.198 180.792L104.932 184.656C105.24 185.092 105.218 185.68 104.878 186.091L102.144 189.397C101.728 189.9 100.984 189.97 100.481 189.555C99.9788 189.139 99.9083 188.395 100.324 187.892L101.247 186.775C101.22 186.642 101.176 186.509 101.112 186.382C101.052 186.262 100.979 186.153 100.895 186.057C101.66 185.971 102.254 185.323 102.254 184.536C102.254 183.69 101.569 183.005 100.724 183.005C99.8785 183.005 99.1933 183.69 99.1933 184.536C99.1933 184.843 99.2836 185.128 99.4391 185.368L98.0265 184.892L98.0264 183.946C98.0264 183.512 97.6739 183.159 97.2391 183.159C96.8043 183.159 96.4518 183.512 96.4519 183.947L96.4521 185.458C96.4521 185.796 96.6679 186.096 96.9882 186.204L97.5607 186.397L95.9383 187.208C95.7279 187.313 95.5513 187.459 95.4133 187.632L96.8316 189.423C97.2363 189.935 97.1499 190.677 96.6385 191.082C96.1272 191.487 95.3845 191.401 94.9797 190.889L92.1456 187.309C91.8611 186.949 91.8103 186.458 92.0153 186.048L93.8766 182.325C94.1582 181.762 94.6923 181.367 95.3134 181.264L101.04 180.31Z" fill="#ABA1FA"/>
<path fill-rule="evenodd" clip-rule="evenodd" d="M94.1945 191.742C94.4952 192.385 95.1479 192.831 95.9047 192.831C96.9467 192.831 97.7915 191.986 97.7916 190.944L97.7942 190.944C98.4549 190.944 99.0716 190.756 99.5935 190.43C99.9267 190.964 100.519 191.319 101.195 191.319C101.671 191.319 102.105 191.143 102.437 190.852C103.038 193.272 103.628 195.036 103.993 196.035C104.169 196.519 103.862 197.06 103.35 197.121C100.22 197.498 96.5967 197.507 93.4748 197.114C92.9909 197.054 92.6928 196.562 92.8444 196.099C93.1755 195.086 93.7292 193.358 94.1945 191.742Z" fill="#ABA1FA"/>
<path fill-rule="evenodd" clip-rule="evenodd" d="M94.125 198.733V200.691C94.125 201.283 94.5636 201.783 95.1507 201.861C95.7377 201.939 96.2916 201.57 96.446 200.998L96.9766 199.033C96.0647 198.982 95.1288 198.883 94.125 198.733ZM99.9316 199.027L100.464 200.998C100.618 201.57 101.172 201.939 101.759 201.861C102.346 201.783 102.785 201.283 102.785 200.691V198.723C101.78 198.871 100.844 198.973 99.9316 199.027Z" fill="#ABA1FA"/>
<path fill-rule="evenodd" clip-rule="evenodd" d="M90.0724 191.755C90.7063 191.601 91.0959 190.963 90.9426 190.329C90.7892 189.695 90.1511 189.306 89.5171 189.459C87.2651 190.004 85.5661 190.249 83.8946 190.243C82.2197 190.236 80.5165 189.978 78.2508 189.456C77.6153 189.31 76.9814 189.706 76.8351 190.342C76.6887 190.978 77.0853 191.611 77.7208 191.758C79.0633 192.067 80.2581 192.297 81.3951 192.439V195.851C81.3881 195.884 81.3824 195.917 81.3782 195.951L80.8008 200.544C80.7212 201.177 81.159 201.759 81.7894 201.858C82.4197 201.957 83.0147 201.537 83.1329 200.91L83.9931 196.348L84.8533 200.91C84.9716 201.537 85.5665 201.957 86.1969 201.858C86.8273 201.759 87.265 201.177 87.1854 200.544L86.6081 195.951C86.6038 195.917 86.5981 195.884 86.5911 195.851V192.427C87.669 192.286 88.8042 192.061 90.0724 191.755Z" fill="#ABA1FA"/>
<path d="M86.2529 186.915C86.2529 188.219 85.1955 189.276 83.8911 189.276C82.5867 189.276 81.5293 188.219 81.5293 186.915C81.5293 185.61 82.5867 184.553 83.8911 184.553C85.1955 184.553 86.2529 185.61 86.2529 186.915Z" fill="#ABA1FA"/>
<path fill-rule="evenodd" clip-rule="evenodd" d="M342.85 188.969C343.646 188.851 344.422 189.285 344.738 190.026C345.118 190.915 345.048 191.881 344.806 192.684C344.556 193.516 344.078 194.334 343.413 195.043C342.058 196.489 339.904 197.51 337.115 197.371C336.444 197.337 335.849 196.926 335.58 196.31L334.192 193.129L332.57 193.66C331.64 193.965 330.64 193.457 330.335 192.528C330.031 191.598 330.538 190.598 331.468 190.293L334.621 189.262C335.489 188.978 336.43 189.4 336.795 190.237L338.349 193.797C339.326 193.674 340.044 193.309 340.539 192.893L340.497 192.899C339.643 193.026 338.822 192.518 338.554 191.696L337.415 188.205C337.112 187.275 337.62 186.275 338.55 185.972C339.48 185.669 340.48 186.177 340.783 187.107L341.458 189.176L342.85 188.969Z" fill="#ABA1FA"/>
<path d="M349.339 185.732C349.339 187.688 347.753 189.275 345.796 189.275C343.839 189.275 342.253 187.688 342.253 185.732C342.253 183.775 343.839 182.189 345.796 182.189C347.753 182.189 349.339 183.775 349.339 185.732Z" fill="#ABA1FA"/>
<path fill-rule="evenodd" clip-rule="evenodd" d="M333.786 199.118C336.814 200.529 340.279 200.679 343.418 199.535C346.556 198.391 349.112 196.047 350.523 193.018C351.933 189.99 352.083 186.525 350.939 183.387C349.795 180.248 347.451 177.692 344.423 176.282C341.394 174.871 337.93 174.721 334.791 175.865C331.652 177.009 329.097 179.353 327.686 182.382C326.275 185.41 326.126 188.875 327.27 192.013C328.414 195.152 330.758 197.708 333.786 199.118L333.121 200.546C329.714 198.959 327.077 196.084 325.79 192.552C324.503 189.021 324.672 185.124 326.259 181.717C327.846 178.31 330.721 175.673 334.252 174.386C337.783 173.099 341.681 173.268 345.088 174.854C348.494 176.441 351.131 179.316 352.418 182.848C353.705 186.379 353.537 190.276 351.95 193.683C350.363 197.09 347.488 199.727 343.957 201.014C340.426 202.301 336.528 202.132 333.121 200.546L333.786 199.118Z" fill="#ABA1FA"/>
<path fill-rule="evenodd" clip-rule="evenodd" d="M332.795 182.852C332.774 183.512 332.483 184.109 331.907 184.582L331.319 185.066C331.112 185.236 331.053 185.387 331.039 185.483C331.023 185.584 331.046 185.696 331.122 185.807C331.272 186.027 331.661 186.26 332.256 186.102C332.65 185.996 333.171 185.88 333.646 186.137C333.88 186.265 334.034 186.445 334.139 186.594C334.232 186.725 334.32 186.882 334.397 187.019C334.403 187.028 334.408 187.037 334.413 187.046L334.43 187.077L335.718 189.932L334.283 190.58L333.024 187.789C332.967 187.689 332.928 187.62 332.896 187.569C332.842 187.578 332.766 187.595 332.661 187.623C331.485 187.936 330.384 187.519 329.821 186.695C329.541 186.284 329.402 185.775 329.482 185.248C329.562 184.716 329.854 184.232 330.318 183.851L330.907 183.367C331.154 183.163 331.216 182.982 331.222 182.801C331.229 182.575 331.147 182.263 330.932 181.846C330.72 181.436 330.418 180.995 330.07 180.523C329.947 180.355 329.813 180.177 329.676 179.997C329.45 179.696 329.217 179.387 329.014 179.101L330.3 178.192C330.493 178.465 330.694 178.732 330.907 179.013C331.046 179.197 331.189 179.387 331.338 179.589C331.696 180.074 332.06 180.598 332.331 181.124C332.598 181.642 332.815 182.236 332.795 182.852Z" fill="#ABA1FA"/>
<path d="M154.602 198.866C157.917 196.272 160.047 192.235 160.047 187.7C160.047 181.515 156.084 176.255 150.559 174.322L151.079 172.835C157.218 174.984 161.621 180.828 161.621 187.7C161.621 192.749 159.245 197.243 155.55 200.124L154.602 198.866Z" fill="#ABA1FA"/>
<path d="M149.392 201.431C148.268 201.718 147.09 201.871 145.876 201.871C144.689 201.871 143.536 201.725 142.434 201.45L142.06 202.98C143.282 203.284 144.56 203.446 145.876 203.446C147.219 203.446 148.522 203.277 149.766 202.961L149.392 201.431Z" fill="#ABA1FA"/>
<path d="M131.705 187.7C131.705 192.258 133.857 196.313 137.199 198.905L136.252 200.163C132.528 197.283 130.131 192.772 130.131 187.7C130.131 180.828 134.534 174.984 140.673 172.835L141.194 174.322C135.668 176.255 131.705 181.515 131.705 187.7Z" fill="#ABA1FA"/>
<path d="M149.419 175.498C149.419 177.454 147.833 179.04 145.876 179.04C143.92 179.04 142.333 177.454 142.333 175.498C142.333 173.544 143.916 171.959 145.869 171.955H145.883C147.837 171.959 149.419 173.544 149.419 175.498Z" fill="#ABA1FA"/>
<path fill-rule="evenodd" clip-rule="evenodd" d="M139.578 186.126C140.152 186.126 140.689 185.972 141.153 185.704V189.263L141.152 189.275V191.637C141.152 191.635 141.152 191.634 141.152 191.634C141.152 191.634 141.152 191.634 141.152 191.635L141.151 191.644C141.145 191.68 141.125 191.817 141.053 192.092C140.97 192.405 140.845 192.801 140.686 193.262C140.657 193.343 140.628 193.426 140.598 193.51C139.53 194.014 138.791 195.101 138.791 196.36C138.791 196.771 138.869 197.164 139.013 197.524C138.749 198.151 138.5 198.728 138.294 199.2C138.13 199.578 137.993 199.888 137.897 200.104C137.85 200.212 137.812 200.296 137.787 200.352L137.748 200.438C137.416 201.177 137.699 202.048 138.403 202.45C139.106 202.853 140.001 202.655 140.469 201.994L142.239 199.495C143.838 199.344 145.089 197.998 145.089 196.36C145.089 196.099 145.057 195.845 144.997 195.602L145.876 194.361L151.283 201.994C151.752 202.655 152.646 202.853 153.35 202.45C154.053 202.048 154.336 201.177 154.004 200.438L153.965 200.352C153.94 200.296 153.903 200.212 153.855 200.104C153.759 199.888 153.622 199.578 153.458 199.2C153.129 198.444 152.691 197.423 152.254 196.354C151.815 195.283 151.385 194.181 151.067 193.262C150.907 192.801 150.782 192.405 150.699 192.092C150.627 191.817 150.607 191.68 150.601 191.644C150.601 191.64 150.601 191.637 150.6 191.636C150.6 191.633 150.6 191.633 150.6 191.637L150.6 189.641C151.541 189.096 152.174 188.079 152.174 186.913C152.174 185.973 151.762 185.128 151.108 184.551H155.323C156.193 184.551 156.898 183.846 156.898 182.977C156.898 182.107 156.193 181.402 155.323 181.402H142.306C141.761 180.461 140.744 179.828 139.578 179.828C138.412 179.828 137.395 180.461 136.85 181.402H136.429C135.559 181.402 134.854 182.107 134.854 182.977C134.854 183.846 135.559 184.551 136.429 184.551H136.85C137.395 185.493 138.412 186.126 139.578 186.126ZM141.153 182.977C141.153 183.846 140.448 184.551 139.578 184.551C138.708 184.551 138.003 183.846 138.003 182.977C138.003 182.107 138.708 181.402 139.578 181.402C140.448 181.402 141.153 182.107 141.153 182.977ZM150.6 186.913C150.6 187.783 149.895 188.488 149.025 188.488C148.156 188.488 147.451 187.783 147.451 186.913C147.451 186.043 148.156 185.339 149.025 185.339C149.895 185.339 150.6 186.043 150.6 186.913ZM143.514 196.36C143.514 197.23 142.809 197.935 141.94 197.935C141.07 197.935 140.365 197.23 140.365 196.36C140.365 195.491 141.07 194.786 141.94 194.786C142.809 194.786 143.514 195.491 143.514 196.36Z" fill="#ABA1FA"/>
<path d="M337.531 114.335C339.27 114.335 340.68 112.925 340.68 111.186C340.68 109.447 339.27 108.037 337.531 108.037C335.791 108.037 334.381 109.447 334.381 111.186C334.381 112.925 335.791 114.335 337.531 114.335Z" fill="#ABA1FA"/>
<path d="M340.724 116.72C340.455 116.705 340.178 116.697 339.892 116.697H333.594C332.903 116.697 332.257 116.757 331.694 116.922C331.133 117.087 330.516 117.4 330.099 118.005C329.664 118.636 329.619 119.331 329.712 119.898C329.802 120.439 330.028 120.95 330.271 121.392C330.757 122.276 331.529 123.264 332.355 124.259C332.478 124.408 332.605 124.558 332.733 124.711L334.968 122.476C334.904 122.399 334.841 122.323 334.778 122.248C333.949 121.25 333.356 120.467 333.03 119.874L333.027 119.869C333.18 119.855 333.367 119.846 333.594 119.846H334.297L335.81 121.634L340.724 116.72Z" fill="#ABA1FA"/>
<path d="M335.991 123.68L333.757 125.914C334.21 126.443 334.674 126.987 335.14 127.546C335.697 128.214 336.69 128.304 337.358 127.747C338.026 127.191 338.116 126.198 337.559 125.53C337.06 124.93 336.565 124.351 336.096 123.803L335.991 123.68Z" fill="#ABA1FA"/>
<path d="M342.685 116.986C344.831 117.467 346.261 118.497 347.179 119.656C347.788 120.425 348.125 121.195 348.311 121.778C348.405 122.07 348.462 122.32 348.496 122.506C348.513 122.6 348.525 122.678 348.533 122.738C348.553 122.894 348.549 122.876 348.545 122.856C348.544 122.845 348.543 122.842 348.543 122.843L348.545 122.856L348.547 122.864C348.619 123.731 347.975 124.492 347.108 124.564C346.249 124.636 345.493 124.003 345.41 123.147L345.41 123.146C345.409 123.137 345.406 123.114 345.399 123.078C345.386 123.006 345.36 122.887 345.312 122.736C345.215 122.433 345.036 122.022 344.71 121.611C344.304 121.098 343.582 120.472 342.254 120.12V137.953C342.254 138.797 341.588 139.491 340.745 139.526C339.902 139.561 339.181 138.925 339.11 138.084L338.323 128.637C338.32 128.593 338.318 128.549 338.318 128.506H338.278C339.302 127.505 339.392 125.868 338.453 124.758L336.83 122.84L342.685 116.986Z" fill="#ABA1FA"/>
<path d="M332.918 126.748C332.883 126.778 332.846 126.804 332.807 126.826V137.953C332.807 138.797 333.473 139.491 334.316 139.526C335.159 139.561 335.88 138.925 335.951 138.084L336.685 129.273C335.795 129.381 334.869 129.053 334.246 128.318L332.918 126.748Z" fill="#ABA1FA"/>
<path d="M346.19 124.57C344.886 124.57 343.829 125.627 343.829 126.931V127.587C343.829 128.022 344.181 128.375 344.616 128.375C345.051 128.375 345.403 128.022 345.403 127.587V126.931C345.403 126.497 345.756 126.144 346.19 126.144C346.625 126.144 346.978 126.497 346.978 126.931V138.74C346.978 139.175 347.33 139.528 347.765 139.528C348.2 139.528 348.552 139.175 348.552 138.74V126.931C348.552 125.627 347.495 124.57 346.19 124.57Z" fill="#ABA1FA"/>
<path fill-rule="evenodd" clip-rule="evenodd" d="M270.205 185.403C269.852 186.95 270.486 188.451 271.642 189.318V201.838H274.788V191.614H281.079V201.838H296.808V189.316C297.962 188.448 298.595 186.949 298.242 185.403L297.366 181.57C297.242 181.027 296.76 180.642 296.203 180.642H289.73V176.71C289.73 174.973 288.322 173.564 286.584 173.564H281.866C280.129 173.564 278.72 174.973 278.72 176.71V180.642H272.244C271.687 180.642 271.204 181.027 271.081 181.57L270.205 185.403ZM271.738 185.753L272.546 182.215H276.185V186.255C276.185 187.498 275.177 188.506 273.933 188.506C272.488 188.506 271.416 187.163 271.738 185.753ZM277.894 182.215H278.819C279.169 183.572 280.4 184.574 281.866 184.574H283.369V185.769C283.369 187.281 282.143 188.506 280.631 188.506C279.12 188.506 277.894 187.281 277.894 185.769V182.215ZM285.012 176.317C285.012 175.883 284.659 175.53 284.225 175.53C283.791 175.53 283.439 175.883 283.439 176.317V178.283H281.473C281.038 178.283 280.686 178.635 280.686 179.069C280.686 179.504 281.038 179.856 281.473 179.856H283.439V181.822C283.439 182.256 283.791 182.608 284.225 182.608C284.659 182.608 285.012 182.256 285.012 181.822V179.856H286.978C287.412 179.856 287.764 179.504 287.764 179.069C287.764 178.635 287.412 178.283 286.978 178.283H285.012V176.317ZM285.078 185.769V184.574H286.584C288.05 184.574 289.282 183.572 289.631 182.215H290.553V185.769C290.553 187.281 289.327 188.506 287.815 188.506C286.303 188.506 285.078 187.281 285.078 185.769ZM292.262 182.215H295.9L296.708 185.753C297.03 187.163 295.959 188.506 294.513 188.506C293.27 188.506 292.262 187.498 292.262 186.255V182.215ZM284.225 191.652H294.448V199.516H284.225V191.652ZM292.876 193.225H285.798V197.943H292.876V193.225Z" fill="#ABA1FA"/>
<path fill-rule="evenodd" clip-rule="evenodd" d="M291.302 54.8211L292.319 55.8379L293.431 54.7257L290.285 51.5801L289.173 52.6922L290.19 53.709L287.763 56.1357L285.567 53.9393L284.455 55.0515L285.471 56.0682L280.848 60.6913C280.097 61.4426 279.958 62.5747 280.432 63.4665L279.402 64.4966L277.7 62.5671L271.899 68.6735L275.142 70.9435C275.935 71.4987 276.879 71.7964 277.848 71.7964H289.729C289.729 72.6651 290.433 73.3693 291.302 73.3693H298.38C299.248 73.3693 299.953 72.6651 299.953 71.7964V67.078C299.953 66.2093 299.248 65.5051 298.38 65.5051H297.987V70.2236H295.627C294.324 70.2236 293.268 69.1673 293.268 67.8644V66.6848H294.841V67.8644C294.841 68.2987 295.193 68.6508 295.627 68.6508H296.414V65.5051C296.414 64.6365 295.71 63.9323 294.841 63.9323H292.088L289.729 65.5051H282.286L279.141 68.6508L277.472 68.6509L281.545 64.5786C282.436 65.0526 283.568 64.914 284.32 64.1627L288.943 59.5396L289.96 60.5564L291.072 59.4442L288.875 57.2478L291.302 54.8211ZM284.207 59.5564L286.584 57.1804L287.831 58.4275L285.455 60.8035L284.207 59.5564ZM278.306 69.485L278.259 69.4372H278.354L278.306 69.485Z" fill="#ABA1FA"/>
<path d="M268.496 52.1362L276.655 61.3832L270.596 67.7614L268.496 66.2916V52.1362Z" fill="#ABA1FA"/>
</svg>
