<svg width="383" height="266" viewBox="0 0 383 266" fill="none" xmlns="http://www.w3.org/2000/svg">
<path d="M129.606 162.826C122.203 166.935 113.643 167.824 105.505 165.328C97.2681 162.802 90.5858 157.177 86.6911 149.49C69.9546 116.454 51.345 79.7186 37.9843 53.3187C34.1022 45.6488 33.5281 36.9556 36.367 28.8417C38.8084 21.8654 43.4938 16.1334 49.7268 12.3891C61.2464 6.52562 74.0471 3.34478 87.3503 3.19099C87.6893 3.18712 88.0259 3.18519 88.3645 3.18519C137.954 3.18519 173.532 44.2855 173.532 88.2262C173.544 119.195 156.713 147.78 129.606 162.826ZM88.3364 0C39.5493 0 0 39.5498 0 88.3364C0 137.124 39.5493 176.673 88.3364 176.673C137.124 176.673 176.673 137.124 176.673 88.3364C176.673 39.5498 137.124 0 88.3364 0Z" fill="white"/>
<path d="M382.999 5.05286H153.484V8.0828H175.894L259.361 171.697H278.428L292.622 142.741L286.179 129.968C264.86 87.7008 235.662 29.8142 232.825 24.0924C229.079 16.5376 224.155 11.1587 218.291 8.0828L317.828 8.10117C331.436 8.48082 342.095 19.7852 342.095 33.837C342.095 43.3384 339.485 52.8118 339.485 52.8118L362.711 8.0828H382.999V5.05286Z" fill="white"/>
<path d="M59.0685 261.346C50.9034 261.346 44.6984 254.611 44.6984 246.02V245.915C44.6984 237.378 50.8502 230.696 59.0685 230.696C64.1074 230.696 67.6065 232.816 70.7351 235.787L73.5996 232.711C69.8878 229.211 65.8562 226.824 59.1217 226.824C48.1989 226.824 40.3501 235.521 40.3501 246.02V246.127C40.3501 256.786 48.2507 265.218 58.9636 265.218C65.6976 265.218 69.9395 262.62 73.811 258.695L71.0533 255.99C67.5011 259.384 64.1592 261.346 59.0685 261.346Z" fill="white"/>
<path d="M127.733 227.459H123.543V264.58H148.625V260.708H127.733V227.459Z" fill="white"/>
<path d="M223.863 249.043C223.863 257.156 219.514 261.291 212.673 261.291C205.621 261.291 201.326 256.784 201.326 248.777V227.459H197.136V249.043C197.136 259.542 203.394 265.162 212.568 265.162C221.847 265.162 228.052 259.542 228.052 248.723V227.459H223.863V249.043Z" fill="white"/>
<path d="M306.102 254.185C306.102 258.321 302.601 260.815 296.981 260.815H284.519V247.716H296.238C302.708 247.716 306.102 250.05 306.102 254.08V254.185ZM284.519 231.224H295.814C301.117 231.224 304.033 233.61 304.033 237.269V237.376C304.033 241.724 300.533 244.004 295.495 244.004H284.519V231.224ZM302.389 245.382C305.306 244.11 308.276 241.617 308.276 236.793V236.686C308.276 234.3 307.427 232.338 305.89 230.746C303.769 228.679 300.428 227.459 296.185 227.459H280.383V264.58H296.874C304.987 264.58 310.345 260.815 310.345 254.451V254.345C310.345 249.254 306.791 246.708 302.389 245.382Z" fill="white"/>
<path d="M311.383 199.886H33.0862V202.916H311.383V199.886Z" fill="white"/>
</svg>
