<svg width="237" height="262" viewBox="0 0 237 262" fill="none" xmlns="http://www.w3.org/2000/svg">
<g clip-path="url(#clip0_340_24)">
<path d="M152.764 159.151C151.859 158.002 150.873 156.932 149.861 155.916C149.541 155.595 149.221 155.275 148.902 154.954C148.129 154.205 147.357 153.51 146.531 152.842C145.945 152.361 145.359 151.906 144.773 151.452C144.08 150.944 143.387 150.436 142.668 149.955C141.976 149.5 141.256 149.072 140.537 148.645C140.217 148.457 139.898 148.297 139.578 148.11C136.887 146.639 134.064 145.463 131.133 144.581C131.107 144.581 131.054 144.554 131.027 144.554C127.058 143.378 122.902 142.709 118.613 142.709C117.095 142.709 115.603 142.816 114.111 142.95C113.285 143.03 112.513 143.191 111.714 143.298C109.556 143.645 107.451 144.153 105.4 144.821C104.441 145.116 103.482 145.436 102.523 145.811C102.523 145.811 102.523 145.811 102.497 145.811C95.5439 148.591 89.3104 153.082 84.4621 159.151L15.4141 245.771C14.3485 247.108 13.7358 248.685 13.4961 250.289H35.6863L99.007 170.861C99.6197 170.086 100.259 169.364 100.952 168.695L108.917 158.697C111.607 155.328 114.91 152.548 118.587 150.436C120.425 151.478 122.156 152.708 123.781 154.072C123.888 154.152 123.968 154.259 124.074 154.366C124.767 154.981 125.459 155.595 126.099 156.264C126.845 157.039 127.564 157.841 128.256 158.697L136.222 168.695C136.914 169.364 137.553 170.086 138.166 170.861L201.487 250.289H223.677C223.437 248.685 222.851 247.134 221.759 245.771L152.764 159.151Z" fill="white"/>
<path d="M152.77 103.464L221.818 16.8439C222.803 15.6141 223.363 14.2239 223.656 12.7803H201.173L138.198 91.7807C137.586 92.556 136.946 93.2778 136.254 93.9462L128.289 103.945C125.598 107.313 122.295 110.094 118.619 112.206C114.943 110.094 111.639 107.313 108.949 103.945L100.984 93.9462C100.291 93.2778 99.6518 92.556 99.0391 91.7807L36.118 12.7803H13.6348C13.9012 14.2239 14.4872 15.6141 15.4728 16.8439L84.5209 103.464C90.1683 110.548 97.7338 115.521 106.152 118.034C106.365 118.087 106.551 118.141 106.764 118.221C107.83 118.515 108.922 118.809 110.014 119.023C110.574 119.13 111.107 119.21 111.666 119.317C112.492 119.451 113.318 119.611 114.17 119.691C115.608 119.852 117.047 119.932 118.512 119.932C118.565 119.932 118.592 119.932 118.645 119.932C120.164 119.932 121.656 119.825 123.121 119.691C123.946 119.611 124.746 119.451 125.545 119.344C126.131 119.237 126.717 119.157 127.303 119.05C128.395 118.836 129.434 118.569 130.5 118.275C130.739 118.221 130.952 118.141 131.192 118.087C132.391 117.713 133.59 117.312 134.762 116.858C141.715 114.024 147.948 109.532 152.77 103.464Z" fill="white"/>
<path fill-rule="evenodd" clip-rule="evenodd" d="M236.804 0H0.365234V262H236.804V0ZM217.638 19.1712H19.5407V242.83H217.638V19.1712Z" fill="white"/>
</g>
<defs>
<clipPath id="clip0_340_24">
<rect width="236.439" height="262" fill="white" transform="translate(0.365234)"/>
</clipPath>
</defs>
</svg>
