<svg width="71" height="78" viewBox="0 0 71 78" fill="none" xmlns="http://www.w3.org/2000/svg">
<g clip-path="url(#clip0_1663_2)">
<path d="M45.7636 47.3812C45.4916 47.0389 45.1956 46.7206 44.8916 46.4181C44.7956 46.3226 44.6996 46.2271 44.6036 46.1316C44.3717 45.9088 44.1397 45.7018 43.8917 45.5028C43.7157 45.3596 43.5397 45.2243 43.3637 45.089C43.1558 44.9377 42.9478 44.7865 42.7318 44.6433C42.5238 44.5079 42.3078 44.3806 42.0918 44.2533C41.9959 44.1975 41.8999 44.1498 41.8039 44.0941C40.9959 43.6563 40.148 43.3061 39.2681 43.0435C39.2601 43.0435 39.2441 43.0355 39.2361 43.0355C38.0442 42.6853 36.7963 42.4863 35.5084 42.4863C35.0524 42.4863 34.6044 42.5182 34.1565 42.558C33.9085 42.5818 33.6765 42.6296 33.4365 42.6614C32.7886 42.7649 32.1566 42.9161 31.5407 43.1151C31.2527 43.2026 30.9647 43.2982 30.6767 43.4096C30.6767 43.4096 30.6768 43.4096 30.6688 43.4096C28.5809 44.2373 26.7091 45.5745 25.2532 47.3812L4.51883 73.1687C4.19885 73.5667 4.01487 74.0363 3.94287 74.5138H10.6063L29.6208 50.8673C29.8048 50.6365 29.9968 50.4216 30.2048 50.2226L32.5966 47.2459C33.4045 46.243 34.3965 45.4153 35.5004 44.7865C36.0523 45.0969 36.5723 45.463 37.0602 45.869C37.0922 45.8928 37.1162 45.9247 37.1482 45.9565C37.3562 46.1396 37.5642 46.3226 37.7562 46.5216C37.9802 46.7524 38.1962 46.9912 38.4041 47.2459L40.796 50.2226C41.0039 50.4216 41.1959 50.6365 41.3799 50.8673L60.3944 74.5138H67.0579C66.9859 74.0363 66.8099 73.5746 66.4819 73.1687L45.7636 47.3812Z" fill="white"/>
<path d="M45.7651 30.802L66.4994 5.01447C66.7954 4.64835 66.9634 4.23448 67.0514 3.80469H60.2999L41.3894 27.3239C41.2054 27.5547 41.0134 27.7696 40.8055 27.9686L38.4136 30.9453C37.6057 31.9481 36.6138 32.7759 35.5099 33.4047C34.406 32.7759 33.414 31.9481 32.6061 30.9453L30.2143 27.9686C30.0063 27.7696 29.8143 27.5547 29.6303 27.3239L10.7358 3.80469H3.98438C4.06437 4.23448 4.24035 4.64835 4.53633 5.01447L25.2707 30.802C26.9666 32.9112 29.2384 34.3916 31.7662 35.1397C31.8302 35.1557 31.8862 35.1716 31.9502 35.1955C32.2701 35.283 32.5981 35.3706 32.9261 35.4342C33.0941 35.4661 33.2541 35.4899 33.422 35.5218C33.67 35.5616 33.918 35.6093 34.174 35.6332C34.6059 35.681 35.0379 35.7048 35.4779 35.7048C35.4939 35.7048 35.5019 35.7048 35.5179 35.7048C35.9738 35.7048 36.4218 35.673 36.8618 35.6332C37.1098 35.6093 37.3497 35.5616 37.5897 35.5297C37.7657 35.4979 37.9417 35.474 38.1177 35.4422C38.4456 35.3785 38.7576 35.2989 39.0776 35.2114C39.1496 35.1955 39.2136 35.1716 39.2856 35.1557C39.6455 35.0442 40.0055 34.9248 40.3575 34.7895C42.4453 33.9459 44.3172 32.6087 45.7651 30.802Z" fill="white"/>
<path fill-rule="evenodd" clip-rule="evenodd" d="M71 0H0V78H71V0ZM65.2447 5.70745H5.75817V72.2928H65.2447V5.70745Z" fill="white"/>
</g>
<defs>
<clipPath id="clip0_1663_2">
<rect width="71" height="78" fill="white"/>
</clipPath>
</defs>
</svg>
