<svg width="431" height="250" viewBox="0 0 431 250" fill="none" xmlns="http://www.w3.org/2000/svg">
<path d="M118.329 82V128.161C118.329 148.227 106.475 158 86.6127 158C66.6468 158 55 148.331 55 128.161V82H71.3263V128.161C71.3263 136.271 73.4061 144.276 86.6127 144.276C98.2595 144.276 102.003 139.182 102.003 128.161V82H118.329Z" fill="white"/>
<path d="M119.391 156.233L145.389 117.349L121.471 82H140.397L154.956 105.705L170.034 82H187.92L164.107 117.453L190 156.233H170.554L154.332 130.553L137.797 156.233H119.391Z" fill="white"/>
<path d="M344.96 82V128.161C344.96 148.227 333.174 158 313.428 158C293.579 158 282 148.331 282 128.161V82H298.231V128.161C298.231 136.271 300.299 144.276 313.428 144.276C325.007 144.276 328.729 139.182 328.729 128.161V82H344.96Z" fill="white"/>
<path d="M353.769 156.233V82H370V156.233H353.769Z" fill="white"/>
<circle cx="216" cy="125" r="80" fill="#00FFC2"/>
<g clip-path="url(#clip0_1975_706)">
<path d="M223.738 131.876C223.52 131.595 223.282 131.334 223.038 131.085C222.961 131.007 222.884 130.929 222.807 130.85C222.621 130.668 222.435 130.498 222.236 130.334C222.094 130.217 221.953 130.106 221.812 129.995C221.645 129.871 221.478 129.747 221.304 129.629C221.137 129.518 220.964 129.414 220.791 129.309C220.714 129.263 220.637 129.224 220.56 129.179C219.911 128.819 219.23 128.532 218.524 128.317C218.517 128.317 218.504 128.31 218.498 128.31C217.541 128.023 216.539 127.859 215.505 127.859C215.139 127.859 214.78 127.885 214.42 127.918C214.221 127.938 214.035 127.977 213.842 128.003C213.322 128.088 212.815 128.212 212.32 128.375C212.089 128.447 211.858 128.525 211.626 128.617C211.626 128.617 211.626 128.617 211.62 128.617C209.944 129.296 208.441 130.393 207.272 131.876L190.626 153.035C190.37 153.361 190.222 153.747 190.164 154.138H195.514L210.779 134.736C210.926 134.547 211.081 134.37 211.248 134.207L213.168 131.765C213.816 130.942 214.613 130.263 215.499 129.747C215.942 130.001 216.36 130.302 216.751 130.635C216.777 130.654 216.796 130.681 216.822 130.707C216.989 130.857 217.156 131.007 217.31 131.17C217.49 131.36 217.663 131.556 217.83 131.765L219.75 134.207C219.917 134.37 220.071 134.547 220.219 134.736L235.484 154.138H240.834C240.776 153.747 240.635 153.368 240.371 153.035L223.738 131.876Z" fill="black"/>
<path d="M223.74 118.273L240.385 97.1137C240.623 96.8133 240.758 96.4737 240.829 96.1211H235.408L220.227 115.419C220.079 115.608 219.925 115.785 219.758 115.948L217.838 118.39C217.189 119.213 216.393 119.892 215.506 120.408C214.62 119.892 213.824 119.213 213.175 118.39L211.255 115.948C211.088 115.785 210.934 115.608 210.786 115.419L195.617 96.1211H190.197C190.261 96.4737 190.403 96.8133 190.64 97.1137L207.286 118.273C208.648 120.003 210.472 121.218 212.501 121.832C212.552 121.845 212.597 121.858 212.649 121.878C212.906 121.949 213.169 122.021 213.432 122.074C213.567 122.1 213.695 122.119 213.83 122.145C214.029 122.178 214.228 122.217 214.434 122.237C214.781 122.276 215.128 122.296 215.481 122.296C215.494 122.296 215.5 122.296 215.513 122.296C215.879 122.296 216.239 122.269 216.592 122.237C216.791 122.217 216.984 122.178 217.176 122.152C217.317 122.126 217.459 122.106 217.6 122.08C217.863 122.028 218.114 121.963 218.371 121.891C218.428 121.878 218.48 121.858 218.538 121.845C218.827 121.754 219.116 121.656 219.398 121.545C221.074 120.852 222.577 119.755 223.74 118.273Z" fill="black"/>
<path fill-rule="evenodd" clip-rule="evenodd" d="M243.998 92.998H186.998V156.998H243.998V92.998ZM239.377 97.6812H191.621V152.315H239.377V97.6812Z" fill="black"/>
</g>
<circle cx="57" cy="60" r="2" fill="#00FFC2"/>
<circle cx="65" cy="60" r="2" fill="#00FFC2"/>
<circle cx="360" cy="60" r="2" fill="#00FFC2"/>
<circle cx="368" cy="60" r="2" fill="#00FFC2"/>
<circle cx="57" cy="180" r="2" fill="#00FFC2"/>
<circle cx="65" cy="180" r="2" fill="#00FFC2"/>
<circle cx="360" cy="180" r="2" fill="#00FFC2"/>
<circle cx="368" cy="180" r="2" fill="#00FFC2"/>
<defs>
<clipPath id="clip0_1975_706">
<rect width="57" height="64" fill="white" transform="translate(187 93)"/>
</clipPath>
</defs>
</svg>
