<svg width="2819" height="3171" viewBox="0 0 2819 3171" fill="none" xmlns="http://www.w3.org/2000/svg">
<path d="M2135.96 1009.74C2125.85 1003.77 2108.31 1005.28 2083.82 1014.22C2074.06 1017.78 2065.1 1021.88 2058.88 1024.91C2057.86 1017.94 2054.75 1012.83 2049.52 1009.74C2039.41 1003.77 2021.87 1005.28 1997.38 1014.22C1987.82 1017.71 1979.04 1021.7 1972.84 1024.71V1011.95L1920.01 1011.97V1013.88C1920.67 1013.89 1936.34 1014.11 1936.34 1030.21V1174.22C1936.34 1190.32 1920.67 1190.54 1920.01 1190.55V1192.47H1986.35C1986.91 1192.51 1987.42 1192.52 1987.84 1192.52C1988.67 1192.52 1989.19 1192.47 1989.27 1192.46L1989.16 1190.55H1986.58C1984.16 1190.37 1980.44 1189.64 1977.51 1187.01C1974.41 1184.22 1972.84 1179.92 1972.84 1174.22V1026.97C1983.2 1022.34 2001.08 1016.21 2012.33 1022.68C2019.27 1026.68 2022.78 1035.02 2022.78 1047.48V1174.27C2022.78 1190.37 2007.12 1190.6 2006.45 1190.6V1192.52H2075.61L2075.61 1190.6C2075.48 1190.6 2068.26 1190.55 2063.5 1185.79C2060.7 1183 2059.28 1179.13 2059.28 1174.27V1030.2C2059.28 1029.1 2059.23 1028.06 2059.14 1027.03C2069.48 1022.4 2087.47 1016.17 2098.78 1022.68C2105.71 1026.68 2109.23 1035.02 2109.23 1047.48V1174.27C2109.23 1190.37 2093.56 1190.6 2092.9 1190.6V1192.52H2162.05V1190.6C2161.39 1190.6 2145.73 1190.37 2145.73 1174.27V1030.2C2145.73 1020.45 2142.44 1013.56 2135.96 1009.74Z" fill="white"/>
<path d="M2352.22 1190.6C2352.09 1190.6 2344.88 1190.55 2340.11 1185.79C2337.32 1183 2335.9 1179.13 2335.9 1174.27V1030.2C2335.9 1021.47 2332.75 1015.02 2326.53 1011.03C2305.46 997.495 2254.68 1015.52 2232.17 1024.65V1011.95L2179.34 1011.97V1013.89C2180.01 1013.89 2195.67 1014.11 2195.67 1030.21V1174.27C2195.67 1190.37 2180.01 1190.6 2179.34 1190.6V1192.52H2248.5L2248.5 1190.6C2248.45 1190.6 2244.29 1190.58 2240.22 1188.53C2234.88 1185.84 2232.17 1181.04 2232.17 1174.27V1027.23C2246.98 1022.16 2274.31 1014.99 2289.11 1024.66C2295.94 1029.11 2299.4 1036.79 2299.4 1047.48V1174.27C2299.4 1190.37 2283.74 1190.6 2283.07 1190.6V1192.52H2352.23L2352.22 1190.6Z" fill="white"/>
<path d="M1401.35 1190.6V1192.52H1470.5V1190.6C1469.84 1190.6 1454.18 1190.37 1454.18 1174.27V1030.19C1454.18 1021.47 1451.02 1015.02 1444.81 1011.02C1423.74 997.491 1372.95 1015.52 1350.44 1024.64V919.185L1297.21 944.321L1298.03 946.061C1298.1 946.025 1305.54 942.586 1310.14 945.506C1312.66 947.107 1313.94 950.395 1313.94 955.275V1174.27C1313.94 1190.37 1298.28 1190.6 1297.61 1190.6V1192.52H1366.77L1366.77 1190.6H1366.76C1366.64 1190.6 1359.42 1190.54 1354.66 1185.79C1351.86 1183 1350.44 1179.12 1350.44 1174.27V1027.22C1365.25 1022.16 1392.59 1014.99 1407.39 1024.65C1414.21 1029.11 1417.68 1036.79 1417.68 1047.48V1174.27C1417.68 1190.37 1402.01 1190.6 1401.35 1190.6Z" fill="white"/>
<path d="M1002.89 1144.55C987.845 1169.23 964.558 1181.09 937.337 1177.97C909.372 1174.75 882.044 1156.37 868.626 1133.1C945.118 1103.71 989.291 1079.96 989.291 1047.16C989.291 1037.29 984.113 1028.33 974.32 1021.24C954.083 1006.61 915.988 1001.84 889.389 1010.61L889.385 1010.62C889.373 1010.62 889.362 1010.62 889.354 1010.63C839.076 1027.23 811.673 1081.64 828.264 1131.92C841.572 1172.27 879.212 1197.89 919.546 1197.89C929.497 1197.89 939.615 1196.33 949.567 1193.05C973.393 1185.19 992.924 1168.3 1004.56 1145.49L1002.89 1144.55ZM889.983 1012.44L889.987 1012.44C908.12 1006.53 927.378 1008.66 940.245 1018C950.894 1025.73 956.524 1037.53 956.524 1052.1C956.524 1092.85 914.205 1111.08 876.866 1127.17C873.717 1128.53 870.623 1129.86 867.564 1131.21C865.69 1127.72 864.13 1124.14 862.921 1120.49C846.67 1071.22 858.793 1022.78 889.94 1012.46C889.956 1012.45 889.968 1012.45 889.983 1012.44Z" fill="white"/>
<path d="M492.329 1012.82C523.833 1003.49 545.226 1012.56 557.618 1021.82C577.303 1036.52 586.114 1059.96 586.114 1076.67H588.036V1029.21L587.849 1028.95C571.729 1006.89 528.618 998.826 491.747 1010.99C467.383 1019.03 447.606 1036.07 436.062 1058.98C424.517 1081.9 422.584 1107.93 430.622 1132.29C438.66 1156.66 455.704 1176.44 478.618 1187.98C492.226 1194.84 506.932 1198.3 521.741 1198.3C531.863 1198.3 542.033 1196.68 551.929 1193.42C575.754 1185.56 595.286 1168.67 606.925 1145.86L605.249 1144.92C590.203 1169.6 566.92 1181.46 539.699 1178.34C506.837 1174.57 474.846 1149.85 465.283 1120.86C457.383 1096.91 455.886 1072.45 461.068 1052C466.21 1031.7 477.311 1017.79 492.329 1012.82Z" fill="white"/>
<path d="M368.136 1022.69C346.886 1008.32 321.309 1003.09 296.121 1007.94C296.081 1007.95 296.041 1007.96 296.006 1007.96C290.111 1009.11 283.007 1010.86 276.122 1014.11C268.476 1017.42 261.317 1021.7 254.796 1026.86V919.738L201.971 919.754V921.675C202.637 921.675 218.297 921.861 218.297 938.005V1100.79C218.285 1101.86 218.278 1102.92 218.297 1103.99V1174.27C218.297 1190.37 202.637 1190.59 201.967 1190.59L201.971 1192.52H271.126V1190.59H271.122C271.083 1190.59 266.923 1190.57 262.85 1188.53C257.506 1185.84 254.796 1181.04 254.796 1174.27V1140.85C261.9 1158.54 272.802 1173.89 286.26 1184.24C297.662 1193.01 310.054 1197.5 322.593 1197.5C324.383 1197.5 326.174 1197.41 327.969 1197.23C329.506 1197.08 331.031 1196.85 332.54 1196.56C332.548 1196.55 332.56 1196.55 332.568 1196.55C357.745 1191.68 379.526 1177.3 393.891 1156.06C408.264 1134.81 413.501 1109.23 408.636 1084.04C403.771 1058.84 389.387 1037.06 368.136 1022.69ZM332.18 1194.67C330.698 1194.95 329.217 1195.17 327.739 1195.32C313.754 1196.67 298.874 1191.7 286.26 1181.32C267.521 1165.91 256.242 1141.25 254.796 1112.99V1038.21C255.854 1035.78 257.058 1033.5 258.441 1031.4C262.668 1024.97 268.302 1020.04 275.872 1016.32C282.389 1013.41 289.271 1011.22 296.41 1009.84C296.434 1009.84 296.457 1009.83 296.481 1009.83C312.027 1006.83 328.503 1013.56 342.892 1028.78C357.396 1044.11 368.017 1066.2 372.799 1090.96C382.636 1141.9 364.428 1188.42 332.204 1194.66C332.196 1194.66 332.188 1194.67 332.18 1194.67Z" fill="white"/>
<path d="M755.207 1190.6V1192.52H824.366L824.362 1190.6C824.318 1190.6 820.159 1190.58 816.09 1188.53C810.746 1185.84 808.036 1181.04 808.036 1174.27V919.743L755.207 919.759V921.68C755.876 921.68 771.537 921.867 771.537 938.007V1026.9C769.671 1025.43 767.761 1024 765.777 1022.66C744.522 1008.28 718.946 1003.05 693.757 1007.91C668.569 1012.78 646.78 1027.16 632.407 1048.41C618.034 1069.66 612.796 1095.24 617.661 1120.43C622.526 1145.62 636.911 1167.41 658.161 1181.78C674.238 1192.65 692.783 1198.29 711.767 1198.29C717.88 1198.29 724.044 1197.71 730.181 1196.52C749.423 1192.81 763.269 1177.91 771.537 1152.12V1174.27C771.537 1190.37 755.872 1190.6 755.207 1190.6ZM683.401 1175.69C668.902 1160.35 658.28 1138.27 653.499 1113.51C643.658 1062.55 661.882 1016.02 694.122 1009.8C722.162 1004.38 757.643 1015.85 771.537 1040.64V1118.46C768.847 1161.92 753.678 1190.03 729.816 1194.64C714.275 1197.64 697.798 1190.91 683.401 1175.69Z" fill="white"/>
<path d="M1522.39 1285.68C1523.74 1285.66 1609.77 1283.95 1609.77 1231.89V989.291L1556.53 1014.43L1557.35 1016.17C1557.43 1016.13 1564.87 1012.69 1569.47 1015.62C1571.99 1017.21 1573.27 1020.5 1573.27 1025.38V1214.6C1573.27 1242.5 1564.48 1263.3 1547.84 1274.75C1535.25 1283.4 1522.48 1283.75 1522.35 1283.75L1522.38 1285.68H1522.39Z" fill="white"/>
<path d="M1798.99 1192.51H1902.72V1190.59C1902.06 1190.59 1886.39 1190.36 1886.39 1174.26V920.711C1886.39 911.809 1883.36 904.377 1877.39 898.624C1862.5 884.267 1834.71 885.131 1833.53 885.171L1833.57 887.092C1834.23 887.096 1849.9 887.314 1849.9 903.418V1174.26C1849.9 1190.36 1834.24 1190.59 1833.57 1190.59C1804.67 1190.59 1741.52 1143.25 1710.2 1098.18L1714.01 1091.51C1737.8 1053.45 1774.29 1008.1 1813.04 1008.1V1006.18H1760.62L1712.36 1090.52C1711.19 1092.41 1710.07 1094.24 1708.99 1096.03L1708.66 1096.57C1708.48 1096.89 1708.27 1097.21 1708.09 1097.52C1702.49 1106.81 1698.42 1114.29 1696.22 1118.45V919.178L1642.98 944.319L1643.8 946.054C1643.87 946.018 1651.32 942.579 1655.92 945.499C1658.44 947.1 1659.72 950.388 1659.72 955.269V1174.21C1659.72 1190.31 1644.06 1190.53 1643.39 1190.54V1192.46H1712.55V1190.54C1711.88 1190.53 1696.22 1190.31 1696.22 1174.21V1125.19C1705.62 1136.99 1752.3 1192.51 1798.99 1192.51Z" fill="white"/>
<path d="M88.1672 1083.48C48.8871 1092.12 0 1102.88 0 1145.46C0 1161.81 7.62227 1175.54 22.0388 1185.15C34.736 1193.62 51.8109 1198.28 70.1178 1198.28C115.043 1198.28 134.531 1171.52 139.059 1164.12C140.279 1169.91 143.021 1174.92 147.307 1179.05C160.361 1191.63 183.323 1192.52 189.59 1192.52C190.474 1192.52 191.028 1192.51 191.171 1192.5L191.139 1190.58C190.47 1190.58 174.809 1190.36 174.809 1174.25V1076.3C174.809 1006.98 88.2781 1006.18 87.4066 1006.18C35.6432 1006.18 18.1881 1029.51 17.471 1030.5L17.2888 1030.76V1076.3H19.2102C19.2102 1042.52 53.6253 1008.1 87.4066 1008.1C87.5333 1008.1 100.349 1008.19 112.967 1014.52C129.785 1022.95 138.31 1037.92 138.31 1059.01V1059.02C138.298 1072.45 115.067 1077.56 88.1672 1083.48ZM138.31 1149.17C129.381 1184.7 103.111 1194.53 81.4918 1191.86C51.9535 1188.23 36.499 1165.76 36.499 1145.46C36.499 1099.54 73.6952 1090 103.586 1082.32C119.346 1078.28 133.358 1074.66 138.31 1066.23V1149.17Z" fill="white"/>
<path d="M1020 1013.86V1266.45C1020 1282.56 1004.34 1282.77 1003.67 1282.78L1003.64 1284.7C1003.78 1284.7 1004.33 1284.72 1005.22 1284.72C1011.49 1284.72 1034.45 1283.82 1047.5 1271.25C1053.47 1265.49 1056.5 1258.06 1056.5 1249.16V1013.89C1089.58 1014.21 1106.56 1030.7 1106.72 1030.87L1108.36 1032.5V1011.94H1056.5V972.562C1056.5 956.636 1061.11 944.03 1070.21 935.093C1082.75 922.764 1100.42 920.985 1105.78 920.732C1106.77 920.704 1107.35 920.692 1107.41 920.692L1107.42 918.771C1107.25 918.778 1106.37 918.759 1104.96 918.834C1098.7 919.052 1081.25 919.951 1063.98 923.596C1034.8 929.756 1020 940.413 1020 955.269V1011.94H1003.67V1013.86H1020Z" fill="white"/>
<path d="M1106.44 1187.71C1106.44 1196.73 1113.15 1203.18 1123.82 1208.21C1125.09 1231.66 1140.35 1253.77 1167.09 1270.75C1191.12 1286 1222.45 1295.48 1248.87 1295.48C1263.34 1295.48 1275.51 1292.63 1284.06 1287.22C1293.67 1281.15 1298.54 1272.23 1298.54 1260.71C1298.54 1218.71 1239.73 1207.8 1192.48 1199.04C1159.72 1192.97 1131.41 1187.73 1131.41 1174.26C1131.41 1162.06 1141.26 1154.53 1149.3 1150.42C1164.76 1158.87 1183.18 1163.69 1202.49 1163.69C1208.49 1163.69 1214.58 1163.23 1220.69 1162.26C1248.81 1157.82 1272.86 1143.46 1286.68 1122.87C1297.47 1106.8 1301.07 1088 1296.81 1069.94C1289.53 1039.11 1261.07 1015.95 1226.2 1008.61C1231.89 1008.82 1238.35 1009.11 1245.36 1009.52C1284.12 1012.78 1296.66 1030.55 1296.79 1030.73L1298.54 1033.3V1012.08L1297.73 1011.95C1297.37 1011.9 1261.46 1006.32 1204.66 1006.19C1197.98 1006.06 1191.18 1006.5 1184.36 1007.58C1184.35 1007.58 1184.34 1007.58 1184.33 1007.58C1184.32 1007.58 1184.31 1007.58 1184.3 1007.58C1156.2 1012.03 1132.15 1026.39 1118.34 1046.97C1107.55 1063.05 1103.95 1081.84 1108.21 1099.89C1113.05 1120.4 1127.26 1137.5 1146.48 1148.82C1142.35 1150.46 1137.61 1152.55 1132.88 1155.11C1115.58 1164.48 1106.44 1175.75 1106.44 1187.71ZM1178.85 1223.06C1219.75 1231.37 1262.04 1239.95 1262.04 1266.47C1262.04 1273.84 1259.17 1279.51 1253.49 1283.33C1248.23 1286.87 1240.54 1288.74 1231.24 1288.74C1190.91 1288.74 1129.33 1254.83 1125.81 1209.11C1139.49 1215.08 1158.87 1219.01 1178.85 1223.06ZM1260.99 1075.75C1266.58 1099.46 1263.36 1122.64 1252.14 1139.35C1244.28 1151.06 1233.3 1158.33 1220.39 1160.36C1188.12 1165.45 1153.86 1135.73 1144.03 1094.09C1138.44 1070.38 1141.66 1047.2 1152.88 1030.49C1160.74 1018.78 1171.72 1011.52 1184.63 1009.48C1216.9 1004.38 1251.16 1034.11 1260.99 1075.75Z" fill="white"/>
<path d="M1500.28 1025.38V1174.26C1500.28 1190.36 1484.62 1190.58 1483.95 1190.59L1483.95 1192.5H1553.1V1190.59C1552.44 1190.59 1536.78 1190.4 1536.78 1174.26V989.291L1483.54 1014.43L1484.36 1016.17C1484.43 1016.13 1491.88 1012.69 1496.48 1015.62C1499 1017.21 1500.28 1020.5 1500.28 1025.38Z" fill="white"/>
<path d="M1626.9 938.528L1627.34 937.874L1607.85 918.391V920.708C1607.85 959.069 1574.46 979.975 1561.58 986.615C1558.51 988.124 1556.65 988.944 1556.56 988.984L1557.3 990.759C1557.4 990.715 1559.3 989.943 1562.33 988.382C1575.38 981.976 1610.59 963.086 1626.9 938.528Z" fill="white"/>
<path d="M1488.58 986.598C1485.51 988.108 1483.66 988.928 1483.57 988.967L1484.31 990.742C1484.41 990.702 1486.31 989.926 1489.34 988.369C1502.39 981.963 1537.59 963.074 1553.91 938.511L1554.34 937.858L1534.86 918.374V920.692C1534.86 959.053 1501.47 979.962 1488.58 986.598Z" fill="white"/>
<path d="M2368.52 24.9592V255.402C2368.52 271.51 2352.86 271.732 2352.19 271.732L2352.2 273.654H2418.53C2419.1 273.697 2419.61 273.709 2420.03 273.709C2420.85 273.709 2421.38 273.654 2421.46 273.646L2421.35 271.732H2418.77C2416.35 271.558 2412.63 270.825 2409.7 268.191C2406.6 265.41 2405.02 261.107 2405.02 255.402V25.5138C2405.72 25.1375 2407.14 24.3887 2409.16 23.3666C2418.44 18.8384 2439.54 10.1346 2452.2 17.428C2459.14 21.4214 2462.65 29.7647 2462.65 42.2321V255.402C2462.65 271.51 2446.99 271.732 2446.32 271.732V273.654H2515.48L2515.48 271.732C2515.43 271.732 2511.28 271.713 2507.2 269.664C2501.86 266.974 2499.15 262.177 2499.15 255.402V25.5217C2499.68 25.2405 2500.61 24.7572 2501.96 24.0797C2510.65 19.813 2534.45 9.56014 2548.24 17.6182C2555.18 21.6829 2558.7 29.9628 2558.7 42.2321V255.402C2558.7 271.51 2543.04 271.732 2542.37 271.732V273.654H2611.53V271.732C2610.86 271.732 2595.2 271.546 2595.2 255.402V24.9433C2595.2 15.3046 2591.93 8.46671 2585.47 4.61595C2564.32 -8.00596 2515.36 15.1144 2501.41 22.1821C2500.46 22.6535 2499.69 23.0497 2499.08 23.3706C2498.74 14.4687 2495.5 8.09827 2489.39 4.48521C2469.19 -7.44341 2423.85 13.704 2408.62 21.461C2407.11 22.1979 2405.89 22.8397 2405.02 23.3072V6.69188L2352.2 6.71168L2352.19 8.62914C2352.86 8.6331 2368.52 8.85496 2368.52 24.9592Z" fill="white"/>
<path d="M2819 271.746C2818.95 271.746 2814.79 271.727 2810.72 269.678C2805.38 266.988 2802.67 262.191 2802.67 255.416V24.9575C2802.67 16.5825 2799.58 10.2993 2793.48 6.28211C2781.71 -1.47486 2759.06 -0.825144 2726.14 8.21937C2705.25 13.9638 2686.66 21.4355 2681.65 23.5115V6.70601L2628.82 6.72582V8.64327C2629.48 8.64724 2645.15 8.86909 2645.15 24.9733V255.416C2645.15 271.525 2629.48 271.746 2628.82 271.746V273.668H2697.98L2697.97 271.746H2697.96C2697.67 271.746 2690.57 271.639 2685.86 266.945C2683.06 264.156 2681.65 260.277 2681.65 255.416V25.6151C2687.47 23.3887 2735 5.92952 2756.07 20.1995C2762.77 24.7356 2766.17 32.1519 2766.17 42.2463V255.416C2766.17 271.525 2750.51 271.746 2749.84 271.746V273.668H2819L2819 271.746Z" fill="white"/>
<path d="M491.391 264.66C510.973 274.529 532.145 279.516 553.455 279.516C568.022 279.516 582.66 277.183 596.898 272.484C631.187 261.174 659.299 236.869 676.045 204.046L674.345 203.155C644.969 257.493 605.154 265.924 576.908 263.412C522.696 258.607 474.922 212.532 461.75 172.606C437.159 98.0595 457.364 31.9311 510.886 11.7701C547.869 0.772473 593.131 7.59053 620.97 28.3537C636.246 39.7435 644.32 53.9462 644.32 69.4245H646.237V21.2504L645.956 20.9691C629.257 4.26667 566.627 -8.6484 510.284 9.94377C437.904 33.8208 398.442 112.139 422.323 184.519C433.887 219.584 458.418 248.045 491.391 264.66Z" fill="white"/>
<path d="M1816.26 314.053H1816.27C1817.62 314.038 1903.65 312.33 1903.65 260.266V24.9457C1903.65 8.84151 1919.31 8.61966 1919.98 8.61966L1919.98 6.69824H1850.82V8.61966C1851.49 8.61966 1867.15 8.80586 1867.15 24.9457V242.977C1867.15 270.879 1858.36 291.674 1841.72 303.123C1829.13 311.779 1816.36 312.132 1816.23 312.132L1816.26 314.053Z" fill="white"/>
<path d="M0.632823 273.712H26.043L25.3894 272.337C25.2745 272.092 25.1081 271.763 24.8981 271.347C10.3825 242.395 9.34456 208.812 21.9269 176.583C22.0418 176.31 22.1606 176.021 22.2755 175.743H130.227L159.556 248.325L159.54 248.333C164.547 260.646 163.541 266.399 161.81 269.061C160.11 271.676 157.44 271.786 157.333 271.79L157.353 273.712H219.163L219.175 271.79C219.068 271.79 209.089 271.359 199.838 250.536L101.184 6.6311H90.8403L76.4436 42.001C75.7978 43.5223 50.9343 102.04 30.6228 150.666C27.1404 158.851 23.8364 166.754 20.8532 174.087C20.6116 174.678 20.3778 175.276 20.1441 175.87C18.6902 179.388 17.2996 182.76 15.9923 185.945C-4.28759 235.363 0.470394 272.511 0.517934 272.884L0.632823 273.712ZM78.5036 47.7454L129.451 173.822H23.0718C25.9876 166.782 29.1252 159.235 32.3976 151.399C48.8504 112.741 69.2888 67.847 78.5036 47.7454Z" fill="white"/>
<path d="M1539.63 271.792V273.714H1608.78V271.792C1608.12 271.792 1592.45 271.571 1592.45 255.462V141.168H1676.98V255.462C1676.98 271.571 1661.31 271.792 1660.65 271.792V273.714H1729.8V271.792C1729.14 271.792 1713.47 271.571 1713.47 255.462V24.5122C1713.47 8.92691 1729.14 8.71298 1729.8 8.70901V6.7876L1660.65 6.80741V8.72882C1661.31 8.72882 1676.98 8.95068 1676.98 25.0549V139.246H1592.45V24.5122C1592.45 8.92691 1608.12 8.71298 1608.78 8.70901V6.7876L1539.63 6.80741V8.72882C1540.29 8.72882 1555.96 8.95068 1555.96 25.0549V255.462C1555.96 271.571 1540.29 271.792 1539.63 271.792Z" fill="white"/>
<path d="M1747.09 271.792V273.714H1816.24V271.792C1815.58 271.792 1799.92 271.571 1799.92 255.462V24.5122C1799.92 8.92691 1815.58 8.71298 1816.24 8.70901V6.7876L1747.09 6.80741V8.72882C1747.75 8.72882 1763.42 8.95068 1763.42 25.0549V255.462C1763.42 271.571 1747.75 271.792 1747.09 271.792Z" fill="white"/>
<path d="M1937.27 271.794V273.716H2006.42V271.794C2005.76 271.794 1990.1 271.572 1990.1 255.464V181.618C2008.21 200.833 2081.09 273.716 2144.09 273.716H2333.48L2353.12 201.692L2351.27 201.165C2351.07 201.874 2329.75 271.794 2279.2 271.794H2248.47C2247.8 271.794 2232.14 271.572 2232.14 255.464V24.9497C2232.14 8.84547 2247.8 8.62362 2248.47 8.61966V6.69824H2179.31V8.61966C2179.98 8.61966 2195.64 8.80586 2195.64 24.9497V255.464C2195.64 271.568 2179.98 271.794 2179.31 271.794C2140.42 271.794 2048.88 211.664 2004.22 147.437L2012.38 133.159C2039.58 89.6519 2090.18 8.71078 2147.32 8.71078V6.78936H2089.03L2010.74 132.169L2010.9 132.272L2010.74 132.173C2008.97 135.021 2007.29 137.767 2005.69 140.433L2004.79 141.926C1998.36 152.583 1993.37 161.545 1990.1 167.63V24.5139C1990.1 8.92867 2005.76 8.71474 2006.42 8.71078V6.78936L1937.27 6.80917V8.73059C1937.93 8.73059 1953.6 8.95244 1953.6 25.0567V255.464C1953.6 271.572 1937.93 271.794 1937.27 271.794Z" fill="white"/>
<path d="M235.004 271.794V273.716H324.344C324.411 273.716 324.565 273.716 324.795 273.708C331.546 273.557 408.854 270.368 408.854 206.482C408.854 173.806 371.008 145.361 335.662 140.12C356.643 136.966 399.406 124.352 399.406 73.9359C399.406 7.55793 325.08 6.69824 324.332 6.69824H255.177V6.80125L235.004 6.80917V8.73059C235.669 8.73059 251.334 8.95244 251.334 25.0567V255.464C251.334 271.572 235.669 271.794 235.004 271.794ZM287.833 255.464V141.17H324.328C326.408 141.174 375.235 142.013 375.235 209.362C375.235 230.054 369.701 246.075 358.778 256.981C344.192 271.553 324.779 271.794 324.336 271.794H304.159C303.493 271.794 287.833 271.572 287.833 255.464ZM365.787 76.8161C365.787 102.412 358.616 121.318 345.055 131.491C334.814 139.173 324.431 139.201 324.328 139.248H287.833V8.61966H324.336C324.989 8.62758 365.787 9.60216 365.787 76.8161Z" fill="white"/>
<path d="M691.52 25.0567V255.464C691.52 271.572 675.86 271.79 675.19 271.794V273.716H796.216C869.832 273.716 929.72 213.823 929.72 140.207C929.72 66.5909 869.832 6.69824 796.216 6.69824H721.272V6.79332L675.19 6.80917V8.72661C675.86 8.73057 691.52 8.95243 691.52 25.0567ZM893.221 140.207C893.221 177.736 884.811 228.168 844.742 255.333C820.77 271.588 796.457 271.794 796.216 271.794H744.349C743.684 271.79 728.019 271.572 728.019 255.464V8.61966H796.216C796.457 8.61966 820.687 8.80586 844.659 25.025C884.799 52.1783 893.221 102.646 893.221 140.207Z" fill="white"/>
<path d="M934.521 271.794V273.716H1088.69L1108.34 201.692L1106.49 201.165C1106.28 201.874 1084.96 271.794 1034.41 271.794H1003.68C1003.01 271.794 987.35 271.572 987.35 255.464V141.17H1020.96C1050.65 141.17 1054.55 191.634 1054.58 192.145L1056.51 192.073V88.3406L1054.58 88.2891C1054.56 88.8001 1051.46 139.248 1020.96 139.248H987.35V8.61966H1038.25C1071.99 8.61966 1089.27 25.4608 1089.44 25.6272L1091.08 27.2633V6.69824H986.387V6.78936L934.521 6.80917V8.73059C935.187 8.73059 950.851 8.95244 950.851 25.0567V255.464C950.851 271.572 935.187 271.794 934.521 271.794Z" fill="white"/>
<path d="M1123.74 25.0567V255.464C1123.74 271.572 1108.07 271.79 1107.41 271.794V273.716H1176.56V271.794C1175.9 271.79 1160.23 271.572 1160.23 255.464V141.17H1193.85C1223.53 141.17 1227.43 191.63 1227.47 192.141L1229.39 192.073V88.3406L1227.47 88.2891C1227.44 88.8001 1224.34 139.248 1193.85 139.248H1160.23V8.61966H1211.14C1244.87 8.61966 1262.16 25.4608 1262.33 25.6272L1263.97 27.2633V6.69824H1159.27V6.78936L1107.41 6.80917V8.72661C1108.07 8.73057 1123.74 8.95243 1123.74 25.0567Z" fill="white"/>
<path d="M1269.05 184.52C1280.61 219.585 1305.14 248.05 1338.12 264.661C1357.7 274.526 1378.86 279.514 1400.17 279.514C1414.74 279.514 1429.39 277.18 1443.63 272.478C1459.43 267.26 1473.93 259.301 1486.8 248.854V248.917L1488.38 247.598C1488.38 247.598 1488.38 247.594 1488.38 247.59C1494.22 243.11 1499.98 237.341 1505.54 230.476C1505.89 230.06 1506.2 229.62 1506.55 229.2C1507.51 228.024 1508.46 226.831 1509.38 225.619C1510 224.819 1510.61 224.018 1511.21 223.206C1512.13 221.942 1513.02 220.651 1513.91 219.351C1514.45 218.563 1515 217.779 1515.52 216.974C1516.47 215.528 1517.37 214.055 1518.26 212.569C1518.68 211.876 1519.11 211.198 1519.52 210.497C1520.8 208.29 1522.03 206.056 1523.19 203.77L1523.3 203.568V139.25H1400.35V159.819L1401.99 158.179C1402.16 158.009 1419.39 141.172 1453.18 141.172H1486.8V230.412C1486.8 239.283 1486.79 246.299 1480.19 250.978C1451.62 269.134 1422.04 265.969 1401.59 259.677C1360.06 246.901 1320.89 210.279 1308.46 172.604C1283.88 98.0685 1304.09 31.9481 1357.59 11.7752C1394.58 0.765657 1439.85 7.58371 1467.69 28.3508C1482.97 39.7407 1491.04 53.9433 1491.04 69.4216H1492.96V21.2476L1492.68 20.9663C1475.98 4.26382 1413.35 -8.6473 1357.01 9.94487C1284.62 33.8338 1245.16 112.148 1269.05 184.52Z" fill="white"/>
<path d="M1264.01 1630.74V1468.32L1213.96 1468.37C1212.32 1468.26 1211.19 1468.37 1211.08 1468.39L1211.18 1470.3L1213.73 1470.3C1216.14 1470.47 1219.89 1471.19 1222.84 1473.84C1225.94 1476.62 1227.51 1480.92 1227.51 1486.63V1633.72C1212.7 1638.78 1185.36 1645.96 1170.56 1636.29C1163.74 1631.83 1160.28 1624.15 1160.28 1613.46V1468.32L1110.23 1468.37C1108.59 1468.26 1107.46 1468.37 1107.34 1468.39L1107.45 1470.3L1110 1470.3C1112.41 1470.47 1116.16 1471.19 1119.1 1473.84C1122.2 1476.62 1123.78 1480.92 1123.78 1486.63V1630.75C1123.78 1639.48 1126.93 1645.93 1133.15 1649.92C1138.55 1653.4 1145.92 1654.79 1154.26 1654.79C1178.42 1654.79 1210.78 1643.09 1227.51 1636.3V1649L1280.34 1648.98V1647.07C1279.67 1647.06 1264.01 1646.84 1264.01 1630.74Z" fill="white"/>
<path d="M1039.25 1468.34V1374.54L1020.57 1384.4L986.017 1400.72L986.837 1402.45C986.912 1402.42 994.356 1398.98 998.96 1401.9C1001.48 1403.5 1002.75 1406.79 1002.75 1411.67V1468.34H986.429V1470.26H1002.75V1618.17C1002.75 1633.03 1017.56 1643.69 1046.74 1649.85C1064.01 1653.5 1081.45 1654.4 1087.72 1654.61C1088.75 1654.66 1089.49 1654.67 1089.88 1654.67H1090.18L1090.17 1652.75C1090.1 1652.75 1089.5 1652.74 1088.47 1652.71C1083.02 1652.45 1065.48 1650.64 1052.98 1638.37C1043.87 1629.42 1039.25 1616.81 1039.25 1600.88V1470.29C1072.34 1470.61 1089.31 1487.1 1089.48 1487.27L1091.12 1488.9V1468.34H1039.25Z" fill="white"/>
<path d="M285.329 1464.34C280.179 1465.34 275.528 1466.6 271.328 1468.15C261.404 1471.68 252.178 1476.79 243.973 1483.29V1468.34L191.144 1468.36V1470.28C191.814 1470.28 207.474 1470.51 207.474 1486.61V1717.11C207.474 1733.22 191.814 1733.44 191.144 1733.44V1735.36H260.299L260.303 1733.44C259.634 1733.44 243.973 1733.22 243.973 1717.11V1597.17C251.072 1614.89 261.987 1630.27 275.472 1640.64C286.87 1649.4 299.266 1653.9 311.805 1653.9C313.596 1653.9 315.39 1653.81 317.185 1653.62C318.718 1653.47 320.243 1653.25 321.753 1652.95C321.761 1652.95 321.769 1652.95 321.777 1652.95C373.766 1642.9 407.888 1592.43 397.845 1540.44C387.802 1488.44 337.33 1454.31 285.329 1464.34ZM321.388 1651.07C319.911 1651.35 318.433 1651.56 316.951 1651.71C302.966 1653.07 288.082 1648.09 275.468 1637.72C256.67 1622.26 245.372 1597.48 243.973 1568.95V1497.09C245.336 1493.44 247.012 1490.13 249.008 1487.16C254.258 1479.36 261.753 1473.73 272.129 1469.91C276.522 1468.36 281.054 1467.12 285.694 1466.23C301.231 1463.23 317.712 1469.96 332.105 1485.18C346.608 1500.51 357.23 1522.59 362.011 1547.36C371.848 1598.29 353.64 1644.8 321.424 1651.06C321.412 1651.06 321.4 1651.06 321.388 1651.07Z" fill="white"/>
<path d="M607.073 1722.87V1486.47C607.073 1470.36 622.733 1470.14 623.403 1470.14V1468.22H570.574V1483.29C568.708 1481.82 566.802 1480.39 564.814 1479.05C543.563 1464.68 517.986 1459.44 492.794 1464.31C467.606 1469.17 445.816 1483.55 431.444 1504.81C417.071 1526.06 411.837 1551.63 416.702 1576.82C421.563 1602.01 435.948 1623.8 457.198 1638.18C473.275 1649.05 491.82 1654.69 510.804 1654.69C516.921 1654.69 523.081 1654.1 529.218 1652.92C548.46 1649.2 562.306 1634.31 570.574 1608.51V1705.58C570.574 1714.49 573.601 1721.92 579.571 1727.67C592.625 1740.25 615.586 1741.14 621.854 1741.14C622.737 1741.14 623.292 1741.13 623.435 1741.12L623.403 1739.2C622.733 1739.2 607.073 1739.02 607.073 1722.87ZM482.442 1632.08C467.939 1616.75 457.317 1594.66 452.536 1569.9C447.754 1545.14 449.39 1520.69 457.139 1501.06C464.829 1481.57 477.621 1469.19 493.159 1466.19C521.203 1460.77 556.68 1472.25 570.574 1497.04V1574.86C567.884 1618.32 552.719 1646.42 528.853 1651.03C513.316 1654.03 496.835 1647.3 482.442 1632.08Z" fill="white"/>
<path d="M748.219 1608.15C751.365 1608.15 754.518 1607.84 757.66 1607.24C795.624 1599.91 820.547 1563.06 813.214 1525.1C806.955 1492.69 779.58 1469.33 746.638 1468.29C741.635 1468.14 686.789 1468.29 684.456 1468.29L683.493 1468.29V1468.31L676.968 1468.32C675.926 1468.3 675.3 1468.29 675.241 1468.29L672.174 1468.25L672.266 1468.32L640.651 1468.33V1470.25C641.317 1470.25 656.981 1470.47 656.981 1486.57V1630.61C656.981 1646.72 641.317 1646.94 640.651 1646.94V1648.86H706.986C707.556 1648.91 708.059 1648.92 708.487 1648.92C709.311 1648.92 709.834 1648.86 709.913 1648.86L709.806 1646.94H707.223C704.807 1646.76 701.083 1646.03 698.151 1643.4C695.053 1640.62 693.476 1636.32 693.476 1630.61V1592.71C702.763 1602.43 749.526 1648.86 796.25 1648.86H830.828V1646.94C800.462 1646.94 755.924 1614.98 746.702 1608.11C747.209 1608.13 747.712 1608.15 748.219 1608.15ZM757.307 1605.35C743.192 1607.71 729.175 1603.72 717.841 1594.12C702.133 1580.81 693.476 1558.89 693.476 1532.39V1470.47C710.951 1470.7 734.789 1471.03 735.732 1471.04C755.394 1471.21 775.186 1497.06 781.77 1531.17C785.241 1549.14 784.559 1566.79 779.845 1580.87C775.218 1594.68 767.267 1603.36 757.473 1605.32C757.418 1605.33 757.363 1605.34 757.307 1605.35Z" fill="white"/>
<path d="M1826.43 1623L1824.06 1619.03L1824.08 1619.16L1771.64 1531.39L1796.91 1494.25L1805.96 1482.8C1817.5 1470.48 1825.65 1470.2 1825.74 1470.2V1468.28H1797.81L1797.81 1470.2C1797.94 1470.2 1801.04 1470.25 1802.38 1472.81C1803.4 1474.76 1803.56 1478.48 1799.94 1485.51L1795.25 1493.26L1795.25 1493.27L1770.56 1529.57L1748.44 1492.53C1741.32 1480.39 1741.42 1474.89 1742.81 1472.43C1744.02 1470.25 1746.42 1470.2 1746.51 1470.2V1468.28H1684.7L1684.69 1470.2C1684.8 1470.2 1695.8 1470.65 1709.89 1494.25L1712.24 1498.19L1712.23 1498.16L1749.49 1560.53L1707.04 1622.92L1707.02 1622.9L1697.92 1634.4C1686.32 1646.78 1678.08 1647.05 1677.98 1647.06V1648.98H1706.03L1706.03 1647.06C1705.9 1647.05 1702.8 1647 1701.46 1644.45C1700.2 1642.04 1700.24 1636.97 1707.04 1626.34L1750.58 1562.35L1790.09 1628.49C1795.08 1638.04 1794.85 1642.63 1793.62 1644.83C1792.4 1647 1790 1647.05 1789.91 1647.06V1648.98H1851.72L1851.73 1647.06C1851.62 1647.05 1840.52 1646.6 1826.43 1623Z" fill="white"/>
<path d="M1427.64 1468.32H1402.23L1402.88 1469.69C1403 1469.94 1403.16 1470.27 1403.37 1470.69C1418.09 1500.04 1418.95 1534.15 1405.82 1566.77C1404.37 1570.31 1403.02 1573.58 1401.78 1576.62C1394.76 1593.58 1390.24 1603.57 1387.33 1609.48L1339.14 1491.48C1335.03 1480.55 1336.01 1475.33 1337.65 1472.87C1339.35 1470.3 1342.04 1470.24 1342.15 1470.24V1468.32H1280.33V1470.24C1280.44 1470.24 1291.18 1470.52 1300.8 1494.17L1302.38 1498.05L1302.39 1497.98L1363.78 1648.38L1364.02 1648.98H1374.36L1388.89 1613.29C1389.54 1611.67 1392.69 1603.88 1403.5 1577.51C1404.75 1574.48 1406.05 1571.3 1407.42 1567.95C1407.48 1567.8 1407.54 1567.64 1407.6 1567.49C1409.05 1563.96 1410.6 1560.17 1412.28 1556.09C1432.56 1506.67 1427.8 1469.52 1427.75 1469.15L1427.64 1468.32Z" fill="white"/>
<path d="M913.913 1550.87C885.512 1538.48 858.683 1526.78 858.683 1503.88C858.683 1487.58 865.909 1476.01 880.159 1469.48C890.892 1464.56 901.798 1464.5 901.905 1464.5C931.356 1464.5 965.589 1494.28 965.589 1532.69H967.511V1487.22L967.396 1487.01C966.861 1486.01 953.752 1462.58 901.905 1462.58C883.602 1462.58 866.527 1467.24 853.826 1475.7C839.41 1485.32 831.791 1499.04 831.791 1515.4C831.791 1542.38 860.597 1555.95 888.459 1569.08C915.624 1581.88 941.284 1593.97 941.284 1617.22C941.284 1631.92 934.708 1642.36 921.733 1648.25C911.952 1652.69 902.004 1652.75 901.905 1652.75C837.964 1652.75 831.843 1575.67 831.787 1574.89L829.87 1574.95V1630.13L830.08 1630.39C830.876 1631.38 850.173 1654.67 901.905 1654.67C920.208 1654.67 937.283 1650.01 949.98 1641.54C964.401 1631.93 972.019 1618.21 972.019 1601.85C972.019 1576.21 942.481 1563.33 913.913 1550.87Z" fill="white"/>
<path d="M1989.47 1468.28H1964.06L1964.71 1469.65C1964.83 1469.9 1965 1470.23 1965.21 1470.64C1979.96 1500.07 1980.79 1534.28 1967.55 1566.98C1966.36 1569.88 1965.23 1572.64 1964.16 1575.25C1957.12 1592.32 1952.19 1603.4 1948.78 1610.6L1901.03 1493.3C1896.1 1481.13 1897.11 1475.48 1898.83 1472.89C1900.54 1470.33 1903.23 1470.26 1903.33 1470.26V1468.34H1841.52L1841.51 1470.26C1841.62 1470.26 1852.43 1470.72 1861.99 1494.19L1863.56 1498.07V1498.06L1924.76 1648.38L1925 1648.97H1933.73C1931.07 1655.38 1927.26 1664.9 1921.88 1678.98L1921.87 1678.98C1904.39 1721.82 1897.35 1739.58 1897.26 1739.8L1896.74 1741.12H1913.21L1913.07 1740.03C1913.04 1739.79 1910.05 1715.3 1923.66 1679.69C1928.03 1668.96 1933.06 1656.66 1938.8 1642.67H1938.82L1948.32 1619.34C1948.36 1619.23 1952.37 1609.14 1965.91 1576.05C1966.98 1573.47 1968.09 1570.76 1969.25 1567.9C1969.27 1567.84 1969.3 1567.77 1969.33 1567.71C1970.82 1564.06 1972.41 1560.18 1974.11 1556.04C1994.39 1506.63 1989.63 1469.48 1989.59 1469.11L1989.47 1468.28Z" fill="white"/>
<path d="M1660.98 1468.28H1635.57L1636.23 1469.65C1636.34 1469.9 1636.51 1470.23 1636.72 1470.64C1651.34 1499.8 1652.29 1533.65 1639.42 1566.09C1637.08 1571.78 1635.01 1576.8 1633.18 1581.22C1627.13 1595.63 1623.07 1604.38 1620.38 1609.7L1583.75 1519.83L1591.95 1499.05L1592 1499.07L1599.19 1484.18C1608.51 1470.46 1619.82 1470.2 1619.96 1470.2L1619.95 1468.28H1438.48L1438.47 1470.2C1438.57 1470.2 1449.39 1470.65 1458.94 1494.12L1460.52 1498V1497.97L1521.81 1648.38L1522.06 1648.97H1532.4L1546.78 1613.64L1546.92 1613.28L1546.92 1613.28L1564.38 1568.99L1596.73 1648.38L1596.97 1648.97H1607.31L1621.69 1613.66C1621.86 1613.27 1624.36 1607.59 1634.93 1582.02C1636.92 1577.3 1638.89 1572.51 1640.76 1567.9C1640.91 1567.54 1641.06 1567.17 1641.2 1566.81C1642.58 1563.46 1644.05 1559.88 1645.62 1556.04C1665.9 1506.63 1661.15 1469.48 1661.1 1469.11L1660.98 1468.28ZM1497.72 1492.57C1493.11 1480.86 1494.1 1475.37 1495.79 1472.83C1497.49 1470.26 1500.18 1470.2 1500.29 1470.2H1513.38C1513.49 1470.2 1524.31 1470.65 1533.86 1494.12L1535.44 1498L1535.44 1497.97L1563.33 1566.41L1545.87 1610.7L1497.72 1492.57ZM1582.7 1517.26L1575.99 1500.79C1571.47 1489.43 1570.95 1480.98 1574.48 1475.71C1577.18 1471.67 1581.67 1470.59 1583.83 1470.3C1585.72 1470.57 1589.55 1471.54 1591.89 1475.03C1594.75 1479.31 1594.63 1485.97 1591.55 1494.82L1582.7 1517.26Z" fill="white"/>
<path d="M2089.06 1647H2048.87C2048.84 1647 2046.41 1646.97 2045.17 1644.79C2043.97 1642.67 2043.72 1638.3 2048.21 1629.39L2127.55 1497.61L2127.55 1497.64L2129.66 1494.1L2129.99 1493.56C2143.39 1471.22 2153.77 1470.3 2154.73 1470.27H2154.85L2154.89 1468.35C2154.86 1468.34 2154.79 1468.34 2154.67 1468.34H2005.31V1488.91L2006.95 1487.27C2007.12 1487.1 2024.34 1470.27 2058.13 1470.27H2093.03C2093.13 1470.27 2095.52 1470.32 2096.74 1472.49C2098.01 1474.76 2098.19 1479.59 2092.71 1489.76L1996.88 1648.92H2143.34L2162.99 1576.89L2161.14 1576.37C2160.93 1577.07 2139.61 1647 2089.06 1647Z" fill="white"/>
<path d="M190.383 1540.43C180.344 1488.44 129.876 1454.31 77.8946 1464.33C77.8827 1464.34 77.8747 1464.34 77.8668 1464.34C52.6745 1469.2 30.8892 1483.58 16.5162 1504.84C2.14323 1526.09 -3.09411 1551.66 1.77084 1576.86C6.63578 1602.04 21.0167 1623.83 42.2711 1638.21C58.3436 1649.08 76.8922 1654.72 95.8766 1654.72C101.989 1654.72 108.15 1654.14 114.287 1652.95C166.288 1642.91 200.425 1592.43 190.383 1540.43ZM37.6082 1569.94C32.8265 1545.17 34.4587 1520.72 42.2117 1501.09C49.9013 1481.61 62.6936 1469.23 78.2273 1466.23C93.773 1463.22 110.25 1469.95 124.642 1485.18C139.146 1500.51 149.767 1522.59 154.549 1547.35C164.386 1598.31 146.162 1644.84 113.922 1651.06C81.674 1657.3 47.449 1620.89 37.6082 1569.94Z" fill="white"/>
<path d="M96.078 1549.01C90.7813 1549.01 86.471 1553.32 86.471 1558.62C86.471 1563.91 90.7813 1568.22 96.078 1568.22C101.375 1568.22 105.681 1563.91 105.681 1558.62C105.681 1553.32 101.375 1549.01 96.078 1549.01Z" fill="white"/>
<path d="M1521.4 729.931L1574.23 729.915L1574.23 727.994C1573.56 727.99 1557.9 727.772 1557.9 711.664V481.22C1557.9 465.116 1573.56 464.894 1574.23 464.89L1574.23 462.969H1505.07V464.89H1505.09C1505.38 464.894 1512.48 464.997 1517.19 469.696C1519.99 472.481 1521.4 476.359 1521.4 481.22V711.026C1515.58 713.248 1468.05 730.699 1446.98 716.437C1440.28 711.901 1436.88 704.485 1436.88 694.395V481.22C1436.88 465.116 1452.54 464.894 1453.21 464.89L1453.21 462.969H1384.07C1384.07 462.973 1384.06 462.969 1384.05 462.969V464.89C1384.09 464.89 1388.26 464.91 1392.33 466.962C1397.67 469.648 1400.38 474.446 1400.38 481.22V711.683C1400.38 720.054 1403.47 726.338 1409.57 730.355C1415 733.936 1422.75 735.727 1432.76 735.727C1444.43 735.727 1459.19 733.29 1476.91 728.417C1497.8 722.673 1516.39 715.201 1521.4 713.125V729.931Z" fill="white"/>
<path d="M2355.42 703.954L2353.05 699.98L2353.07 700.135L2279.91 577.727L2340.58 488.791L2340.6 488.807L2349.74 477.246C2361.28 464.926 2369.42 464.648 2369.52 464.644V462.723H2341.58L2341.58 464.644C2341.71 464.648 2344.81 464.7 2346.15 467.251C2347.18 469.204 2347.33 472.928 2343.72 479.948L2339.3 487.254L2278.83 575.908L2225.57 486.794C2218.68 474.917 2218.79 469.501 2220.16 467.065C2221.37 464.89 2223.77 464.838 2223.86 464.838V462.917H2162.05L2162.04 464.838C2162.15 464.838 2173.15 465.294 2187.24 488.894L2189.59 492.828L2189.58 492.78L2257.74 606.821L2191.53 703.89L2191.47 703.851L2182.37 715.355C2170.77 727.736 2162.53 728.009 2162.43 728.009V729.93H2190.48L2190.48 728.009C2190.35 728.009 2187.25 727.958 2185.91 725.402C2184.68 723.049 2184.71 718.121 2191.08 707.959L2258.83 608.636L2319.11 709.504C2324.06 719.012 2323.84 723.596 2322.61 725.783C2321.4 727.958 2319 728.009 2318.9 728.009V729.93H2380.72L2380.72 728.009C2380.61 728.009 2369.51 727.557 2355.42 703.954Z" fill="white"/>
<path d="M1719.85 729.938L1734.25 694.572C1734.89 693.067 1759.73 634.608 1780.03 585.99C1783.53 577.778 1786.84 569.842 1789.84 562.486C1790.08 561.883 1790.32 561.281 1790.56 560.675C1792.01 557.165 1793.39 553.806 1794.7 550.628C1814.98 501.21 1810.22 464.062 1810.17 463.689L1810.06 462.857H1784.65L1785.3 464.232C1785.42 464.478 1785.58 464.81 1785.79 465.226C1800.3 494.178 1801.34 527.746 1788.77 559.962C1785.54 567.79 1781.98 576.351 1778.26 585.257C1761.81 623.896 1741.4 668.738 1732.19 688.824L1651.13 488.248L1651.15 488.24C1646.14 475.927 1647.15 470.17 1648.88 467.512C1650.58 464.897 1653.25 464.783 1653.36 464.779L1653.34 462.857H1591.53V464.779C1591.63 464.779 1601.53 465.044 1610.84 486.001L1709.51 729.938H1719.85Z" fill="white"/>
<path d="M1177.55 659.298C1177.55 622.292 1136.13 604.108 1096.08 586.522C1056.02 568.932 1018.18 552.321 1018.18 518.718C1018.18 461.741 1081.84 459.106 1082.65 459.079C1130.54 459.09 1169.5 497.436 1169.5 544.564H1171.42V492.689L1171.32 492.487C1171.14 492.123 1166.71 483.459 1153.5 474.715C1141.4 466.709 1119.28 457.161 1082.63 457.161C1057.82 457.161 1034.68 463.92 1017.48 476.197C998.008 490.095 987.716 509.931 987.716 533.562C987.716 572.525 1029.1 591.708 1069.12 610.26C1108.37 628.456 1145.45 645.646 1145.45 679.728C1145.45 731.262 1083.24 733.758 1082.61 733.778C1046.07 733.77 1018.88 716.517 1001.81 682.494C989.027 657.028 987.042 631.198 987.022 630.936L985.105 631.008V700.262L985.299 700.519C985.568 700.88 992.117 709.481 1007.45 718.177C1021.54 726.171 1046.02 735.699 1082.63 735.699C1107.45 735.699 1130.59 728.94 1147.79 716.659C1167.26 702.766 1177.55 682.925 1177.55 659.298Z" fill="white"/>
<path d="M2567.63 462.861H2542.22L2542.88 464.232C2542.99 464.481 2543.16 464.814 2543.37 465.23C2557.91 494.233 2558.92 527.88 2546.28 560.148C2543.21 567.588 2540.16 574.929 2537.2 582.005C2525.46 609.566 2515.13 631.284 2509.3 643.169L2446.19 487.491C2441.47 475.618 2442.46 470 2444.16 467.385C2445.86 464.77 2448.53 464.66 2448.64 464.656L2448.62 462.734H2386.8V464.656C2386.91 464.656 2397.01 464.917 2406.4 486.508L2486.21 683.233L2486.45 683.836H2495.12C2482.4 715.121 2477.11 728.432 2477.03 728.622L2476.51 729.942H2492.99L2492.85 728.852C2492.82 728.611 2489.83 704.119 2503.44 668.508C2508.36 656.429 2514.12 642.361 2520.78 626.126L2520.73 626.102C2525.64 614.53 2532.04 599.373 2538.97 582.749C2541.72 576.296 2544.55 569.529 2547.41 562.489C2547.63 561.95 2547.85 561.404 2548.06 560.865C2549.46 557.47 2550.87 554.051 2552.27 550.628C2572.55 501.21 2567.8 464.061 2567.75 463.693L2567.63 462.861Z" fill="white"/>
<path d="M986.418 729.936V728.015C959.589 728.015 908.369 699.867 863.784 660.793C865.939 661.031 868.102 661.197 870.285 661.197C874.219 661.197 878.192 660.809 882.178 660.032C935.989 649.637 971.324 597.386 960.948 543.555C952.209 498.34 912.509 464.472 866.541 463.018C859.418 462.784 778.841 463.014 778.029 463.018H777.724L765.221 463.022C765.019 463.018 764.904 463.018 764.904 463.018L761.089 462.962L761.2 463.022L744.375 463.026V464.947C745.04 464.951 760.705 465.173 760.705 481.277V711.689C760.705 727.793 745.04 728.015 744.375 728.015V729.936H813.53V728.015C812.864 728.015 797.204 727.793 797.204 711.689V637.847C815.313 657.057 888.192 729.936 951.186 729.936H986.418ZM860.725 658.313C858.82 658.016 856.918 657.584 855.025 657.093C853.765 656.764 852.505 656.423 851.273 656.015C836.924 650.924 823.989 639.923 813.799 624.1C813.169 623.038 812.555 621.953 811.957 620.843C807.774 613.11 804.434 604.394 802.013 594.886C798.82 582.407 797.204 568.605 797.204 553.859V465.375C821.128 465.704 849.791 466.096 851.047 466.112C887.641 466.112 915.496 497.239 925.558 549.375C935.898 602.877 917.088 649.629 881.802 658.15C874.607 659.347 867.516 659.398 860.725 658.313Z" fill="white"/>
<path d="M330.405 614.669H357.246C357.293 614.669 357.388 614.669 357.523 614.665C362.959 614.554 441.978 611.591 441.978 538.791C441.978 463.88 358.086 462.913 357.238 462.913H297.749V463.012L277.58 463.02L277.576 464.941C278.246 464.941 293.906 465.163 293.906 481.268V711.679C293.906 727.783 278.246 728.005 277.576 728.005L277.58 729.926H346.735V728.005C346.066 728.005 330.405 727.783 330.405 711.679V614.669ZM380.703 474.469C400.147 490.403 404.227 520.013 404.227 542.048C404.227 571.027 396.102 592.44 380.727 603.965C369.206 612.601 357.515 612.748 357.242 612.748H330.405V464.835H357.234C357.369 464.835 369.123 464.977 380.703 474.469Z" fill="white"/>
<path d="M2711.45 728.02H2623.33C2623.23 728.02 2620.84 727.965 2619.62 725.794C2618.33 723.488 2618.16 718.536 2623.94 707.998L2755.94 485.601C2769.08 465.087 2779.1 464.656 2779.19 464.656V462.734H2593.31V483.303L2594.95 481.663C2595.12 481.493 2612.35 464.656 2646.14 464.656H2717.38C2717.48 464.656 2719.87 464.711 2721.09 466.882C2722.5 469.398 2722.59 475.059 2715.03 487.728L2715.09 487.764L2571.36 729.942H2765.73L2785.37 657.918L2783.52 657.391C2783.31 658.097 2762 728.02 2711.45 728.02Z" fill="white"/>
<path d="M1245.75 728.009V729.93H1314.9L1314.91 728.009C1314.24 728.009 1298.58 727.787 1298.58 711.679V464.835H1314.9C1348.64 464.835 1365.92 481.676 1366.09 481.842L1367.73 483.478V462.913H1192.92V483.482L1194.56 481.842C1194.73 481.672 1211.96 464.835 1245.75 464.835H1262.08V711.679C1262.08 727.787 1246.41 728.009 1245.75 728.009Z" fill="white"/>
<path d="M728.048 729.864V702.417L726.262 705.436C726.226 705.495 722.668 711.374 712.384 717.531C702.868 723.224 685.488 730.327 656.738 731.797C639.006 732.704 625.687 733.239 615.763 733.54C614.772 733.56 613.79 733.568 612.799 733.584C678.179 722.162 728.048 665.031 728.048 596.43C728.048 519.637 665.573 457.161 588.78 457.161C511.986 457.161 449.507 519.637 449.507 596.43C449.507 673.2 511.947 735.659 588.704 735.699C588.89 735.711 590.705 735.838 595.887 735.838C600.153 735.838 606.694 735.751 616.476 735.446C671.682 734.336 726.539 729.982 727.165 729.935L728.048 729.864ZM612.589 731.702C586.715 736.254 559.891 726.512 537.068 704.267C514.161 681.935 498.041 649.711 491.671 613.521C478.542 538.934 511.424 470.583 564.966 461.158C569.134 460.426 573.321 460.061 577.512 460.061C599.373 460.061 621.341 469.93 640.487 488.593C663.394 510.925 679.518 543.149 685.884 579.335C699.013 653.926 666.131 722.273 612.589 731.702Z" fill="white"/>
<path d="M2076.31 462.857H1829.31V464.779C1829.42 464.779 1839.32 465.044 1848.63 485.997L1947.3 729.938H1957.64L1972.17 694.247L1972.16 694.235L2001.19 622.85L2044.51 729.938H2054.85L2069.25 694.568C2069.89 693.059 2094.74 634.584 2115.05 585.966C2118.54 577.762 2121.85 569.834 2124.84 562.486C2125.08 561.883 2125.32 561.277 2125.56 560.675C2127.01 557.165 2128.4 553.806 2129.7 550.624C2149.98 501.206 2145.23 464.058 2145.17 463.689L2145.06 462.857H2119.65L2120.3 464.232C2120.42 464.478 2120.59 464.81 2120.79 465.222C2135.31 494.174 2136.35 527.742 2123.78 559.958C2120.54 567.782 2116.98 576.34 2113.27 585.234C2096.82 623.88 2076.4 668.734 2067.19 688.824L2020.92 574.339L2055.65 488.961L2055.77 488.675L2055.84 488.703C2065.39 465.234 2076.21 464.779 2076.31 464.779V462.857ZM2051.62 464.779C2051.74 464.783 2054.42 464.893 2056.13 467.524C2057.85 470.17 2058.86 475.887 2053.94 488.057L2019.89 571.78L1986.14 488.248L1986.16 488.236C1981.14 475.927 1982.15 470.17 1983.89 467.508C1985.58 464.893 1988.26 464.783 1988.36 464.779H2051.62ZM1926.52 464.779C1926.62 464.779 1936.6 465.21 1945.85 486.033L2000.16 620.294L1971.13 691.676L1888.92 488.248L1888.94 488.236C1883.93 475.927 1884.94 470.17 1886.67 467.508C1888.37 464.893 1891.04 464.783 1891.15 464.779H1926.52Z" fill="white"/>
<path d="M139.269 735.692C216.062 735.692 278.538 673.216 278.538 596.423C278.538 519.626 216.062 457.15 139.269 457.15C62.4757 457.15 0 519.626 0 596.423C0 673.216 62.4757 735.692 139.269 735.692ZM163.079 731.695C137.201 736.247 110.38 726.505 87.5611 704.256C64.6546 681.928 48.5306 649.704 42.1642 613.514C29.0352 538.927 61.9132 470.576 115.459 461.151C119.623 460.419 123.81 460.054 128.002 460.054C149.862 460.054 171.83 469.923 190.977 488.586C213.883 510.918 230.007 543.138 236.374 579.328C249.503 653.919 216.625 722.266 163.079 731.695Z" fill="white"/>
<path d="M139.269 586.814C133.972 586.814 129.662 591.121 129.662 596.418C129.662 601.714 133.972 606.025 139.269 606.025C144.566 606.025 148.872 601.714 148.872 596.418C148.872 591.121 144.566 586.814 139.269 586.814Z" fill="white"/>
<path d="M54.2 2102.99V1931.33L0 1956.93L0.826891 1958.7C0.904412 1958.67 8.47562 1955.17 13.1656 1958.14C15.7367 1959.77 17.0417 1963.12 17.0417 1968.09V2102.99C17.0417 2119.4 1.08529 2119.62 0.413445 2119.62V2121.57H70.8282V2119.62C70.1435 2119.62 54.2 2119.4 54.2 2102.99Z" fill="white"/>
<path d="M1278.46 1982.17C1297.11 1973.08 1334.68 1949.83 1334.68 1909.84C1334.68 1844.64 1253.06 1843.89 1252.25 1843.89C1228.97 1843.89 1207.27 1850.79 1191.14 1863.3C1172.89 1877.46 1163.25 1897.64 1163.25 1921.69C1163.25 1954.44 1189.69 1973.46 1220.02 1989.72C1199.24 1999.16 1159.53 2022.3 1159.53 2061.56C1159.53 2126.76 1251.32 2127.5 1252.23 2127.5C1275.5 2127.5 1297.22 2120.62 1313.36 2108.1C1331.6 2093.95 1341.24 2073.76 1341.24 2049.71C1341.24 2016.6 1311.23 1998.29 1278.46 1982.17ZM1276.16 1853.36C1291.85 1863.2 1300.13 1881.45 1300.13 1906.16C1300.13 1953.13 1284.42 1972.77 1274.83 1980.4C1271.52 1978.79 1268.2 1977.2 1264.9 1975.63C1227.38 1957.72 1191.95 1940.81 1191.95 1906.57C1191.95 1882.22 1202.05 1864.59 1222 1854.22C1236.91 1846.45 1252.03 1845.86 1252.26 1845.85C1252.6 1845.85 1264.43 1846 1276.16 1853.36ZM1252.22 2125.55C1251.89 2125.55 1238.47 2125.41 1225.19 2118.02C1207.27 2108.03 1198.18 2090.28 1198.18 2065.24C1198.18 2019.97 1213.77 2000.09 1224.08 1991.88C1229.18 1994.56 1234.37 1997.17 1239.52 1999.76C1276.29 2018.29 1311.01 2035.78 1311.01 2070.51C1311.01 2092.52 1301.16 2108.45 1281.74 2117.89C1267.2 2124.96 1252.44 2125.54 1252.22 2125.55Z" fill="white"/>
<path d="M153.992 2065.66C108.552 2101.28 88.267 2119.48 87.8148 2119.9L85.7476 2121.63H207.326L226.422 2051.64C227.107 2049.55 227.339 2048.25 227.352 2048.18L225.44 2047.76L224.432 2051.5C223.231 2055.01 220.763 2060.62 215.905 2066.17C208.605 2074.51 194.277 2084.46 167.429 2084.46H134.663L194.083 2036.32C219.755 2017.62 232.818 1986.92 225.13 1963.32C218.541 1943.04 198.024 1931.88 167.377 1931.88C109.43 1931.88 92.2464 1957.13 91.5487 1958.2L91.3807 1958.45V1990.27C91.3549 1991.61 91.3807 1992.4 91.3807 1992.45L93.3446 1992.4V1990.2C93.5772 1981.2 96.8847 1946.7 132.971 1937.5C133.694 1937.33 134.431 1937.17 135.18 1937C155.723 1934.23 174.251 1946.06 183.566 1967.98C199.936 2006.5 179.716 2045.6 153.992 2065.66Z" fill="white"/>
<path d="M987.675 1937.78L968.592 2007.77C967.895 2009.85 967.662 2011.14 967.649 2011.22L969.561 2011.63L970.582 2007.9C971.771 2004.38 974.251 1998.79 979.096 1993.23C986.396 1984.89 1000.72 1974.94 1027.57 1974.94H1113C1080.55 2026.88 1023.45 2118.42 1007.68 2144.85C1007.35 2145.39 1007.03 2145.95 1006.71 2146.49C984.6 2182.18 968.954 2207.47 968.515 2208.17L967.597 2209.66H984.458L984.549 2208.78C984.574 2208.52 987.12 2183.74 1008.39 2147.5C1047.56 2084.25 1106.95 1988.41 1137.61 1939.28L1138.58 1937.78H987.675Z" fill="white"/>
<path d="M268.832 1937.78L249.749 2007.77C249.051 2009.85 248.818 2011.14 248.805 2011.22L250.718 2011.63L251.738 2007.91C252.927 2004.38 255.395 1998.79 260.253 1993.23C267.553 1984.89 281.881 1974.94 308.729 1974.94H343.342C339.066 1978.48 334.479 1982.25 329.608 1986.23L322.063 1992.41C315.163 1998.04 307.708 2004.07 299.762 2010.46H299.737L270.227 2033.87C266.829 2036.24 264.167 2038.52 262.113 2040.27C261.919 2040.44 261.726 2040.61 261.532 2040.78L251.971 2048.38L251.893 2048.44C248.612 2051.73 247.177 2055.25 248.159 2057.63C248.715 2058.96 249.955 2059.72 251.57 2059.72C255.55 2059.72 256.273 2056.08 256.958 2052.54C257.565 2049.47 258.25 2046 260.899 2043.85C264.865 2040.73 268.754 2037.65 272.566 2034.65C281.093 2028.93 293.91 2022.97 312.566 2022.97C337.554 2022.97 353.691 2044.5 353.691 2077.82C353.691 2107.74 340.28 2139.66 317.825 2163.2C298.47 2183.49 262.927 2207.68 203.482 2207.71H203.391V2209.66H203.494C248.276 2209.64 293.522 2196.82 327.631 2174.46C355.487 2156.21 388.692 2123.13 388.692 2069.15C388.692 2041.79 381.056 2022.73 366.004 2012.51C345.642 1998.68 316.907 2005.11 305.111 2008.66C358.73 1965.45 387.994 1939.82 388.356 1939.48L390.423 1937.78H268.832Z" fill="white"/>
<path d="M545.888 2209.65V2207.68C545.203 2207.68 529.26 2207.5 529.26 2191.07V2121.63H544.687L563.783 2051.65C564.467 2049.57 564.7 2048.26 564.713 2048.2L562.801 2047.77L561.793 2051.5C560.591 2055.02 558.124 2060.62 553.266 2066.18C548.614 2071.5 541.069 2077.46 529.26 2081.09V1929.6L492.102 1986.24L404.27 2120.11L403.25 2121.63H492.102V2191.07C492.102 2207.46 476.158 2207.68 475.473 2207.68V2209.65H545.888ZM492.102 2084.46H429.994L492.102 1989.81V2084.46Z" fill="white"/>
<path d="M700.145 2004.88C670.816 1994.95 632.74 2004.21 620.828 2013.97L628.826 1975.05H721.347L735.636 1922.58L733.802 1921.95C733.518 1922.6 726.579 1937.89 681.436 1937.89H634.472L633.865 1940.88L611.358 2050.35L610.208 2055.89L612.52 2053.59C612.779 2053.33 638.735 2027.75 668.969 2027.75C693.181 2027.75 708.827 2047.86 708.827 2078.97C708.827 2108.27 695.054 2139.8 671.979 2163.3C652.108 2183.54 615.789 2207.68 555.568 2207.7H555.465V2209.65H555.581C600.363 2209.64 645.596 2196.81 679.705 2174.46C707.561 2156.2 740.766 2123.13 740.766 2069.16C740.766 2027.39 718.672 2011.15 700.145 2004.88Z" fill="white"/>
<path d="M909.019 1948.67C887.391 1934.04 861.357 1928.7 835.711 1933.64C835.711 1933.64 835.685 1933.65 835.659 1933.65C821.951 1936.3 809.25 1941.75 798.152 1949.53C806.679 1920.15 821.873 1899.1 836.512 1884.63C866.112 1855.38 899.859 1845.89 900.195 1845.81L899.691 1843.92H899.678C898.98 1844.1 863.282 1854.06 828.075 1881.65C795.787 1906.95 757.414 1952.61 756.471 2026.9C756.277 2033.96 756.833 2041.11 758.203 2048.23C763.164 2073.86 777.802 2096.06 799.444 2110.7C815.814 2121.76 834.703 2127.51 854.031 2127.51C860.246 2127.51 866.525 2126.9 872.778 2125.7C898.425 2120.75 920.609 2106.11 935.247 2084.47C949.873 2062.83 955.209 2036.78 950.261 2011.13C945.299 1985.49 930.661 1963.3 909.019 1948.67ZM825.142 2104.48C811.24 2089.77 800.839 2068.97 795.606 2045.52C794.017 2036.95 792.906 2028.76 792.195 2020.88C789.857 1977.46 807.583 1941.08 836.059 1935.58C851.887 1932.52 868.657 1939.38 883.321 1954.87C898.089 1970.48 908.903 1992.97 913.774 2018.18C923.787 2070.06 905.234 2117.44 872.404 2123.79C856.577 2126.85 839.806 2119.99 825.142 2104.48Z" fill="white"/>
<path d="M1548.75 2011.17C1543.8 1985.52 1529.15 1963.33 1507.51 1948.7C1485.88 1934.07 1459.85 1928.74 1434.21 1933.67C1434.19 1933.69 1434.16 1933.69 1434.16 1933.69C1408.52 1938.65 1386.35 1953.3 1371.72 1974.93C1357.08 1996.57 1351.75 2022.6 1356.71 2048.25C1361.66 2073.9 1376.31 2096.09 1397.93 2110.72C1414.3 2121.79 1433.19 2127.54 1452.52 2127.54C1458.74 2127.54 1465 2126.93 1471.24 2125.75L1471.27 2125.73C1484.99 2123.08 1497.7 2117.64 1508.82 2109.87C1500.28 2139.23 1485.08 2160.29 1470.46 2174.75C1440.86 2204 1407.1 2213.5 1406.76 2213.59L1407.28 2215.48C1407.99 2215.28 1443.69 2205.32 1478.89 2177.74C1511.17 2152.45 1549.54 2106.78 1550.5 2032.5C1550.68 2025.42 1550.12 2018.29 1548.75 2011.17ZM1423.65 2104.52C1408.88 2088.91 1398.06 2066.42 1393.19 2041.21C1383.17 1989.32 1401.73 1941.96 1434.55 1935.61C1437.02 1935.13 1439.5 1934.9 1442.01 1934.9C1455.55 1934.9 1469.43 1941.81 1481.81 1954.9C1495.73 1969.62 1506.13 1990.43 1511.36 2013.87C1512.95 2022.45 1514.05 2030.64 1514.76 2038.51C1517.11 2081.93 1499.38 2118.32 1470.89 2123.82C1455.08 2126.88 1438.3 2120.02 1423.65 2104.52Z" fill="white"/>
<path d="M1718.76 1948.68C1697.13 1934.06 1671.09 1928.72 1645.45 1933.66C1645.45 1933.66 1645.42 1933.67 1645.39 1933.67C1619.76 1938.63 1597.59 1953.27 1582.95 1974.91C1568.33 1996.55 1562.99 2022.59 1567.94 2048.25C1572.9 2073.88 1587.54 2096.08 1609.18 2110.72C1625.55 2121.77 1644.44 2127.52 1663.77 2127.52C1669.98 2127.52 1676.26 2126.92 1682.51 2125.72C1708.16 2120.77 1730.34 2106.13 1744.98 2084.49C1759.61 2062.85 1764.94 2036.8 1760 2011.15C1755.04 1985.51 1740.4 1963.32 1718.76 1948.68ZM1653.65 1934.91C1660.95 1935.04 1666.25 1937.29 1669.79 1941.81C1681.2 1956.4 1672.2 1992.66 1663.51 2027.76C1654.48 2064.23 1645.12 2101.96 1657.76 2118.09C1659.26 2120.02 1661.07 2121.58 1663.15 2122.83C1653.41 2120.08 1643.75 2113.88 1634.88 2104.5C1620.11 2088.89 1609.3 2066.4 1604.44 2041.19C1594.41 1989.3 1612.97 1941.94 1645.8 1935.6C1648.39 1935.09 1651.02 1934.89 1653.65 1934.91ZM1677.32 2124.4C1669.12 2124.35 1663.21 2121.89 1659.3 2116.89C1647.26 2101.5 1656.48 2064.25 1665.41 2028.22C1674.62 1991.05 1683.33 1955.93 1671.33 1940.61C1670.51 1939.55 1669.57 1938.63 1668.56 1937.81C1677.01 1940.98 1685.33 1946.72 1693.06 1954.89C1707.82 1970.49 1718.64 1992.99 1723.51 2018.19C1733.52 2070.08 1714.97 2117.46 1682.14 2123.8C1680.55 2124.11 1678.94 2124.28 1677.32 2124.4Z" fill="white"/>
<path d="M18.579 2573.45C8.33336 2573.45 -0.000130316 2581.78 -0.000130316 2592.03C-0.000130316 2602.28 8.33336 2610.61 18.579 2610.61C28.8247 2610.61 37.1582 2602.28 37.1582 2592.03C37.1582 2581.78 28.8247 2573.45 18.579 2573.45Z" fill="white"/>
<path d="M159.414 2327.02C149.168 2327.02 140.835 2335.36 140.835 2345.6C140.835 2355.85 149.168 2364.18 159.414 2364.18C169.659 2364.18 177.993 2355.85 177.993 2345.6C177.993 2335.36 169.659 2327.02 159.414 2327.02Z" fill="white"/>
<path d="M247.407 2327.02C237.161 2327.02 228.828 2335.36 228.828 2345.6C228.828 2355.85 237.161 2364.18 247.407 2364.18C257.653 2364.18 265.986 2355.85 265.986 2345.6C265.986 2335.36 257.653 2327.02 247.407 2327.02Z" fill="white"/>
<path d="M247.407 2573.45C237.161 2573.45 228.828 2581.78 228.828 2592.03C228.828 2602.28 237.161 2610.61 247.407 2610.61C257.653 2610.61 265.986 2602.28 265.986 2592.03C265.986 2581.78 257.653 2573.45 247.407 2573.45Z" fill="white"/>
<path d="M74.4175 2580.76C74.6113 2581.13 93.6814 2618.51 70.6448 2644.19L72.066 2645.54C90.3868 2627.22 99.0562 2608.9 103.1 2596.75C107.506 2583.55 107.558 2574.8 107.558 2574.44V2573.25L73.8102 2579.58L74.4175 2580.76Z" fill="white"/>
<path d="M144.848 2580.76C145.041 2581.13 164.112 2618.51 141.075 2644.19L142.496 2645.54C160.817 2627.22 169.486 2608.9 173.53 2596.75C177.936 2583.55 177.988 2574.8 177.988 2574.44V2573.25L144.24 2579.58L144.848 2580.76Z" fill="white"/>
<path d="M884.197 2334.31C884.391 2334.69 903.461 2372.06 880.425 2397.75L881.846 2399.09C900.167 2380.77 908.836 2362.45 912.88 2350.31C917.286 2337.1 917.337 2328.36 917.337 2327.99V2326.81L883.59 2333.14L884.197 2334.31Z" fill="white"/>
<path d="M1005.36 2326.81L971.609 2333.14L972.216 2334.31C972.41 2334.67 991.48 2372.05 968.444 2397.75L969.865 2399.09C988.186 2380.77 996.855 2362.44 1000.9 2350.29C1005.3 2337.09 1005.36 2328.36 1005.36 2327.98V2326.81Z" fill="white"/>
<path d="M1007.42 2334.31C1007.61 2334.69 1026.68 2372.06 1003.65 2397.75L1005.07 2399.09C1023.39 2380.77 1032.06 2362.45 1036.1 2350.31C1040.51 2337.1 1040.56 2328.36 1040.56 2327.99V2326.81L1006.81 2333.14L1007.42 2334.31Z" fill="white"/>
<path d="M1250.12 2327.3C1231.8 2345.62 1223.13 2363.94 1219.08 2376.09C1214.68 2389.29 1214.63 2398.04 1214.63 2398.4V2399.59L1248.38 2393.26L1247.77 2392.08C1247.58 2391.71 1228.51 2354.33 1251.55 2328.65L1250.12 2327.3Z" fill="white"/>
<path d="M1162.11 2327.3C1143.78 2345.62 1135.12 2363.94 1131.06 2376.09C1126.67 2389.29 1126.61 2398.04 1126.61 2398.4V2399.59L1160.36 2393.26L1159.75 2392.08C1159.56 2391.71 1140.49 2354.33 1163.53 2328.65L1162.11 2327.3Z" fill="white"/>
<path d="M1128.32 2328.65L1126.9 2327.3C1108.58 2345.62 1099.91 2363.94 1095.87 2376.09C1091.46 2389.29 1091.41 2398.04 1091.41 2398.4V2399.59L1125.16 2393.26L1124.55 2392.08C1124.36 2391.71 1105.29 2354.33 1128.32 2328.65Z" fill="white"/>
<path d="M280.786 2608.97L386.406 2327.32L390.071 2328.69L284.451 2610.35L280.786 2608.97Z" fill="white"/>
<path d="M387.213 2417.69L542.914 2512.85L387.213 2607.99L389.255 2611.34L550.421 2512.85L389.255 2414.36L387.213 2417.69Z" fill="white"/>
<path d="M583.845 2310.39H579.93V2644.87H583.845V2310.39Z" fill="white"/>
<path d="M617.101 2334.46H651.327V2643.88H617.101V2645.84H670.888V2332.51H617.101V2334.46Z" fill="white"/>
<path d="M750.108 2412.18C750.108 2373.02 750.108 2332.51 722.731 2332.51H705.12V2334.48C730.547 2334.48 730.547 2373.97 730.547 2412.18C730.547 2447.75 730.547 2484.41 751.077 2490.85C730.547 2497.13 730.547 2533.03 730.547 2567.87C730.547 2605.23 730.547 2643.89 705.12 2643.89V2645.84H722.731C750.108 2645.84 750.108 2606.2 750.108 2567.87C750.108 2530.49 750.108 2491.83 775.535 2491.83V2489.88C750.108 2489.88 750.108 2450.38 750.108 2412.18Z" fill="white"/>
<path d="M793.138 2332.51V2334.46C811.691 2334.46 827.363 2405.32 827.363 2489.17C827.363 2573.03 811.691 2643.89 793.138 2643.89V2645.84C822.803 2645.84 846.924 2575.57 846.924 2489.17C846.924 2402.79 822.803 2332.51 793.138 2332.51Z" fill="white"/>
<path d="M1433.71 2364.01C1416.19 2351.5 1392.64 2344.63 1367.36 2344.63C1295.84 2344.63 1277.25 2380.24 1277.07 2380.6L1276.96 2380.81V2433.63H1278.91C1278.91 2385.64 1318.59 2346.6 1367.35 2346.58C1368.18 2346.61 1433 2349.28 1433 2407.31C1433 2441.79 1413.15 2464.44 1392.13 2488.42C1371.19 2512.32 1349.52 2537.05 1349.52 2574.45V2575.42H1352.07V2574.45C1352.07 2539.64 1378.37 2521.39 1406.22 2502.08C1434.64 2482.36 1464.02 2461.99 1464.02 2422.42C1464.02 2398.35 1453.54 2378.16 1433.71 2364.01Z" fill="white"/>
<path d="M1351.1 2591.08C1340.85 2591.08 1332.52 2599.41 1332.52 2609.66C1332.52 2619.91 1340.85 2628.24 1351.1 2628.24C1361.34 2628.24 1369.67 2619.91 1369.67 2609.66C1369.67 2599.41 1361.34 2591.08 1351.1 2591.08Z" fill="white"/>
<path d="M1497.73 2591.08C1487.49 2591.08 1479.16 2599.41 1479.16 2609.66C1479.16 2619.91 1487.49 2628.24 1497.73 2628.24C1507.98 2628.24 1516.31 2619.91 1516.31 2609.66C1516.31 2599.41 1507.98 2591.08 1497.73 2591.08Z" fill="white"/>
<path d="M1498.71 2574.51L1514.96 2363.21C1515.32 2358.43 1513.67 2353.67 1510.41 2350.15C1507.14 2346.62 1502.53 2344.61 1497.74 2344.61C1492.93 2344.61 1488.32 2346.62 1485.05 2350.15C1481.8 2353.67 1480.14 2358.43 1480.5 2363.21L1496.76 2574.51H1498.71Z" fill="white"/>
<path d="M1688.73 2364.01C1671.21 2351.5 1647.66 2344.63 1622.39 2344.63C1550.86 2344.63 1532.27 2380.24 1532.09 2380.6L1531.98 2380.81V2433.63H1533.93C1533.93 2385.64 1573.61 2346.6 1622.37 2346.58C1623.2 2346.61 1688.02 2349.28 1688.02 2407.31C1688.02 2441.79 1668.17 2464.44 1647.15 2488.42C1632.4 2505.27 1617.3 2522.52 1609.65 2544.34L1623.34 2382.8C1623.7 2378 1622.05 2373.25 1618.79 2369.72C1615.54 2366.21 1610.91 2364.18 1606.12 2364.18C1601.31 2364.18 1596.7 2366.21 1593.43 2369.72C1590.18 2373.24 1588.52 2378 1588.88 2382.8L1604.7 2569.33C1604.61 2571.01 1604.54 2572.71 1604.54 2574.45V2575.42H1607.09V2574.49L1608.01 2563.69C1612.84 2535.67 1636.42 2519.3 1661.24 2502.08C1689.66 2482.36 1719.04 2461.99 1719.04 2422.42C1719.04 2398.35 1708.56 2378.16 1688.73 2364.01Z" fill="white"/>
<path d="M1606.09 2591.08C1595.85 2591.08 1587.51 2599.41 1587.51 2609.66C1587.51 2619.91 1595.85 2628.24 1606.09 2628.24C1616.34 2628.24 1624.67 2619.91 1624.67 2609.66C1624.67 2599.41 1616.34 2591.08 1606.09 2591.08Z" fill="white"/>
<path d="M261.452 3067.08C232.976 3063.82 205.159 3045.09 191.489 3021.4C269.372 2991.48 314.36 2967.29 314.36 2933.9C314.36 2923.85 309.089 2914.73 299.114 2907.51C278.507 2892.61 239.72 2887.75 212.627 2896.69H212.601C195.559 2902.33 179.991 2913.09 167.729 2927.38C144.486 2892.69 89.6916 2892.17 88.994 2892.17C36.2927 2892.17 18.5146 2915.93 17.791 2916.94L17.5972 2917.2V2963.57H19.5611C19.5611 2929.17 54.6005 2894.13 88.994 2894.13C89.1232 2894.13 102.172 2894.21 115.028 2900.66C132.147 2909.25 140.83 2924.48 140.83 2945.96C140.817 2959.64 117.16 2964.86 89.7692 2970.88C49.7813 2979.68 0 2990.64 0 3033.98C0 3050.64 7.75208 3064.62 22.4423 3074.4C35.3624 3083.01 52.7529 3087.77 71.3967 3087.77C124.744 3087.77 141.799 3050.51 147.148 3029.85C155.817 3052.14 173.337 3069.72 196.942 3079.64C210.133 3085.17 224.591 3087.98 239.113 3087.98C250.883 3087.98 262.705 3086.14 273.907 3082.43C298.171 3074.44 318.055 3057.24 329.903 3034.02L328.198 3033.07C312.874 3058.19 289.153 3070.28 261.452 3067.08ZM89.8854 3081.88C62.288 3081.88 37.1583 3059.05 37.1583 3033.98C37.1583 2987.22 75.0402 2977.51 105.467 2969.69C121.527 2965.58 135.804 2961.89 140.842 2953.3C140.881 2971.35 141.075 2988.85 141.165 2996.9V2997.33C141.204 2999.91 141.23 3001.42 141.23 3001.51C141.23 3028.98 135.804 3050.02 125.119 3064.03C113.891 3078.78 99.7564 3081.88 89.8854 3081.88ZM213.234 2898.55C231.697 2892.53 251.31 2894.7 264.411 2904.21C275.251 2912.08 280.987 2924.08 280.987 2938.93C280.987 2980.42 237.899 2998.98 199.875 3015.36C196.67 3016.75 193.518 3018.1 190.404 3019.47C188.505 3015.93 186.916 3012.28 185.688 3008.56C169.138 2958.4 181.476 2909.07 213.195 2898.57C213.208 2898.55 213.221 2898.55 213.234 2898.55Z" fill="white"/>
<path d="M1628.1 2976.25C1613.99 2978.98 1601.8 2987.03 1593.73 2998.94C1585.68 3010.84 1582.75 3025.17 1585.48 3039.28C1588.2 3053.39 1596.27 3065.6 1608.16 3073.65C1617.17 3079.73 1627.56 3082.88 1638.19 3082.88C1641.61 3082.88 1645.06 3082.56 1648.5 3081.9C1662.61 3079.18 1674.82 3071.11 1682.87 3059.21C1690.92 3047.31 1693.85 3032.99 1691.12 3018.88C1685.49 2989.74 1657.22 2970.63 1628.1 2976.25ZM1648.09 3079.99C1639.63 3081.59 1630.63 3077.91 1622.75 3069.59C1614.75 3061.13 1608.9 3048.93 1606.27 3035.26C1603.62 3021.59 1604.52 3008.1 1608.8 2997.26C1613.01 2986.6 1619.99 2979.82 1628.46 2978.18C1628.46 2978.18 1628.49 2978.18 1628.49 2978.17C1646.18 2974.78 1664.92 2994.83 1670.34 3022.88C1672.99 3036.55 1672.08 3050.05 1667.8 3060.88C1663.61 3071.54 1656.63 3078.32 1648.17 3079.96C1648.14 3079.98 1648.11 3079.98 1648.09 3079.99Z" fill="white"/>
<path d="M1576.11 2905.81C1576.13 2905.81 1576.15 2905.81 1576.17 2905.8C1590.27 2903.07 1602.45 2895.02 1610.5 2883.12C1618.55 2871.22 1621.48 2856.89 1618.76 2842.78C1613.14 2813.66 1584.87 2794.54 1555.73 2800.16C1526.62 2805.79 1507.49 2834.06 1513.12 2863.18C1515.83 2877.29 1523.9 2889.49 1535.8 2897.54C1544.8 2903.64 1555.19 2906.79 1565.82 2906.79C1569.23 2906.79 1572.68 2906.47 1576.11 2905.81ZM1556.12 2802.09C1573.77 2798.69 1592.55 2818.74 1597.98 2846.8C1600.62 2860.47 1599.72 2873.96 1595.45 2884.79C1591.24 2895.47 1584.25 2902.24 1575.77 2903.88C1567.27 2905.52 1558.28 2901.83 1550.4 2893.48C1542.4 2885.03 1536.53 2872.85 1533.9 2859.17C1528.48 2831.12 1538.43 2805.52 1556.07 2802.09H1556.12Z" fill="white"/>
<path d="M1546.87 3081.16L1652.49 2799.51L1656.16 2800.88L1550.54 3082.54L1546.87 3081.16Z" fill="white"/>
<path d="M1413.87 2930.94C1409.71 2929.11 1405.58 2927.3 1401.49 2925.48V2801.21C1449.66 2801.91 1488.63 2840.66 1488.63 2888.22H1490.59V2835.4L1490.49 2835.19C1490.29 2834.83 1485.8 2826.01 1472.35 2817.1C1460.17 2809.04 1438.01 2799.48 1401.49 2799.25V2782.61H1397.59V2799.27C1373.32 2799.73 1350.76 2806.54 1333.84 2818.62C1314.01 2832.76 1303.53 2852.96 1303.53 2877.01C1303.53 2916.69 1345.67 2936.23 1386.42 2955.12C1390.18 2956.85 1393.91 2958.58 1397.59 2960.32V3080.8C1361.69 3080 1334.87 3062.5 1317.89 3028.66C1304.88 3002.74 1302.85 2976.43 1302.84 2976.16L1300.87 2976.24V3046.76L1301.07 3047.02C1301.35 3047.39 1308.02 3056.14 1323.62 3064.99C1337.64 3072.95 1361.77 3082.35 1397.59 3082.79V3099.46H1401.49V3082.82C1426.26 3082.57 1449.31 3075.74 1466.52 3063.45C1486.35 3049.3 1496.83 3029.11 1496.83 3005.04C1496.83 2967.36 1454.66 2948.85 1413.87 2930.94ZM1334.56 2861.91C1334.56 2810.5 1385.41 2802.54 1397.59 2801.38V2923.71C1363.39 2908.15 1334.56 2891.51 1334.56 2861.91ZM1464.14 3025.85C1464.14 3074.1 1410.63 3080.12 1401.49 3080.8V2962.17C1435.38 2978.37 1464.14 2995.56 1464.14 3025.85Z" fill="white"/>
<path d="M2015.46 3056.4L2013.05 3052.36L2013.07 3052.52L2000.75 3031.89C2001.17 3031.09 2001.63 3030.31 2002.04 3029.49C2026.68 2986.66 2013.27 2941.21 2013.13 2940.76L2012.92 2940.07H1986.52L1988.38 2941.76C1988.78 2942.14 2028.49 2979.34 2000.33 3028.54C2000.06 3028.97 1999.78 3029.39 1999.51 3029.81L1923.78 2903.11C1953.4 2869.82 1965.72 2840.47 1957.72 2821.15C1951.78 2806.81 1935.24 2799.24 1909.87 2799.24C1883.73 2799.24 1867.55 2805.3 1860.44 2817.78C1850.51 2835.19 1860.29 2862.01 1875.51 2890.41C1831.75 2936.63 1806.35 2966.6 1822.54 3015.67C1830.72 3040.47 1848.08 3060.62 1871.4 3072.36C1885.27 3079.35 1900.24 3082.88 1915.32 3082.88C1925.63 3082.88 1935.98 3081.22 1946.06 3077.9C1957.62 3074.09 1968.16 3068.16 1977.35 3060.51C1978.07 3061.71 1978.78 3062.88 1979.47 3064C1983.5 3072.37 1983.22 3076.56 1982.05 3078.63C1980.81 3080.85 1978.37 3080.9 1978.28 3080.9V3082.85H2041.21L2041.23 3080.9C2041.11 3080.9 2029.81 3080.44 2015.46 3056.4ZM1932.43 2820.12C1941.03 2841.08 1938.59 2873.78 1921.9 2899.95L1906.53 2874.27C1906.25 2873.83 1877.95 2830.2 1888.54 2810.64C1891.92 2804.37 1899.09 2801.19 1909.87 2801.19C1919.4 2801.19 1927.41 2807.92 1932.43 2820.12ZM1886.79 2910.29C1907.49 2945.32 1950.23 3015.85 1973.93 3054.87C1962.07 3061.55 1948.42 3064.25 1933.6 3062.55C1900.14 3058.7 1867.57 3033.54 1857.83 3004.03C1842.55 2957.73 1845.85 2935.19 1877.08 2893.29C1880.16 2898.93 1883.43 2904.62 1886.79 2910.29Z" fill="white"/>
<path d="M575.101 3079.96C573.771 3079.82 564.352 3078.07 555.566 3058.32L517.658 2964.57H523.188V2964.53H561.096C591.316 2964.53 595.296 3015.91 595.334 3016.43L597.285 3016.37V2910.74L595.334 2910.69C595.296 2911.21 592.156 2962.58 561.096 2962.58H516.844L455.939 2812.01H578.706C613.048 2812.01 630.645 2829.15 630.826 2829.32L632.493 2830.99V2810.04H455.151L455.125 2809.98H444.595L434.646 2834.42L429.956 2845.96C429.517 2846.97 404.09 2906.82 383.328 2956.53C379.762 2964.9 376.39 2972.99 373.34 2980.49C373.082 2981.11 372.837 2981.71 372.591 2982.33C371.118 2985.91 369.71 2989.32 368.379 2992.55C347.733 3042.88 352.578 3080.71 352.629 3081.08L352.746 3081.92H378.612L377.953 3080.53C377.837 3080.28 377.669 3079.95 377.449 3079.52C362.681 3050.04 361.622 3015.86 374.413 2983.07C376.816 2977.26 379.4 2971.03 382.087 2964.57H477.58L514.558 3056.07L514.545 3056.08C519.648 3068.63 518.615 3074.48 516.857 3077.19C515.126 3079.86 512.4 3079.96 512.297 3079.97L512.322 3081.92H630.064L650.064 3008.59L648.178 3008.06C647.958 3008.77 626.343 3079.66 575.101 3079.96ZM385.137 2957.28C401.881 2917.94 422.657 2872.29 432.037 2851.85L476.792 2962.61H382.914C383.651 2960.85 384.387 2959.08 385.137 2957.28Z" fill="white"/>
<path d="M870.585 2799.21C768.128 2799.21 684.768 2882.57 684.768 2985.03C684.768 3087.47 768.09 3170.8 870.52 3170.84H870.585C951.517 3170.84 1006.16 3103.88 1006.7 3103.19L1005.19 3101.97C1004.63 3102.64 949.734 3168.88 870.585 3168.88H870.52C860.391 3168.88 848.802 3167.87 838.711 3166.1C750.57 3150.58 693.153 3056.73 710.724 2956.89C728.308 2857.05 814.318 2788.43 902.459 2803.95C990.6 2819.47 1048.02 2913.32 1030.43 3013.17C1020.98 3066.95 992.396 3074.98 976.207 3074.98C975.522 3074.98 959.579 3074.76 959.579 3058.36V2958.62C959.579 2888.03 871.477 2887.22 870.585 2887.22C817.884 2887.22 800.106 2910.98 799.382 2911.99L799.188 2912.25V2958.62H801.152C801.152 2924.22 836.192 2889.18 870.585 2889.18C870.714 2889.18 883.764 2889.26 896.619 2895.71C913.738 2904.3 922.421 2919.53 922.421 2941.02V2941.03C922.408 2954.7 898.751 2959.91 871.36 2965.93C831.36 2974.73 781.591 2985.68 781.591 3029.03C781.591 3045.7 789.343 3059.67 804.033 3069.46C816.954 3078.08 834.344 3082.82 852.975 3082.82C898.725 3082.82 918.57 3055.58 923.183 3048.05C924.423 3053.93 927.214 3059.03 931.581 3063.24C944.876 3076.05 968.248 3076.97 974.631 3076.97C975.535 3076.97 976.091 3076.94 976.246 3076.94C1027.86 3076.91 1056.4 3022.58 1056.4 2985.03C1056.4 2882.57 973.042 2799.21 870.585 2799.21ZM922.421 3032.82C913.325 3068.99 886.58 3079.01 864.564 3076.28C834.486 3072.59 818.749 3049.72 818.749 3029.03C818.749 2982.29 856.631 2972.56 887.058 2964.75C903.105 2960.63 917.369 2956.95 922.421 2948.37V3032.82Z" fill="white"/>
<path d="M1270.68 2800.88L1267.01 2799.51L1234.11 2887.24H1167.88L1200.26 2800.88L1196.59 2799.51L1163.7 2887.24H1111.94L1098 2924.4H1149.77L1137.29 2957.65H1085.53L1071.59 2994.81H1123.36L1090.97 3081.16L1094.64 3082.54L1127.53 2994.81H1193.78L1161.38 3081.16L1165.05 3082.54L1197.95 2994.81H1249.72L1263.66 2957.65H1211.89L1224.36 2924.4H1276.13L1290.06 2887.24H1238.3L1270.68 2800.88ZM1207.7 2957.65H1141.47L1153.94 2924.4H1220.18L1207.7 2957.65Z" fill="white"/>
<path d="M1705.01 2904.95L1708.51 2906.69L1759.57 2804.57L1810.63 2906.69L1814.13 2904.95L1759.57 2795.83L1705.01 2904.95Z" fill="white"/>
<path d="M2209.05 2860.46L2208.64 2859.28C2206.8 2853.94 2204.39 2848.69 2201.54 2843.74C2198.66 2838.75 2195.32 2834.08 2191.62 2829.8L2190.8 2828.87L2190.08 2829.87C2184.57 2837.53 2163.77 2864.01 2125.45 2886.52C2125.78 2842.08 2138.31 2810.82 2142.2 2802.22L2142.7 2801.09L2141.49 2800.86C2130.36 2798.7 2118.55 2798.7 2107.43 2800.86L2106.21 2801.09L2106.73 2802.22C2110.61 2810.82 2123.15 2842.08 2123.46 2886.52C2085.14 2864.01 2064.35 2837.53 2058.84 2829.87L2058.11 2828.87L2057.31 2829.8C2053.59 2834.08 2050.26 2838.75 2047.39 2843.74C2044.52 2848.7 2042.13 2853.95 2040.28 2859.28L2039.87 2860.46L2041.11 2860.58C2050.49 2861.52 2083.84 2866.29 2122.48 2888.23C2083.84 2910.18 2050.49 2914.94 2041.11 2915.89L2039.87 2916L2040.28 2917.18C2042.13 2922.52 2044.52 2927.75 2047.39 2932.74C2050.26 2937.7 2053.59 2942.39 2057.3 2946.66L2058.11 2947.59L2058.84 2946.6C2064.35 2938.94 2085.15 2912.44 2123.46 2889.96C2123.15 2934.39 2110.61 2965.64 2106.73 2974.25L2106.21 2975.37L2107.43 2975.6C2113 2976.68 2118.72 2977.23 2124.46 2977.23C2130.19 2977.23 2135.93 2976.68 2141.49 2975.6L2142.7 2975.37L2142.2 2974.25C2138.31 2965.64 2125.78 2934.39 2125.45 2889.96C2163.77 2912.44 2184.57 2938.94 2190.08 2946.6L2190.8 2947.59L2191.62 2946.66C2195.32 2942.39 2198.66 2937.71 2201.54 2932.74C2204.41 2927.75 2206.8 2922.52 2208.64 2917.18L2209.05 2916L2207.82 2915.89C2198.43 2914.94 2165.09 2910.18 2126.45 2888.23C2165.09 2866.29 2198.43 2861.52 2207.82 2860.58L2209.05 2860.46Z" fill="white"/>
</svg>
