<svg width="147" height="99" viewBox="0 0 147 99" fill="none" xmlns="http://www.w3.org/2000/svg">
<path d="M74.0001 7V10H71.0001V12H74.0001V15H76.0001V12H79.0001V10H76.0001V7H74.0001Z" fill="white"/>
<path fill-rule="evenodd" clip-rule="evenodd" d="M57 5C57 3.34315 58.3431 2 60 2H90C91.6569 2 93 3.34315 93 5V35C93 36.6569 91.6569 38 90 38H60C58.3431 38 57 36.6569 57 35V5ZM59 5C59 4.44772 59.4477 4 60 4H90C90.5523 4 91 4.44771 91 5V31H88.3335C88.3334 30.9383 88.3276 30.8757 88.3156 30.8129L87.0268 24.0463L88.9615 17.2747C89.1132 16.7437 88.8057 16.1902 88.2747 16.0385C87.7437 15.8868 87.1902 16.1942 87.0384 16.7253L85.8391 20.923H78V22.923H79.3077V24.6154H78.7693C78.217 24.6154 77.7693 25.0631 77.7693 25.6154C77.7693 26.029 78.0204 26.3839 78.3785 26.5361L77.0475 30.6952C77.0151 30.7965 76.9997 30.8991 76.9997 31H73.0003C73.0003 30.8991 72.9848 30.7965 72.9524 30.6952L71.6215 26.5361C71.9796 26.3839 72.2307 26.029 72.2307 25.6154C72.2307 25.0631 71.783 24.6154 71.2307 24.6154H70.6923V22.923H72V20.923H64.1609L62.9615 16.7253C62.8098 16.1942 62.2563 15.8868 61.7253 16.0385C61.1943 16.1902 60.8868 16.7437 61.0385 17.2747L62.9732 24.0463L61.6843 30.8129C61.6724 30.8757 61.6666 30.9383 61.6665 31H59V5ZM90 36C90.5523 36 91 35.5523 91 35V33H59V35C59 35.5523 59.4477 36 60 36H90ZM85.0176 24.1871L85.0992 24.6154H81.3077V22.923H85.2677L85.0384 23.7253C84.9955 23.8755 84.9884 24.0337 85.0176 24.1871ZM86.3153 31L85.5534 27H80.3299L79.0499 31H86.3153ZM64.9824 24.1871L64.9008 24.6154H68.6923V22.923H64.7323L64.9615 23.7253C65.0045 23.8755 65.0116 24.0337 64.9824 24.1871ZM63.6847 31L64.4466 27H69.6701L70.9501 31H63.6847Z" fill="white"/>
<path fill-rule="evenodd" clip-rule="evenodd" d="M60 60C58.3431 60 57 61.3431 57 63V93C57 94.6569 58.3431 96 60 96H90C91.6569 96 93 94.6569 93 93V63C93 61.3431 91.6569 60 90 60H60ZM74.0001 65V68H71.0001V70H74.0001V73H76.0001V70H79.0001V68H76.0001V65H74.0001ZM61.0385 75.2747C60.8868 74.7437 61.1943 74.1902 61.7253 74.0385C62.2563 73.8868 62.8098 74.1942 62.9615 74.7253L64.1609 78.923H72V80.923H70.6923V82.6154H71.2307C71.783 82.6154 72.2307 83.0631 72.2307 83.6154C72.2307 84.029 71.9796 84.3839 71.6215 84.5361L72.9524 88.6952C72.9848 88.7965 73.0003 88.8991 73.0003 89H76.9997C76.9997 88.8991 77.0151 88.7965 77.0475 88.6952L78.3785 84.5361C78.0204 84.3839 77.7693 84.029 77.7693 83.6154C77.7693 83.0631 78.217 82.6154 78.7693 82.6154H79.3077V80.923H78V78.923H85.8391L87.0384 74.7253C87.1902 74.1942 87.7437 73.8868 88.2747 74.0385C88.8057 74.1902 89.1132 74.7437 88.9615 75.2747L87.0268 82.0463L88.3156 88.8129C88.3276 88.8757 88.3334 88.9383 88.3335 89H90C90.5523 89 91 89.4477 91 90C91 90.5523 90.5523 91 90 91H60C59.4477 91 59 90.5523 59 90C59 89.4477 59.4477 89 60 89H61.6665C61.6666 88.9383 61.6724 88.8757 61.6843 88.8129L62.9732 82.0463L61.0385 75.2747ZM85.0992 82.6154H81.3077V80.923H85.2677L85.0384 81.7253C84.9955 81.8755 84.9884 82.0337 85.0176 82.1871L85.0992 82.6154ZM85.5534 85H80.3299L79.0499 89H86.3153L85.5534 85ZM68.6923 82.6154V80.923H64.7323L64.9615 81.7253C65.0045 81.8755 65.0116 82.0337 64.9824 82.1871L64.9008 82.6154H68.6923ZM63.6847 89L64.4466 85H69.6701L70.9501 89H63.6847Z" fill="white"/>
<path fill-rule="evenodd" clip-rule="evenodd" d="M133 14C136.866 14 140 10.866 140 7C140 3.13401 136.866 0 133 0C129.134 0 126 3.13401 126 7C126 10.866 129.134 14 133 14ZM133 12C135.761 12 138 9.76142 138 7C138 4.23858 135.761 2 133 2C130.239 2 128 4.23858 128 7C128 9.76142 130.239 12 133 12Z" fill="white"/>
<path fill-rule="evenodd" clip-rule="evenodd" d="M135.742 30.3302L130.553 28.7568V25.4992C130.553 24.9469 130.105 24.4992 129.553 24.4992C129.001 24.4992 128.553 24.9469 128.553 25.4992V29.4986C128.553 29.9159 128.812 30.287 129.197 30.4333L130.951 31.0985L129.421 32.1838C129.301 32.269 129.203 32.3796 129.131 32.5058L130.55 34.3974C131.709 35.9437 131.396 38.1376 129.85 39.2974C128.303 40.4573 126.11 40.144 124.95 38.5976L119.7 31.5987C118.89 30.5181 118.773 29.0675 119.401 27.8716L123.368 20.3169C124.028 19.0592 125.244 18.1871 126.647 17.9644L138.75 16.0434C140.233 15.8081 141.7 16.5442 142.398 17.8731L146.597 25.8719C147.225 27.0678 147.109 28.5184 146.298 29.599L141.049 36.5979C139.889 38.1443 137.695 38.4576 136.149 37.2977C134.602 36.1379 134.289 33.9441 135.449 32.3977L136.676 30.7624C136.583 30.6778 136.475 30.6109 136.356 30.5656L135.742 30.3302ZM140.229 29.6846L139.004 30.9889L139.005 30.9901L137.049 33.5978C136.552 34.2605 136.686 35.2007 137.349 35.6978C138.012 36.1949 138.952 36.0606 139.449 35.3979L144.698 28.3989C145.046 27.9358 145.096 27.3142 144.827 26.8016L140.627 18.8028C140.328 18.2333 139.699 17.9178 139.064 18.0187L126.96 19.9397C126.181 20.0634 125.505 20.5479 125.138 21.2467L121.172 28.8013C120.903 29.3138 120.953 29.9355 121.3 30.3986L126.55 37.3975C127.047 38.0603 127.987 38.1945 128.65 37.6975C129.312 37.2004 129.447 36.2602 128.95 35.5975L126.97 32.9586L126.972 32.9502L125.201 30.602L126.554 29.5824C126.553 29.5545 126.553 29.5266 126.553 29.4986V25.4992C126.553 23.8424 127.896 22.4992 129.553 22.4992C131.21 22.4992 132.553 23.8424 132.553 25.4992V27.2733L134.71 27.9274C134.261 27.227 134 26.394 134 25.5C134 23.0147 136.015 21 138.5 21C140.985 21 143 23.0147 143 25.5C143 27.3808 141.846 28.9921 140.208 29.6646L140.229 29.6846ZM136 25.5C136 24.1193 137.119 23 138.5 23C139.881 23 141 24.1193 141 25.5C141 26.8807 139.881 28 138.5 28C137.119 28 136 26.8807 136 25.5Z" fill="white"/>
<path fill-rule="evenodd" clip-rule="evenodd" d="M142.066 75.3681C141.573 74.3968 140.507 73.8567 139.432 74.0331L126.18 76.2076C125.079 76.3881 124.131 77.0823 123.626 78.0765L119.271 86.6507C118.846 87.4873 118.925 88.4914 119.477 89.2509L125.207 97.1488C126.018 98.2663 127.581 98.5149 128.698 97.7041C129.816 96.8933 130.065 95.33 129.254 94.2125L127.565 91.885C127.687 91.3044 128.066 90.7838 128.639 90.5015L131.87 88.911L128.639 87.3204C127.955 86.9839 127.522 86.2881 127.522 85.526V81.5771C127.522 80.4725 128.418 79.5771 129.522 79.5771C130.627 79.5771 131.522 80.4725 131.522 81.5771V84.2813L137.282 87.1164C137.665 87.3044 137.99 87.6157 138.193 88.0278C138.562 88.7767 138.419 89.6443 137.899 90.2341L137.92 90.2289L136.667 91.9559C135.857 93.0735 136.105 94.6368 137.223 95.4476C138.34 96.2584 139.904 96.0098 140.714 94.8922L146.445 86.9944C146.996 86.2349 147.075 85.2308 146.65 84.3942L142.066 75.3681ZM143 82.4999C143 84.4329 141.433 85.9999 139.5 85.9999C137.567 85.9999 136 84.4329 136 82.4999C136 80.5669 137.567 78.9999 139.5 78.9999C141.433 78.9999 143 80.5669 143 82.4999Z" fill="white"/>
<path d="M140 65C140 68.866 136.866 72 133 72C129.134 72 126 68.866 126 65C126 61.134 129.134 58 133 58C136.866 58 140 61.134 140 65Z" fill="white"/>
<path d="M14.2628 61.4534L12.7725 62.3013L11.5536 60.1138L8.92355 61.5577L10.1648 63.7852L8.65651 64.6434L9.71782 66.4816C8.9661 67.4147 8.82505 68.7493 9.46503 69.8498L10.0605 70.8737C7.30722 72.4587 5.18665 74.3519 4.00135 76.7054C2.85852 78.9745 2.64219 81.5564 3.40357 84.4838C1.31701 86.3165 0 89.0043 0 91.9997C0 93.422 0.296895 94.7748 0.832087 95.9997H33C33.5523 95.9997 34 95.552 34 94.9997C34 94.4475 33.5523 93.9997 33 93.9997H19.8C19.9311 93.3535 20 92.6847 20 91.9997C20 90.4632 19.6535 89.0076 19.0343 87.7069L31.0764 80.9207L30.0836 79.1845L18.0036 85.992L18.9963 87.7281L12.4822 91.3991L11.4895 89.6629L17.9975 85.9954C16.1728 83.569 13.2697 81.9997 10 81.9997C8.24784 81.9997 6.60092 82.4504 5.16884 83.2421C4.72744 81.0309 4.98973 79.1892 5.7876 77.605C6.73559 75.7227 8.503 74.0767 11.0659 72.6026L13.9877 77.6267C14.8206 79.0589 16.6611 79.5521 18.0986 78.7282L18.7658 78.3458L19.3749 79.5231L22.0488 78.1607L21.3717 76.8521L22.2202 76.3658C23.6576 75.5419 24.1477 73.7129 23.3148 72.2806L18.7921 64.5037C18.0646 63.2527 16.5684 62.7182 15.2435 63.1519L14.2628 61.4534Z" fill="white"/>
<path fill-rule="evenodd" clip-rule="evenodd" d="M12.7725 4.30133L14.2628 3.45335L15.2435 5.15192C16.5684 4.71818 18.0646 5.25274 18.7921 6.50373L23.3148 14.2806C24.1477 15.7129 23.6576 17.5419 22.2202 18.3658L21.3717 18.8521L22.0488 20.1607L19.3749 21.5231L18.7658 20.3458L18.0986 20.7282C16.6611 21.5521 14.8206 21.0589 13.9877 19.6267L11.0659 14.6026C8.503 16.0767 6.73559 17.7227 5.7876 19.605C4.98973 21.1892 4.72744 23.0309 5.16884 25.2421C6.60092 24.4504 8.24784 23.9997 10 23.9997C13.2697 23.9997 16.1729 25.569 17.9975 27.9954L30.0836 21.1844L31.0764 22.9206L19.0342 29.7068C19.6534 31.0076 20 32.4632 20 33.9997C20 34.6847 19.9311 35.3535 19.8 35.9997H33C33.5523 35.9997 34 36.4475 34 36.9997C34 37.552 33.5523 37.9997 33 37.9997H0.832087C0.296895 36.7748 0 35.422 0 33.9997C0 31.0043 1.31701 28.3165 3.40357 26.4838C2.64219 23.5564 2.85852 20.9745 4.00135 18.7054C5.18665 16.3519 7.30722 14.4587 10.0605 12.8737L9.46503 11.8498C8.82505 10.7493 8.9661 9.41466 9.71782 8.48161L8.65651 6.64338L10.1648 5.78518L8.92355 3.55774L11.5536 2.11377L12.7725 4.30133ZM21.5796 15.2752L17.0569 7.49829C16.7793 7.02087 16.1658 6.85649 15.6866 7.13113L11.5651 9.49351C11.0859 9.76815 10.9226 10.3778 11.2002 10.8552L15.7229 18.6321C16.0005 19.1095 16.614 19.2739 17.0932 18.9993L21.2147 16.6369C21.6939 16.3622 21.8572 15.7526 21.5796 15.2752ZM17.7485 35.9997C17.9125 35.3618 18 34.6919 18 33.9997C18 32.8201 17.7447 31.7 17.2862 30.6919L12.4822 33.3991L11.4895 31.6629L16.236 28.9881C14.7697 27.1658 12.521 25.9997 10 25.9997C5.58172 25.9997 2 29.5815 2 33.9997C2 34.6919 2.08747 35.3618 2.25153 35.9997H17.7485Z" fill="white"/>
</svg>
