<svg width="155" height="111" viewBox="0 0 155 111" fill="none" xmlns="http://www.w3.org/2000/svg">
<path d="M114.662 52.7252V53.0991H128.044C128.044 53.0991 128.045 53.0991 128.045 53.0991C128.046 53.0991 128.047 53.0991 128.047 53.0991L128.047 52.7252H128.046C128.038 52.7252 127.233 52.7211 126.445 52.3225C125.411 51.799 124.886 50.8652 124.886 49.5467V45.7819C126.101 47.8315 127.664 49.6391 129.504 51.0619C132.074 53.0483 134.948 54.0886 137.783 54.0886C138.323 54.0886 138.861 54.0508 139.395 53.9749C139.575 53.9502 139.755 53.9203 139.933 53.8852C149.997 51.9302 156.604 42.105 154.661 31.9825C153.719 27.0791 150.935 22.8375 146.822 20.0397C142.709 17.2415 137.759 16.2218 132.883 17.1697C132.881 17.1701 132.878 17.1705 132.875 17.1712C131.731 17.3941 130.349 17.7347 129.01 18.3719C127.532 19.0155 126.147 19.8497 124.886 20.8519V0L114.662 0.00336544V0.377303C114.791 0.377303 117.822 0.413575 117.822 3.55577V35.2545C117.82 35.4571 117.819 35.6594 117.822 35.8625V49.5467C117.823 52.6818 114.791 52.7248 114.662 52.7252ZM141.938 21.2258C144.745 24.211 146.8 28.5097 147.725 33.3298C148.651 38.1499 148.334 42.9093 146.834 46.731C145.346 50.5238 142.87 52.9342 139.863 53.5183C139.692 53.5508 139.522 53.5796 139.35 53.604C136.544 53.988 133.522 53.0251 130.977 50.9198C127.35 47.9197 125.167 43.1195 124.887 37.6185V23.0615C125.092 22.5884 125.325 22.145 125.593 21.7359C126.41 20.4854 127.5 19.5266 128.963 18.802C130.23 18.2328 131.567 17.8065 132.955 17.5369C135.962 16.9528 139.151 18.2627 141.938 21.2258Z" fill="#F3FAF9"/>
<path d="M48.5413 51.6029C50.8483 53.2527 53.9505 54.1613 57.2758 54.1613C60.0928 54.1613 62.3596 53.5399 64.1539 52.6667C64.7595 52.4061 65.3518 52.0665 65.9162 51.6403C68.1461 50.1064 69.3418 48.3021 69.7861 47.5281C70.024 48.6473 70.5535 49.6172 71.3792 50.4179C73.9055 52.8664 78.3495 53.0406 79.5627 53.0406C79.7337 53.0406 79.8408 53.0373 79.8687 53.0362L79.862 52.6622C79.7329 52.6618 76.7018 52.6188 76.7018 49.4838V30.4163C76.7018 16.9235 61.6108 16.7676 61.4584 16.7676C51.4402 16.7676 48.0621 21.3087 47.9234 21.502L47.8881 21.551V30.4163H48.2599C48.2599 23.841 54.9209 17.1415 61.4584 17.1415C61.4625 17.1348 61.4948 17.1415 61.5465 17.143C62.4767 17.1722 69.6378 17.7017 69.6378 27.0509V27.0531C69.6352 29.6699 65.4232 30.6642 60.546 31.8152C53.4159 33.4979 44.542 35.5927 44.542 43.8777C44.542 47.0603 45.9247 49.7313 48.5413 51.6029ZM69.6378 44.6024C68.8079 48.1462 67.1702 50.3767 65.2607 51.6388C64.9607 51.8257 64.6402 52.0089 64.2981 52.1847C62.7983 52.9045 61.1933 53.1042 59.7162 52.9326C55.7845 52.4753 51.6064 49.1465 51.6064 43.8777C51.6064 34.9368 58.2012 33.0795 63.5006 31.5871C66.2701 30.8071 68.7339 30.1078 69.6381 28.5059V44.6024H69.6378Z" fill="#F3FAF9"/>
<path d="M4.14708 53.0443H9.06473L8.9387 52.7774C8.91602 52.7295 8.88404 52.6648 8.84389 52.584C6.03428 46.948 5.83277 40.4127 8.26724 34.1403C8.28955 34.0857 8.31335 34.0281 8.33603 33.9735H29.2291L34.9059 48.1024L34.9022 48.1039C35.8718 50.5005 35.6766 51.6208 35.342 52.1387C35.013 52.6476 34.4962 52.6697 34.4754 52.67L34.4791 53.044H36.8913H37.775H41.8045H44.5163H46.4425L46.444 52.67C46.424 52.6697 44.4918 52.5859 42.7012 48.5309L23.608 1.05469H21.6067L20.6612 3.3903L18.8238 7.92915C18.7625 8.07462 13.9125 19.5545 9.95554 29.0828C9.28 30.6791 8.63903 32.2213 8.0609 33.6508C8.01368 33.7675 7.96758 33.8845 7.92185 34.0012C7.64078 34.6855 7.37235 35.3406 7.1199 35.9591C3.19455 45.5791 4.1151 52.8106 4.12514 52.8824L4.14708 53.0443ZM19.2183 9.05807L29.0785 33.5996H8.48995C9.05544 32.2265 9.66406 30.7547 10.2987 29.226C13.4823 21.7028 17.4356 12.9691 19.2183 9.05807Z" fill="#F3FAF9"/>
<path d="M80.6406 52.6659V53.0398H89.432H94.025H97.9284H97.9288C97.9296 53.0398 97.9303 53.0398 97.9314 53.0398C97.9448 53.0398 97.9742 53.0398 98.0184 53.0383C99.3238 53.0088 114.288 52.3888 114.288 39.952C114.288 33.5913 106.963 28.0544 100.122 27.034C104.183 26.42 112.459 23.9643 112.459 14.1503C112.459 1.22965 98.0746 1.0625 97.9292 1.0625C97.9292 1.0625 97.9292 1.0625 97.9288 1.0625H84.5444V1.08194L80.6406 1.08344V1.45738C80.7696 1.45775 83.8008 1.50075 83.8008 4.63585V49.4874C83.8008 52.6225 80.7696 52.6655 80.6406 52.6659ZM90.8648 49.4874V27.2381H97.9284H97.9288C98.3311 27.2385 107.781 27.4027 107.781 40.5129C107.781 44.5402 106.71 47.6589 104.596 49.7821C101.773 52.6188 98.0154 52.6655 97.9303 52.6659C97.9299 52.6659 97.9292 52.6659 97.9288 52.6659H94.0254C93.8964 52.6655 90.8648 52.6225 90.8648 49.4874ZM97.9288 1.43644C97.9292 1.43644 97.9292 1.43644 97.9288 1.43644C97.9329 1.43644 97.9444 1.43644 97.963 1.43681C98.6081 1.45214 105.953 1.91059 105.953 14.7112C105.953 19.6936 104.565 23.3739 101.94 25.3542C99.9729 26.8384 97.9753 26.8638 97.9303 26.8642C97.9299 26.8642 97.9296 26.8642 97.9292 26.8642H90.8652V1.43644H97.9288Z" fill="#F3FAF9"/>
<path d="M39.5201 105.4L30.6436 57.8887H28.6352L27.2045 60.1959L24.3897 64.7355C24.2972 64.8806 16.9751 76.3604 10.9667 85.8884C9.94759 87.4843 8.97462 89.0268 8.08864 90.4564C8.01689 90.5727 7.94588 90.6886 7.87561 90.8049C7.44656 91.4899 7.03685 92.1455 6.65056 92.7651C0.658438 102.377 0.0219356 109.605 0.0163587 109.676L0 109.878H4.90315L4.8433 109.645C4.83103 109.597 4.81244 109.532 4.78939 109.451C3.19404 103.817 4.4031 97.2789 8.19163 91.0012C8.23104 90.938 8.27305 90.8711 8.3132 90.8075H29.1992L31.8266 104.902L31.8225 104.903C32.265 107.24 31.8519 108.365 31.4277 108.897C30.9633 109.479 30.3904 109.504 30.367 109.504L30.3707 109.878H32.7546H33.6123H37.6492H40.3566H42.3345L42.336 109.504C42.3163 109.504 40.4298 109.421 39.5201 105.4ZM11.2805 86.0884C16.0929 78.551 21.9385 69.8005 24.5556 65.9022L29.1293 90.4336H8.54743C9.40329 89.0683 10.3235 87.6062 11.2805 86.0884Z" fill="#F3FAF9"/>
<path d="M104.846 57.8867C104.835 57.8867 104.828 57.8867 104.824 57.8867C104.824 57.8867 104.824 57.8867 104.823 57.8867H91.4391V57.9062L87.5308 57.9073V58.2812C87.5446 58.2812 88.9213 58.2951 89.6429 59.1899C90.0739 59.7246 90.1928 60.4755 89.9969 61.4216L80.6906 106.273C80.0322 109.446 76.9586 109.49 76.8281 109.49V109.864H85.6194H90.2125H94.1159C94.1159 109.864 94.1159 109.864 94.1163 109.864H94.1167C94.2974 109.864 110.473 109.708 113.148 96.8144C113.706 94.1254 112.998 91.4633 111.101 89.1161C108.911 86.4066 105.292 84.4445 101.636 83.8679C105.787 83.2718 114.632 80.8495 116.672 71.013C117.431 67.3574 116.902 64.3727 115.101 62.1414C111.81 58.0625 105.277 57.8931 104.846 57.8867ZM104.823 58.2603C104.851 58.2603 107.209 58.2921 108.896 60.3842C110.726 62.6548 111.117 66.3934 110.058 71.4969C107.563 83.5198 99.5957 83.6873 99.4708 83.688C99.4704 83.688 99.4701 83.688 99.4697 83.688H92.4485L97.7242 58.2603H104.823ZM88.1008 108.581C87.6695 108.046 87.5505 107.295 87.7468 106.349L92.3711 84.062H99.4693H99.4697C99.5043 84.062 102.966 84.0986 105.171 86.8306C107.036 89.1419 107.495 92.664 106.533 97.2986C104.039 109.317 94.287 109.489 94.1178 109.49C94.1171 109.49 94.1167 109.49 94.1159 109.49H90.2125C90.1991 109.49 88.8224 109.476 88.1008 108.581Z" fill="#F3FAF9"/>
<path d="M79.4239 100.133C77.4099 102.92 74.2385 106.696 73.4912 106.361C73.4139 106.326 73.1845 106.108 73.4697 104.76L79.8039 74.7878H72.5819L72.5506 74.9359C72.3227 76.0143 72.1004 77.0685 71.8825 78.1024C70.7396 76.0386 68.3725 73.6686 63.5206 73.666C63.518 73.666 63.5154 73.666 63.5128 73.666C49.7164 73.666 40.9121 88.6138 40.9121 98.9042C40.9121 102.407 41.8672 105.364 43.6741 107.455C45.7063 109.807 48.6929 111 52.5506 111C52.5525 111 52.5547 111 52.5565 111C59.6135 110.996 64.6051 104.548 67.2991 99.8675C67.1169 100.711 66.9478 101.485 66.7942 102.177C65.9718 105.877 65.6506 108.627 66.7555 110.014C67.2842 110.677 68.0973 111 69.2421 111C72.9284 111 79.4559 100.779 79.7317 100.344L79.4239 100.133ZM49.0643 108.471C48.3345 107.13 47.9646 105.224 47.9646 102.806C47.9646 97.4623 49.8481 90.2128 52.7636 84.3374C56.0105 77.7935 59.9284 74.04 63.5128 74.04C66.1083 74.04 68.049 74.8192 69.2807 76.3565C71.6282 79.2855 70.6355 84.0405 70.6251 84.088L70.4076 85.0962L70.4173 85.0812C70.3786 85.2652 70.3403 85.4477 70.3024 85.6294C70.247 85.8826 64.7051 110.617 52.5565 110.626C52.5543 110.626 52.5528 110.626 52.5506 110.626C51.0158 110.626 49.8432 109.901 49.0643 108.471Z" fill="#F3FAF9"/>
<path d="M139.972 73.5996C134.5 73.5996 130.335 76.6273 128.05 78.7992L130.606 66.9319L132.85 56.6475L118.237 62.8305C117.75 63.0253 117.423 63.1734 117.372 63.197L117.521 63.5395L118.43 63.1547C120.167 62.4674 122.992 61.5864 123.901 62.338C124.159 62.5512 124.237 62.9001 124.158 63.3851C123.158 68.0671 119.361 85.8288 118.367 90.2992C117.648 93.5394 115.735 102.147 119.714 107.142C121.75 109.698 125.056 110.994 129.539 110.994C143.146 110.994 151.569 98.6455 151.569 87.2049C151.569 83.3638 150.589 80.0604 148.734 77.6519C146.691 75.0007 143.662 73.5996 139.972 73.5996ZM128.801 110.585C128.749 110.581 128.7 110.572 128.649 110.567C128.474 110.547 128.303 110.522 128.136 110.49C128.038 110.471 127.944 110.449 127.85 110.426C127.771 110.407 127.693 110.386 127.616 110.364C126.747 110.102 126.052 109.636 125.494 108.94C123.436 106.373 123.343 100.656 125.219 91.9468L126.859 84.3308L126.928 84.142C126.936 84.1165 127.87 81.5614 129.943 79.043C131.847 76.7305 135.132 73.9739 139.973 73.9739C141.886 73.9739 143.338 74.7158 144.287 76.179C145.164 77.5289 145.608 79.4599 145.608 81.9182C145.608 87.1649 143.573 94.2316 140.296 100.361C136.862 106.785 132.841 110.62 129.539 110.62C129.285 110.619 129.04 110.607 128.801 110.585Z" fill="#F3FAF9"/>
</svg>
