<svg width="34" height="20" viewBox="0 0 34 20" fill="none" xmlns="http://www.w3.org/2000/svg">
<g clip-path="url(#clip0)">
<path d="M33.2139 15.2611C32.2197 14.8633 31.2313 14.4682 30.2432 14.0723C29.3728 13.7236 28.5041 13.3709 27.6322 13.0261C27.1105 12.8197 26.8597 12.9807 26.7908 13.5374C26.5641 15.3687 26.3363 17.1998 26.1014 19.03C26.0388 19.5174 25.831 19.982 25.2932 19.9993C24.7467 20.0168 24.5329 19.5724 24.4685 19.072C24.2677 17.5091 24.0194 15.9508 23.8731 14.3829C23.7269 12.8161 23.6571 12.7415 22.1978 13.3284C20.8433 13.8732 19.4788 14.3945 18.1333 14.9607C17.3756 15.2795 16.6624 15.2944 15.8983 14.9706C14.3425 14.3112 12.7667 13.6984 11.2001 13.064C10.5403 12.7969 10.3739 12.8858 10.2742 13.6213C10.0431 15.3265 9.82503 17.0336 9.60026 18.7397C9.58401 18.8634 9.55316 18.9852 9.53428 19.1087C9.46212 19.5807 9.24881 20.0054 8.73682 20.0002C8.1951 19.9945 7.97336 19.5455 7.90901 19.0554C7.67152 17.2462 7.44083 15.4361 7.21468 13.6255C7.12779 12.9291 6.92443 12.8011 6.28047 13.0601C4.5969 13.7373 2.91107 14.4091 1.22914 15.0903C0.7864 15.2695 0.336106 15.3579 0.0804856 14.8651C-0.160654 14.4003 0.188904 14.0948 0.531284 13.8257C1.94425 12.7149 3.35671 11.6036 4.76627 10.4884C5.40318 9.98465 5.38618 9.77854 4.72522 9.2685C3.32006 8.18401 1.92208 7.0904 0.521336 6.00066C0.476508 5.96577 0.433695 5.92837 0.392896 5.88885C0.125817 5.63033 -0.158765 5.35405 0.10504 4.95507C0.353483 4.57936 0.735276 4.61763 1.11493 4.76947C2.83892 5.45936 4.56165 6.15225 6.28928 6.83263C7.01799 7.11967 7.16192 7.05826 7.28343 6.26869C7.51664 4.75346 7.98532 1.53928 8.11174 0.670163C8.13252 0.527583 8.20518 0.39826 8.31611 0.305458C8.55108 0.108847 8.90039 0.121104 9.11596 0.338602C9.24692 0.470801 9.36605 0.616883 9.39614 0.734574C9.58603 1.47537 9.64685 2.24955 9.74771 3.01186C9.89466 4.12123 10.0164 5.23411 10.1784 6.34123C10.2736 6.99272 10.4924 7.10103 11.1296 6.85126C12.7222 6.22691 14.3219 5.61832 15.8953 4.94907C16.6639 4.62214 17.3583 4.62801 18.124 4.95182C19.6989 5.61782 21.298 6.22754 22.8905 6.85214C23.5104 7.09528 23.7489 6.97008 23.8377 6.3301C24.0801 4.58449 24.3038 2.83638 24.5343 1.08915C24.5479 0.985966 24.5379 0.876404 24.5693 0.779475C24.6912 0.401387 24.8205 -0.106899 25.3006 0.0197974C25.5784 0.0930886 25.8909 0.542341 25.9452 0.863022C26.2598 2.72207 26.5076 4.59224 26.7655 6.46042C26.8371 6.97921 27.0864 7.07477 27.5489 6.89016C29.1563 6.2488 30.7694 5.6217 32.3805 4.98959C32.6139 4.89804 32.8486 4.73758 33.0824 4.73795C33.3588 4.73833 33.7345 4.80124 33.879 4.98384C33.9891 5.12292 33.8968 5.58255 33.7361 5.74051C33.2343 6.23404 32.6579 6.6544 32.1014 7.09077C31.1736 7.81831 30.2502 8.55197 29.3025 9.25374C28.6374 9.74627 28.6016 9.98053 29.2148 10.4655C30.6572 11.6067 32.1115 12.7331 33.55 13.879C34.1448 14.3529 34.1453 14.9254 33.5792 15.1686C33.4685 15.2165 33.343 15.2296 33.2139 15.2611ZM17.0214 13.6772C17.2403 13.5788 17.4492 13.527 17.6062 13.4077C18.9037 12.4209 20.1858 11.414 21.4857 10.4304C21.9109 10.1087 21.9422 9.82731 21.5166 9.49613C20.2302 8.49519 18.9411 7.49738 17.6656 6.48268C17.1905 6.10472 16.7726 6.13961 16.3115 6.50494C15.0831 7.47812 13.8316 8.42252 12.6071 9.40057C12.0183 9.87084 12.025 10.0357 12.6191 10.5024C13.8684 11.4839 15.129 12.4513 16.396 13.4101C16.568 13.54 16.8036 13.5869 17.0214 13.6772Z" fill="#F3FAF9"/>
</g>
<defs>
<clipPath id="clip0">
<rect width="34" height="20" fill="white"/>
</clipPath>
</defs>
</svg>
