<svg width="14" height="14" viewBox="0 0 14 14" fill="none" xmlns="http://www.w3.org/2000/svg">
<path fill-rule="evenodd" clip-rule="evenodd" d="M1.5 7C1.5 4.13098 3.69675 1.77504 6.5 1.52242V6.79301L2.77342 10.5196C1.97833 9.56583 1.5 8.33878 1.5 7ZM3.48053 11.2267C4.3142 11.9216 5.35665 12.3745 6.5 12.4776V8.20722L3.48053 11.2267ZM7.5 8.20714V12.4776C8.64337 12.3745 9.68584 11.9216 10.5195 11.2267L7.5 8.20714ZM11.2266 10.5195C12.0217 9.5658 12.5 8.33876 12.5 7C12.5 4.13098 10.3033 1.77504 7.5 1.52242V6.79293L11.2266 10.5195ZM0.5 7C0.5 3.41015 3.41015 0.5 7 0.5C10.5899 0.5 13.5 3.41015 13.5 7C13.5 10.5899 10.5899 13.5 7 13.5C3.41015 13.5 0.5 10.5899 0.5 7Z" fill="white"/>
</svg>
