<svg width="21" height="17" viewBox="0 0 21 17" fill="none" xmlns="http://www.w3.org/2000/svg">
<g clip-path="url(#clip0)">
<path d="M21 2.01228C20.2265 2.35303 19.3967 2.58404 18.5253 2.68764C19.4144 2.15656 20.0978 1.31543 20.4199 0.313124C19.5878 0.805065 18.6648 1.16193 17.684 1.35457C16.8982 0.521105 15.7779 0 14.5391 0C12.1599 0 10.2315 1.92172 10.2315 4.29087C10.2315 4.62778 10.2693 4.95549 10.3424 5.26861C6.76219 5.09056 3.58719 3.38143 1.4623 0.785111C1.09095 1.41903 0.879077 2.15656 0.879077 2.94321C0.879077 4.43208 1.63951 5.7452 2.79594 6.51573C2.09022 6.49271 1.42532 6.30008 0.844407 5.97851C0.843636 5.99616 0.843637 6.01381 0.843637 6.03223C0.843637 8.11205 2.32905 9.84651 4.29985 10.241C3.93851 10.3392 3.55714 10.3914 3.16498 10.3914C2.88685 10.3914 2.6172 10.3645 2.35371 10.3139C2.90226 12.0192 4.49323 13.2602 6.37851 13.2947C4.90388 14.4459 3.04634 15.132 1.02854 15.132C0.680302 15.132 0.337455 15.112 0 15.0721C1.90685 16.2901 4.17118 17.0008 6.60425 17.0008C14.529 17.0008 18.8628 10.4612 18.8628 4.79048C18.8628 4.60476 18.8582 4.4198 18.8505 4.23561C19.6918 3.62855 20.4222 2.8726 21 2.01228Z" fill="#F3FAF9"/>
</g>
<defs>
<clipPath id="clip0">
<rect width="21" height="17" fill="white"/>
</clipPath>
</defs>
</svg>
