<svg width="729" height="351" viewBox="0 0 729 351" fill="none" xmlns="http://www.w3.org/2000/svg">
<path d="M306 161H216C211.306 161 207.5 157.194 207.5 152.5C207.5 147.806 211.306 144 216 144H306C310.694 144 314.5 147.806 314.5 152.5C314.5 157.194 310.694 161 306 161Z" fill="#F3FAF9"/>
<path d="M306 89H216C211.306 89 207.5 85.194 207.5 80.5C207.5 75.806 211.306 72 216 72H306C310.694 72 314.5 75.806 314.5 80.5C314.5 85.194 310.694 89 306 89Z" fill="#F3FAF9"/>
<path d="M306 17H216C211.306 17 207.5 13.194 207.5 8.5C207.5 3.806 211.306 0 216 0H306C310.694 0 314.5 3.806 314.5 8.5C314.5 13.194 310.694 17 306 17Z" fill="#F3FAF9"/>
<path d="M216.956 107.55C215.722 107.421 214.534 107.545 213.434 107.874C211.529 108.444 209.466 107.845 208.061 106.439C206.655 105.033 206.056 102.97 206.626 101.066C207.015 99.7681 207.117 98.3461 206.856 96.8701C206.202 93.1771 203.202 90.2191 199.5 89.6211C193.36 88.6311 188.132 93.8581 189.122 99.9991C189.719 103.701 192.678 106.701 196.371 107.355C197.847 107.616 199.268 107.514 200.567 107.125C202.472 106.555 204.535 107.154 205.94 108.56L205.941 108.561C207.368 109.988 207.912 112.075 207.351 114.013C207.123 114.802 207 115.636 207 116.499C207 117.362 207.123 118.195 207.351 118.984C207.911 120.923 207.367 123.01 205.94 124.438C204.534 125.844 202.47 126.443 200.565 125.873C199.267 125.485 197.845 125.382 196.37 125.644C192.677 126.298 189.718 129.298 189.121 133C188.131 139.14 193.358 144.368 199.499 143.378C203.201 142.781 206.201 139.822 206.855 136.129C207.116 134.654 207.014 133.232 206.626 131.934C206.056 130.029 206.655 127.965 208.061 126.559C209.488 125.132 211.576 124.588 213.515 125.148C214.304 125.376 215.137 125.499 216 125.499C221.299 125.499 225.528 120.92 224.946 115.503C224.501 111.351 221.111 107.983 216.956 107.55Z" fill="#F3FAF9"/>
<path d="M216.956 35.5501C215.722 35.4211 214.534 35.5451 213.434 35.8741C211.529 36.4441 209.466 35.8451 208.061 34.4391C206.655 33.0331 206.056 30.9701 206.626 29.0661C207.015 27.7681 207.117 26.3461 206.856 24.8701C206.202 21.1771 203.202 18.2191 199.5 17.6211C193.36 16.6311 188.132 21.8581 189.122 27.9991C189.719 31.7011 192.678 34.7011 196.371 35.3551C197.847 35.6161 199.268 35.5141 200.567 35.1251C202.472 34.5551 204.535 35.1541 205.94 36.5601L205.941 36.5611C207.368 37.9881 207.912 40.0751 207.351 42.0131C207.123 42.8031 207 43.6371 207 44.5001C207 45.3631 207.123 46.1961 207.351 46.9851C207.911 48.9241 207.367 51.0111 205.94 52.4391C204.534 53.8451 202.47 54.4441 200.565 53.8741C199.267 53.4861 197.845 53.3831 196.37 53.6451C192.677 54.2991 189.718 57.2991 189.121 61.0011C188.131 67.1411 193.358 72.3691 199.499 71.3791C203.201 70.7821 206.201 67.8231 206.855 64.1301C207.116 62.6551 207.014 61.2331 206.626 59.9351C206.056 58.0301 206.655 55.9661 208.061 54.5601C209.488 53.1331 211.576 52.5891 213.515 53.1491C214.304 53.3771 215.137 53.5001 216 53.5001C221.299 53.5001 225.528 48.9211 224.946 43.5041C224.501 39.3511 221.111 35.9831 216.956 35.5501Z" fill="#F3FAF9"/>
<path d="M342.956 107.55C341.722 107.421 340.534 107.545 339.434 107.874C337.529 108.444 335.466 107.845 334.061 106.439C332.655 105.033 332.056 102.97 332.626 101.066C333.015 99.7681 333.117 98.3461 332.856 96.8701C332.202 93.1771 329.202 90.2191 325.5 89.6211C319.36 88.6311 314.132 93.8581 315.122 99.9991C315.719 103.701 318.678 106.701 322.371 107.355C323.847 107.616 325.268 107.514 326.567 107.125C328.472 106.555 330.535 107.154 331.94 108.56L331.941 108.561C333.368 109.988 333.912 112.075 333.351 114.013C333.123 114.802 333 115.636 333 116.499C333 117.362 333.123 118.195 333.351 118.984C333.911 120.923 333.367 123.01 331.94 124.438C330.534 125.844 328.47 126.443 326.565 125.873C325.267 125.485 323.845 125.382 322.37 125.644C318.677 126.298 315.718 129.298 315.121 133C314.131 139.14 319.358 144.368 325.499 143.378C329.201 142.781 332.201 139.822 332.855 136.129C333.116 134.654 333.014 133.232 332.626 131.934C332.056 130.029 332.655 127.965 334.061 126.559C335.488 125.132 337.576 124.588 339.515 125.148C340.304 125.376 341.137 125.499 342 125.499C347.299 125.499 351.528 120.92 350.946 115.503C350.501 111.351 347.111 107.983 342.956 107.55Z" fill="#F3FAF9"/>
<path d="M342.956 35.5501C341.722 35.4211 340.534 35.5451 339.434 35.8741C337.529 36.4441 335.466 35.8451 334.061 34.4391C332.655 33.0331 332.056 30.9701 332.626 29.0661C333.015 27.7681 333.117 26.3461 332.856 24.8701C332.202 21.1771 329.202 18.2191 325.5 17.6211C319.36 16.6311 314.132 21.8581 315.122 27.9991C315.719 31.7011 318.678 34.7011 322.371 35.3551C323.847 35.6161 325.268 35.5141 326.567 35.1251C328.472 34.5551 330.535 35.1541 331.94 36.5601L331.941 36.5611C333.368 37.9881 333.912 40.0751 333.351 42.0131C333.123 42.8031 333 43.6371 333 44.5001C333 45.3631 333.123 46.1961 333.351 46.9851C333.911 48.9241 333.367 51.0111 331.94 52.4391C330.534 53.8451 328.47 54.4441 326.565 53.8741C325.267 53.4861 323.845 53.3831 322.37 53.6451C318.677 54.2991 315.718 57.2991 315.121 61.0011C314.131 67.1411 319.358 72.3691 325.499 71.3791C329.201 70.7821 332.201 67.8231 332.855 64.1301C333.116 62.6551 333.014 61.2331 332.626 59.9351C332.056 58.0301 332.655 55.9661 334.061 54.5601C335.488 53.1331 337.576 52.5891 339.515 53.1491C340.304 53.3771 341.137 53.5001 342 53.5001C347.299 53.5001 351.528 48.9211 350.946 43.5041C350.501 39.3511 347.111 35.9831 342.956 35.5501Z" fill="#F3FAF9"/>
<path d="M135 89H27C22.306 89 18.5 85.194 18.5 80.5C18.5 75.806 22.306 72 27 72H135C139.694 72 143.5 75.806 143.5 80.5C143.5 85.194 139.694 89 135 89Z" fill="#F3FAF9"/>
<path d="M135 17H27C22.306 17 18.5 13.194 18.5 8.5C18.5 3.806 22.306 0 27 0H135C139.694 0 143.5 3.806 143.5 8.5C143.5 13.194 139.694 17 135 17Z" fill="#F3FAF9"/>
<path d="M27.9561 107.55C26.7221 107.421 25.5341 107.545 24.4341 107.874C22.5291 108.444 20.4661 107.845 19.0611 106.439C17.6551 105.033 17.0561 102.97 17.6261 101.066C18.0151 99.7681 18.1171 98.3461 17.8561 96.8701C17.2021 93.1771 14.2021 90.2191 10.5001 89.6211C4.36006 88.6311 -0.867941 93.8581 0.122059 99.9991C0.719059 103.701 3.67806 106.701 7.37106 107.355C8.84706 107.616 10.2681 107.514 11.5671 107.125C13.4721 106.555 15.5351 107.154 16.9401 108.56L16.9411 108.561C18.3681 109.988 18.9121 112.075 18.3511 114.013C18.1231 114.803 18.0001 115.637 18.0001 116.5C18.0001 117.363 18.1231 118.196 18.3511 118.985C18.9111 120.924 18.3671 123.011 16.9401 124.439C15.5341 125.845 13.4701 126.444 11.5651 125.874C10.2671 125.486 8.84506 125.383 7.37006 125.645C3.67706 126.299 0.719059 129.299 0.121059 133.001C-0.868941 139.141 4.35806 144.369 10.4991 143.379C14.2011 142.782 17.2011 139.823 17.8551 136.13C18.1161 134.655 18.0141 133.233 17.6261 131.935C17.0561 130.03 17.6551 127.966 19.0611 126.56C20.4881 125.133 22.5761 124.589 24.5151 125.149C25.3041 125.377 26.1371 125.5 27.0001 125.5C32.2991 125.5 36.5281 120.921 35.9461 115.504C35.5011 111.351 32.1111 107.983 27.9561 107.55Z" fill="#F3FAF9"/>
<path d="M27.9561 35.5501C26.7221 35.4211 25.5341 35.5451 24.4341 35.8741C22.5291 36.4441 20.4661 35.8451 19.0611 34.4391C17.6551 33.0331 17.0561 30.9701 17.6261 29.0661C18.0151 27.7681 18.1171 26.3461 17.8561 24.8701C17.2021 21.1771 14.2021 18.2191 10.5001 17.6211C4.36006 16.6311 -0.867941 21.8581 0.122059 27.9991C0.719059 31.7011 3.67806 34.7011 7.37106 35.3551C8.84706 35.6161 10.2681 35.5141 11.5671 35.1251C13.4721 34.5551 15.5351 35.1541 16.9401 36.5601L16.9411 36.5611C18.3681 37.9881 18.9121 40.0751 18.3511 42.0131C18.1231 42.8031 18.0001 43.6371 18.0001 44.5001C18.0001 45.3631 18.1231 46.1961 18.3511 46.9851C18.9111 48.9241 18.3671 51.0111 16.9401 52.4391C15.5341 53.8451 13.4701 54.4441 11.5651 53.8741C10.2671 53.4861 8.84506 53.3831 7.37006 53.6451C3.67706 54.2991 0.719059 57.2991 0.121059 61.0011C-0.868941 67.1411 4.35806 72.3691 10.4991 71.3791C14.2011 70.7821 17.2011 67.8231 17.8551 64.1301C18.1161 62.6551 18.0141 61.2331 17.6261 59.9351C17.0561 58.0301 17.6551 55.9661 19.0611 54.5601C20.4881 53.1331 22.5761 52.5891 24.5151 53.1491C25.3041 53.3781 26.1371 53.5001 27.0001 53.5001C32.2991 53.5001 36.5281 48.9211 35.9461 43.5041C35.5011 39.3511 32.1111 35.9831 27.9561 35.5501Z" fill="#F3FAF9"/>
<path d="M134.044 107.55C135.278 107.421 136.466 107.545 137.566 107.874C139.471 108.444 141.534 107.845 142.939 106.439C144.345 105.033 144.944 102.97 144.374 101.066C143.985 99.7681 143.883 98.3461 144.144 96.8701C144.798 93.1771 147.798 90.2191 151.5 89.6211C157.64 88.6311 162.868 93.8581 161.878 99.9991C161.281 103.701 158.322 106.701 154.629 107.355C153.153 107.616 151.732 107.514 150.433 107.125C148.528 106.555 146.465 107.154 145.06 108.56L145.059 108.561C143.632 109.988 143.088 112.075 143.649 114.013C143.877 114.802 144 115.636 144 116.499C144 117.362 143.877 118.195 143.649 118.984C143.089 120.923 143.633 123.01 145.06 124.438C146.466 125.844 148.53 126.443 150.435 125.873C151.733 125.485 153.155 125.382 154.63 125.644C158.323 126.298 161.281 129.298 161.879 133C162.869 139.14 157.642 144.368 151.501 143.378C147.799 142.781 144.799 139.822 144.145 136.129C143.884 134.654 143.986 133.232 144.374 131.934C144.944 130.029 144.345 127.965 142.939 126.559C141.512 125.132 139.424 124.588 137.485 125.148C136.696 125.376 135.863 125.499 135 125.499C129.701 125.499 125.472 120.92 126.054 115.503C126.499 111.351 129.889 107.983 134.044 107.55Z" fill="#F3FAF9"/>
<path d="M134.044 35.5501C135.278 35.4211 136.466 35.5451 137.566 35.8741C139.471 36.4441 141.534 35.8451 142.939 34.4391C144.345 33.0331 144.944 30.9701 144.374 29.0661C143.985 27.7681 143.883 26.3461 144.144 24.8701C144.798 21.1771 147.798 18.2191 151.5 17.6211C157.64 16.6311 162.868 21.8581 161.878 27.9991C161.281 31.7011 158.322 34.7011 154.629 35.3551C153.153 35.6161 151.732 35.5141 150.433 35.1251C148.528 34.5551 146.465 35.1541 145.06 36.5601L145.059 36.5611C143.632 37.9881 143.088 40.0751 143.649 42.0131C143.877 42.8031 144 43.6371 144 44.5001C144 45.3631 143.877 46.1961 143.649 46.9851C143.089 48.9241 143.633 51.0111 145.06 52.4391C146.466 53.8451 148.53 54.4441 150.435 53.8741C151.733 53.4861 153.155 53.3831 154.63 53.6451C158.323 54.2991 161.281 57.2991 161.879 61.0011C162.869 67.1411 157.642 72.3691 151.501 71.3791C147.799 70.7821 144.799 67.8231 144.145 64.1301C143.884 62.6551 143.986 61.2331 144.374 59.9351C144.944 58.0301 144.345 55.9661 142.939 54.5601C141.512 53.1331 139.424 52.5891 137.485 53.1491C136.696 53.3771 135.863 53.5001 135 53.5001C129.701 53.5001 125.472 48.9211 126.054 43.5041C126.499 39.3511 129.889 35.9831 134.044 35.5501Z" fill="#F3FAF9"/>
<path d="M27 161.5C31.9706 161.5 36 157.471 36 152.5C36 147.529 31.9706 143.5 27 143.5C22.0294 143.5 18 147.529 18 152.5C18 157.471 22.0294 161.5 27 161.5Z" fill="#F3FAF9"/>
<path d="M135 161.5C139.971 161.5 144 157.471 144 152.5C144 147.529 139.971 143.5 135 143.5C130.029 143.5 126 147.529 126 152.5C126 157.471 130.029 161.5 135 161.5Z" fill="#F3FAF9"/>
<path d="M513 161H423C418.306 161 414.5 157.194 414.5 152.5C414.5 147.806 418.306 144 423 144H513C517.694 144 521.5 147.806 521.5 152.5C521.5 157.194 517.694 161 513 161Z" fill="#F3FAF9"/>
<path d="M513 17H423C418.306 17 414.5 13.194 414.5 8.5C414.5 3.806 418.306 0 423 0H513C517.694 0 521.5 3.806 521.5 8.5C521.5 13.194 517.694 17 513 17Z" fill="#F3FAF9"/>
<path d="M386.044 107.55C387.278 107.421 388.466 107.545 389.566 107.874C391.471 108.444 393.534 107.845 394.939 106.439C396.345 105.033 396.944 102.97 396.374 101.066C395.985 99.7681 395.883 98.3461 396.144 96.8701C396.798 93.1771 399.798 90.2191 403.5 89.6211C409.64 88.6311 414.868 93.8581 413.878 99.9991C413.281 103.701 410.322 106.701 406.629 107.355C405.153 107.616 403.732 107.514 402.433 107.125C400.528 106.555 398.465 107.154 397.06 108.56L397.059 108.561C395.632 109.988 395.088 112.075 395.649 114.013C395.877 114.802 396 115.636 396 116.499C396 117.362 395.877 118.195 395.649 118.984C395.089 120.923 395.633 123.01 397.06 124.438C398.466 125.844 400.53 126.443 402.435 125.873C403.733 125.485 405.155 125.382 406.63 125.644C410.323 126.298 413.281 129.298 413.879 133C414.869 139.14 409.642 144.368 403.501 143.378C399.799 142.781 396.799 139.822 396.145 136.129C395.884 134.654 395.986 133.232 396.374 131.934C396.944 130.029 396.345 127.965 394.939 126.559C393.512 125.132 391.424 124.588 389.485 125.148C388.696 125.376 387.863 125.499 387 125.499C381.701 125.499 377.472 120.92 378.054 115.503C378.499 111.351 381.889 107.983 386.044 107.55Z" fill="#F3FAF9"/>
<path d="M386.044 35.5501C387.278 35.4211 388.466 35.5451 389.566 35.8741C391.471 36.4441 393.534 35.8451 394.939 34.4391C396.345 33.0331 396.944 30.9701 396.374 29.0661C395.985 27.7681 395.883 26.3461 396.144 24.8701C396.798 21.1771 399.798 18.2191 403.5 17.6211C409.64 16.6311 414.868 21.8581 413.878 27.9991C413.281 31.7011 410.322 34.7011 406.629 35.3551C405.153 35.6161 403.732 35.5141 402.433 35.1251C400.528 34.5551 398.465 35.1541 397.06 36.5601L397.059 36.5611C395.632 37.9881 395.088 40.0751 395.649 42.0131C395.877 42.8031 396 43.6371 396 44.5001C396 45.3631 395.877 46.1961 395.649 46.9851C395.089 48.9241 395.633 51.0111 397.06 52.4391C398.466 53.8451 400.53 54.4441 402.435 53.8741C403.733 53.4861 405.155 53.3831 406.63 53.6451C410.323 54.2991 413.281 57.2991 413.879 61.0011C414.869 67.1411 409.642 72.3691 403.501 71.3791C399.799 70.7821 396.799 67.8231 396.145 64.1301C395.884 62.6551 395.986 61.2331 396.374 59.9351C396.944 58.0301 396.345 55.9661 394.939 54.5601C393.512 53.1331 391.424 52.5891 389.485 53.1491C388.696 53.3771 387.863 53.5001 387 53.5001C381.701 53.5001 377.472 48.9211 378.054 43.5041C378.499 39.3511 381.889 35.9831 386.044 35.5501Z" fill="#F3FAF9"/>
<path d="M531 35.5C535.971 35.5 540 31.4706 540 26.5C540 21.5294 535.971 17.5 531 17.5C526.029 17.5 522 21.5294 522 26.5C522 31.4706 526.029 35.5 531 35.5Z" fill="#F3FAF9"/>
<path d="M531 143.5C535.971 143.5 540 139.471 540 134.5C540 129.529 535.971 125.5 531 125.5C526.029 125.5 522 129.529 522 134.5C522 139.471 526.029 143.5 531 143.5Z" fill="#F3FAF9"/>
<path d="M387 89.5C391.971 89.5 396 85.4706 396 80.5C396 75.5294 391.971 71.5 387 71.5C382.029 71.5 378 75.5294 378 80.5C378 85.4706 382.029 89.5 387 89.5Z" fill="#F3FAF9"/>
<path d="M684 161H594C589.306 161 585.5 157.194 585.5 152.5C585.5 147.806 589.306 144 594 144H684C688.694 144 692.5 147.806 692.5 152.5C692.5 157.194 688.694 161 684 161Z" fill="#F3FAF9"/>
<path d="M684 17H594C589.306 17 585.5 13.194 585.5 8.5C585.5 3.806 589.306 0 594 0H684C688.694 0 692.5 3.806 692.5 8.5C692.5 13.194 688.694 17 684 17Z" fill="#F3FAF9"/>
<path d="M594.956 107.55C593.722 107.421 592.534 107.545 591.434 107.874C589.529 108.444 587.466 107.845 586.061 106.439C584.655 105.033 584.056 102.97 584.626 101.066C585.015 99.7681 585.117 98.3461 584.856 96.8701C584.202 93.1771 581.202 90.2191 577.5 89.6211C571.36 88.6311 566.132 93.8581 567.122 99.9991C567.719 103.701 570.678 106.701 574.371 107.355C575.847 107.616 577.268 107.514 578.567 107.125C580.472 106.555 582.535 107.154 583.94 108.56L583.941 108.561C585.368 109.988 585.912 112.075 585.351 114.013C585.123 114.802 585 115.636 585 116.499C585 117.362 585.123 118.195 585.351 118.984C585.911 120.923 585.367 123.01 583.94 124.438C582.534 125.844 580.47 126.443 578.565 125.873C577.267 125.485 575.845 125.382 574.37 125.644C570.677 126.298 567.719 129.298 567.121 133C566.131 139.14 571.358 144.368 577.499 143.378C581.201 142.781 584.201 139.822 584.855 136.129C585.116 134.654 585.014 133.232 584.626 131.934C584.056 130.029 584.655 127.965 586.061 126.559C587.488 125.132 589.576 124.588 591.515 125.148C592.304 125.376 593.137 125.499 594 125.499C599.299 125.499 603.528 120.92 602.946 115.503C602.501 111.351 599.111 107.983 594.956 107.55Z" fill="#F3FAF9"/>
<path d="M594.956 35.5501C593.722 35.4211 592.534 35.5451 591.434 35.8741C589.529 36.4441 587.466 35.8451 586.061 34.4391C584.655 33.0331 584.056 30.9701 584.626 29.0661C585.015 27.7681 585.117 26.3461 584.856 24.8701C584.202 21.1771 581.202 18.2191 577.5 17.6211C571.36 16.6311 566.132 21.8581 567.122 27.9991C567.719 31.7011 570.678 34.7011 574.371 35.3551C575.847 35.6161 577.268 35.5141 578.567 35.1251C580.472 34.5551 582.535 35.1541 583.94 36.5601L583.941 36.5611C585.368 37.9881 585.912 40.0751 585.351 42.0131C585.123 42.8031 585 43.6371 585 44.5001C585 45.3631 585.123 46.1961 585.351 46.9851C585.911 48.9241 585.367 51.0111 583.94 52.4391C582.534 53.8451 580.47 54.4441 578.565 53.8741C577.267 53.4861 575.845 53.3831 574.37 53.6451C570.677 54.2991 567.719 57.2991 567.121 61.0011C566.131 67.1411 571.358 72.3691 577.499 71.3791C581.201 70.7821 584.201 67.8231 584.855 64.1301C585.116 62.6551 585.014 61.2331 584.626 59.9351C584.056 58.0301 584.655 55.9661 586.061 54.5601C587.488 53.1331 589.576 52.5891 591.515 53.1491C592.304 53.3771 593.137 53.5001 594 53.5001C599.299 53.5001 603.528 48.9211 602.946 43.5041C602.501 39.3511 599.111 35.9831 594.956 35.5501Z" fill="#F3FAF9"/>
<path d="M720.956 107.55C719.722 107.421 718.534 107.545 717.434 107.874C715.529 108.444 713.466 107.845 712.061 106.439C710.655 105.033 710.056 102.97 710.626 101.066C711.015 99.7681 711.117 98.3461 710.856 96.8701C710.202 93.1771 707.202 90.2191 703.5 89.6211C697.36 88.6311 692.132 93.8581 693.122 99.9991C693.719 103.701 696.678 106.701 700.371 107.355C701.847 107.616 703.268 107.514 704.567 107.125C706.472 106.555 708.535 107.154 709.94 108.56L709.941 108.561C711.368 109.988 711.912 112.075 711.351 114.013C711.123 114.802 711 115.636 711 116.499C711 117.362 711.123 118.195 711.351 118.984C711.911 120.923 711.367 123.01 709.94 124.438C708.534 125.844 706.47 126.443 704.565 125.873C703.267 125.485 701.845 125.382 700.37 125.644C696.677 126.298 693.719 129.298 693.121 133C692.131 139.14 697.358 144.368 703.499 143.378C707.201 142.781 710.201 139.822 710.855 136.129C711.116 134.654 711.014 133.232 710.626 131.934C710.056 130.029 710.655 127.965 712.061 126.559C713.488 125.132 715.576 124.588 717.515 125.148C718.304 125.376 719.137 125.499 720 125.499C725.299 125.499 729.528 120.92 728.946 115.503C728.501 111.351 725.111 107.983 720.956 107.55Z" fill="#F3FAF9"/>
<path d="M720.956 35.5501C719.722 35.4211 718.534 35.5451 717.434 35.8741C715.529 36.4441 713.466 35.8451 712.061 34.4391C710.655 33.0331 710.056 30.9701 710.626 29.0661C711.015 27.7681 711.117 26.3461 710.856 24.8701C710.202 21.1771 707.202 18.2191 703.5 17.6211C697.36 16.6311 692.132 21.8581 693.122 27.9991C693.719 31.7011 696.678 34.7011 700.371 35.3551C701.847 35.6161 703.268 35.5141 704.567 35.1251C706.472 34.5551 708.535 35.1541 709.94 36.5601L709.941 36.5611C711.368 37.9881 711.912 40.0751 711.351 42.0131C711.123 42.8031 711 43.6371 711 44.5001C711 45.3631 711.123 46.1961 711.351 46.9851C711.911 48.9241 711.367 51.0111 709.94 52.4391C708.534 53.8451 706.47 54.4441 704.565 53.8741C703.267 53.4861 701.845 53.3831 700.37 53.6451C696.677 54.2991 693.719 57.2991 693.121 61.0011C692.131 67.1411 697.358 72.3691 703.499 71.3791C707.201 70.7821 710.201 67.8231 710.855 64.1301C711.116 62.6551 711.014 61.2331 710.626 59.9351C710.056 58.0301 710.655 55.9661 712.061 54.5601C713.488 53.1331 715.576 52.5891 717.515 53.1491C718.304 53.3771 719.137 53.5001 720 53.5001C725.299 53.5001 729.528 48.9211 728.946 43.5041C728.501 39.3511 725.111 35.9831 720.956 35.5501Z" fill="#F3FAF9"/>
<path d="M720 89.5C724.971 89.5 729 85.4706 729 80.5C729 75.5294 724.971 71.5 720 71.5C715.029 71.5 711 75.5294 711 80.5C711 85.4706 715.029 89.5 720 89.5Z" fill="#F3FAF9"/>
<path d="M684 161H594C589.306 161 585.5 157.194 585.5 152.5C585.5 147.806 589.306 144 594 144H684C688.694 144 692.5 147.806 692.5 152.5C692.5 157.194 688.694 161 684 161Z" fill="#F3FAF9"/>
<path d="M684 17H594C589.306 17 585.5 13.194 585.5 8.5C585.5 3.806 589.306 0 594 0H684C688.694 0 692.5 3.806 692.5 8.5C692.5 13.194 688.694 17 684 17Z" fill="#F3FAF9"/>
<path d="M594.956 107.55C593.722 107.421 592.534 107.545 591.434 107.874C589.529 108.444 587.466 107.845 586.061 106.439C584.655 105.033 584.056 102.97 584.626 101.066C585.015 99.7681 585.117 98.3461 584.856 96.8701C584.202 93.1771 581.202 90.2191 577.5 89.6211C571.36 88.6311 566.132 93.8581 567.122 99.9991C567.719 103.701 570.678 106.701 574.371 107.355C575.847 107.616 577.268 107.514 578.567 107.125C580.472 106.555 582.535 107.154 583.94 108.56L583.941 108.561C585.368 109.988 585.912 112.075 585.351 114.013C585.123 114.802 585 115.636 585 116.499C585 117.362 585.123 118.195 585.351 118.984C585.911 120.923 585.367 123.01 583.94 124.438C582.534 125.844 580.47 126.443 578.565 125.873C577.267 125.485 575.845 125.382 574.37 125.644C570.677 126.298 567.719 129.298 567.121 133C566.131 139.14 571.358 144.368 577.499 143.378C581.201 142.781 584.201 139.822 584.855 136.129C585.116 134.654 585.014 133.232 584.626 131.934C584.056 130.029 584.655 127.965 586.061 126.559C587.488 125.132 589.576 124.588 591.515 125.148C592.304 125.376 593.137 125.499 594 125.499C599.299 125.499 603.528 120.92 602.946 115.503C602.501 111.351 599.111 107.983 594.956 107.55Z" fill="#F3FAF9"/>
<path d="M594.956 35.5501C593.722 35.4211 592.534 35.5451 591.434 35.8741C589.529 36.4441 587.466 35.8451 586.061 34.4391C584.655 33.0331 584.056 30.9701 584.626 29.0661C585.015 27.7681 585.117 26.3461 584.856 24.8701C584.202 21.1771 581.202 18.2191 577.5 17.6211C571.36 16.6311 566.132 21.8581 567.122 27.9991C567.719 31.7011 570.678 34.7011 574.371 35.3551C575.847 35.6161 577.268 35.5141 578.567 35.1251C580.472 34.5551 582.535 35.1541 583.94 36.5601L583.941 36.5611C585.368 37.9881 585.912 40.0751 585.351 42.0131C585.123 42.8031 585 43.6371 585 44.5001C585 45.3631 585.123 46.1961 585.351 46.9851C585.911 48.9241 585.367 51.0111 583.94 52.4391C582.534 53.8451 580.47 54.4441 578.565 53.8741C577.267 53.4861 575.845 53.3831 574.37 53.6451C570.677 54.2991 567.719 57.2991 567.121 61.0011C566.131 67.1411 571.358 72.3691 577.499 71.3791C581.201 70.7821 584.201 67.8231 584.855 64.1301C585.116 62.6551 585.014 61.2331 584.626 59.9351C584.056 58.0301 584.655 55.9661 586.061 54.5601C587.488 53.1331 589.576 52.5891 591.515 53.1491C592.304 53.3771 593.137 53.5001 594 53.5001C599.299 53.5001 603.528 48.9211 602.946 43.5041C602.501 39.3511 599.111 35.9831 594.956 35.5501Z" fill="#F3FAF9"/>
<path d="M720.956 107.55C719.722 107.421 718.534 107.545 717.434 107.874C715.529 108.444 713.466 107.845 712.061 106.439C710.655 105.033 710.056 102.97 710.626 101.066C711.015 99.7681 711.117 98.3461 710.856 96.8701C710.202 93.1771 707.202 90.2191 703.5 89.6211C697.36 88.6311 692.132 93.8581 693.122 99.9991C693.719 103.701 696.678 106.701 700.371 107.355C701.847 107.616 703.268 107.514 704.567 107.125C706.472 106.555 708.535 107.154 709.94 108.56L709.941 108.561C711.368 109.988 711.912 112.075 711.351 114.013C711.123 114.802 711 115.636 711 116.499C711 117.362 711.123 118.195 711.351 118.984C711.911 120.923 711.367 123.01 709.94 124.438C708.534 125.844 706.47 126.443 704.565 125.873C703.267 125.485 701.845 125.382 700.37 125.644C696.677 126.298 693.719 129.298 693.121 133C692.131 139.14 697.358 144.368 703.499 143.378C707.201 142.781 710.201 139.822 710.855 136.129C711.116 134.654 711.014 133.232 710.626 131.934C710.056 130.029 710.655 127.965 712.061 126.559C713.488 125.132 715.576 124.588 717.515 125.148C718.304 125.376 719.137 125.499 720 125.499C725.299 125.499 729.528 120.92 728.946 115.503C728.501 111.351 725.111 107.983 720.956 107.55Z" fill="#F3FAF9"/>
<path d="M720.956 35.5501C719.722 35.4211 718.534 35.5451 717.434 35.8741C715.529 36.4441 713.466 35.8451 712.061 34.4391C710.655 33.0331 710.056 30.9701 710.626 29.0661C711.015 27.7681 711.117 26.3461 710.856 24.8701C710.202 21.1771 707.202 18.2191 703.5 17.6211C697.36 16.6311 692.132 21.8581 693.122 27.9991C693.719 31.7011 696.678 34.7011 700.371 35.3551C701.847 35.6161 703.268 35.5141 704.567 35.1251C706.472 34.5551 708.535 35.1541 709.94 36.5601L709.941 36.5611C711.368 37.9881 711.912 40.0751 711.351 42.0131C711.123 42.8031 711 43.6371 711 44.5001C711 45.3631 711.123 46.1961 711.351 46.9851C711.911 48.9241 711.367 51.0111 709.94 52.4391C708.534 53.8451 706.47 54.4441 704.565 53.8741C703.267 53.4861 701.845 53.3831 700.37 53.6451C696.677 54.2991 693.719 57.2991 693.121 61.0011C692.131 67.1411 697.358 72.3691 703.499 71.3791C707.201 70.7821 710.201 67.8231 710.855 64.1301C711.116 62.6551 711.014 61.2331 710.626 59.9351C710.056 58.0301 710.655 55.9661 712.061 54.5601C713.488 53.1331 715.576 52.5891 717.515 53.1491C718.304 53.3771 719.137 53.5001 720 53.5001C725.299 53.5001 729.528 48.9211 728.946 43.5041C728.501 39.3511 725.111 35.9831 720.956 35.5501Z" fill="#F3FAF9"/>
<path d="M720 89.5C724.971 89.5 729 85.4706 729 80.5C729 75.5294 724.971 71.5 720 71.5C715.029 71.5 711 75.5294 711 80.5C711 85.4706 715.029 89.5 720 89.5Z" fill="#F3FAF9"/>
<path d="M495 349.626H405C400.306 349.626 396.5 345.82 396.5 341.126C396.5 336.432 400.306 332.626 405 332.626H495C499.694 332.626 503.5 336.432 503.5 341.126C503.5 345.82 499.694 349.626 495 349.626Z" fill="#F3FAF9"/>
<path d="M495 277.626H405C400.306 277.626 396.5 273.82 396.5 269.126C396.5 264.432 400.306 260.626 405 260.626H495C499.694 260.626 503.5 264.432 503.5 269.126C503.5 273.82 499.694 277.626 495 277.626Z" fill="#F3FAF9"/>
<path d="M495 205.626H405C400.306 205.626 396.5 201.82 396.5 197.126C396.5 192.432 400.306 188.626 405 188.626H495C499.694 188.626 503.5 192.432 503.5 197.126C503.5 201.82 499.694 205.626 495 205.626Z" fill="#F3FAF9"/>
<path d="M531.956 296.176C530.722 296.047 529.534 296.171 528.434 296.5C526.529 297.07 524.466 296.471 523.061 295.065C521.655 293.659 521.056 291.596 521.626 289.692C522.015 288.394 522.117 286.972 521.856 285.496C521.202 281.803 518.202 278.845 514.5 278.247C508.36 277.257 503.132 282.484 504.122 288.625C504.719 292.327 507.678 295.327 511.371 295.981C512.847 296.242 514.268 296.14 515.567 295.751C517.472 295.181 519.535 295.78 520.94 297.186L520.941 297.187C522.368 298.614 522.912 300.701 522.351 302.639C522.123 303.428 522 304.262 522 305.125C522 305.988 522.123 306.821 522.351 307.61C522.911 309.549 522.367 311.636 520.94 313.064C519.534 314.47 517.47 315.069 515.565 314.499C514.267 314.111 512.845 314.008 511.37 314.27C507.677 314.924 504.718 317.924 504.121 321.626C503.131 327.766 508.358 332.994 514.499 332.004C518.201 331.407 521.201 328.448 521.855 324.755C522.116 323.28 522.014 321.858 521.626 320.56C521.056 318.655 521.655 316.591 523.061 315.185C524.488 313.758 526.576 313.214 528.515 313.774C529.304 314.002 530.137 314.125 531 314.125C536.299 314.125 540.528 309.546 539.946 304.129C539.501 299.977 536.111 296.608 531.956 296.176Z" fill="#F3FAF9"/>
<path d="M531.956 224.176C530.722 224.047 529.534 224.171 528.434 224.5C526.529 225.07 524.466 224.471 523.061 223.065C521.655 221.659 521.056 219.596 521.626 217.692C522.015 216.394 522.117 214.972 521.856 213.496C521.202 209.803 518.202 206.844 514.5 206.247C508.36 205.257 503.132 210.484 504.122 216.625C504.719 220.327 507.678 223.327 511.371 223.981C512.847 224.242 514.268 224.14 515.567 223.751C517.472 223.181 519.535 223.78 520.94 225.186L520.941 225.187C522.368 226.614 522.912 228.701 522.351 230.639C522.123 231.428 522 232.262 522 233.125C522 233.988 522.123 234.821 522.351 235.61C522.911 237.549 522.367 239.636 520.94 241.064C519.534 242.47 517.47 243.069 515.565 242.499C514.267 242.111 512.845 242.008 511.37 242.27C507.677 242.924 504.718 245.924 504.121 249.626C503.131 255.766 508.358 260.994 514.499 260.004C518.201 259.407 521.201 256.448 521.855 252.755C522.116 251.28 522.014 249.858 521.626 248.56C521.056 246.655 521.655 244.591 523.061 243.185C524.488 241.758 526.576 241.214 528.515 241.774C529.304 242.002 530.137 242.125 531 242.125C536.299 242.125 540.528 237.546 539.946 232.129C539.501 227.977 536.111 224.608 531.956 224.176Z" fill="#F3FAF9"/>
<path d="M387 224.126C391.971 224.126 396 220.097 396 215.126C396 210.155 391.971 206.126 387 206.126C382.029 206.126 378 210.155 378 215.126C378 220.097 382.029 224.126 387 224.126Z" fill="#F3FAF9"/>
<path d="M387 332.126C391.971 332.126 396 328.097 396 323.126C396 318.155 391.971 314.126 387 314.126C382.029 314.126 378 318.155 378 323.126C378 328.097 382.029 332.126 387 332.126Z" fill="#F3FAF9"/>
<path d="M702 277.626H594C589.306 277.626 585.5 273.82 585.5 269.126C585.5 264.432 589.306 260.626 594 260.626H702C706.694 260.626 710.5 264.432 710.5 269.126C710.5 273.82 706.694 277.626 702 277.626Z" fill="#F3FAF9"/>
<path d="M594.956 224.176C593.722 224.047 592.534 224.171 591.434 224.5C589.529 225.07 587.466 224.471 586.061 223.065C584.655 221.659 584.056 219.596 584.626 217.692C585.015 216.394 585.117 214.972 584.856 213.496C584.202 209.803 581.202 206.844 577.5 206.247C571.36 205.257 566.132 210.484 567.122 216.625C567.719 220.327 570.678 223.327 574.371 223.981C575.847 224.242 577.268 224.14 578.567 223.751C580.472 223.181 582.535 223.78 583.94 225.186L583.941 225.187C585.368 226.614 585.912 228.701 585.351 230.639C585.123 231.428 585 232.262 585 233.125C585 233.988 585.123 234.821 585.351 235.61C585.911 237.549 585.367 239.636 583.94 241.064C582.534 242.47 580.47 243.069 578.565 242.499C577.267 242.111 575.845 242.008 574.37 242.27C570.677 242.924 567.719 245.924 567.121 249.626C566.131 255.766 571.358 260.994 577.499 260.004C581.201 259.407 584.201 256.448 584.855 252.755C585.116 251.28 585.014 249.858 584.626 248.56C584.056 246.655 584.655 244.591 586.061 243.185C587.488 241.758 589.576 241.214 591.515 241.774C592.304 242.002 593.137 242.125 594 242.125C599.299 242.125 603.528 237.546 602.946 232.129C602.501 227.977 599.111 224.608 594.956 224.176Z" fill="#F3FAF9"/>
<path d="M701.045 296.176C702.279 296.047 703.467 296.171 704.567 296.5C706.472 297.07 708.535 296.471 709.94 295.065C711.346 293.659 711.945 291.596 711.375 289.692C710.986 288.394 710.884 286.972 711.145 285.496C711.799 281.803 714.799 278.845 718.501 278.247C724.641 277.257 729.869 282.484 728.879 288.625C728.282 292.327 725.323 295.327 721.63 295.981C720.154 296.242 718.732 296.14 717.434 295.751C715.529 295.181 713.466 295.78 712.061 297.186L712.06 297.187C710.633 298.614 710.089 300.701 710.65 302.639C710.878 303.428 711.001 304.262 711.001 305.125C711.001 305.988 710.878 306.821 710.65 307.61C710.09 309.549 710.634 311.636 712.061 313.064C713.467 314.47 715.531 315.069 717.436 314.499C718.734 314.111 720.156 314.008 721.631 314.27C725.324 314.924 728.282 317.924 728.88 321.626C729.87 327.766 724.643 332.994 718.502 332.004C714.8 331.407 711.8 328.448 711.146 324.755C710.885 323.28 710.987 321.858 711.375 320.56C711.945 318.655 711.346 316.591 709.94 315.185C708.513 313.758 706.425 313.214 704.487 313.774C703.698 314.002 702.865 314.125 702.002 314.125C696.703 314.125 692.474 309.546 693.056 304.129C693.5 299.977 696.89 296.608 701.045 296.176Z" fill="#F3FAF9"/>
<path d="M701.045 224.176C702.279 224.047 703.467 224.171 704.567 224.5C706.472 225.07 708.535 224.471 709.94 223.065C711.346 221.659 711.945 219.596 711.375 217.692C710.986 216.394 710.884 214.972 711.145 213.496C711.799 209.803 714.799 206.844 718.501 206.247C724.641 205.257 729.869 210.484 728.879 216.625C728.282 220.327 725.323 223.327 721.63 223.981C720.154 224.242 718.732 224.14 717.434 223.751C715.529 223.181 713.466 223.78 712.061 225.186L712.06 225.187C710.633 226.614 710.089 228.701 710.65 230.639C710.878 231.428 711.001 232.262 711.001 233.125C711.001 233.988 710.878 234.821 710.65 235.61C710.09 237.549 710.634 239.636 712.061 241.064C713.467 242.47 715.531 243.069 717.436 242.499C718.734 242.111 720.156 242.008 721.631 242.27C725.324 242.924 728.282 245.924 728.88 249.626C729.87 255.766 724.643 260.994 718.502 260.004C714.8 259.407 711.8 256.448 711.146 252.755C710.885 251.28 710.987 249.858 711.375 248.56C711.945 246.655 711.346 244.591 709.94 243.185C708.513 241.758 706.425 241.214 704.487 241.774C703.698 242.002 702.865 242.125 702.002 242.125C696.703 242.125 692.474 237.546 693.056 232.129C693.5 227.977 696.89 224.608 701.045 224.176Z" fill="#F3FAF9"/>
<path d="M702 206.126C706.971 206.126 711 202.097 711 197.126C711 192.155 706.971 188.126 702 188.126C697.029 188.126 693 192.155 693 197.126C693 202.097 697.029 206.126 702 206.126Z" fill="#F3FAF9"/>
<path d="M594 206.126C598.971 206.126 603 202.097 603 197.126C603 192.155 598.971 188.126 594 188.126C589.029 188.126 585 192.155 585 197.126C585 202.097 589.029 206.126 594 206.126Z" fill="#F3FAF9"/>
<path d="M702 350.126C706.971 350.126 711 346.097 711 341.126C711 336.155 706.971 332.126 702 332.126C697.029 332.126 693 336.155 693 341.126C693 346.097 697.029 350.126 702 350.126Z" fill="#F3FAF9"/>
<path d="M315 349.626H216C211.306 349.626 207.5 345.82 207.5 341.126C207.5 336.432 211.306 332.626 216 332.626H315C319.694 332.626 323.5 336.432 323.5 341.126C323.5 345.82 319.694 349.626 315 349.626Z" fill="#F3FAF9"/>
<path d="M306 277.626H216C211.306 277.626 207.5 273.82 207.5 269.126C207.5 264.432 211.306 260.626 216 260.626H306C310.694 260.626 314.5 264.432 314.5 269.126C314.5 273.82 310.694 277.626 306 277.626Z" fill="#F3FAF9"/>
<path d="M306 205.626H225C220.306 205.626 216.5 201.82 216.5 197.126C216.5 192.432 220.306 188.626 225 188.626H306C310.694 188.626 314.5 192.432 314.5 197.126C314.5 201.82 310.694 205.626 306 205.626Z" fill="#F3FAF9"/>
<path d="M342.956 224.176C341.722 224.047 340.534 224.171 339.434 224.5C337.529 225.07 335.466 224.471 334.061 223.065C332.655 221.659 332.056 219.596 332.626 217.692C333.015 216.394 333.117 214.972 332.856 213.496C332.202 209.803 329.202 206.844 325.5 206.247C319.36 205.257 314.132 210.484 315.122 216.625C315.719 220.327 318.678 223.327 322.371 223.981C323.847 224.242 325.268 224.14 326.567 223.751C328.472 223.181 330.535 223.78 331.94 225.186L331.941 225.187C333.368 226.614 333.912 228.701 333.351 230.639C333.123 231.428 333 232.262 333 233.125C333 233.988 333.123 234.821 333.351 235.61C333.911 237.549 333.367 239.636 331.94 241.064C330.534 242.47 328.47 243.069 326.565 242.499C325.267 242.111 323.845 242.008 322.37 242.27C318.677 242.924 315.718 245.924 315.121 249.626C314.131 255.766 319.358 260.994 325.499 260.004C329.201 259.407 332.201 256.448 332.855 252.755C333.116 251.28 333.014 249.858 332.626 248.56C332.056 246.655 332.655 244.591 334.061 243.185C335.488 241.758 337.576 241.214 339.515 241.774C340.304 242.002 341.137 242.125 342 242.125C347.299 242.125 351.528 237.546 350.946 232.129C350.501 227.977 347.111 224.608 342.956 224.176Z" fill="#F3FAF9"/>
<path d="M216.956 296.176C215.722 296.047 214.534 296.171 213.434 296.5C211.529 297.07 209.466 296.471 208.061 295.065C206.655 293.659 206.056 291.596 206.626 289.692C207.015 288.394 207.117 286.972 206.856 285.496C206.202 281.803 203.202 278.845 199.5 278.247C193.36 277.257 188.132 282.484 189.122 288.625C189.719 292.327 192.678 295.327 196.371 295.981C197.847 296.242 199.268 296.14 200.567 295.751C202.472 295.181 204.535 295.78 205.94 297.186L205.941 297.187C207.368 298.614 207.912 300.701 207.351 302.639C207.123 303.428 207 304.262 207 305.125C207 305.988 207.123 306.821 207.351 307.61C207.911 309.549 207.367 311.636 205.94 313.064C204.534 314.47 202.47 315.069 200.565 314.499C199.267 314.111 197.845 314.008 196.37 314.27C192.677 314.924 189.718 317.924 189.121 321.626C188.131 327.766 193.358 332.994 199.499 332.004C203.201 331.407 206.201 328.448 206.855 324.755C207.116 323.28 207.014 321.858 206.626 320.56C206.056 318.655 206.655 316.591 208.061 315.185C209.488 313.758 211.576 313.214 213.515 313.774C214.304 314.002 215.137 314.125 216 314.125C221.299 314.125 225.528 309.546 224.946 304.129C224.501 299.977 221.111 296.608 216.956 296.176Z" fill="#F3FAF9"/>
<path d="M333 332.126C337.971 332.126 342 328.097 342 323.126C342 318.155 337.971 314.126 333 314.126C328.029 314.126 324 318.155 324 323.126C324 328.097 328.029 332.126 333 332.126Z" fill="#F3FAF9"/>
<path d="M207 224.126C211.971 224.126 216 220.097 216 215.126C216 210.155 211.971 206.126 207 206.126C202.029 206.126 198 210.155 198 215.126C198 220.097 202.029 224.126 207 224.126Z" fill="#F3FAF9"/>
<path d="M27.25 224.126C32.2206 224.126 36.25 220.097 36.25 215.126C36.25 210.155 32.2206 206.126 27.25 206.126C22.2794 206.126 18.25 210.155 18.25 215.126C18.25 220.097 22.2794 224.126 27.25 224.126Z" fill="#F3FAF9"/>
<path d="M135.25 349.626H27.25C22.556 349.626 18.75 345.82 18.75 341.126C18.75 336.432 22.556 332.626 27.25 332.626H135.25C139.944 332.626 143.75 336.432 143.75 341.126C143.75 345.82 139.944 349.626 135.25 349.626Z" fill="#F3FAF9"/>
<path d="M81.25 205.626H45.25C40.556 205.626 36.75 201.82 36.75 197.126C36.75 192.432 40.556 188.626 45.25 188.626H81.25C85.944 188.626 89.75 192.432 89.75 197.126C89.75 201.82 85.944 205.626 81.25 205.626Z" fill="#F3FAF9"/>
<path d="M71.2937 233.176C72.5277 233.047 73.7157 233.171 74.8157 233.5C76.7207 234.07 78.7837 233.471 80.1887 232.065C81.5947 230.659 82.1937 228.596 81.6237 226.692C81.2347 225.394 81.1327 223.972 81.3937 222.496C82.0477 218.803 85.0477 215.844 88.7497 215.247C94.8897 214.257 100.118 219.484 99.1277 225.625C98.5307 229.327 95.5717 232.327 91.8787 232.981C90.4027 233.242 88.9817 233.14 87.6827 232.751C85.7777 232.181 83.7147 232.78 82.3097 234.186L82.3087 234.187C80.8817 235.614 80.3377 237.701 80.8987 239.639C81.1267 240.428 81.2497 241.262 81.2497 242.125C81.2497 242.988 81.1267 243.821 80.8987 244.61C80.3387 246.549 80.8827 248.636 82.3097 250.064C83.7157 251.47 85.7797 252.069 87.6847 251.499C88.9827 251.111 90.4047 251.008 91.8797 251.27C95.5727 251.924 98.5307 254.924 99.1287 258.626C100.119 264.766 94.8917 269.994 88.7507 269.004C85.0487 268.407 82.0487 265.448 81.3947 261.755C81.1337 260.28 81.2357 258.858 81.6237 257.56C82.1937 255.655 81.5947 253.591 80.1887 252.185C78.7617 250.758 76.6737 250.214 74.7347 250.774C73.9457 251.002 73.1127 251.125 72.2497 251.125C66.9507 251.125 62.7217 246.546 63.3037 241.129C63.7487 236.977 67.1387 233.608 71.2937 233.176Z" fill="#F3FAF9"/>
<path d="M91.2061 287.176C89.9721 287.047 88.7841 287.171 87.6841 287.5C85.7791 288.07 83.7161 287.471 82.3111 286.065C80.9051 284.659 80.3061 282.596 80.8761 280.692C81.2651 279.394 81.3671 277.972 81.1061 276.496C80.4521 272.803 77.4521 269.845 73.7501 269.247C67.6101 268.257 62.3821 273.484 63.3721 279.625C63.9691 283.327 66.9281 286.327 70.6211 286.981C72.0971 287.242 73.5181 287.14 74.8171 286.751C76.7221 286.181 78.7851 286.78 80.1901 288.186L80.1911 288.187C81.6181 289.614 82.1621 291.701 81.6011 293.639C81.3731 294.428 81.2501 295.262 81.2501 296.125C81.2501 296.988 81.3731 297.821 81.6011 298.61C82.1611 300.549 81.6171 302.636 80.1901 304.064C78.7841 305.47 76.7201 306.069 74.8151 305.499C73.5171 305.111 72.0951 305.008 70.6201 305.27C66.9271 305.924 63.9691 308.924 63.3711 312.626C62.3811 318.766 67.6081 323.994 73.7491 323.004C77.4511 322.407 80.4511 319.448 81.1051 315.755C81.3661 314.28 81.2641 312.858 80.8761 311.56C80.3061 309.655 80.9051 307.591 82.3111 306.185C83.7381 304.758 85.8261 304.214 87.7651 304.774C88.5541 305.002 89.3871 305.125 90.2501 305.125C95.5491 305.125 99.7781 300.546 99.1961 295.129C98.7511 290.977 95.3611 287.608 91.2061 287.176Z" fill="#F3FAF9"/>
</svg>
