<svg width="960" height="600" viewBox="0 0 960 600" fill="none" xmlns="http://www.w3.org/2000/svg">
<rect width="960" height="600" fill="black"/>
<path d="M662.795 326.21H639.519C638.002 326.21 636.771 324.979 636.771 323.462C636.771 321.944 638.002 320.714 639.519 320.714H662.795C664.313 320.714 665.543 321.944 665.543 323.462C665.543 324.979 664.313 326.21 662.795 326.21Z" fill="white"/>
<path d="M662.795 302.933H639.519C638.002 302.933 636.771 301.703 636.771 300.185C636.771 298.668 638.002 297.438 639.519 297.438H662.795C664.313 297.438 665.543 298.668 665.543 300.185C665.543 301.703 664.313 302.933 662.795 302.933Z" fill="white"/>
<path d="M662.795 279.658H639.519C638.002 279.658 636.771 278.427 636.771 276.91C636.771 275.392 638.002 274.162 639.519 274.162H662.795C664.313 274.162 665.543 275.392 665.543 276.91C665.543 278.427 664.313 279.658 662.795 279.658Z" fill="white"/>
<path d="M627.573 308.93C627.972 308.888 628.356 308.928 628.711 309.035C629.327 309.219 629.994 309.025 630.448 308.571C630.903 308.116 631.096 307.449 630.912 306.834C630.786 306.414 630.753 305.954 630.838 305.477C631.049 304.283 632.019 303.327 633.216 303.134C635.201 302.814 636.891 304.504 636.571 306.489C636.378 307.686 635.421 308.655 634.227 308.867C633.75 308.951 633.29 308.918 632.871 308.792C632.255 308.608 631.588 308.802 631.134 309.256L631.134 309.257C630.672 309.718 630.496 310.393 630.678 311.019C630.751 311.274 630.791 311.544 630.791 311.823C630.791 312.102 630.751 312.371 630.678 312.626C630.497 313.253 630.673 313.928 631.134 314.389C631.588 314.844 632.256 315.038 632.871 314.853C633.291 314.728 633.751 314.695 634.228 314.779C635.421 314.991 636.378 315.96 636.571 317.157C636.891 319.142 635.201 320.832 633.216 320.512C632.019 320.319 631.049 319.363 630.838 318.169C630.754 317.692 630.787 317.232 630.912 316.813C631.096 316.197 630.903 315.53 630.448 315.075C629.987 314.614 629.312 314.438 628.685 314.619C628.43 314.693 628.161 314.732 627.882 314.732C626.169 314.732 624.802 313.252 624.99 311.501C625.134 310.159 626.229 309.07 627.573 308.93Z" fill="white"/>
<path d="M627.573 285.654C627.972 285.613 628.356 285.653 628.712 285.759C629.327 285.943 629.994 285.75 630.449 285.295C630.903 284.841 631.097 284.174 630.912 283.558C630.787 283.139 630.754 282.679 630.838 282.202C631.05 281.008 632.019 280.052 633.216 279.858C635.201 279.538 636.891 281.228 636.571 283.213C636.378 284.41 635.421 285.38 634.228 285.591C633.75 285.676 633.291 285.643 632.871 285.517C632.255 285.333 631.588 285.526 631.134 285.981L631.134 285.981C630.673 286.443 630.497 287.117 630.678 287.744C630.752 287.999 630.792 288.268 630.792 288.547C630.792 288.826 630.752 289.096 630.678 289.351C630.497 289.978 630.673 290.652 631.134 291.114C631.589 291.568 632.256 291.762 632.872 291.578C633.291 291.452 633.751 291.419 634.228 291.504C635.422 291.715 636.378 292.685 636.571 293.882C636.891 295.867 635.202 297.557 633.216 297.237C632.02 297.044 631.05 296.087 630.838 294.893C630.754 294.417 630.787 293.957 630.912 293.537C631.097 292.921 630.903 292.254 630.449 291.8C629.987 291.338 629.312 291.162 628.686 291.343C628.43 291.418 628.161 291.457 627.882 291.457C626.169 291.457 624.802 289.977 624.99 288.226C625.134 286.883 626.23 285.794 627.573 285.654Z" fill="white"/>
<path d="M674.743 308.93C674.344 308.888 673.96 308.928 673.604 309.035C672.988 309.219 672.321 309.025 671.867 308.571C671.413 308.116 671.219 307.449 671.403 306.834C671.529 306.414 671.562 305.954 671.477 305.477C671.266 304.283 670.296 303.327 669.099 303.134C667.115 302.814 665.424 304.504 665.745 306.489C665.938 307.686 666.894 308.655 668.088 308.867C668.565 308.951 669.024 308.918 669.444 308.792C670.06 308.608 670.727 308.802 671.181 309.256L671.182 309.257C671.643 309.718 671.819 310.393 671.638 311.019C671.564 311.274 671.524 311.544 671.524 311.823C671.524 312.102 671.564 312.371 671.638 312.626C671.819 313.253 671.643 313.928 671.181 314.389C670.727 314.844 670.06 315.038 669.444 314.853C669.024 314.728 668.564 314.695 668.088 314.779C666.894 314.991 665.938 315.96 665.744 317.157C665.424 319.142 667.114 320.832 669.099 320.512C670.296 320.319 671.266 319.363 671.477 318.169C671.562 317.692 671.529 317.232 671.403 316.813C671.219 316.197 671.413 315.53 671.867 315.075C672.328 314.614 673.003 314.438 673.63 314.619C673.885 314.693 674.155 314.732 674.434 314.732C676.147 314.732 677.514 313.252 677.326 311.501C677.182 310.159 676.086 309.07 674.743 308.93Z" fill="white"/>
<path d="M674.743 285.654C674.344 285.613 673.96 285.653 673.604 285.759C672.988 285.943 672.321 285.75 671.867 285.295C671.413 284.841 671.219 284.174 671.403 283.558C671.529 283.139 671.562 282.679 671.477 282.202C671.266 281.008 670.296 280.052 669.099 279.858C667.115 279.538 665.424 281.228 665.745 283.213C665.938 284.41 666.894 285.38 668.088 285.591C668.565 285.676 669.024 285.643 669.444 285.517C670.06 285.333 670.727 285.526 671.181 285.981L671.182 285.981C671.643 286.443 671.819 287.117 671.638 287.744C671.564 287.999 671.524 288.269 671.524 288.548C671.524 288.827 671.564 289.096 671.638 289.351C671.819 289.978 671.643 290.653 671.181 291.114C670.727 291.569 670.06 291.762 669.444 291.578C669.024 291.453 668.564 291.419 668.088 291.504C666.894 291.716 665.938 292.685 665.744 293.882C665.424 295.867 667.114 297.557 669.099 297.237C670.296 297.044 671.266 296.088 671.477 294.894C671.562 294.417 671.529 293.957 671.403 293.538C671.219 292.922 671.413 292.254 671.867 291.8C672.328 291.339 673.003 291.163 673.63 291.344C673.885 291.418 674.155 291.457 674.434 291.457C676.147 291.457 677.514 289.977 677.326 288.226C677.182 286.883 676.086 285.794 674.743 285.654Z" fill="white"/>
<path d="M793.723 302.933H787.904C786.387 302.933 785.156 301.703 785.156 300.185C785.156 298.668 786.387 297.438 787.904 297.438H793.723C795.241 297.438 796.471 298.668 796.471 300.185C796.471 301.703 795.241 302.933 793.723 302.933Z" fill="white"/>
<path d="M802.451 326.21H779.176C777.658 326.21 776.428 324.979 776.428 323.462C776.428 321.944 777.658 320.714 779.176 320.714H802.451C803.969 320.714 805.199 321.944 805.199 323.462C805.199 324.979 803.969 326.21 802.451 326.21Z" fill="white"/>
<path d="M802.451 279.658H779.176C777.658 279.658 776.428 278.427 776.428 276.91C776.428 275.392 777.658 274.162 779.176 274.162H802.451C803.969 274.162 805.199 275.392 805.199 276.91C805.199 278.427 803.969 279.658 802.451 279.658Z" fill="white"/>
<path d="M767.229 308.93C767.628 308.888 768.012 308.928 768.368 309.035C768.984 309.219 769.651 309.025 770.105 308.571C770.559 308.116 770.753 307.449 770.569 306.834C770.443 306.414 770.41 305.954 770.494 305.477C770.706 304.283 771.676 303.327 772.872 303.134C774.857 302.814 776.547 304.504 776.227 306.489C776.034 307.686 775.078 308.655 773.884 308.867C773.407 308.951 772.947 308.918 772.527 308.792C771.912 308.608 771.245 308.802 770.79 309.256L770.79 309.257C770.329 309.718 770.153 310.393 770.334 311.019C770.408 311.274 770.448 311.544 770.448 311.823C770.448 312.102 770.408 312.371 770.334 312.626C770.153 313.253 770.329 313.928 770.79 314.389C771.245 314.844 771.912 315.038 772.528 314.853C772.948 314.728 773.407 314.695 773.884 314.779C775.078 314.991 776.034 315.96 776.228 317.157C776.548 319.142 774.858 320.832 772.873 320.512C771.676 320.319 770.706 319.363 770.495 318.169C770.41 317.692 770.443 317.232 770.569 316.813C770.753 316.197 770.559 315.53 770.105 315.075C769.643 314.614 768.968 314.438 768.342 314.619C768.087 314.693 767.817 314.732 767.538 314.732C765.825 314.732 764.458 313.252 764.646 311.501C764.79 310.159 765.886 309.07 767.229 308.93Z" fill="white"/>
<path d="M767.229 285.654C767.628 285.613 768.012 285.653 768.368 285.759C768.984 285.943 769.651 285.75 770.105 285.295C770.559 284.841 770.753 284.174 770.569 283.558C770.443 283.139 770.41 282.679 770.494 282.202C770.706 281.008 771.676 280.052 772.872 279.858C774.857 279.538 776.547 281.228 776.227 283.213C776.034 284.41 775.078 285.38 773.884 285.591C773.407 285.676 772.947 285.643 772.527 285.517C771.912 285.333 771.245 285.526 770.79 285.981L770.79 285.981C770.329 286.443 770.153 287.117 770.334 287.744C770.408 287.999 770.448 288.268 770.448 288.547C770.448 288.826 770.408 289.096 770.334 289.351C770.153 289.978 770.329 290.652 770.79 291.114C771.245 291.568 771.912 291.762 772.528 291.578C772.948 291.452 773.407 291.419 773.884 291.504C775.078 291.715 776.034 292.685 776.228 293.882C776.548 295.867 774.858 297.557 772.873 297.237C771.676 297.044 770.706 296.087 770.495 294.893C770.41 294.417 770.443 293.957 770.569 293.537C770.753 292.921 770.559 292.254 770.105 291.8C769.643 291.338 768.968 291.162 768.342 291.343C768.087 291.418 767.817 291.457 767.538 291.457C765.825 291.457 764.458 289.977 764.646 288.226C764.79 286.883 765.886 285.794 767.229 285.654Z" fill="white"/>
<path d="M814.399 308.93C814 308.888 813.616 308.928 813.261 309.035C812.645 309.219 811.978 309.025 811.523 308.571C811.069 308.116 810.875 307.449 811.059 306.834C811.185 306.414 811.218 305.954 811.133 305.477C810.922 304.283 809.952 303.327 808.755 303.134C806.77 302.814 805.08 304.504 805.4 306.489C805.593 307.686 806.55 308.655 807.744 308.867C808.221 308.951 808.68 308.918 809.1 308.792C809.716 308.608 810.383 308.802 810.838 309.256L810.838 309.257C811.299 309.718 811.475 310.393 811.294 311.019C811.22 311.274 811.18 311.544 811.18 311.823C811.18 312.102 811.22 312.371 811.294 312.626C811.475 313.253 811.299 313.928 810.838 314.389C810.383 314.844 809.716 315.038 809.1 314.853C808.68 314.728 808.221 314.695 807.744 314.779C806.55 314.991 805.593 315.96 805.4 317.157C805.08 319.142 806.77 320.832 808.755 320.512C809.952 320.319 810.922 319.363 811.133 318.169C811.218 317.692 811.185 317.232 811.059 316.813C810.875 316.197 811.069 315.53 811.523 315.075C811.985 314.614 812.66 314.438 813.286 314.619C813.541 314.693 813.811 314.732 814.09 314.732C815.803 314.732 817.17 313.252 816.982 311.501C816.838 310.159 815.742 309.07 814.399 308.93Z" fill="white"/>
<path d="M814.399 285.654C814 285.613 813.616 285.653 813.261 285.759C812.645 285.943 811.978 285.75 811.523 285.295C811.069 284.841 810.875 284.174 811.059 283.558C811.185 283.139 811.218 282.679 811.133 282.202C810.922 281.008 809.952 280.052 808.755 279.858C806.77 279.538 805.08 281.228 805.4 283.213C805.593 284.41 806.55 285.38 807.744 285.591C808.221 285.676 808.68 285.643 809.1 285.517C809.716 285.333 810.383 285.526 810.838 285.981L810.838 285.981C811.299 286.443 811.475 287.117 811.294 287.744C811.22 287.999 811.181 288.269 811.181 288.548C811.181 288.827 811.22 289.096 811.294 289.351C811.475 289.978 811.299 290.653 810.838 291.114C810.383 291.569 809.716 291.762 809.1 291.578C808.681 291.453 808.221 291.419 807.744 291.504C806.55 291.716 805.594 292.685 805.401 293.882C805.081 295.867 806.771 297.557 808.756 297.237C809.952 297.044 810.922 296.088 811.134 294.894C811.218 294.417 811.185 293.957 811.06 293.538C810.875 292.922 811.069 292.254 811.524 291.8C811.985 291.339 812.66 291.163 813.287 291.344C813.542 291.418 813.811 291.457 814.09 291.457C815.803 291.457 817.17 289.977 816.982 288.226C816.838 286.883 815.742 285.794 814.399 285.654Z" fill="white"/>
<path d="M814.089 303.095C815.696 303.095 816.999 301.793 816.999 300.186C816.999 298.579 815.696 297.276 814.089 297.276C812.482 297.276 811.18 298.579 811.18 300.186C811.18 301.793 812.482 303.095 814.089 303.095Z" fill="white"/>
<path d="M767.538 303.095C769.145 303.095 770.448 301.793 770.448 300.186C770.448 298.579 769.145 297.276 767.538 297.276C765.932 297.276 764.629 298.579 764.629 300.186C764.629 301.793 765.932 303.095 767.538 303.095Z" fill="white"/>
<path d="M732.627 326.21H706.441C704.924 326.21 703.693 324.979 703.693 323.462C703.693 321.944 704.924 320.714 706.441 320.714H732.627C734.144 320.714 735.374 321.944 735.374 323.462C735.374 324.979 734.144 326.21 732.627 326.21Z" fill="white"/>
<path d="M732.625 302.933H709.349C707.832 302.933 706.602 301.703 706.602 300.185C706.602 298.668 707.832 297.438 709.349 297.438H732.625C734.143 297.438 735.373 298.668 735.373 300.185C735.373 301.703 734.143 302.933 732.625 302.933Z" fill="white"/>
<path d="M732.625 279.658H709.349C707.832 279.658 706.602 278.427 706.602 276.91C706.602 275.392 707.832 274.162 709.349 274.162H732.625C734.143 274.162 735.373 275.392 735.373 276.91C735.373 278.427 734.143 279.658 732.625 279.658Z" fill="white"/>
<path d="M697.403 285.654C697.802 285.613 698.186 285.653 698.542 285.759C699.158 285.943 699.824 285.75 700.279 285.295C700.733 284.841 700.927 284.174 700.743 283.558C700.617 283.139 700.584 282.679 700.668 282.202C700.88 281.008 701.849 280.052 703.046 279.858C705.031 279.538 706.721 281.228 706.401 283.213C706.208 284.41 705.252 285.38 704.058 285.591C703.581 285.676 703.121 285.643 702.701 285.517C702.085 285.333 701.419 285.526 700.964 285.981L700.964 285.981C700.503 286.443 700.327 287.117 700.508 287.744C700.582 287.999 700.622 288.268 700.622 288.547C700.622 288.826 700.582 289.096 700.508 289.351C700.327 289.978 700.503 290.652 700.964 291.114C701.419 291.568 702.086 291.762 702.702 291.578C703.122 291.452 703.581 291.419 704.058 291.504C705.252 291.715 706.208 292.685 706.401 293.882C706.722 295.867 705.032 297.557 703.047 297.237C701.85 297.044 700.88 296.087 700.668 294.893C700.584 294.417 700.617 293.957 700.743 293.537C700.927 292.921 700.733 292.254 700.279 291.8C699.817 291.338 699.142 291.162 698.516 291.343C698.26 291.418 697.991 291.457 697.712 291.457C695.999 291.457 694.632 289.977 694.82 288.226C694.964 286.883 696.06 285.794 697.403 285.654Z" fill="white"/>
<path d="M744.573 308.93C744.174 308.888 743.79 308.928 743.434 309.035C742.818 309.219 742.151 309.025 741.697 308.571C741.243 308.116 741.049 307.449 741.233 306.834C741.359 306.414 741.392 305.954 741.308 305.477C741.096 304.283 740.126 303.327 738.93 303.134C736.945 302.814 735.255 304.504 735.575 306.489C735.768 307.686 736.724 308.655 737.918 308.867C738.395 308.951 738.855 308.918 739.275 308.792C739.89 308.608 740.557 308.802 741.011 309.256L741.012 309.257C741.473 309.718 741.649 310.393 741.468 311.019C741.394 311.274 741.354 311.544 741.354 311.823C741.354 312.102 741.394 312.371 741.468 312.626C741.649 313.253 741.473 313.928 741.011 314.389C740.557 314.844 739.89 315.038 739.274 314.853C738.854 314.728 738.395 314.695 737.918 314.779C736.724 314.991 735.768 315.96 735.574 317.157C735.254 319.142 736.944 320.832 738.929 320.512C740.126 320.319 741.096 319.363 741.307 318.169C741.392 317.692 741.359 317.232 741.233 316.813C741.049 316.197 741.243 315.53 741.697 315.075C742.158 314.614 742.833 314.438 743.46 314.619C743.715 314.693 743.985 314.732 744.264 314.732C745.977 314.732 747.344 313.252 747.156 311.501C747.012 310.159 745.916 309.07 744.573 308.93Z" fill="white"/>
<path d="M744.573 285.654C744.174 285.613 743.79 285.653 743.434 285.759C742.818 285.943 742.151 285.75 741.697 285.295C741.243 284.841 741.049 284.174 741.233 283.558C741.359 283.139 741.392 282.679 741.308 282.202C741.096 281.008 740.126 280.052 738.93 279.858C736.945 279.538 735.255 281.228 735.575 283.213C735.768 284.41 736.724 285.38 737.918 285.591C738.395 285.676 738.855 285.643 739.275 285.517C739.89 285.333 740.557 285.526 741.011 285.981L741.012 285.981C741.473 286.443 741.649 287.117 741.468 287.744C741.394 287.999 741.354 288.269 741.354 288.548C741.354 288.827 741.394 289.096 741.468 289.351C741.649 289.978 741.473 290.653 741.011 291.114C740.557 291.569 739.89 291.762 739.274 291.578C738.854 291.453 738.395 291.419 737.918 291.504C736.724 291.716 735.768 292.685 735.574 293.882C735.254 295.867 736.944 297.557 738.929 297.237C740.126 297.044 741.096 296.088 741.307 294.894C741.392 294.417 741.359 293.957 741.233 293.538C741.049 292.922 741.243 292.254 741.697 291.8C742.158 291.339 742.833 291.163 743.46 291.344C743.715 291.418 743.985 291.457 744.264 291.457C745.977 291.457 747.344 289.977 747.156 288.226C747.012 286.883 745.916 285.794 744.573 285.654Z" fill="white"/>
<path d="M700.622 320.552C702.229 320.552 703.532 319.25 703.532 317.643C703.532 316.036 702.229 314.733 700.622 314.733C699.016 314.733 697.713 316.036 697.713 317.643C697.713 319.25 699.016 320.552 700.622 320.552Z" fill="white"/>
<path d="M526.05 279.658H499.865C498.348 279.658 497.117 278.427 497.117 276.91C497.117 275.392 498.348 274.162 499.865 274.162H526.05C527.568 274.162 528.798 275.392 528.798 276.91C528.798 278.427 527.568 279.658 526.05 279.658Z" fill="white"/>
<path d="M523.141 302.933H499.865C498.348 302.933 497.117 301.703 497.117 300.185C497.117 298.668 498.348 297.438 499.865 297.438H523.141C524.658 297.438 525.889 298.668 525.889 300.185C525.889 301.703 524.658 302.933 523.141 302.933Z" fill="white"/>
<path d="M523.141 326.21H499.865C498.348 326.21 497.117 324.979 497.117 323.462C497.117 321.944 498.348 320.714 499.865 320.714H523.141C524.658 320.714 525.889 321.944 525.889 323.462C525.889 324.979 524.658 326.21 523.141 326.21Z" fill="white"/>
<path d="M535.088 314.717C534.689 314.759 534.305 314.719 533.95 314.612C533.334 314.428 532.667 314.622 532.213 315.076C531.758 315.531 531.565 316.198 531.749 316.813C531.875 317.233 531.908 317.693 531.823 318.17C531.612 319.364 530.642 320.32 529.445 320.513C527.46 320.833 525.77 319.143 526.09 317.158C526.283 315.961 527.24 314.992 528.434 314.78C528.911 314.696 529.371 314.729 529.79 314.855C530.406 315.039 531.073 314.845 531.527 314.391L531.527 314.39C531.989 313.929 532.165 313.254 531.983 312.628C531.909 312.373 531.87 312.103 531.87 311.824C531.87 311.545 531.909 311.276 531.983 311.021C532.164 310.394 531.988 309.719 531.527 309.258C531.073 308.803 530.405 308.61 529.789 308.794C529.37 308.919 528.91 308.953 528.433 308.868C527.239 308.656 526.283 307.687 526.09 306.49C525.77 304.505 527.46 302.815 529.445 303.135C530.642 303.328 531.611 304.284 531.823 305.478C531.907 305.955 531.874 306.415 531.749 306.834C531.565 307.45 531.758 308.117 532.213 308.572C532.674 309.033 533.349 309.209 533.976 309.028C534.231 308.954 534.5 308.915 534.779 308.915C536.492 308.915 537.859 310.395 537.671 312.146C537.527 313.488 536.431 314.578 535.088 314.717Z" fill="white"/>
<path d="M487.919 291.441C488.318 291.482 488.702 291.442 489.057 291.336C489.673 291.152 490.34 291.345 490.794 291.8C491.249 292.254 491.442 292.921 491.258 293.537C491.132 293.957 491.099 294.416 491.184 294.893C491.395 296.087 492.365 297.043 493.562 297.237C495.547 297.557 497.237 295.867 496.917 293.882C496.724 292.685 495.767 291.715 494.573 291.504C494.096 291.419 493.637 291.452 493.217 291.578C492.601 291.762 491.934 291.569 491.48 291.114L491.48 291.114C491.018 290.653 490.842 289.978 491.024 289.351C491.097 289.096 491.137 288.827 491.137 288.548C491.137 288.269 491.097 288 491.024 287.744C490.843 287.118 491.019 286.443 491.48 285.981C491.934 285.527 492.602 285.333 493.218 285.517C493.637 285.643 494.097 285.676 494.574 285.591C495.767 285.38 496.724 284.41 496.917 283.213C497.237 281.229 495.547 279.538 493.562 279.858C492.365 280.051 491.396 281.008 491.184 282.202C491.1 282.679 491.133 283.138 491.258 283.558C491.442 284.174 491.249 284.841 490.794 285.296C490.333 285.757 489.658 285.933 489.031 285.752C488.776 285.678 488.507 285.638 488.228 285.638C486.515 285.638 485.148 287.118 485.336 288.869C485.48 290.212 486.575 291.301 487.919 291.441Z" fill="white"/>
<path d="M487.919 314.717C488.318 314.759 488.702 314.719 489.057 314.612C489.673 314.428 490.34 314.622 490.794 315.076C491.249 315.531 491.442 316.198 491.258 316.813C491.132 317.233 491.099 317.693 491.184 318.17C491.395 319.364 492.365 320.32 493.562 320.513C495.547 320.833 497.237 319.143 496.917 317.158C496.724 315.961 495.767 314.992 494.573 314.78C494.096 314.696 493.637 314.729 493.217 314.855C492.601 315.039 491.934 314.845 491.48 314.391L491.48 314.39C491.018 313.929 490.842 313.254 491.024 312.628C491.097 312.373 491.137 312.103 491.137 311.824C491.137 311.545 491.097 311.276 491.024 311.021C490.843 310.394 491.019 309.719 491.48 309.258C491.934 308.803 492.602 308.61 493.218 308.794C493.637 308.919 494.097 308.953 494.574 308.868C495.767 308.656 496.724 307.687 496.917 306.49C497.237 304.505 495.547 302.815 493.562 303.135C492.365 303.328 491.396 304.284 491.184 305.478C491.1 305.955 491.133 306.415 491.258 306.834C491.442 307.45 491.249 308.117 490.794 308.572C490.333 309.033 489.658 309.209 489.031 309.028C488.776 308.954 488.507 308.915 488.228 308.915C486.515 308.915 485.148 310.395 485.336 312.146C485.48 313.488 486.575 314.578 487.919 314.717Z" fill="white"/>
<path d="M531.87 285.638C533.477 285.638 534.78 284.336 534.78 282.729C534.78 281.122 533.477 279.819 531.87 279.819C530.264 279.819 528.961 281.122 528.961 282.729C528.961 284.336 530.264 285.638 531.87 285.638Z" fill="white"/>
<path d="M313.659 326.21H284.564C283.047 326.21 281.816 324.979 281.816 323.462C281.816 321.944 283.047 320.714 284.564 320.714H313.659C315.177 320.714 316.407 321.944 316.407 323.462C316.407 324.979 315.177 326.21 313.659 326.21Z" fill="white"/>
<path d="M313.659 302.933H284.564C283.047 302.933 281.816 301.703 281.816 300.185C281.816 298.668 283.047 297.438 284.564 297.438H313.659C315.177 297.438 316.407 298.668 316.407 300.185C316.407 301.703 315.177 302.933 313.659 302.933Z" fill="white"/>
<path d="M313.659 279.658H284.564C283.047 279.658 281.816 278.427 281.816 276.91C281.816 275.392 283.047 274.162 284.564 274.162H313.659C315.177 274.162 316.407 275.392 316.407 276.91C316.407 278.427 315.177 279.658 313.659 279.658Z" fill="white"/>
<path d="M325.606 308.93C325.207 308.888 324.823 308.928 324.467 309.035C323.851 309.219 323.185 309.025 322.73 308.571C322.276 308.116 322.082 307.449 322.266 306.834C322.392 306.414 322.425 305.954 322.341 305.477C322.129 304.283 321.16 303.327 319.963 303.134C317.978 302.814 316.288 304.504 316.608 306.489C316.801 307.686 317.757 308.655 318.951 308.867C319.428 308.951 319.888 308.918 320.308 308.792C320.924 308.608 321.59 308.802 322.045 309.256L322.045 309.257C322.506 309.718 322.682 310.393 322.501 311.019C322.427 311.275 322.387 311.544 322.387 311.823C322.387 312.102 322.427 312.371 322.501 312.627C322.682 313.253 322.506 313.928 322.045 314.39C321.59 314.844 320.923 315.038 320.307 314.854C319.887 314.728 319.428 314.695 318.951 314.78C317.757 314.991 316.801 315.961 316.607 317.158C316.287 319.142 317.977 320.833 319.962 320.513C321.159 320.32 322.129 319.363 322.34 318.169C322.425 317.692 322.392 317.233 322.266 316.813C322.082 316.197 322.276 315.53 322.73 315.075C323.192 314.614 323.867 314.438 324.494 314.619C324.749 314.693 325.018 314.733 325.297 314.733C327.01 314.733 328.377 313.252 328.189 311.501C328.045 310.159 326.949 309.07 325.606 308.93Z" fill="white"/>
<path d="M325.606 285.654C325.207 285.613 324.823 285.653 324.467 285.759C323.851 285.943 323.185 285.75 322.73 285.295C322.276 284.841 322.082 284.174 322.266 283.558C322.392 283.139 322.425 282.679 322.341 282.202C322.129 281.008 321.16 280.052 319.963 279.858C317.978 279.538 316.288 281.228 316.608 283.213C316.801 284.41 317.757 285.38 318.951 285.591C319.428 285.676 319.888 285.643 320.308 285.517C320.924 285.333 321.59 285.526 322.045 285.981L322.045 285.981C322.506 286.443 322.682 287.117 322.501 287.744C322.427 287.999 322.387 288.269 322.387 288.548C322.387 288.827 322.427 289.096 322.501 289.351C322.682 289.978 322.506 290.653 322.045 291.114C321.59 291.569 320.923 291.762 320.307 291.578C319.887 291.453 319.428 291.419 318.951 291.504C317.757 291.716 316.801 292.685 316.607 293.882C316.287 295.867 317.977 297.557 319.962 297.237C321.159 297.044 322.129 296.088 322.34 294.894C322.425 294.417 322.392 293.957 322.266 293.538C322.082 292.922 322.276 292.254 322.73 291.8C323.192 291.339 323.867 291.163 324.494 291.344C324.749 291.418 325.018 291.457 325.297 291.457C327.01 291.457 328.377 289.977 328.189 288.226C328.045 286.883 326.949 285.794 325.606 285.654Z" fill="white"/>
<path d="M278.745 285.638C280.352 285.638 281.655 284.336 281.655 282.729C281.655 281.122 280.352 279.819 278.745 279.819C277.139 279.819 275.836 281.122 275.836 282.729C275.836 284.336 277.139 285.638 278.745 285.638Z" fill="white"/>
<path d="M278.745 320.552C280.352 320.552 281.655 319.25 281.655 317.643C281.655 316.036 280.352 314.733 278.745 314.733C277.139 314.733 275.836 316.036 275.836 317.643C275.836 319.25 277.139 320.552 278.745 320.552Z" fill="white"/>
<path d="M389.306 302.933H354.392C352.875 302.933 351.645 301.703 351.645 300.185C351.645 298.668 352.875 297.438 354.392 297.438H389.306C390.824 297.438 392.054 298.668 392.054 300.185C392.054 301.703 390.824 302.933 389.306 302.933Z" fill="white"/>
<path d="M354.702 285.654C354.303 285.613 353.919 285.653 353.563 285.759C352.947 285.943 352.28 285.75 351.826 285.295C351.372 284.841 351.178 284.174 351.362 283.558C351.488 283.139 351.521 282.679 351.437 282.202C351.225 281.008 350.255 280.052 349.058 279.858C347.074 279.538 345.383 281.228 345.704 283.213C345.897 284.41 346.853 285.38 348.047 285.591C348.524 285.676 348.983 285.643 349.403 285.517C350.019 285.333 350.686 285.526 351.14 285.981L351.141 285.981C351.602 286.443 351.778 287.117 351.597 287.744C351.523 287.999 351.483 288.269 351.483 288.548C351.483 288.827 351.523 289.096 351.597 289.351C351.778 289.978 351.602 290.653 351.14 291.114C350.686 291.569 350.019 291.762 349.403 291.578C348.983 291.453 348.523 291.419 348.047 291.504C346.853 291.716 345.897 292.685 345.703 293.882C345.383 295.867 347.073 297.557 349.058 297.237C350.255 297.044 351.225 296.088 351.436 294.894C351.521 294.417 351.488 293.957 351.362 293.538C351.178 292.922 351.372 292.254 351.826 291.8C352.287 291.339 352.962 291.163 353.589 291.344C353.844 291.418 354.114 291.457 354.393 291.457C356.106 291.457 357.473 289.977 357.285 288.226C357.141 286.883 356.045 285.794 354.702 285.654Z" fill="white"/>
<path d="M388.997 308.93C389.396 308.888 389.78 308.928 390.135 309.035C390.751 309.219 391.418 309.025 391.872 308.571C392.327 308.116 392.521 307.449 392.336 306.834C392.21 306.414 392.178 305.954 392.262 305.477C392.473 304.283 393.443 303.327 394.64 303.134C396.625 302.814 398.315 304.504 397.995 306.489C397.802 307.686 396.845 308.655 395.651 308.867C395.174 308.951 394.715 308.918 394.295 308.792C393.679 308.608 393.012 308.802 392.558 309.256L392.558 309.257C392.096 309.718 391.921 310.393 392.102 311.019C392.176 311.274 392.215 311.544 392.215 311.823C392.215 312.102 392.176 312.371 392.102 312.626C391.921 313.253 392.097 313.928 392.558 314.389C393.013 314.844 393.68 315.038 394.296 314.853C394.715 314.728 395.175 314.695 395.652 314.779C396.846 314.991 397.802 315.96 397.995 317.157C398.315 319.142 396.625 320.832 394.64 320.512C393.443 320.319 392.474 319.363 392.262 318.169C392.178 317.692 392.211 317.232 392.336 316.813C392.521 316.197 392.327 315.53 391.872 315.075C391.411 314.614 390.736 314.438 390.11 314.619C389.854 314.693 389.585 314.733 389.306 314.733C387.593 314.733 386.226 313.252 386.414 311.501C386.558 310.159 387.654 309.07 388.997 308.93Z" fill="white"/>
<path d="M388.997 285.654C389.396 285.613 389.78 285.653 390.135 285.759C390.751 285.943 391.418 285.75 391.872 285.295C392.327 284.841 392.521 284.174 392.336 283.558C392.21 283.139 392.178 282.679 392.262 282.202C392.473 281.008 393.443 280.052 394.64 279.858C396.625 279.538 398.315 281.228 397.995 283.213C397.802 284.41 396.845 285.38 395.651 285.591C395.174 285.676 394.715 285.643 394.295 285.517C393.679 285.333 393.012 285.526 392.558 285.981L392.558 285.981C392.096 286.443 391.921 287.117 392.102 287.744C392.176 287.999 392.215 288.269 392.215 288.548C392.215 288.827 392.176 289.096 392.102 289.351C391.921 289.978 392.097 290.653 392.558 291.114C393.013 291.569 393.68 291.762 394.296 291.578C394.715 291.453 395.175 291.419 395.652 291.504C396.846 291.716 397.802 292.685 397.995 293.882C398.315 295.867 396.625 297.557 394.64 297.237C393.443 297.044 392.474 296.088 392.262 294.894C392.178 294.417 392.211 293.957 392.336 293.538C392.521 292.922 392.327 292.254 391.872 291.8C391.411 291.339 390.736 291.163 390.11 291.344C389.854 291.418 389.585 291.457 389.306 291.457C387.593 291.457 386.226 289.977 386.414 288.226C386.558 286.883 387.654 285.794 388.997 285.654Z" fill="white"/>
<path d="M389.306 279.819C390.913 279.819 392.215 278.516 392.215 276.909C392.215 275.303 390.913 274 389.306 274C387.699 274 386.396 275.303 386.396 276.909C386.396 278.516 387.699 279.819 389.306 279.819Z" fill="white"/>
<path d="M354.392 279.819C355.999 279.819 357.301 278.516 357.301 276.909C357.301 275.303 355.999 274 354.392 274C352.785 274 351.482 275.303 351.482 276.909C351.482 278.516 352.785 279.819 354.392 279.819Z" fill="white"/>
<path d="M389.306 326.371C390.913 326.371 392.215 325.068 392.215 323.461C392.215 321.854 390.913 320.552 389.306 320.552C387.699 320.552 386.396 321.854 386.396 323.461C386.396 325.068 387.699 326.371 389.306 326.371Z" fill="white"/>
<path d="M456.223 279.658H424.219C422.701 279.658 421.471 278.427 421.471 276.91C421.471 275.392 422.701 274.162 424.219 274.162H456.223C457.74 274.162 458.971 275.392 458.971 276.91C458.971 278.427 457.74 279.658 456.223 279.658Z" fill="white"/>
<path d="M453.313 302.933H424.219C422.701 302.933 421.471 301.703 421.471 300.185C421.471 298.668 422.701 297.438 424.219 297.438H453.313C454.831 297.438 456.061 298.668 456.061 300.185C456.061 301.703 454.831 302.933 453.313 302.933Z" fill="white"/>
<path d="M453.314 326.21H427.129C425.611 326.21 424.381 324.979 424.381 323.462C424.381 321.944 425.611 320.714 427.129 320.714H453.314C454.832 320.714 456.062 321.944 456.062 323.462C456.062 324.979 454.832 326.21 453.314 326.21Z" fill="white"/>
<path d="M465.26 314.717C464.861 314.759 464.477 314.719 464.122 314.612C463.506 314.428 462.839 314.622 462.385 315.076C461.93 315.531 461.736 316.198 461.921 316.813C462.046 317.233 462.079 317.693 461.995 318.17C461.784 319.364 460.814 320.32 459.617 320.513C457.632 320.833 455.942 319.143 456.262 317.158C456.455 315.961 457.412 314.992 458.606 314.78C459.083 314.696 459.542 314.729 459.962 314.855C460.578 315.039 461.245 314.845 461.699 314.391L461.699 314.39C462.161 313.929 462.336 313.254 462.155 312.628C462.081 312.373 462.042 312.103 462.042 311.824C462.042 311.545 462.081 311.276 462.155 311.021C462.336 310.394 462.16 309.719 461.699 309.258C461.244 308.803 460.577 308.61 459.961 308.794C459.542 308.919 459.082 308.953 458.605 308.868C457.411 308.656 456.455 307.687 456.262 306.49C455.942 304.505 457.632 302.815 459.617 303.135C460.814 303.328 461.783 304.284 461.995 305.478C462.079 305.955 462.046 306.415 461.921 306.834C461.736 307.45 461.93 308.117 462.385 308.572C462.846 309.033 463.521 309.209 464.148 309.028C464.403 308.954 464.672 308.915 464.951 308.915C466.664 308.915 468.031 310.395 467.843 312.146C467.699 313.488 466.603 314.578 465.26 314.717Z" fill="white"/>
<path d="M424.528 291.441C424.129 291.483 423.745 291.443 423.389 291.336C422.773 291.152 422.106 291.346 421.652 291.8C421.198 292.255 421.004 292.922 421.188 293.537C421.314 293.957 421.347 294.417 421.263 294.894C421.051 296.088 420.081 297.044 418.885 297.237C416.9 297.557 415.21 295.867 415.53 293.882C415.723 292.685 416.679 291.716 417.873 291.504C418.35 291.42 418.81 291.453 419.23 291.579C419.845 291.763 420.512 291.569 420.967 291.115L420.967 291.114C421.428 290.653 421.604 289.978 421.423 289.352C421.349 289.096 421.309 288.827 421.309 288.548C421.309 288.269 421.349 288 421.423 287.744C421.604 287.118 421.428 286.443 420.967 285.981C420.512 285.527 419.845 285.333 419.229 285.517C418.809 285.643 418.35 285.676 417.873 285.591C416.679 285.38 415.723 284.41 415.529 283.213C415.209 281.229 416.899 279.538 418.884 279.858C420.081 280.051 421.051 281.008 421.262 282.202C421.347 282.679 421.314 283.138 421.188 283.558C421.004 284.174 421.198 284.841 421.652 285.296C422.114 285.757 422.789 285.933 423.415 285.752C423.67 285.678 423.94 285.638 424.219 285.638C425.932 285.638 427.299 287.119 427.111 288.87C426.967 290.212 425.871 291.301 424.528 291.441Z" fill="white"/>
<path d="M462.042 285.638C463.649 285.638 464.952 284.336 464.952 282.729C464.952 281.122 463.649 279.819 462.042 279.819C460.435 279.819 459.133 281.122 459.133 282.729C459.133 284.336 460.435 285.638 462.042 285.638Z" fill="white"/>
<path d="M421.31 320.552C422.917 320.552 424.219 319.25 424.219 317.643C424.219 316.036 422.917 314.733 421.31 314.733C419.703 314.733 418.4 316.036 418.4 317.643C418.4 319.25 419.703 320.552 421.31 320.552Z" fill="white"/>
<path d="M246.74 326.21H214.736C213.219 326.21 211.988 324.979 211.988 323.462C211.988 321.944 213.219 320.714 214.736 320.714H246.74C248.258 320.714 249.488 321.944 249.488 323.462C249.488 324.979 248.258 326.21 246.74 326.21Z" fill="white"/>
<path d="M243.831 302.933H214.736C213.219 302.933 211.988 301.703 211.988 300.185C211.988 298.668 213.219 297.438 214.736 297.438H243.831C245.348 297.438 246.579 298.668 246.579 300.185C246.579 301.703 245.348 302.933 243.831 302.933Z" fill="white"/>
<path d="M243.832 279.658H217.646C216.129 279.658 214.898 278.427 214.898 276.91C214.898 275.392 216.129 274.162 217.646 274.162H243.832C245.349 274.162 246.579 275.392 246.579 276.91C246.579 278.427 245.349 279.658 243.832 279.658Z" fill="white"/>
<path d="M255.778 285.654C255.379 285.613 254.995 285.653 254.639 285.759C254.023 285.943 253.356 285.75 252.902 285.295C252.448 284.841 252.254 284.174 252.438 283.558C252.564 283.139 252.597 282.679 252.513 282.202C252.301 281.008 251.331 280.052 250.135 279.858C248.15 279.538 246.46 281.228 246.78 283.213C246.973 284.41 247.929 285.38 249.123 285.591C249.6 285.676 250.06 285.643 250.48 285.517C251.095 285.333 251.762 285.526 252.217 285.981L252.217 285.981C252.678 286.443 252.854 287.117 252.673 287.744C252.599 287.999 252.559 288.269 252.559 288.548C252.559 288.827 252.599 289.096 252.673 289.351C252.854 289.978 252.678 290.653 252.217 291.114C251.762 291.569 251.095 291.762 250.479 291.578C250.059 291.453 249.6 291.419 249.123 291.504C247.929 291.716 246.972 292.685 246.779 293.882C246.459 295.867 248.149 297.557 250.134 297.237C251.331 297.044 252.301 296.088 252.512 294.894C252.597 294.417 252.564 293.957 252.438 293.538C252.254 292.922 252.448 292.254 252.902 291.8C253.364 291.339 254.039 291.163 254.665 291.344C254.92 291.418 255.19 291.457 255.469 291.457C257.182 291.457 258.549 289.977 258.361 288.226C258.217 286.883 257.121 285.794 255.778 285.654Z" fill="white"/>
<path d="M215.045 308.93C214.646 308.888 214.262 308.928 213.907 309.035C213.291 309.219 212.624 309.025 212.17 308.571C211.715 308.116 211.522 307.449 211.706 306.834C211.832 306.414 211.865 305.954 211.78 305.477C211.569 304.283 210.599 303.327 209.402 303.134C207.417 302.814 205.727 304.504 206.047 306.489C206.24 307.686 207.197 308.655 208.391 308.867C208.868 308.951 209.327 308.918 209.747 308.792C210.363 308.608 211.03 308.802 211.484 309.256L211.484 309.257C211.946 309.718 212.122 310.393 211.94 311.019C211.867 311.275 211.827 311.544 211.827 311.823C211.827 312.102 211.867 312.371 211.94 312.627C212.121 313.253 211.945 313.928 211.484 314.39C211.03 314.844 210.362 315.038 209.747 314.854C209.327 314.728 208.867 314.695 208.39 314.78C207.197 314.991 206.24 315.961 206.047 317.158C205.727 319.142 207.417 320.833 209.402 320.513C210.599 320.32 211.569 319.363 211.78 318.169C211.864 317.692 211.831 317.233 211.706 316.813C211.522 316.197 211.715 315.53 212.17 315.075C212.631 314.614 213.306 314.438 213.933 314.619C214.188 314.693 214.457 314.733 214.736 314.733C216.449 314.733 217.816 313.252 217.628 311.501C217.484 310.159 216.389 309.07 215.045 308.93Z" fill="white"/>
<path d="M252.56 320.552C254.167 320.552 255.469 319.25 255.469 317.643C255.469 316.036 254.167 314.733 252.56 314.733C250.953 314.733 249.65 316.036 249.65 317.643C249.65 319.25 250.953 320.552 252.56 320.552Z" fill="white"/>
<path d="M211.827 285.638C213.434 285.638 214.737 284.336 214.737 282.729C214.737 281.122 213.434 279.819 211.827 279.819C210.221 279.819 208.918 281.122 208.918 282.729C208.918 284.336 210.221 285.638 211.827 285.638Z" fill="white"/>
<path d="M590.06 302.933H572.603C571.086 302.933 569.855 301.703 569.855 300.185C569.855 298.668 571.086 297.438 572.603 297.438H590.06C591.578 297.438 592.808 298.668 592.808 300.185C592.808 301.703 591.578 302.933 590.06 302.933Z" fill="white"/>
<path d="M598.789 279.658H563.875C562.357 279.658 561.127 278.427 561.127 276.91C561.127 275.392 562.357 274.162 563.875 274.162H598.789C600.306 274.162 601.536 275.392 601.536 276.91C601.536 278.427 600.306 279.658 598.789 279.658Z" fill="white"/>
<path d="M560.657 308.93C561.056 308.888 561.44 308.928 561.795 309.035C562.411 309.219 563.078 309.025 563.532 308.571C563.987 308.116 564.18 307.449 563.996 306.834C563.87 306.414 563.837 305.954 563.922 305.477C564.133 304.283 565.103 303.327 566.3 303.134C568.285 302.814 569.975 304.504 569.655 306.489C569.462 307.686 568.505 308.655 567.311 308.867C566.834 308.951 566.374 308.918 565.955 308.792C565.339 308.608 564.672 308.802 564.218 309.256L564.218 309.257C563.756 309.718 563.58 310.393 563.762 311.019C563.835 311.274 563.875 311.544 563.875 311.823C563.875 312.102 563.835 312.371 563.762 312.626C563.581 313.253 563.757 313.928 564.218 314.389C564.672 314.844 565.34 315.038 565.955 314.853C566.375 314.728 566.835 314.695 567.312 314.779C568.505 314.991 569.462 315.96 569.655 317.157C569.975 319.142 568.285 320.832 566.3 320.512C565.103 320.319 564.133 319.363 563.922 318.169C563.838 317.692 563.871 317.232 563.996 316.813C564.18 316.197 563.987 315.53 563.532 315.075C563.071 314.614 562.396 314.438 561.769 314.619C561.514 314.693 561.245 314.732 560.966 314.732C559.253 314.732 557.886 313.252 558.074 311.501C558.218 310.159 559.313 309.07 560.657 308.93Z" fill="white"/>
<path d="M598.479 285.654C598.878 285.613 599.262 285.653 599.618 285.759C600.234 285.943 600.901 285.75 601.355 285.295C601.809 284.841 602.003 284.174 601.819 283.558C601.693 283.139 601.66 282.679 601.744 282.202C601.956 281.008 602.926 280.052 604.122 279.858C606.107 279.538 607.797 281.228 607.477 283.213C607.284 284.41 606.328 285.38 605.134 285.591C604.657 285.676 604.197 285.643 603.777 285.517C603.162 285.333 602.495 285.526 602.04 285.981L602.04 285.981C601.579 286.443 601.403 287.117 601.584 287.744C601.658 287.999 601.698 288.268 601.698 288.547C601.698 288.826 601.658 289.096 601.584 289.351C601.403 289.978 601.579 290.652 602.04 291.114C602.495 291.568 603.162 291.762 603.778 291.578C604.198 291.452 604.657 291.419 605.134 291.504C606.328 291.715 607.284 292.685 607.478 293.882C607.798 295.867 606.108 297.557 604.123 297.237C602.926 297.044 601.956 296.087 601.745 294.893C601.66 294.417 601.693 293.957 601.819 293.537C602.003 292.921 601.809 292.254 601.355 291.8C600.893 291.338 600.218 291.162 599.592 291.343C599.337 291.418 599.067 291.457 598.788 291.457C597.075 291.457 595.708 289.977 595.896 288.226C596.04 286.883 597.136 285.794 598.479 285.654Z" fill="white"/>
<path d="M598.788 303.095C600.395 303.095 601.698 301.793 601.698 300.186C601.698 298.579 600.395 297.276 598.788 297.276C597.182 297.276 595.879 298.579 595.879 300.186C595.879 301.793 597.182 303.095 598.788 303.095Z" fill="white"/>
<path d="M558.056 285.638C559.663 285.638 560.965 284.336 560.965 282.729C560.965 281.122 559.663 279.819 558.056 279.819C556.449 279.819 555.146 281.122 555.146 282.729C555.146 284.336 556.449 285.638 558.056 285.638Z" fill="white"/>
<path d="M560.966 326.371C562.573 326.371 563.876 325.068 563.876 323.461C563.876 321.854 562.573 320.552 560.966 320.552C559.359 320.552 558.057 321.854 558.057 323.461C558.057 325.068 559.359 326.371 560.966 326.371Z" fill="white"/>
<path d="M144.909 285.638C146.516 285.638 147.819 284.336 147.819 282.729C147.819 281.122 146.516 279.819 144.909 279.819C143.303 279.819 142 281.122 142 282.729C142 284.336 143.303 285.638 144.909 285.638Z" fill="white"/>
<path d="M179.824 326.21H144.91C143.392 326.21 142.162 324.979 142.162 323.462C142.162 321.944 143.392 320.714 144.91 320.714H179.824C181.341 320.714 182.572 321.944 182.572 323.462C182.572 324.979 181.341 326.21 179.824 326.21Z" fill="white"/>
<path d="M162.366 279.658H150.728C149.211 279.658 147.98 278.427 147.98 276.91C147.98 275.392 149.211 274.162 150.728 274.162H162.366C163.884 274.162 165.114 275.392 165.114 276.91C165.114 278.427 163.884 279.658 162.366 279.658Z" fill="white"/>
<path d="M159.147 288.564C159.546 288.522 159.93 288.562 160.286 288.668C160.902 288.853 161.569 288.659 162.023 288.205C162.477 287.75 162.671 287.083 162.487 286.468C162.361 286.048 162.328 285.588 162.412 285.111C162.624 283.917 163.594 282.961 164.79 282.768C166.775 282.448 168.465 284.137 168.145 286.123C167.952 287.319 166.996 288.289 165.802 288.501C165.325 288.585 164.865 288.552 164.445 288.426C163.83 288.242 163.163 288.436 162.708 288.89L162.708 288.89C162.247 289.352 162.071 290.026 162.252 290.653C162.326 290.908 162.366 291.178 162.366 291.457C162.366 291.736 162.326 292.005 162.252 292.26C162.071 292.887 162.247 293.562 162.708 294.023C163.163 294.478 163.83 294.672 164.446 294.487C164.866 294.362 165.325 294.329 165.802 294.413C166.996 294.625 167.952 295.595 168.146 296.791C168.466 298.776 166.776 300.466 164.791 300.146C163.594 299.953 162.624 298.997 162.413 297.803C162.328 297.326 162.361 296.866 162.487 296.447C162.671 295.831 162.477 295.164 162.023 294.709C161.561 294.248 160.886 294.072 160.26 294.253C160.005 294.327 159.735 294.366 159.456 294.366C157.743 294.366 156.376 292.886 156.564 291.135C156.708 289.792 157.804 288.703 159.147 288.564Z" fill="white"/>
<path d="M165.584 306.021C165.185 305.979 164.801 306.019 164.446 306.125C163.83 306.31 163.163 306.116 162.709 305.662C162.254 305.207 162.061 304.54 162.245 303.925C162.371 303.505 162.404 303.045 162.319 302.568C162.108 301.374 161.138 300.418 159.941 300.225C157.956 299.905 156.266 301.594 156.586 303.58C156.779 304.776 157.736 305.746 158.93 305.958C159.407 306.042 159.866 306.009 160.286 305.883C160.902 305.699 161.569 305.893 162.023 306.347L162.024 306.348C162.485 306.809 162.661 307.484 162.479 308.11C162.406 308.365 162.366 308.635 162.366 308.914C162.366 309.193 162.406 309.462 162.479 309.717C162.66 310.344 162.485 311.019 162.023 311.481C161.569 311.935 160.901 312.129 160.286 311.944C159.866 311.819 159.406 311.786 158.929 311.87C157.736 312.082 156.779 313.052 156.586 314.248C156.266 316.233 157.956 317.923 159.941 317.603C161.138 317.41 162.108 316.454 162.319 315.26C162.403 314.783 162.37 314.323 162.245 313.904C162.061 313.288 162.254 312.621 162.709 312.166C163.17 311.705 163.845 311.529 164.472 311.71C164.727 311.784 164.996 311.823 165.275 311.823C166.988 311.823 168.356 310.343 168.167 308.592C168.024 307.249 166.928 306.16 165.584 306.021Z" fill="white"/>
</svg>
