<svg width="20" height="20" viewBox="0 0 20 20" fill="none" xmlns="http://www.w3.org/2000/svg">
<g clip-path="url(#clip0)">
<path d="M9.99962 1.80155C12.6695 1.80155 12.9859 1.81146 14.0403 1.85949C15.0154 1.90371 15.5445 2.06686 15.8975 2.20409C16.3641 2.38555 16.6973 2.60207 17.0472 2.95201C17.3972 3.30195 17.6137 3.63512 17.7951 4.1017C17.9324 4.45393 18.0948 4.9838 18.1397 5.95891C18.1878 7.0133 18.1977 7.3297 18.1977 9.99962C18.1977 12.6695 18.1878 12.9859 18.1397 14.0403C18.0955 15.0154 17.9324 15.5445 17.7951 15.8975C17.6137 16.3641 17.3972 16.6973 17.0472 17.0472C16.6973 17.3972 16.3641 17.6137 15.8975 17.7951C15.5453 17.9324 15.0154 18.0948 14.0403 18.1397C12.9859 18.1878 12.6695 18.1977 9.99962 18.1977C7.3297 18.1977 7.0133 18.1878 5.95891 18.1397C4.9838 18.0955 4.45469 17.9324 4.1017 17.7951C3.63512 17.6137 3.30195 17.3972 2.95201 17.0472C2.60207 16.6973 2.38554 16.3641 2.20409 15.8975C2.06686 15.5453 1.90447 15.0154 1.85949 14.0403C1.81146 12.9859 1.80155 12.6695 1.80155 9.99962C1.80155 7.3297 1.81146 7.0133 1.85949 5.95891C1.90371 4.9838 2.06686 4.45469 2.20409 4.1017C2.38554 3.63512 2.60207 3.30195 2.95201 2.95201C3.30195 2.60207 3.63512 2.38555 4.1017 2.20409C4.45393 2.06686 4.9838 1.90447 5.95891 1.85949C7.0133 1.81222 7.3297 1.80155 9.99962 1.80155ZM9.99962 0C7.28396 0 6.94393 0.011436 5.87733 0.0602295C4.81302 0.109023 4.08569 0.277513 3.44985 0.525293C2.7919 0.780696 2.23459 1.12225 1.67804 1.67804C1.12225 2.23459 0.780696 2.7919 0.525293 3.44985C0.278275 4.08569 0.109023 4.81302 0.0602295 5.87733C0.011436 6.94393 0 7.28396 0 9.99962C0 12.7153 0.011436 13.0561 0.0602295 14.1227C0.109023 15.187 0.277513 15.9143 0.525293 16.5501C0.780696 17.2073 1.12301 17.7654 1.6788 18.3212C2.23459 18.877 2.79267 19.2193 3.44985 19.4747C4.08569 19.7217 4.81302 19.891 5.87733 19.9398C6.94393 19.9886 7.28472 20 10.0004 20C12.716 20 13.0568 19.9886 14.1234 19.9398C15.1877 19.891 15.9151 19.7225 16.5509 19.4747C17.2089 19.2193 17.7662 18.877 18.322 18.3212C18.8777 17.7654 19.2201 17.2073 19.4755 16.5501C19.7225 15.9143 19.8917 15.187 19.9405 14.1227C19.9893 13.0561 20.0008 12.7153 20.0008 9.99962C20.0008 7.28396 19.9893 6.94316 19.9405 5.87657C19.8917 4.81226 19.7232 4.08493 19.4755 3.44909C19.2201 2.79114 18.8777 2.23383 18.322 1.67804C17.7662 1.12225 17.2081 0.779934 16.5509 0.52453C15.9151 0.277513 15.1877 0.108261 14.1234 0.0594671C13.0561 0.011436 12.716 0 9.99962 0Z" fill="#F3FAF9"/>
<path d="M9.9995 4.86523C7.16338 4.86523 4.86475 7.16463 4.86475 9.99999C4.86475 12.8353 7.16414 15.1347 9.9995 15.1347C12.8349 15.1347 15.1343 12.8353 15.1343 9.99999C15.1343 7.16463 12.8356 4.86523 9.9995 4.86523ZM9.9995 13.334C8.15831 13.334 6.66629 11.8419 6.66629 10.0008C6.66629 8.15956 8.15831 6.66754 9.9995 6.66754C11.8407 6.66754 13.3327 8.15956 13.3327 10.0008C13.3327 11.8419 11.8407 13.334 9.9995 13.334Z" fill="#F3FAF9"/>
<path d="M15.3377 5.86194C16.0005 5.86194 16.5377 5.32468 16.5377 4.66193C16.5377 3.99918 16.0005 3.46191 15.3377 3.46191C14.675 3.46191 14.1377 3.99918 14.1377 4.66193C14.1377 5.32468 14.675 5.86194 15.3377 5.86194Z" fill="#F3FAF9"/>
</g>
<defs>
<clipPath id="clip0">
<rect width="20" height="20" fill="white"/>
</clipPath>
</defs>
</svg>
