<svg width="563" height="160" viewBox="0 0 563 160" fill="none" xmlns="http://www.w3.org/2000/svg">
<path d="M527.862 36.4651C524.134 32.2228 518.69 29.7674 512.952 29.7674H289.263C278.601 29.7674 269.542 37.7306 268.125 48.2597C267.379 54.0281 269.057 59.7577 272.821 64.0368C276.55 68.2781 281.993 70.6977 287.735 70.6977H343.657C352.605 70.6977 360.508 74.0475 365.84 80.185C371.284 86.3992 373.593 94.8827 372.327 104.035C369.567 124.278 350.145 141.394 329.937 141.394H184.84L197.031 52.2055C197.776 46.437 196.098 40.7064 192.333 36.4651C188.605 32.2228 183.16 29.7674 177.42 29.7674C166.757 29.7674 157.699 37.7306 156.282 48.2228L148.153 107.757C146.104 122.715 134.733 136.631 119.894 142.399C115.198 144.186 110.427 145.114 105.765 145.114C101.217 145.114 97.0033 144.295 93.2014 142.622C81.5335 137.599 75.1947 125.469 77.0587 111.776L85.1859 52.2055C85.9325 46.437 84.2559 40.7064 80.4878 36.4651C76.7617 32.2228 71.317 29.7674 65.5763 29.7674C54.9142 29.7674 45.854 37.7306 44.4365 48.2228L29.6008 156.278H44.7356L59.2385 50.2315C59.6492 47.1454 62.519 44.6512 65.5763 44.6512C68.6704 44.6512 70.8326 47.1454 70.4218 50.2315L62.2957 109.767C59.4238 130.752 69.9384 148.799 87.3111 156.278C92.8296 158.697 99.0548 160 105.765 160C112.476 160 119.074 158.66 125.265 156.278C144.65 148.762 160.084 130.752 162.954 109.767L171.083 50.2315C171.492 47.1454 174.363 44.6512 177.42 44.6512C180.514 44.6512 182.678 47.1454 182.266 50.2315L167.763 156.278H329.937C357.712 156.278 383.361 133.731 387.126 106.045C390.93 78.3624 371.431 55.815 343.657 55.815H287.735C284.678 55.815 282.516 53.3197 282.926 50.2315C283.336 47.1454 286.206 44.6512 289.263 44.6512H512.952C516.044 44.6512 518.208 47.1454 517.797 50.2315C517.389 53.3197 514.517 55.815 511.422 55.815H405.17L391.452 156.278H406.625L418.181 70.6977H511.422C522.085 70.6977 531.181 62.7345 532.561 52.2055C533.306 46.4738 531.628 40.7064 527.862 36.4651ZM519.064 0H295.379C267.641 0 241.953 22.5495 238.187 50.2315C234.387 77.9157 253.885 100.465 281.659 100.465H337.58C340.674 100.465 342.837 102.957 342.39 106.045C341.98 109.135 339.145 111.627 336.051 111.627H218.616L227.005 50.2315C230.77 22.5495 211.272 0 183.534 0C155.797 0 130.11 22.5495 126.345 50.2315L118.218 109.767C117.771 112.856 114.937 115.348 111.842 115.348C108.785 115.348 106.586 112.856 107.033 109.767L115.159 50.2315C118.926 22.5495 99.4276 0 71.6898 0C43.9541 0 18.2658 22.5495 14.5008 50.2315L0 156.278H14.9484L29.2649 52.2423C32.0241 32.001 51.4473 14.8847 71.6898 14.8847C80.6374 14.8847 88.5033 18.2315 93.8354 24.3353C99.278 30.5863 101.628 39.0698 100.36 48.2228L92.2693 107.646C91.4121 113.376 93.0897 119.143 96.8179 123.459C100.583 127.775 106.026 130.231 111.842 130.231C122.357 130.231 131.453 122.344 132.98 111.776L141.108 52.2423C143.867 32.001 163.29 14.8847 183.534 14.8847C192.481 14.8847 200.348 18.2315 205.678 24.3353C211.122 30.5863 213.471 39.0698 212.203 48.2228L203.814 109.618L201.504 126.511H336.051C346.678 126.511 355.736 118.547 357.116 108.167C357.973 102.437 356.295 96.6685 352.568 92.3537C348.839 88.0368 343.359 85.5804 337.58 85.5804H281.659C272.672 85.5804 264.769 82.2326 259.439 76.092C253.996 69.8789 251.684 61.3954 252.952 52.2423C255.711 32.001 275.134 14.8847 295.379 14.8847H519.064C528.012 14.8847 535.879 18.2315 541.209 24.3353C546.653 30.5863 549.001 39.0698 547.733 48.2228C544.974 68.4641 525.552 85.5804 505.346 85.5804H430.784L429.031 98.4544L421.24 156.278H436.189L443.833 100.465H505.346C533.082 100.465 558.733 77.9157 562.535 50.2315C566.299 22.5495 546.802 0 519.064 0Z" fill="white"/>
</svg>
