<svg width="455" height="455" viewBox="0 0 455 455" fill="none" xmlns="http://www.w3.org/2000/svg">
<path d="M202.369 211.185L228.398 156.208L254.3 211.185H262.895L232.862 146.78L240.071 131.554H231.119L228.423 137.26L225.762 131.554H216.783L223.941 146.747L193.495 211.185H202.369Z" fill="white"/>
<path d="M190.772 138.783C200.728 128.828 213.964 123.345 228.043 123.345C242.123 123.345 255.359 128.828 265.315 138.783C275.27 148.739 280.753 161.975 280.753 176.055C280.753 190.134 275.27 203.37 265.315 213.326C255.359 223.282 242.123 228.764 228.043 228.764C213.964 228.764 200.728 223.282 190.772 213.326C180.816 203.37 175.334 190.134 175.334 176.055C175.334 161.975 180.816 148.739 190.772 138.783ZM228.043 236.109C261.211 236.109 288.098 209.222 288.098 176.055C288.098 142.888 261.211 116 228.043 116C194.876 116 167.989 142.888 167.989 176.055C167.989 209.222 194.876 236.109 228.043 236.109Z" fill="white"/>
<path d="M149.502 278.165L165.486 296.501H166.03V272.286H163.642V290.848L147.526 272.286H147V296.501H149.502V278.165Z" fill="white"/>
<path d="M237.864 296.501H240.238L236.753 272.286H236.366L226.615 292.155L216.771 272.286H216.378L212.911 296.501H215.249L217.628 279.051L226.292 296.501H226.909L235.472 279.183L237.864 296.501Z" fill="white"/>
<path d="M274.615 296.501L265.483 276.916L267.675 272.286H264.953L264.133 274.021L263.324 272.286H260.593L262.77 276.906L253.512 296.501H256.21L264.125 279.783L272.002 296.501H274.615Z" fill="white"/>
<path d="M304.815 290.388C303.772 291.929 302.34 292.996 300.517 293.588C299.222 294.004 296.901 294.213 293.555 294.213H290.756V274.656H292.468C295.947 274.656 298.444 274.887 299.959 275.348C301.977 275.962 303.552 277.096 304.683 278.752C305.813 280.407 306.378 282.403 306.378 284.738C306.378 286.965 305.857 288.848 304.815 290.388ZM301.342 273.158C299.706 272.576 297.076 272.286 293.457 272.286H288.435V296.501H296.139C299.158 296.501 301.503 296.062 303.177 295.184C304.851 294.305 306.21 292.945 307.259 291.101C308.307 289.258 308.832 287.123 308.832 284.698C308.832 281.889 308.171 279.468 306.848 277.438C305.525 275.408 303.689 273.981 301.342 273.158Z" fill="white"/>
<path d="M148.335 311.765H151.985C153.893 311.765 155.009 312.644 155.009 314.096V314.131C155.009 315.65 153.742 316.563 151.968 316.563H148.335V311.765ZM148.335 317.762H151.714L155.145 322.358H156.783L153.15 317.526C155.009 317.188 156.361 316.039 156.361 314.079V314.046C156.361 313.117 156.023 312.288 155.448 311.714C154.704 310.971 153.539 310.531 152.086 310.531H147V322.358H148.335V317.762Z" fill="white"/>
<path d="M174.937 311.748V310.531H166.388V322.358H175.022V321.142H167.723V317.002H174.177V315.785H167.723V311.748H174.937Z" fill="white"/>
<path d="M189.87 311.562C191.475 311.562 192.59 312.238 193.588 313.184L194.499 312.203C193.317 311.089 192.033 310.328 189.887 310.328C186.406 310.328 183.906 313.099 183.906 316.444V316.478C183.906 319.875 186.424 322.56 189.836 322.56C191.982 322.56 193.333 321.732 194.567 320.483L193.688 319.621C192.556 320.702 191.493 321.327 189.87 321.327C187.268 321.327 185.291 319.181 185.291 316.444V316.41C185.291 313.69 187.251 311.562 189.87 311.562Z" fill="white"/>
<path d="M213.864 316.478C213.864 319.164 211.939 321.327 209.236 321.327C206.531 321.327 204.571 319.131 204.571 316.444V316.41C204.571 313.724 206.497 311.562 209.201 311.562C211.904 311.562 213.864 313.757 213.864 316.444V316.478ZM209.236 310.328C205.636 310.328 203.186 313.184 203.186 316.444V316.478C203.186 319.739 205.602 322.56 209.201 322.56C212.8 322.56 215.248 319.704 215.248 316.444V316.41C215.248 313.149 212.833 310.328 209.236 310.328Z" fill="white"/>
<path d="M233.256 314.131C233.256 315.65 231.99 316.563 230.215 316.563H226.583V311.765H230.233C232.14 311.765 233.256 312.644 233.256 314.096V314.131ZM234.608 314.079V314.046C234.608 313.117 234.27 312.288 233.695 311.714C232.951 310.971 231.785 310.531 230.333 310.531H225.247V322.358H226.583V317.762H229.962L233.392 322.358H235.029L231.397 317.526C233.256 317.188 234.608 316.039 234.608 314.079Z" fill="white"/>
<path d="M253.643 316.478C253.643 319.097 251.733 321.124 248.742 321.124H245.973V311.765H248.742C251.733 311.765 253.643 313.825 253.643 316.445V316.478ZM248.742 310.531H244.637V322.358H248.742C252.461 322.358 255.029 319.773 255.029 316.445V316.411C255.029 313.082 252.461 310.531 248.742 310.531Z" fill="white"/>
<path d="M266.418 310.531H265.082V322.358H266.418V310.531Z" fill="white"/>
<path d="M278.282 310.531H277.031V322.358H278.332V312.66L285.969 322.358H287.033V310.531H285.731V320.01L278.282 310.531Z" fill="white"/>
<path d="M302.903 317.239H306.502V320.178C305.691 320.837 304.44 321.361 303.088 321.361C300.217 321.361 298.409 319.266 298.409 316.444V316.41C298.409 313.775 300.285 311.562 302.903 311.562C304.575 311.562 305.589 312.119 306.502 312.913L307.363 311.9C306.18 310.902 304.948 310.328 302.953 310.328C299.406 310.328 297.023 313.2 297.023 316.444V316.478C297.023 319.857 299.321 322.56 303.038 322.56C305.033 322.56 306.687 321.732 307.786 320.753V316.039H302.903V317.239Z" fill="white"/>
<path d="M190.231 289.209C186.023 289.209 182.601 285.787 182.601 281.579C182.601 277.372 186.023 273.949 190.231 273.949C194.438 273.949 197.861 277.372 197.861 281.579C197.861 285.787 194.438 289.209 190.231 289.209ZM200.132 281.579C200.132 276.111 195.699 271.678 190.231 271.678C184.762 271.678 180.329 276.111 180.329 281.579C180.329 287.048 184.762 291.481 190.231 291.481C195.699 291.481 200.132 287.048 200.132 281.579Z" fill="white"/>
<path d="M197.136 294.213H183.326V296.484H197.136V294.213Z" fill="white"/>
<path d="M307.358 253.535H147V255.806H307.358V253.535Z" fill="white"/>
<path d="M307.358 338.433H147V340.703H307.358V338.433Z" fill="white"/>
</svg>
