<svg width="455" height="455" viewBox="0 0 455 455" fill="none" xmlns="http://www.w3.org/2000/svg">
<path d="M196.245 271.374C189.421 271.374 184.219 270.022 180.642 267.317C177.063 264.614 175.275 261.264 175.275 257.269C175.275 254.524 176.086 252.089 177.709 249.968C179.332 247.845 181.641 246.785 184.636 246.785C187.548 246.785 189.92 247.68 191.751 249.468C193.58 251.259 194.497 253.525 194.497 256.271C194.497 258.435 193.83 260.474 192.5 262.387C191.168 264.302 189.296 265.258 186.883 265.258C186.216 265.258 185.885 265.426 185.885 265.756C185.885 266.174 186.696 266.799 188.319 267.629C189.941 268.462 192.167 268.878 194.996 268.878C197.075 268.878 199.073 268.525 200.988 267.817C202.901 267.11 204.586 265.882 206.042 264.135C207.498 262.387 208.664 260.037 209.538 257.082C210.411 254.13 210.848 250.447 210.848 246.036V233.679C209.682 235.26 208.165 236.55 206.292 237.549C204.42 238.547 201.902 239.046 198.741 239.046C194.913 239.046 191.293 238.506 187.882 237.423C184.469 236.343 181.495 234.74 178.957 232.618C176.418 230.496 174.421 227.812 172.966 224.568C171.509 221.321 170.782 217.495 170.782 213.085C170.782 208.925 171.572 205.118 173.153 201.664C174.733 198.212 176.939 195.235 179.769 192.738C182.597 190.243 185.926 188.289 189.754 186.873C193.58 185.459 197.7 184.751 202.111 184.751C206.936 184.751 211.305 185.811 215.217 187.933C219.127 190.055 222.476 192.926 225.265 196.546C228.052 200.165 230.215 204.41 231.756 209.277C233.294 214.145 234.064 219.368 234.064 224.941C234.064 232.349 232.919 238.921 230.632 244.663C228.342 250.404 225.368 255.253 221.708 259.204C218.044 263.157 213.969 266.174 209.475 268.253C204.982 270.333 200.57 271.374 196.245 271.374ZM202.111 186.997C199.946 186.997 198.282 187.497 197.118 188.495C195.952 189.494 195.1 190.867 194.559 192.614C194.017 194.362 193.705 196.402 193.623 198.731C193.54 201.06 193.499 203.557 193.499 206.219V220.323C193.499 222.488 193.54 224.505 193.623 226.377C193.705 228.25 194.017 229.871 194.559 231.245C195.1 232.618 195.932 233.7 197.056 234.49C198.179 235.282 199.781 235.676 201.861 235.676C204.108 235.676 205.896 234.886 207.229 233.304C208.559 231.725 209.516 230.102 210.1 228.437C210.349 227.522 210.537 226.273 210.661 224.692C210.786 223.112 210.848 221.655 210.848 220.323V206.094C210.848 203.598 210.806 201.207 210.723 198.917C210.639 196.63 210.328 194.611 209.787 192.863C209.245 191.117 208.371 189.702 207.166 188.62C205.959 187.539 204.274 186.997 202.111 186.997Z" fill="white" fill-opacity="0.3"/>
<path d="M275.724 270.125H243.521V268.128H250.261V198.48C249.179 198.979 247.952 199.521 246.579 200.102C245.206 200.686 243.77 201.248 242.273 201.788C240.775 202.33 239.297 202.808 237.842 203.223C237.146 203.422 236.496 203.59 235.887 203.732V201.185C239.85 199.572 243.583 197.553 247.078 195.11C251.363 192.114 255.17 189.162 258.499 186.248H268.984V268.128H275.724V270.125Z" fill="white" fill-opacity="0.3"/>
<path fill-rule="evenodd" clip-rule="evenodd" d="M231.532 156.748L229.029 156.562L228.733 160.528L226.733 160.378L227.582 149L232.654 149.379C234.085 149.486 235.174 149.992 235.852 150.762C236.408 151.424 236.686 152.295 236.612 153.286L236.61 153.319C236.47 155.188 235.265 156.226 233.654 156.564L236.405 161.1L234.032 160.923L231.532 156.748ZM232.355 151.187L229.446 150.97L229.161 154.79L232.086 155.008C233.517 155.115 234.483 154.435 234.57 153.281L234.572 153.248C234.662 152.029 233.835 151.298 232.355 151.187Z" fill="white"/>
<path d="M222.381 160.432L222.192 158.648L215.691 159.338L215.367 156.29L221.058 155.686L220.868 153.902L215.178 154.506L214.865 151.556L221.285 150.874L221.096 149.091L212.681 149.984L213.885 161.333L222.381 160.432Z" fill="white"/>
<path fill-rule="evenodd" clip-rule="evenodd" d="M208.822 159.061C209.402 161.016 208.103 162.541 205.664 163.266L200.6 164.77L197.348 153.827L202.257 152.369C203.507 151.998 204.595 152.049 205.406 152.488C206.035 152.829 206.461 153.349 206.679 154.083L206.689 154.115C207.079 155.428 206.537 156.354 205.849 157.018C207.262 157.075 208.371 157.545 208.813 159.03L208.822 159.061ZM204.849 154.967C204.594 154.108 203.748 153.78 202.513 154.147L199.746 154.969L200.61 157.877L203.236 157.096C204.471 156.729 205.156 155.999 204.858 154.998L204.849 154.967ZM206.838 159.429L206.829 159.398C206.554 158.475 205.658 158.147 204.141 158.597L201.093 159.503L201.985 162.504L205.173 161.556C206.487 161.166 207.131 160.414 206.838 159.429Z" fill="white"/>
<path d="M196.828 166.266L196.006 164.635L190.646 167.336L186.33 158.771L184.539 159.674L189.677 169.87L196.828 166.266Z" fill="white"/>
<path d="M224.991 164.761C225.178 164.761 225.331 164.609 225.331 164.422C225.331 164.234 225.178 164.082 224.991 164.082H224.923C224.736 164.082 224.618 164.234 224.618 164.422C224.618 164.609 224.803 164.761 224.991 164.761Z" fill="white"/>
<path d="M232.853 164.863C232.875 164.677 233.009 164.54 233.197 164.562L233.265 164.569C233.451 164.592 233.583 164.762 233.561 164.948C233.541 165.12 233.394 165.247 233.225 165.247L233.183 165.245C232.997 165.222 232.831 165.048 232.853 164.863Z" fill="white"/>
<path d="M212.673 165.882L212.612 165.887C212.45 165.887 212.308 165.772 212.278 165.607C212.245 165.422 212.368 165.246 212.552 165.213L212.612 165.547L212.614 165.202C212.8 165.166 212.977 165.287 213.012 165.471C213.048 165.655 212.928 165.833 212.744 165.869L212.673 165.882Z" fill="white"/>
<path d="M96.8032 218.891C96.6374 218.891 96.4811 218.985 96.3364 219.171L95.1536 220.354C94.6767 219.877 94.0598 219.467 93.303 219.125C92.5448 218.783 91.576 218.611 90.3925 218.611C88.6506 218.611 87.1308 218.922 85.8339 219.545C84.5376 220.167 83.4581 220.987 82.598 222.003C81.7365 223.02 81.0884 224.182 80.6529 225.489C80.2174 226.796 80 228.133 80 229.503C80 230.872 80.2174 232.205 80.6529 233.501C81.0884 234.798 81.7365 235.955 82.598 236.971C83.4581 237.987 84.5376 238.807 85.8339 239.429C87.1308 240.051 88.6397 240.362 90.3619 240.362C91.15 240.362 91.8505 240.275 92.4619 240.098C93.074 239.922 93.6033 239.71 94.049 239.46C94.4946 239.212 94.8629 238.952 95.1536 238.682C95.4444 238.413 95.6618 238.184 95.8072 237.998L97.0525 239.771C97.1972 239.979 97.3222 240.083 97.4255 240.083C97.5288 240.083 97.5811 239.968 97.5811 239.74V232.645C97.5811 232.376 97.4982 232.24 97.3324 232.24C97.187 232.24 97.0831 232.376 97.0213 232.645C96.9587 232.978 96.8657 233.388 96.7407 233.875C96.617 234.362 96.4499 234.87 96.2434 235.4C96.0355 235.928 95.7705 236.457 95.4498 236.987C95.1278 237.515 94.7283 237.987 94.2514 238.402C93.7745 238.818 93.2194 239.155 92.5869 239.414C91.9537 239.674 91.2119 239.803 90.3619 239.803C89.5942 239.803 88.9352 239.688 88.3856 239.46C87.836 239.232 87.3795 238.803 87.0167 238.169C86.6532 237.536 86.3889 236.65 86.2231 235.508C86.0574 234.368 85.9738 232.884 85.9738 231.058V227.947C85.9738 226.1 86.0363 224.601 86.1613 223.45C86.285 222.299 86.5132 221.407 86.8455 220.774C87.177 220.141 87.6444 219.716 88.2457 219.498C88.8476 219.281 89.6357 219.171 90.6113 219.171C91.3783 219.171 92.0624 219.301 92.6644 219.56C93.2663 219.82 93.8112 220.198 94.2983 220.696C94.7854 221.194 95.2161 221.796 95.5898 222.501C95.9635 223.206 96.3059 224.005 96.617 224.897C96.6788 225.104 96.7923 225.208 96.9587 225.208C97.1035 225.208 97.1768 225.104 97.1768 224.897V219.389C97.1768 219.058 97.0525 218.891 96.8032 218.891Z" fill="white"/>
<path d="M285.517 201.284L285.668 201.248C285.837 201.165 285.904 200.96 285.82 200.792L285.785 200.725C285.696 200.561 285.507 200.527 285.345 200.613C285.18 200.698 285.129 200.93 285.213 201.097C285.272 201.216 285.392 201.284 285.517 201.284Z" fill="white"/>
<path d="M283.779 197.185C283.875 197.348 283.82 197.556 283.658 197.65L283.487 197.697C283.37 197.697 283.257 197.637 283.193 197.529C283.099 197.369 283.134 197.134 283.293 197.037C283.452 196.941 283.642 196.963 283.74 197.121L283.779 197.185Z" fill="white"/>
<path d="M287.159 204.275C286.989 204.353 286.913 204.553 286.989 204.724L287.019 204.787C287.076 204.913 287.198 204.986 287.327 204.986L287.469 204.955C287.64 204.876 287.714 204.675 287.635 204.504L287.299 204.584L287.609 204.445C287.531 204.273 287.33 204.198 287.159 204.275Z" fill="white"/>
<path d="M216.651 164.589C216.464 164.611 216.331 164.78 216.353 164.966C216.373 165.139 216.52 165.265 216.69 165.265L216.731 165.263L216.803 165.254C216.988 165.229 217.087 165.063 217.064 164.879C217.041 164.694 216.842 164.563 216.657 164.588L216.651 164.589Z" fill="white"/>
<path d="M208.579 166.415L208.56 166.07C208.741 166.025 208.928 166.133 208.974 166.314C209.021 166.496 208.911 166.681 208.729 166.728L208.659 166.745L208.579 166.755C208.426 166.755 208.287 166.651 208.249 166.495C208.205 166.313 208.317 166.129 208.5 166.085L208.579 166.415Z" fill="white"/>
<path d="M228.742 164.52C228.753 164.332 228.884 164.19 229.067 164.199L229.135 164.203C229.322 164.214 229.465 164.375 229.454 164.561C229.443 164.742 229.293 164.881 229.115 164.881L229.095 164.881C228.908 164.87 228.731 164.707 228.742 164.52Z" fill="white"/>
<path d="M179.423 181.87C179.49 181.946 179.584 181.984 179.678 181.984C179.757 181.984 179.838 181.957 179.902 181.899L179.955 181.853C180.094 181.727 180.106 181.512 179.981 181.373C179.854 181.232 179.64 181.221 179.5 181.348L179.678 181.645L179.453 181.39C179.312 181.514 179.299 181.729 179.423 181.87Z" fill="white"/>
<path d="M220.494 164.568C220.484 164.382 220.592 164.223 220.78 164.212L220.848 164.208C221.033 164.196 221.196 164.339 221.206 164.526C221.217 164.714 221.075 164.875 220.887 164.886L220.867 164.886C220.686 164.886 220.505 164.749 220.494 164.568Z" fill="white"/>
<path d="M193.419 172.543C193.586 172.457 193.652 172.252 193.566 172.085C193.479 171.918 193.273 171.854 193.108 171.939L193.044 171.972C192.879 172.061 192.847 172.25 192.933 172.415C192.991 172.526 193.116 172.585 193.244 172.585L193.419 172.543Z" fill="white"/>
<path d="M189.619 174.643C189.503 174.643 189.391 174.585 189.327 174.479C189.23 174.319 189.282 174.109 189.443 174.013L189.618 174.304L189.497 173.98C189.657 173.88 189.865 173.931 189.965 174.09C190.063 174.249 190.014 174.459 189.855 174.557L189.793 174.595L189.619 174.643Z" fill="white"/>
<path d="M193.085 293.534L193.144 293.565L193.303 293.605C193.424 293.605 193.542 293.54 193.603 293.425C193.691 293.26 193.629 293.054 193.463 292.965L193.401 292.933C193.234 292.845 193.029 292.91 192.942 293.076C192.855 293.242 192.919 293.447 193.085 293.534Z" fill="white"/>
<path d="M182.632 178.733L182.687 178.689C182.836 178.574 183.049 178.602 183.164 178.749C183.279 178.897 183.252 179.111 183.104 179.225C183.037 179.278 182.95 179.306 182.864 179.306C182.763 179.306 182.664 179.267 182.602 179.188C182.486 179.041 182.485 178.849 182.632 178.733Z" fill="white"/>
<path d="M186.023 176.232L185.966 176.271C185.812 176.378 185.802 176.57 185.909 176.724C185.971 176.813 186.078 176.857 186.187 176.857C186.265 176.857 186.344 176.835 186.409 176.79C186.563 176.683 186.601 176.472 186.495 176.318C186.388 176.163 186.177 176.124 186.023 176.232Z" fill="white"/>
<path d="M197.093 294.737L197.157 294.765C197.328 294.843 197.404 295.044 197.327 295.215C197.27 295.34 197.147 295.415 197.017 295.415L196.878 295.385L196.817 295.358C196.645 295.281 196.569 295.08 196.645 294.909C196.721 294.738 196.922 294.66 197.093 294.737Z" fill="white"/>
<path d="M196.905 170.46L196.765 170.151C196.593 170.229 196.517 170.429 196.595 170.6C196.652 170.726 196.775 170.8 196.905 170.8L197.044 170.77L197.107 170.742C197.278 170.663 197.353 170.462 197.275 170.291C197.196 170.121 196.994 170.045 196.824 170.124L196.905 170.46Z" fill="white"/>
<path d="M204.644 298.327L204.581 298.308C204.401 298.253 204.3 298.063 204.354 297.884C204.408 297.705 204.598 297.602 204.778 297.658L204.844 297.678C205.023 297.733 205.124 297.923 205.069 298.103C205.024 298.249 204.889 298.342 204.744 298.342L204.644 298.327Z" fill="white"/>
<path d="M200.39 168.998C200.441 169.134 200.571 169.218 200.708 169.218L200.827 169.197L200.897 169.17C201.071 169.101 201.156 168.903 201.087 168.729C201.017 168.555 200.819 168.47 200.646 168.538L200.708 168.879L200.588 168.56C200.413 168.627 200.324 168.822 200.39 168.998Z" fill="white"/>
<path d="M200.716 296.975L200.652 296.951C200.476 296.886 200.387 296.69 200.453 296.514C200.519 296.339 200.715 296.248 200.89 296.316L200.954 296.339C201.129 296.405 201.218 296.601 201.153 296.777C201.101 296.913 200.972 296.997 200.834 296.997L200.716 296.975Z" fill="white"/>
<path d="M204.282 167.626C204.327 167.772 204.461 167.866 204.606 167.866L204.706 167.851L204.776 167.829C204.954 167.772 205.051 167.581 204.994 167.402C204.937 167.224 204.747 167.126 204.566 167.183L204.606 167.526L204.507 167.202C204.327 167.257 204.227 167.448 204.282 167.626Z" fill="white"/>
<path d="M237.244 165.856L237.176 165.843C236.991 165.81 236.869 165.633 236.902 165.448C236.936 165.263 237.116 165.139 237.298 165.175L237.237 165.509L237.362 165.187C237.546 165.219 237.67 165.395 237.638 165.58C237.608 165.745 237.465 165.861 237.304 165.861L237.244 165.856Z" fill="white"/>
<path d="M256.538 172.487L256.606 172.522L256.758 172.558C256.882 172.558 257.002 172.489 257.062 172.37C257.145 172.203 257.077 171.999 256.91 171.915L256.857 171.887C256.691 171.8 256.486 171.862 256.398 172.027C256.31 172.192 256.372 172.398 256.538 172.487Z" fill="white"/>
<path d="M288.566 208.506C288.499 208.33 288.588 208.134 288.764 208.068C288.939 208.003 289.136 208.091 289.201 208.267L288.883 208.386L289.225 208.329C289.291 208.504 289.204 208.7 289.028 208.767L288.907 208.789C288.771 208.789 288.641 208.706 288.59 208.571L288.566 208.506Z" fill="white"/>
<path d="M267.299 178.63C267.153 178.516 266.967 178.563 266.852 178.708C266.736 178.854 266.786 179.087 266.931 179.204C266.994 179.255 267.07 179.28 267.145 179.28C267.243 179.28 267.342 179.237 267.409 179.153C267.526 179.007 267.504 178.794 267.358 178.676L267.299 178.63Z" fill="white"/>
<path d="M263.57 176.733C263.416 176.626 263.378 176.415 263.485 176.261C263.593 176.106 263.804 176.07 263.958 176.176L263.764 176.455L264.011 176.212C264.165 176.317 264.206 176.528 264.101 176.684C264.036 176.781 263.928 176.833 263.82 176.833C263.754 176.833 263.688 176.814 263.629 176.774L263.57 176.733Z" fill="white"/>
<path d="M252.903 170.718L253.043 170.749C253.172 170.749 253.295 170.674 253.353 170.548C253.429 170.378 253.353 170.177 253.183 170.099L253.121 170.071C252.95 169.993 252.78 170.083 252.702 170.256C252.625 170.426 252.732 170.641 252.903 170.718Z" fill="white"/>
<path d="M249.169 296.315C249.344 296.248 249.541 296.338 249.606 296.514C249.672 296.69 249.583 296.885 249.407 296.95L249.288 296.633L249.348 296.974L249.225 296.997C249.089 296.997 248.96 296.914 248.909 296.78C248.84 296.605 248.927 296.408 249.102 296.34L249.169 296.315Z" fill="white"/>
<path d="M260.533 173.961L260.473 173.923C260.311 173.827 260.133 173.895 260.036 174.054C259.938 174.214 260.017 174.44 260.175 174.538C260.231 174.573 260.292 174.589 260.354 174.589C260.468 174.589 260.578 174.532 260.643 174.429C260.742 174.269 260.693 174.06 260.533 173.961Z" fill="white"/>
<path d="M280.923 194.033C280.819 193.879 280.859 193.667 281.014 193.562C281.169 193.456 281.381 193.497 281.486 193.652L281.205 193.843L281.518 193.698C281.628 193.85 281.595 194.063 281.443 194.173C281.383 194.217 281.313 194.238 281.243 194.238C281.138 194.238 281.035 194.19 280.968 194.098L280.923 194.033Z" fill="white"/>
<path d="M278.564 190.286C278.418 190.401 278.412 190.64 278.527 190.789C278.593 190.874 278.694 190.92 278.795 190.92C278.868 190.92 278.941 190.896 279.003 190.848C279.152 190.733 279.178 190.52 279.063 190.371L279.019 190.316C278.903 190.169 278.71 190.17 278.564 190.286Z" fill="white"/>
<path d="M241.339 166.72L241.258 166.709C241.077 166.665 240.932 166.474 240.976 166.292C241.02 166.11 241.168 165.987 241.353 166.033L241.419 166.05C241.601 166.094 241.713 166.277 241.669 166.459C241.631 166.615 241.492 166.72 241.339 166.72Z" fill="white"/>
<path d="M270.012 181.311C269.886 181.451 269.897 181.666 270.037 181.791L270.092 181.84C270.156 181.896 270.236 181.923 270.315 181.923C270.41 181.923 270.504 181.883 270.571 181.806C270.694 181.664 270.679 181.449 270.537 181.326L270.264 181.538L270.492 181.286C270.353 181.161 270.138 181.172 270.012 181.311Z" fill="white"/>
<path d="M275.897 187.638C275.773 187.498 275.763 187.258 275.902 187.134C276.042 187.011 276.233 186.996 276.358 187.135L276.406 187.189C276.53 187.33 276.517 187.544 276.376 187.668C276.311 187.725 276.231 187.753 276.151 187.753C276.057 187.753 275.963 187.714 275.897 187.638Z" fill="white"/>
<path d="M273.056 184.147C272.924 184.281 272.947 184.519 273.08 184.652C273.146 184.718 273.233 184.751 273.32 184.751C273.407 184.751 273.494 184.718 273.56 184.652C273.693 184.519 273.693 184.304 273.56 184.171L273.513 184.124C273.38 183.991 273.189 184.015 273.056 184.147Z" fill="white"/>
<path d="M212.628 300.287C212.444 300.254 212.321 300.077 212.354 299.893C212.387 299.708 212.561 299.587 212.749 299.618C212.933 299.651 213.089 299.834 213.056 300.018C213.026 300.183 212.909 300.304 212.753 300.304L212.695 300.299L212.628 300.287Z" fill="white"/>
<path d="M220.896 300.602C220.707 300.58 220.548 300.734 220.537 300.921C220.526 301.108 220.669 301.27 220.856 301.28L220.924 301.284L220.944 301.284C221.12 301.284 221.239 301.143 221.249 300.963C221.26 300.776 221.084 300.613 220.896 300.602Z" fill="white"/>
<path d="M208.575 299.42C208.392 299.376 208.28 299.192 208.325 299.01C208.369 298.827 208.552 298.719 208.734 298.76C208.917 298.804 209.062 298.995 209.018 299.178C208.98 299.334 208.863 299.444 208.715 299.444L208.641 299.436L208.575 299.42Z" fill="white"/>
<path d="M216.834 300.918C217.004 300.918 217.151 300.792 217.171 300.619C217.194 300.432 217.061 300.263 216.875 300.241L216.807 300.233C216.621 300.205 216.452 300.345 216.43 300.531C216.408 300.717 216.541 300.885 216.727 300.908L216.834 300.578L216.794 300.915L216.834 300.918Z" fill="white"/>
<path d="M244.999 298.098C244.945 297.919 245.047 297.729 245.226 297.675C245.404 297.62 245.627 297.712 245.682 297.89C245.737 298.069 245.669 298.249 245.491 298.305L245.423 298.325L245.325 298.34C245.179 298.34 245.044 298.246 244.999 298.098Z" fill="white"/>
<path d="M249.344 168.51L249.281 168.487C249.106 168.421 248.909 168.509 248.843 168.685C248.777 168.861 248.866 169.057 249.041 169.123L249.105 169.146L249.225 169.168C249.362 169.168 249.491 169.084 249.543 168.948C249.609 168.772 249.52 168.576 249.344 168.51Z" fill="white"/>
<path d="M244.954 167.372C245.009 167.194 245.168 167.08 245.349 167.137L245.422 167.159C245.6 167.217 245.698 167.41 245.639 167.588C245.592 167.731 245.458 167.822 245.316 167.822L245.21 167.805C245.03 167.751 244.9 167.552 244.954 167.372Z" fill="white"/>
<path d="M237.255 299.629C237.07 299.661 236.947 299.837 236.979 300.022C237.008 300.186 237.152 300.303 237.313 300.303L237.373 300.297L237.441 300.286C237.625 300.252 237.715 300.082 237.682 299.897C237.649 299.713 237.436 299.595 237.255 299.629Z" fill="white"/>
<path d="M225.067 300.724C225.256 300.724 225.407 300.876 225.407 301.063C225.407 301.252 225.256 301.403 225.067 301.403V301.063L225.049 301.403L225 301.064V300.724L225.067 300.724Z" fill="white"/>
<path d="M241.268 298.773C241.086 298.818 240.974 299.001 241.018 299.184C241.055 299.339 241.195 299.443 241.348 299.443L241.428 299.434L241.494 299.417C241.676 299.373 241.756 299.197 241.711 299.015C241.667 298.832 241.452 298.732 241.268 298.773Z" fill="white"/>
<path d="M232.897 300.619C232.874 300.433 233.007 300.263 233.192 300.241L233.261 300.233C233.443 300.204 233.616 300.345 233.638 300.53C233.66 300.717 233.526 300.885 233.34 300.907L233.3 300.57L233.274 300.915L233.233 300.918C233.064 300.918 232.917 300.791 232.897 300.619Z" fill="white"/>
<path d="M228.786 300.965C228.797 301.145 228.945 301.284 229.125 301.284L229.145 301.283L229.212 301.28C229.399 301.269 229.509 301.11 229.498 300.923C229.487 300.736 229.299 300.584 229.105 300.605C228.918 300.616 228.774 300.777 228.786 300.965Z" fill="white"/>
<path d="M189.994 291.414C189.93 291.518 189.819 291.575 189.706 291.575L189.527 291.524L189.706 291.235L189.479 291.494C189.316 291.401 189.26 291.193 189.354 291.03C189.447 290.868 189.655 290.812 189.818 290.905L189.885 290.947C190.045 291.045 190.093 291.255 189.994 291.414Z" fill="white"/>
<path d="M161.153 257.374L161.273 257.352C161.448 257.287 161.537 257.091 161.471 256.915L161.444 256.844C161.374 256.67 161.176 256.587 161.002 256.656C160.828 256.726 160.744 256.924 160.814 257.098L161.153 257.035L160.835 257.154C160.886 257.29 161.016 257.374 161.153 257.374Z" fill="white"/>
<path d="M166.248 268.244C166.151 268.082 166.202 267.874 166.363 267.777C166.522 267.679 166.732 267.731 166.829 267.892C166.926 268.053 166.892 268.291 166.731 268.387C166.668 268.425 166.6 268.445 166.535 268.445C166.435 268.445 166.342 268.398 166.282 268.301L166.248 268.244Z" fill="white"/>
<path d="M185.907 288.756C185.798 288.909 185.833 289.12 185.986 289.23L186.049 289.273L186.214 289.326C186.319 289.326 186.421 289.267 186.49 289.167C186.596 289.014 186.532 288.785 186.381 288.677C186.229 288.569 186.016 288.604 185.907 288.756Z" fill="white"/>
<path d="M162.397 260.915C162.319 260.744 162.395 260.543 162.566 260.465C162.737 260.387 162.939 260.464 163.015 260.635C163.093 260.806 163.031 261.038 162.86 261.115L162.698 261.152C162.582 261.152 162.477 261.094 162.424 260.977L162.397 260.915Z" fill="white"/>
<path d="M253.03 295.422L253.171 295.393L253.232 295.365C253.402 295.287 253.448 295.1 253.371 294.929C253.294 294.758 253.062 294.696 252.89 294.773C252.72 294.851 252.644 295.052 252.72 295.223C252.777 295.348 252.901 295.422 253.03 295.422Z" fill="white"/>
<path d="M159.906 253.459L159.805 253.474C159.66 253.474 159.526 253.382 159.481 253.236L159.805 253.134L159.46 253.173C159.404 252.994 159.502 252.803 159.682 252.746C159.86 252.69 160.051 252.788 160.108 252.967L160.129 253.033C160.184 253.212 160.085 253.403 159.906 253.459Z" fill="white"/>
<path d="M171.265 275.243C171.338 275.243 171.411 275.22 171.474 275.172C171.621 275.057 171.648 274.843 171.533 274.695L171.487 274.637C171.369 274.492 171.155 274.468 171.01 274.587C170.864 274.704 170.841 274.918 170.959 275.064L171.265 274.903L170.997 275.112C171.064 275.198 171.164 275.243 171.265 275.243Z" fill="white"/>
<path d="M176.451 281.265C176.319 281.132 176.319 280.917 176.451 280.784C176.585 280.651 176.799 280.651 176.932 280.784C177.065 280.917 177.089 281.155 176.956 281.289C176.883 281.361 176.794 281.401 176.706 281.401C176.632 281.401 176.559 281.373 176.5 281.312L176.451 281.265Z" fill="white"/>
<path d="M179.745 284.24C179.838 284.24 179.93 284.203 179.997 284.128C180.123 283.989 180.111 283.774 179.972 283.648L179.916 283.598C179.773 283.476 179.559 283.491 179.437 283.634C179.315 283.776 179.33 283.99 179.472 284.113L179.745 283.9L179.517 284.153C179.582 284.211 179.664 284.24 179.745 284.24Z" fill="white"/>
<path d="M168.497 271.721C168.392 271.566 168.433 271.355 168.588 271.249C168.743 271.145 168.954 271.185 169.06 271.34C169.165 271.494 169.144 271.732 168.991 271.839C168.924 271.884 168.85 271.908 168.779 271.908C168.686 271.908 168.599 271.867 168.539 271.781L168.497 271.721Z" fill="white"/>
<path d="M182.595 286.291C182.478 286.438 182.503 286.652 182.65 286.768L182.706 286.812C182.763 286.855 182.825 286.876 182.887 286.876C182.986 286.876 183.084 286.823 183.155 286.732C183.27 286.586 183.219 286.352 183.072 286.236C182.925 286.119 182.712 286.144 182.595 286.291Z" fill="white"/>
<path d="M173.608 278.241C173.485 278.099 173.5 277.885 173.642 277.762C173.784 277.639 173.999 277.656 174.121 277.797C174.244 277.938 174.251 278.176 174.112 278.299C174.041 278.362 173.956 278.396 173.874 278.396C173.795 278.396 173.718 278.365 173.657 278.297L173.608 278.241Z" fill="white"/>
<path d="M256.736 293.618L256.887 293.582L256.956 293.547C257.119 293.46 257.153 293.271 257.068 293.107C256.982 292.942 256.751 292.89 256.584 292.974C256.416 293.059 256.348 293.262 256.432 293.43C256.492 293.549 256.612 293.618 256.736 293.618Z" fill="white"/>
<path d="M164.21 264.636C164.124 264.469 164.189 264.264 164.356 264.178C164.521 264.091 164.727 264.158 164.814 264.324C164.899 264.49 164.851 264.724 164.685 264.81L164.506 264.857C164.398 264.857 164.3 264.806 164.243 264.7L164.21 264.636Z" fill="white"/>
<path d="M281.497 271.818L281.539 271.756C281.644 271.601 281.586 271.42 281.433 271.314C281.279 271.206 281.052 271.273 280.943 271.423C280.834 271.576 280.87 271.787 281.022 271.898C281.082 271.94 281.151 271.96 281.22 271.96C281.325 271.96 281.43 271.91 281.497 271.818Z" fill="white"/>
<path d="M283.216 267.921C283.316 267.761 283.526 267.714 283.684 267.811C283.843 267.91 283.892 268.12 283.794 268.279L283.505 268.1L283.763 268.33C283.699 268.437 283.586 268.498 283.47 268.498L283.298 268.451C283.136 268.356 283.082 268.148 283.176 267.986L283.216 267.921Z" fill="white"/>
<path d="M287.321 261.192C287.451 261.192 287.574 261.117 287.631 260.992L287.659 260.93C287.736 260.759 287.646 260.589 287.475 260.512C287.301 260.434 287.088 260.542 287.011 260.712C286.935 260.884 287.011 261.084 287.181 261.162L287.321 261.192Z" fill="white"/>
<path d="M285.805 264.724C285.744 264.839 285.627 264.904 285.505 264.904L285.345 264.864C285.18 264.775 285.117 264.57 285.205 264.404C285.294 264.239 285.516 264.146 285.681 264.234C285.846 264.322 285.925 264.498 285.837 264.664L285.805 264.724Z" fill="white"/>
<path d="M288.909 257.376C289.046 257.376 289.176 257.291 289.227 257.155L289.25 257.092C289.317 256.916 289.228 256.721 289.052 256.655C288.878 256.586 288.68 256.677 288.614 256.853L288.591 256.917C288.525 257.092 288.613 257.289 288.789 257.354L288.909 257.376Z" fill="white"/>
<path d="M290.584 253.231C290.538 253.377 290.404 253.469 290.259 253.469L290.158 253.454C289.979 253.398 289.88 253.207 289.935 253.028C289.99 252.849 290.187 252.715 290.368 252.771C290.548 252.825 290.659 252.984 290.605 253.163L290.584 253.231Z" fill="white"/>
<path d="M276.395 277.808C276.257 277.682 276.043 277.691 275.915 277.827L275.861 277.888C275.74 278.032 275.757 278.246 275.901 278.367C275.964 278.421 276.043 278.448 276.12 278.448C276.216 278.448 276.312 278.407 276.38 278.327L276.165 278.058L276.415 278.288C276.542 278.15 276.533 277.935 276.395 277.808Z" fill="white"/>
<path d="M266.956 286.262C267.101 286.147 267.316 286.173 267.432 286.322C267.547 286.47 267.521 286.684 267.372 286.799L267.164 286.531L267.325 286.837C267.261 286.888 267.185 286.912 267.111 286.912C267.012 286.912 266.914 286.869 266.846 286.786C266.729 286.64 266.751 286.426 266.897 286.308L266.956 286.262Z" fill="white"/>
<path d="M270.5 284.193L270.561 284.139C270.697 284.013 270.683 283.825 270.561 283.686C270.439 283.549 270.204 283.555 270.061 283.674C269.918 283.796 269.9 284.01 270.021 284.154C270.088 284.232 270.184 284.273 270.281 284.273C270.358 284.273 270.437 284.247 270.5 284.193Z" fill="white"/>
<path d="M279.077 275.096L279.031 275.154C278.964 275.237 278.866 275.28 278.767 275.28C278.692 275.28 278.617 275.256 278.554 275.205C278.408 275.087 278.385 274.873 278.504 274.727C278.619 274.582 278.852 274.53 279 274.648C279.146 274.763 279.192 274.949 279.077 275.096Z" fill="white"/>
<path d="M264.124 288.788C264.019 288.632 263.807 288.593 263.652 288.697L263.589 288.74C263.437 288.849 263.402 289.061 263.51 289.214C263.577 289.307 263.682 289.356 263.787 289.356C263.855 289.356 263.925 289.335 263.985 289.293L263.843 288.978L264.033 289.259C264.188 289.154 264.229 288.942 264.124 288.788Z" fill="white"/>
<path d="M176.437 184.236L176.484 184.188C176.617 184.056 176.832 184.056 176.965 184.188C177.097 184.321 177.097 184.536 176.965 184.669C176.893 184.741 176.789 184.781 176.687 184.781C176.603 184.781 176.521 184.753 176.46 184.693C176.328 184.56 176.304 184.369 176.437 184.236Z" fill="white"/>
<path d="M260.497 291.547L260.561 291.508C260.72 291.409 260.741 291.22 260.644 291.061C260.549 290.902 260.314 290.866 260.153 290.961C259.991 291.056 259.936 291.264 260.032 291.426C260.095 291.534 260.209 291.594 260.325 291.594L260.497 291.547Z" fill="white"/>
<path d="M273.576 281.3L273.528 281.348C273.462 281.414 273.375 281.447 273.288 281.447C273.201 281.447 273.114 281.414 273.048 281.348C272.915 281.215 272.915 281 273.048 280.868C273.181 280.734 273.42 280.711 273.552 280.843C273.685 280.976 273.709 281.167 273.576 281.3Z" fill="white"/>
<path d="M168.568 194.259C168.627 194.3 168.695 194.32 168.761 194.32C168.87 194.32 168.975 194.269 169.041 194.174L169.082 194.115C169.187 193.96 169.147 193.748 168.992 193.643C168.837 193.538 168.626 193.579 168.52 193.733L168.763 193.98L168.484 193.786C168.376 193.94 168.415 194.151 168.568 194.259Z" fill="white"/>
<path d="M170.942 190.446L170.985 190.39C171.102 190.244 171.316 190.219 171.462 190.335C171.609 190.452 171.634 190.666 171.518 190.812C171.445 190.904 171.327 190.958 171.212 190.958C171.143 190.958 171.076 190.939 171.021 190.895C170.874 190.78 170.827 190.594 170.942 190.446Z" fill="white"/>
<path d="M166.266 197.213L166.23 197.273C166.134 197.433 166.202 197.612 166.363 197.709L166.518 197.752C166.646 197.752 166.778 197.679 166.847 197.567C166.944 197.406 166.893 197.197 166.733 197.1C166.573 197.002 166.364 197.052 166.266 197.213Z" fill="white"/>
<path d="M160.787 208.461L160.811 208.397C160.877 208.221 161.073 208.133 161.248 208.198C161.424 208.264 161.512 208.46 161.447 208.636L161.423 208.699C161.372 208.836 161.242 208.92 161.105 208.92L160.986 208.898C160.81 208.832 160.721 208.637 160.787 208.461Z" fill="white"/>
<path d="M164.331 201.345L164.491 201.385C164.613 201.385 164.73 201.32 164.791 201.205L164.826 201.139C164.911 200.972 164.844 200.768 164.677 200.683C164.509 200.597 164.305 200.664 164.22 200.832L164.492 201.046L164.191 200.886C164.103 201.051 164.166 201.257 164.331 201.345Z" fill="white"/>
<path d="M162.374 204.621L162.401 204.561C162.478 204.39 162.68 204.313 162.85 204.388C163.022 204.464 163.098 204.666 163.022 204.837L162.994 204.901C162.937 205.026 162.813 205.1 162.684 205.1L162.544 205.07C162.373 204.993 162.297 204.792 162.374 204.621Z" fill="white"/>
<path d="M173.857 187.788C173.966 187.788 174.078 187.739 174.15 187.657C174.275 187.517 174.261 187.302 174.12 187.178C173.98 187.054 173.766 187.067 173.641 187.208L173.596 187.258C173.472 187.399 173.508 187.589 173.648 187.712C173.707 187.764 173.781 187.788 173.857 187.788Z" fill="white"/>
<path fill-rule="evenodd" clip-rule="evenodd" d="M343.562 210.423C343.002 210.953 342.302 211.345 341.478 211.655H376.874V213.013H251.315V211.655H294.711C292.055 202.739 287.727 194.54 282.098 187.411L283.193 186.608C285.454 189.475 287.508 192.512 289.333 195.696C289.839 195.264 290.381 194.862 290.993 194.517C292.171 193.893 293.456 193.452 294.853 193.122C296.249 192.827 297.496 192.68 298.671 192.68C299.334 192.68 299.959 192.717 300.583 192.754C301.207 192.827 301.831 192.938 302.419 193.084C304.184 191.946 306.572 191.395 309.544 191.395C312.227 191.395 314.983 192.13 317.811 193.599C319.501 194.481 321.263 195.472 322.992 196.538C323.805 197.037 324.6 197.554 325.403 198.077L325.404 198.078L325.409 198.081C325.728 198.288 326.047 198.497 326.37 198.705C328.592 200.195 330.812 201.664 333.049 203.143L333.051 203.145C333.736 203.598 334.423 204.053 335.113 204.509C338.088 206.419 341.027 207.889 343.966 208.881C344.26 208.44 344.445 207.925 344.553 207.374C344.663 206.786 344.591 206.162 344.408 205.429L344.885 205.208C345.032 205.832 345.105 206.493 345.068 207.118C345.068 207.743 344.921 208.366 344.628 208.954C346.279 209.504 347.933 209.762 349.623 209.762C352.819 209.762 355.137 209.101 356.675 207.779C358.22 206.419 358.993 204.803 358.993 202.893C358.993 202.121 358.699 201.35 358.109 200.652C357.557 199.881 356.786 199.182 355.868 198.558C354.951 197.934 353.885 197.383 352.673 196.979C351.459 196.575 350.211 196.39 348.888 196.39C346.648 196.39 344.591 196.758 342.717 197.567C340.807 198.375 339.153 199.403 337.76 200.689C338.236 199.806 338.896 198.962 339.743 198.229C340.622 197.492 341.541 196.831 342.533 196.28C343.562 195.766 344.591 195.326 345.618 195.068C346.648 194.774 347.603 194.664 348.485 194.664C349.843 194.664 351.203 194.885 352.526 195.326C353.885 195.766 355.096 196.317 356.162 197.089C357.228 197.824 358.074 198.705 358.773 199.734C359.468 200.725 359.797 201.827 359.797 202.967C359.797 204.435 359.396 205.685 358.623 206.713C357.817 207.706 356.824 208.55 355.65 209.174C354.472 209.8 353.189 210.241 351.789 210.571C350.395 210.864 349.146 211.01 348.007 211.01C347.271 211.01 346.575 210.974 345.839 210.901C345.068 210.79 344.333 210.644 343.562 210.423ZM298.158 209.028C297.163 209.028 296.168 208.9 295.187 208.676C295.521 209.659 295.831 210.653 296.123 211.655H332.672C331.343 211.261 329.989 210.706 328.612 209.983C326.774 208.991 324.901 207.925 322.992 206.749C322.593 206.489 322.189 206.228 321.782 205.965C321.101 205.525 320.412 205.08 319.722 204.62C316.708 202.6 313.696 200.652 310.609 198.705C307.562 196.758 304.548 195.399 301.536 194.591C300.544 195.436 300.253 196.501 300.617 197.787L300.141 198.008C299.811 196.758 300.067 195.546 300.95 194.407L300.694 194.364L300.693 194.364C300.116 194.268 299.544 194.173 299.001 194.076C298.342 193.966 297.68 193.929 297.021 193.929C293.861 193.929 291.51 194.591 289.966 195.913C289.849 196.019 289.741 196.127 289.635 196.237C291.541 199.627 293.19 203.182 294.55 206.875C295.566 207.171 296.631 207.338 297.753 207.338C299.993 207.338 302.051 206.933 303.964 206.126C305.835 205.355 307.489 204.289 308.92 202.967C308.409 203.921 307.746 204.729 306.9 205.464C306.055 206.199 305.137 206.86 304.109 207.412C303.116 207.963 302.088 208.366 301.025 208.624C299.993 208.917 299.039 209.028 298.158 209.028ZM308.001 192.46C307.342 192.46 306.606 192.497 305.8 192.643C304.954 192.79 304.184 193.012 303.412 193.342C305.431 193.929 307.489 194.774 309.617 195.877C311.712 196.979 313.808 198.191 315.863 199.513C317.959 200.835 320.014 202.195 322.071 203.59C322.368 203.811 322.697 204.031 322.992 204.215C324.716 205.355 326.37 206.419 327.988 207.374C329.898 208.476 331.77 209.395 333.568 210.167C335.372 210.901 337.062 211.269 338.639 211.269C340.072 211.269 341.393 210.901 342.571 210.203C339.595 209.247 336.546 207.816 333.46 205.832C330.923 204.23 328.409 202.604 325.921 200.994L325.908 200.986C325.375 200.641 324.843 200.297 324.312 199.954C323.943 199.708 323.575 199.462 323.207 199.216L322.992 199.072C320.456 197.456 318.034 195.987 315.679 194.701C312.889 193.195 310.354 192.46 308.001 192.46Z" fill="white"/>
<path fill-rule="evenodd" clip-rule="evenodd" d="M322.098 249.02H332.363C330.761 249.409 329.125 250.04 327.452 250.918C325.614 251.909 323.741 252.975 321.832 254.151C321.434 254.412 321.03 254.673 320.623 254.936L320.619 254.938C319.939 255.377 319.251 255.822 318.563 256.281C315.549 258.301 312.537 260.249 309.45 262.196C306.403 264.142 303.388 265.502 300.377 266.31C299.384 265.466 299.093 264.4 299.457 263.114L298.982 262.893C298.652 264.142 298.907 265.355 299.79 266.494L299.534 266.536C298.958 266.633 298.385 266.728 297.842 266.824C297.182 266.935 296.52 266.971 295.861 266.971C293.889 266.971 292.238 266.708 290.897 266.192C292.96 262.189 294.656 257.969 295.969 253.585C296.175 253.572 296.383 253.563 296.594 253.563C298.834 253.563 300.892 253.967 302.804 254.775C304.676 255.546 306.329 256.612 307.761 257.934C307.25 256.98 306.586 256.172 305.741 255.437C304.896 254.702 303.978 254.041 302.949 253.489C301.957 252.938 300.928 252.534 299.866 252.277C298.834 251.983 297.88 251.873 296.999 251.873C296.821 251.873 296.643 251.879 296.465 251.888C296.724 250.94 296.961 249.983 297.184 249.02H306.982V247.661H251.316V249.02H295.791C288.244 281.106 259.388 305.069 225.032 305.069C190.675 305.069 161.824 281.106 154.276 249.02H190.723V247.661H82.021V249.02H107.989C107.957 249.029 107.924 249.037 107.891 249.045C107.844 249.057 107.797 249.069 107.755 249.082C106.725 249.412 105.88 249.852 105.22 250.477C104.449 250.256 103.714 250.11 102.943 250C102.207 249.926 101.51 249.89 100.775 249.89C99.636 249.89 98.3873 250.036 96.9926 250.33C95.593 250.66 94.3097 251.102 93.1316 251.727C91.9583 252.35 90.9651 253.195 90.1586 254.188C89.3855 255.216 88.9847 256.465 88.9847 257.934C88.9847 259.073 89.3135 260.175 90.0092 261.167C90.7083 262.196 91.5534 263.077 92.6207 263.812C93.686 264.583 94.8967 265.134 96.2561 265.576C97.5789 266.016 98.939 266.237 100.297 266.237C101.179 266.237 102.134 266.127 103.163 265.833C104.191 265.576 105.22 265.134 106.248 264.621C107.241 264.07 108.16 263.409 109.039 262.672C109.886 261.938 110.546 261.095 111.022 260.212C109.629 261.497 107.975 262.526 106.065 263.334C104.191 264.142 102.134 264.51 99.8935 264.51C98.5708 264.51 97.3234 264.326 96.1094 263.921C94.8967 263.518 93.8314 262.968 92.9142 262.343C91.9964 261.718 91.2246 261.021 90.6729 260.249C90.0826 259.55 89.7891 258.779 89.7891 258.007C89.7891 256.098 90.5615 254.481 92.1064 253.122C93.6452 251.799 95.9626 251.138 99.1591 251.138C100.849 251.138 102.503 251.396 104.154 251.947C103.86 252.534 103.714 253.158 103.714 253.784C103.677 254.407 103.75 255.068 103.897 255.693L104.374 255.472C104.191 254.738 104.119 254.115 104.229 253.526C104.337 252.975 104.521 252.461 104.816 252.02C107.755 253.011 110.694 254.481 113.669 256.391C114.412 256.883 115.152 257.373 115.89 257.861L115.897 257.866L115.903 257.87C118.082 259.312 120.246 260.743 122.412 262.196C122.736 262.405 123.057 262.614 123.377 262.822L123.38 262.824C124.183 263.347 124.978 263.864 125.79 264.362C127.519 265.428 129.281 266.42 130.971 267.301C133.799 268.771 136.555 269.505 139.238 269.505C142.21 269.505 144.598 268.954 146.363 267.816C146.951 267.962 147.575 268.074 148.199 268.147C148.823 268.184 149.448 268.221 150.111 268.221C151.285 268.221 152.533 268.074 153.93 267.779C155.326 267.449 156.611 267.008 157.789 266.384C158.184 266.161 158.55 265.915 158.902 265.658C171.11 289.818 196.163 306.428 225.032 306.428C253.465 306.428 278.195 290.313 290.598 266.743C291.563 267.179 292.59 267.519 293.694 267.779C295.09 268.074 296.337 268.221 297.512 268.221C298.175 268.221 298.8 268.184 299.423 268.147C300.048 268.074 300.671 267.962 301.26 267.816C303.024 268.954 305.412 269.505 308.385 269.505C311.067 269.505 313.824 268.771 316.652 267.301C318.342 266.42 320.103 265.428 321.832 264.362C322.646 263.864 323.441 263.346 324.245 262.823L324.248 262.821C324.567 262.613 324.887 262.404 325.211 262.196C327.372 260.746 329.532 259.317 331.708 257.878L331.718 257.871L332.817 257.144C333.195 256.893 333.574 256.643 333.953 256.391C336.928 254.481 339.868 253.011 342.806 252.02C343.101 252.461 343.285 252.975 343.394 253.526C343.504 254.115 343.432 254.738 343.248 255.472L343.725 255.693C343.872 255.068 343.945 254.407 343.909 253.784C343.909 253.158 343.762 252.534 343.469 251.947C345.119 251.396 346.774 251.138 348.463 251.138C351.66 251.138 353.977 251.799 355.516 253.122C357.061 254.481 357.833 256.098 357.833 258.007C357.833 258.779 357.54 259.55 356.95 260.249C356.398 261.021 355.626 261.718 354.708 262.343C353.791 262.968 352.726 263.518 351.513 263.921C350.3 264.326 349.052 264.51 347.729 264.51C345.488 264.51 343.432 264.142 341.557 263.334C339.648 262.526 337.993 261.497 336.601 260.212C337.076 261.095 337.737 261.938 338.584 262.672C339.463 263.409 340.381 264.07 341.374 264.621C342.403 265.134 343.432 265.576 344.459 265.833C345.488 266.127 346.444 266.237 347.325 266.237C348.683 266.237 350.044 266.016 351.366 265.576C352.726 265.134 353.936 264.583 355.002 263.812C356.069 263.077 356.914 262.196 357.613 261.167C358.309 260.175 358.638 259.073 358.638 257.934C358.638 256.465 358.237 255.216 357.464 254.188C356.657 253.195 355.664 252.35 354.491 251.727C353.313 251.102 352.029 250.66 350.63 250.33C349.235 250.036 347.986 249.89 346.847 249.89C346.112 249.89 345.416 249.926 344.679 250C343.909 250.11 343.174 250.256 342.403 250.477C341.742 249.852 340.897 249.412 339.868 249.082C339.849 249.076 339.828 249.07 339.808 249.065L339.783 249.058L339.758 249.052L339.732 249.045C339.698 249.037 339.665 249.029 339.633 249.02H360.017V247.661H322.098V249.02ZM341.412 250.697C338.436 251.653 335.387 253.085 332.3 255.068C329.764 256.67 327.25 258.297 324.761 259.907L323.153 260.946C322.711 261.241 322.272 261.534 321.832 261.828C319.296 263.445 316.874 264.914 314.52 266.2C311.729 267.706 309.194 268.441 306.842 268.441C306.183 268.441 305.446 268.404 304.64 268.257C303.795 268.111 303.024 267.89 302.252 267.558C304.272 266.971 306.329 266.127 308.458 265.024C310.552 263.921 312.648 262.71 314.703 261.387C316.799 260.065 318.854 258.706 320.912 257.31C321.208 257.09 321.537 256.869 321.832 256.685C323.556 255.546 325.211 254.481 326.828 253.526C328.738 252.424 330.611 251.506 332.409 250.734C334.213 250 335.902 249.632 337.48 249.632C338.913 249.632 340.233 250 341.412 250.697ZM151.762 266.971C151.102 266.971 150.44 266.935 149.781 266.824C149.239 266.728 148.669 266.633 148.094 266.537L148.092 266.537L147.832 266.494C148.715 265.355 148.971 264.142 148.641 262.893L148.165 263.114C148.529 264.4 148.238 265.466 147.246 266.31C144.234 265.502 141.22 264.142 138.173 262.196C135.086 260.249 132.074 258.301 129.059 256.281C128.37 255.821 127.68 255.375 126.999 254.936L126.996 254.933C126.59 254.671 126.188 254.411 125.79 254.151C123.88 252.975 122.008 251.909 120.17 250.918C118.497 250.04 116.861 249.409 115.259 249.02H152.883C153.133 250.106 153.409 251.183 153.707 252.25C152.69 252.01 151.658 251.873 150.624 251.873C149.743 251.873 148.789 251.983 147.757 252.277C146.694 252.534 145.666 252.938 144.673 253.489C143.644 254.041 142.727 254.702 141.881 255.437C141.036 256.172 140.372 256.98 139.862 257.934C141.293 256.612 142.947 255.546 144.818 254.775C146.731 253.967 148.789 253.563 151.029 253.563C152.147 253.563 153.208 253.729 154.22 254.022C155.397 257.864 156.883 261.57 158.641 265.12C157.096 266.35 154.809 266.971 151.762 266.971ZM142.982 268.257C142.176 268.404 141.44 268.441 140.781 268.441C138.428 268.441 135.893 267.706 133.102 266.2C130.748 264.914 128.326 263.445 125.79 261.828L125.563 261.676C125.199 261.433 124.835 261.19 124.47 260.946C124.023 260.658 123.575 260.368 123.126 260.078L122.956 259.968L122.95 259.964C120.432 258.335 117.888 256.689 115.322 255.068C112.236 253.085 109.187 251.653 106.21 250.697C107.389 250 108.71 249.632 110.143 249.632C111.72 249.632 113.41 250 115.214 250.734C117.012 251.506 118.885 252.424 120.794 253.526C122.412 254.481 124.066 255.546 125.79 256.685C126.085 256.869 126.415 257.09 126.711 257.31C128.769 258.706 130.823 260.065 132.919 261.387C134.974 262.71 137.07 263.921 139.165 265.024C141.293 266.127 143.351 266.971 145.37 267.558C144.598 267.89 143.828 268.111 142.982 268.257Z" fill="white"/>
<path d="M256.542 220.774C256.211 221.407 255.982 222.299 255.858 223.45C255.733 224.601 255.671 226.1 255.671 227.947V231.058C255.671 232.884 255.754 234.368 255.92 235.508C256.086 236.65 256.351 237.536 256.713 238.169C257.077 238.802 257.533 239.232 258.083 239.46C258.633 239.688 259.291 239.803 260.059 239.803C260.909 239.803 261.651 239.674 262.284 239.414C262.916 239.155 263.471 238.818 263.949 238.402C264.426 237.987 264.825 237.515 265.147 236.987C265.468 236.457 265.733 235.928 265.94 235.4C266.147 234.87 266.314 234.362 266.438 233.875C266.562 233.388 266.656 232.978 266.718 232.645C266.781 232.376 266.884 232.24 267.029 232.24C267.195 232.24 267.279 232.376 267.279 232.645V239.74C267.279 239.968 267.226 240.083 267.123 240.083C267.018 240.083 266.895 239.979 266.749 239.771L265.505 237.998C265.359 238.184 265.142 238.413 264.851 238.682C264.56 238.952 264.192 239.212 263.746 239.46C263.3 239.709 262.771 239.922 262.159 240.098C261.547 240.274 260.847 240.362 260.059 240.362C258.337 240.362 256.828 240.051 255.531 239.429C254.234 238.807 253.156 237.987 252.295 236.971C251.434 235.955 250.786 234.798 250.35 233.501C249.915 232.205 249.697 230.872 249.697 229.503C249.697 228.133 249.915 226.796 250.35 225.489C250.786 224.182 251.434 223.02 252.295 222.003C253.156 220.987 254.234 220.167 255.531 219.545C256.828 218.922 258.348 218.611 260.09 218.611C261.272 218.611 262.242 218.783 262.999 219.125C263.757 219.467 264.374 219.877 264.851 220.354L266.034 219.171C266.179 218.985 266.334 218.891 266.501 218.891C266.749 218.891 266.874 219.058 266.874 219.389V224.897C266.874 225.104 266.801 225.208 266.656 225.208C266.49 225.208 266.376 225.104 266.314 224.897C266.003 224.005 265.66 223.206 265.287 222.501C264.914 221.796 264.483 221.194 263.995 220.696C263.507 220.198 262.964 219.82 262.362 219.56C261.76 219.301 261.075 219.171 260.307 219.171C259.332 219.171 258.544 219.281 257.943 219.498C257.341 219.716 256.874 220.141 256.542 220.774Z" fill="white"/>
<path fill-rule="evenodd" clip-rule="evenodd" d="M272.832 239.756C273.714 240.161 274.746 240.363 275.928 240.363C277.111 240.363 278.143 240.161 279.024 239.756C279.906 239.352 280.632 238.823 281.203 238.169C281.773 237.516 282.204 236.769 282.495 235.929C282.784 235.089 282.93 234.233 282.93 233.362C282.93 232.49 282.784 231.635 282.495 230.795C282.204 229.954 281.773 229.207 281.203 228.555C280.632 227.901 279.906 227.371 279.024 226.967C278.143 226.563 277.111 226.36 275.928 226.36C274.746 226.36 273.714 226.563 272.832 226.967C271.95 227.371 271.224 227.901 270.654 228.555C270.083 229.207 269.652 229.954 269.363 230.795C269.072 231.635 268.927 232.49 268.927 233.362C268.927 234.233 269.072 235.089 269.363 235.929C269.652 236.769 270.083 237.516 270.654 238.169C271.224 238.823 271.95 239.352 272.832 239.756ZM273.75 232.211C273.75 231.381 273.771 230.634 273.812 229.971C273.854 229.306 273.947 228.752 274.092 228.305C274.237 227.859 274.456 227.517 274.746 227.279C275.036 227.04 275.43 226.92 275.928 226.92C276.426 226.92 276.82 227.04 277.111 227.279C277.401 227.517 277.619 227.859 277.765 228.305C277.91 228.752 278.003 229.306 278.045 229.971C278.086 230.634 278.107 231.381 278.107 232.211V234.638C278.107 235.489 278.086 236.235 278.045 236.878C278.003 237.522 277.91 238.061 277.765 238.496C277.619 238.932 277.401 239.258 277.111 239.477C276.82 239.695 276.426 239.803 275.928 239.803C275.43 239.803 275.036 239.695 274.746 239.477C274.456 239.258 274.237 238.932 274.092 238.496C273.947 238.061 273.854 237.522 273.812 236.878C273.771 236.235 273.75 235.489 273.75 234.638V232.211Z" fill="white"/>
<path d="M284.206 239.99V239.492H285.856V227.2L284.206 227.48V226.951L290.524 225.894V228.538C290.71 228.227 290.917 227.937 291.146 227.667C291.374 227.398 291.639 227.165 291.939 226.967C292.24 226.771 292.598 226.609 293.013 226.485C293.427 226.36 293.915 226.298 294.475 226.298C295.823 226.298 296.855 226.49 297.572 226.874C298.288 227.258 298.821 227.844 299.174 228.632C299.319 228.404 299.485 228.15 299.672 227.87C299.858 227.59 300.103 227.33 300.403 227.091C300.703 226.854 301.072 226.656 301.508 226.5C301.944 226.345 302.473 226.267 303.095 226.267C304.671 226.267 305.875 226.671 306.704 227.48C307.534 228.29 307.949 229.42 307.949 230.873V239.492H309.288V239.99H301.944V239.492H303.282V230.562C303.282 229.358 303.198 228.476 303.032 227.916C302.867 227.356 302.504 227.076 301.944 227.076C301.633 227.076 301.316 227.19 300.994 227.419C300.673 227.647 300.383 227.937 300.123 228.29C299.864 228.642 299.651 229.047 299.485 229.503C299.319 229.96 299.236 230.405 299.236 230.841V239.492H300.574V239.99H293.23V239.492H294.569V230.405C294.569 229.12 294.465 228.248 294.258 227.791C294.05 227.336 293.717 227.108 293.262 227.108C292.867 227.108 292.504 227.227 292.172 227.465C291.841 227.704 291.55 228.01 291.302 228.383C291.052 228.756 290.86 229.161 290.725 229.597C290.591 230.032 290.524 230.437 290.524 230.81V239.492H291.861V239.99H284.206Z" fill="white"/>
<path fill-rule="evenodd" clip-rule="evenodd" d="M310.656 248.567V249.065H318.684V248.567H317.004V238.652C317.335 239.171 317.74 239.586 318.218 239.897C318.695 240.208 319.4 240.363 320.333 240.363C321.35 240.363 322.242 240.161 323.009 239.756C323.776 239.352 324.415 238.823 324.923 238.169C325.431 237.516 325.815 236.769 326.075 235.929C326.334 235.089 326.463 234.233 326.463 233.362C326.463 232.49 326.334 231.635 326.075 230.795C325.815 229.954 325.431 229.207 324.923 228.555C324.415 227.901 323.776 227.371 323.009 226.967C322.242 226.563 321.35 226.36 320.333 226.36C319.441 226.36 318.735 226.563 318.218 226.967C317.699 227.371 317.294 227.844 317.004 228.383V225.894L310.656 226.951V227.48L312.336 227.2V248.567H310.656ZM317.004 230.405C317.004 230.074 317.082 229.726 317.237 229.363C317.393 229 317.595 228.663 317.844 228.352C318.093 228.041 318.373 227.787 318.684 227.59C318.995 227.393 319.306 227.294 319.617 227.294C319.867 227.294 320.089 227.345 320.287 227.449C320.484 227.553 320.65 227.771 320.784 228.102C320.919 228.435 321.023 228.917 321.096 229.549C321.168 230.183 321.205 231.039 321.205 232.117V234.607C321.205 235.603 321.174 236.423 321.111 237.065C321.049 237.708 320.956 238.211 320.831 238.574C320.707 238.938 320.541 239.192 320.333 239.337C320.126 239.482 319.887 239.555 319.617 239.555C319.265 239.555 318.933 239.461 318.622 239.274C318.311 239.087 318.036 238.854 317.798 238.574C317.559 238.294 317.367 238.004 317.222 237.703C317.076 237.402 317.004 237.127 317.004 236.878V230.405Z" fill="white"/>
<path fill-rule="evenodd" clip-rule="evenodd" d="M330.618 232.194C331.25 231.935 331.992 231.805 332.843 231.805H336.204V229.316C336.204 228.569 336.09 227.989 335.861 227.573C335.633 227.158 335.135 226.95 334.368 226.95C333.517 226.95 332.937 227.008 332.625 227.122C332.314 227.236 332.159 227.376 332.159 227.541C332.159 227.667 332.231 227.77 332.377 227.853C332.771 228.101 332.968 228.486 332.968 229.005C332.968 229.129 332.947 229.285 332.905 229.471C332.863 229.658 332.781 229.829 332.657 229.985C332.532 230.14 332.361 230.275 332.143 230.389C331.925 230.504 331.64 230.561 331.287 230.561C330.852 230.561 330.462 230.431 330.12 230.171C329.778 229.913 329.607 229.482 329.607 228.88C329.607 228.05 330.053 227.428 330.945 227.013C331.837 226.599 332.968 226.391 334.337 226.391C335.52 226.391 336.52 226.468 337.34 226.624C338.159 226.779 338.833 227.044 339.363 227.418C339.891 227.79 340.275 228.278 340.514 228.88C340.752 229.482 340.871 230.218 340.871 231.089V237.625C340.871 238.122 340.928 238.511 341.042 238.791C341.156 239.071 341.421 239.211 341.836 239.211C342.189 239.211 342.432 239.097 342.568 238.869C342.703 238.641 342.8 238.371 342.863 238.06C342.883 237.873 342.966 237.78 343.112 237.78C343.237 237.78 343.299 237.863 343.299 238.029C343.299 238.257 343.262 238.506 343.19 238.775C343.117 239.045 342.962 239.294 342.723 239.522C342.484 239.751 342.147 239.948 341.712 240.113C341.276 240.279 340.685 240.362 339.938 240.362C338.88 240.362 338.071 240.202 337.511 239.88C336.951 239.559 336.577 239.18 336.391 238.745C336.225 238.911 336.022 239.086 335.784 239.273C335.545 239.46 335.27 239.637 334.959 239.802C334.648 239.968 334.291 240.103 333.886 240.207C333.481 240.311 333.019 240.362 332.501 240.362C331.712 240.362 331.023 240.253 330.432 240.036C329.84 239.818 329.347 239.522 328.953 239.149C328.559 238.775 328.264 238.335 328.067 237.827C327.869 237.318 327.771 236.785 327.771 236.224C327.771 235.685 327.874 235.15 328.082 234.621C328.29 234.092 328.606 233.621 329.031 233.205C329.456 232.79 329.985 232.453 330.618 232.194ZM335.939 238.386C336.115 238.189 336.204 237.997 336.204 237.811V232.365H334.928C334.077 232.365 333.471 232.718 333.108 233.424C332.745 234.129 332.563 235.052 332.563 236.193C332.563 237.355 332.672 238.189 332.89 238.698C333.108 239.206 333.476 239.46 333.994 239.46C334.119 239.46 334.305 239.408 334.555 239.304C334.803 239.2 335.053 239.071 335.301 238.915C335.55 238.76 335.763 238.584 335.939 238.386Z" fill="white"/>
<path d="M359.448 230.684C359.448 229.813 359.319 229.088 359.059 228.506C358.8 227.926 358.457 227.469 358.032 227.137C357.607 226.806 357.109 226.573 356.539 226.437C355.967 226.302 355.372 226.234 354.749 226.234C354.209 226.234 353.727 226.308 353.302 226.453C352.877 226.598 352.509 226.785 352.198 227.013C351.886 227.241 351.617 227.51 351.388 227.821C351.16 228.132 350.974 228.444 350.829 228.755V225.861L344.387 226.95V227.479L346.068 227.199V239.491H344.387V239.989H352.073V239.491H350.735V230.934C350.735 230.518 350.823 230.088 351 229.642C351.175 229.196 351.399 228.792 351.669 228.429C351.938 228.066 352.229 227.765 352.54 227.526C352.851 227.288 353.152 227.168 353.442 227.168C354.023 227.168 354.391 227.397 354.547 227.853C354.703 228.309 354.781 229.015 354.781 229.97V239.491H353.442V239.989H361.129V239.491H359.448V230.684Z" fill="white"/>
<path d="M373.389 227.34C373.201 227.185 372.859 227.108 372.362 227.108V226.609H376.033V227.108C375.618 227.108 375.245 227.196 374.914 227.372C374.581 227.548 374.332 227.865 374.166 228.321L369.779 239.804C369.675 240.094 369.561 240.442 369.436 240.846C369.312 241.251 369.182 241.675 369.048 242.122C368.913 242.568 368.773 243.024 368.627 243.491C368.482 243.957 368.336 244.398 368.192 244.813C367.963 245.436 367.735 245.954 367.507 246.369C367.279 246.784 367.02 247.121 366.729 247.381C366.438 247.64 366.086 247.827 365.671 247.941C365.256 248.055 364.748 248.113 364.146 248.113C363.544 248.113 362.995 247.936 362.497 247.583C361.999 247.23 361.75 246.701 361.75 245.996C361.75 245.478 361.942 245.042 362.326 244.69C362.71 244.336 363.192 244.16 363.773 244.16C364.354 244.16 364.81 244.342 365.142 244.705C365.474 245.068 365.64 245.487 365.64 245.965C365.64 246.4 365.573 246.728 365.438 246.945C365.302 247.163 365.131 247.345 364.925 247.49C365.692 247.49 366.278 247.194 366.683 246.603C367.087 246.012 367.455 245.239 367.787 244.285C368.057 243.517 368.264 242.895 368.41 242.418C368.554 241.94 368.679 241.484 368.783 241.048L362.093 227.108H360.443V226.609H368.472V227.108H366.792L370.806 235.572L373.575 228.321C373.638 228.196 373.669 228.031 373.669 227.823C373.669 227.657 373.575 227.497 373.389 227.34Z" fill="white"/>
<path fill-rule="evenodd" clip-rule="evenodd" d="M109.329 226.967C108.447 226.563 107.415 226.36 106.233 226.36C105.05 226.36 104.017 226.563 103.136 226.967C102.254 227.371 101.528 227.901 100.958 228.555C100.387 229.207 99.9574 229.954 99.6666 230.795C99.3759 231.635 99.2305 232.49 99.2305 233.362C99.2305 234.233 99.3759 235.089 99.6666 235.929C99.9574 236.769 100.387 237.516 100.958 238.169C101.528 238.823 102.254 239.352 103.136 239.756C104.017 240.161 105.05 240.363 106.233 240.363C107.415 240.363 108.447 240.161 109.329 239.756C110.21 239.352 110.936 238.823 111.508 238.169C112.077 237.516 112.508 236.769 112.798 235.929C113.089 235.089 113.235 234.233 113.235 233.362C113.235 232.49 113.089 231.635 112.798 230.795C112.508 229.954 112.077 229.207 111.508 228.555C110.936 227.901 110.21 227.371 109.329 226.967ZM108.411 234.638C108.411 235.489 108.39 236.235 108.348 236.878C108.307 237.522 108.213 238.061 108.069 238.496C107.923 238.932 107.705 239.258 107.415 239.477C107.124 239.695 106.73 239.803 106.233 239.803C105.734 239.803 105.34 239.695 105.05 239.477C104.759 239.258 104.542 238.932 104.396 238.496C104.251 238.061 104.157 237.522 104.117 236.878C104.074 236.235 104.054 235.489 104.054 234.638V232.211C104.054 231.381 104.074 230.634 104.117 229.971C104.157 229.306 104.251 228.752 104.396 228.305C104.542 227.859 104.759 227.517 105.05 227.279C105.34 227.04 105.734 226.92 106.233 226.92C106.73 226.92 107.124 227.04 107.415 227.279C107.705 227.517 107.923 227.859 108.069 228.305C108.213 228.752 108.307 229.306 108.348 229.971C108.39 230.634 108.411 231.381 108.411 232.211V234.638Z" fill="white"/>
<path d="M123.145 230.873C122.803 230.52 122.632 230.105 122.632 229.628C122.632 229.089 122.792 228.653 123.114 228.321C123.435 227.99 123.824 227.791 124.281 227.73C124.281 227.605 124.037 227.439 123.55 227.231C123.062 227.025 122.414 226.92 121.604 226.92C121.085 226.92 120.655 227.014 120.313 227.2C119.971 227.388 119.691 227.688 119.473 228.102C119.255 228.518 119.1 229.052 119.007 229.706C118.913 230.359 118.867 231.163 118.867 232.117V234.607C118.867 235.582 118.913 236.391 119.007 237.033C119.1 237.677 119.261 238.196 119.489 238.59C119.717 238.984 120.012 239.264 120.375 239.43C120.738 239.596 121.189 239.679 121.729 239.679C122.31 239.679 122.875 239.58 123.425 239.383C123.974 239.186 124.478 238.916 124.934 238.574C125.39 238.232 125.785 237.843 126.116 237.408C126.448 236.972 126.697 236.505 126.864 236.007C126.926 235.8 127.029 235.696 127.175 235.696C127.361 235.696 127.455 235.81 127.455 236.039C127.455 236.121 127.444 236.184 127.423 236.225C127.008 237.449 126.267 238.445 125.199 239.212C124.13 239.98 122.797 240.363 121.2 240.363C120.017 240.363 118.985 240.161 118.104 239.756C117.222 239.352 116.486 238.823 115.895 238.169C115.303 237.516 114.862 236.769 114.572 235.929C114.281 235.089 114.137 234.233 114.137 233.362C114.137 232.49 114.292 231.635 114.603 230.795C114.914 229.954 115.376 229.207 115.987 228.555C116.599 227.901 117.341 227.371 118.213 226.967C119.084 226.563 120.08 226.36 121.2 226.36C122.3 226.36 123.197 226.46 123.892 226.656C124.586 226.854 125.126 227.108 125.51 227.419C125.893 227.73 126.158 228.062 126.304 228.414C126.448 228.767 126.521 229.098 126.521 229.409C126.521 229.95 126.355 230.416 126.024 230.81C125.691 231.204 125.204 231.401 124.56 231.401C123.959 231.401 123.487 231.225 123.145 230.873Z" fill="white"/>
<path d="M137.506 239.989H145.783V239.491H144.102L138.999 229.316C139.352 228.942 139.674 228.611 139.964 228.32C140.254 228.029 140.55 227.79 140.851 227.604C141.151 227.418 141.473 227.278 141.816 227.184C142.158 227.09 142.547 227.044 142.983 227.044V226.608H137.631V227.044C138.211 227.044 138.615 227.111 138.844 227.247C139.072 227.381 139.186 227.584 139.186 227.853C139.186 228.123 139.129 228.346 139.015 228.522C138.901 228.698 138.761 228.849 138.595 228.974L135.545 231.369H134.83V218.237L128.481 219.42V219.918L130.162 219.607V239.491H128.481V239.989H136.51V239.491H134.83V231.867H135.545L139.155 239.491H137.506V239.989Z" fill="white"/>
<path d="M149.158 239.134C148.671 238.688 148.287 238.092 148.008 237.345C147.727 236.598 147.587 235.654 147.587 234.513V227.107H145.906V226.609H147.587C148.023 226.464 148.463 226.257 148.91 225.986C149.355 225.717 149.77 225.375 150.154 224.96C150.538 224.545 150.88 224.042 151.181 223.45C151.482 222.859 151.695 222.17 151.819 221.381H152.255V226.609H154.589V227.107H152.255V235.011C152.255 236.567 152.395 237.687 152.675 238.372C152.955 239.056 153.489 239.398 154.278 239.398C154.755 239.398 155.174 239.223 155.538 238.87C155.901 238.517 156.134 238.03 156.238 237.407C156.258 237.283 156.3 237.189 156.362 237.127C156.424 237.064 156.487 237.033 156.549 237.033C156.736 237.033 156.829 237.148 156.829 237.376V237.469C156.663 238.361 156.289 239.067 155.709 239.586C155.128 240.104 154.205 240.363 152.939 240.363C152.213 240.363 151.523 240.27 150.87 240.083C150.217 239.897 149.646 239.58 149.158 239.134Z" fill="white"/>
<path fill-rule="evenodd" clip-rule="evenodd" d="M162.804 231.805C161.953 231.805 161.211 231.935 160.579 232.194C159.946 232.453 159.417 232.79 158.992 233.205C158.566 233.621 158.25 234.092 158.043 234.621C157.835 235.15 157.731 235.685 157.731 236.224C157.731 236.785 157.83 237.318 158.028 237.827C158.225 238.335 158.52 238.775 158.914 239.149C159.308 239.522 159.801 239.818 160.392 240.036C160.983 240.253 161.673 240.362 162.461 240.362C162.98 240.362 163.442 240.311 163.847 240.207C164.251 240.103 164.609 239.968 164.92 239.802C165.231 239.637 165.506 239.46 165.745 239.273C165.983 239.086 166.185 238.911 166.351 238.745C166.538 239.18 166.911 239.559 167.472 239.88C168.032 240.202 168.841 240.362 169.899 240.362C170.646 240.362 171.237 240.279 171.673 240.113C172.108 239.948 172.445 239.751 172.684 239.522C172.922 239.294 173.077 239.045 173.15 238.775C173.223 238.506 173.259 238.257 173.259 238.029C173.259 237.863 173.198 237.78 173.073 237.78C172.927 237.78 172.844 237.873 172.824 238.06C172.761 238.371 172.663 238.641 172.528 238.869C172.393 239.097 172.149 239.211 171.797 239.211C171.382 239.211 171.117 239.071 171.003 238.791C170.889 238.511 170.832 238.122 170.832 237.625V231.089C170.832 230.218 170.712 229.482 170.475 228.88C170.235 228.278 169.852 227.79 169.323 227.418C168.794 227.044 168.119 226.779 167.301 226.624C166.481 226.468 165.48 226.391 164.298 226.391C162.928 226.391 161.797 226.599 160.906 227.013C160.013 227.428 159.567 228.05 159.567 228.88C159.567 229.482 159.738 229.913 160.081 230.171C160.423 230.431 160.812 230.561 161.248 230.561C161.6 230.561 161.886 230.504 162.104 230.389C162.321 230.275 162.493 230.14 162.617 229.985C162.741 229.829 162.824 229.658 162.866 229.471C162.907 229.285 162.928 229.129 162.928 229.005C162.928 228.486 162.73 228.101 162.337 227.853C162.192 227.77 162.119 227.667 162.119 227.541C162.119 227.376 162.275 227.236 162.586 227.122C162.897 227.008 163.478 226.95 164.329 226.95C165.096 226.95 165.593 227.158 165.822 227.573C166.05 227.989 166.165 228.569 166.165 229.316V231.805H162.804ZM166.165 237.811C166.165 237.997 166.076 238.189 165.9 238.386C165.724 238.584 165.511 238.76 165.262 238.915C165.013 239.071 164.764 239.2 164.515 239.304C164.266 239.408 164.08 239.46 163.955 239.46C163.437 239.46 163.069 239.206 162.851 238.698C162.633 238.189 162.524 237.355 162.524 236.193C162.524 235.052 162.705 234.129 163.069 233.424C163.431 232.718 164.037 232.365 164.889 232.365H166.165V237.811Z" fill="white"/>
<path d="M174.722 239.989V239.491H176.402V226.857L174.722 227.138V226.608L181.071 225.612V239.491H182.75V239.989H174.722Z" fill="white"/>
<path d="M180.417 223.714C180.893 223.237 181.132 222.657 181.132 221.972C181.132 221.288 180.893 220.707 180.417 220.23C179.94 219.752 179.359 219.514 178.674 219.514C177.989 219.514 177.408 219.752 176.931 220.23C176.454 220.707 176.216 221.288 176.216 221.972C176.216 222.657 176.454 223.237 176.931 223.714C177.408 224.193 177.989 224.43 178.674 224.43C179.359 224.43 179.94 224.193 180.417 223.714Z" fill="white"/>
<path d="M184.243 239.989V239.491H185.924V219.607L184.243 219.918V219.42L190.592 218.237V239.491H192.272V239.989H184.243Z" fill="white"/>
<path fill-rule="evenodd" clip-rule="evenodd" d="M190.723 211.654H155.356C158.767 200.204 164.932 189.933 173.076 181.6L172.476 180.275C167.911 184.88 163.949 190.083 160.707 195.747C160.18 195.288 159.593 194.879 158.949 194.517C157.771 193.892 156.486 193.451 155.089 193.121C153.693 192.827 152.445 192.68 151.271 192.68C150.608 192.68 149.982 192.716 149.359 192.754C148.735 192.827 148.111 192.938 147.522 193.084C145.758 191.946 143.37 191.395 140.398 191.395C137.715 191.395 134.958 192.129 132.13 193.599C130.441 194.481 128.679 195.472 126.95 196.538C126.136 197.036 125.341 197.554 124.537 198.078C124.217 198.286 123.896 198.495 123.571 198.704C121.349 200.195 119.127 201.665 116.889 203.145C116.204 203.598 115.518 204.053 114.829 204.509C111.854 206.419 108.914 207.889 105.976 208.88C105.681 208.439 105.497 207.925 105.388 207.374C105.278 206.786 105.35 206.162 105.534 205.428L105.057 205.207C104.91 205.832 104.837 206.493 104.873 207.117C104.873 207.742 105.02 208.366 105.314 208.953C103.663 209.504 102.008 209.762 100.319 209.762C97.1223 209.762 94.8049 209.101 93.2661 207.778C91.7212 206.419 90.9488 204.802 90.9488 202.893C90.9488 202.121 91.2423 201.35 91.8326 200.651C92.3843 199.88 93.1561 199.182 94.0739 198.558C94.9911 197.933 96.0564 197.382 97.2691 196.979C98.4831 196.574 99.7305 196.39 101.053 196.39C103.294 196.39 105.35 196.758 107.225 197.566C109.134 198.374 110.789 199.403 112.182 200.688C111.706 199.806 111.046 198.962 110.198 198.228C109.319 197.492 108.401 196.831 107.408 196.28C106.38 195.766 105.35 195.325 104.323 195.068C103.294 194.773 102.339 194.663 101.457 194.663C100.099 194.663 98.7386 194.884 97.4158 195.325C96.0564 195.766 94.8457 196.317 93.7804 197.088C92.7131 197.824 91.868 198.704 91.1689 199.734C90.4732 200.725 90.1444 201.827 90.1444 202.966C90.1444 204.435 90.5452 205.684 91.3183 206.712C92.1248 207.705 93.118 208.55 94.2913 209.174C95.4694 209.799 96.7527 210.24 98.1523 210.57C99.547 210.864 100.796 211.01 101.935 211.01C102.67 211.01 103.367 210.974 104.103 210.901C104.873 210.79 105.608 210.644 106.38 210.423C106.939 210.953 107.64 211.344 108.464 211.654H82.021V213.013H190.723V211.654ZM121.33 209.982C123.168 208.991 125.041 207.925 126.95 206.749C127.348 206.489 127.751 206.228 128.157 205.966L128.159 205.965C128.84 205.525 129.53 205.079 130.219 204.619C133.234 202.599 136.245 200.651 139.332 198.704C142.379 196.758 145.394 195.398 148.406 194.591C149.398 195.435 149.689 196.5 149.325 197.786L149.8 198.007C150.131 196.758 149.875 195.545 148.992 194.407L149.249 194.364C149.825 194.268 150.397 194.172 150.941 194.076C151.6 193.966 152.262 193.929 152.921 193.929C156.081 193.929 158.433 194.591 159.977 195.913C160.121 196.043 160.256 196.178 160.386 196.314C158.505 199.668 156.879 203.183 155.532 206.832C154.474 207.154 153.363 207.337 152.188 207.337C149.948 207.337 147.891 206.933 145.978 206.125C144.106 205.354 142.453 204.288 141.021 202.966C141.532 203.921 142.196 204.728 143.041 205.464C143.886 206.199 144.804 206.86 145.833 207.411C146.825 207.962 147.854 208.366 148.917 208.623C149.948 208.917 150.903 209.028 151.783 209.028C152.825 209.028 153.866 208.89 154.89 208.646C154.553 209.639 154.235 210.642 153.94 211.654H117.269C118.599 211.261 119.952 210.706 121.33 209.982ZM124.109 200.937C124.617 200.609 125.123 200.281 125.629 199.954C125.996 199.709 126.361 199.466 126.726 199.221L126.95 199.072C129.486 197.456 131.908 195.986 134.262 194.7C137.053 193.195 139.588 192.459 141.941 192.459C142.6 192.459 143.336 192.496 144.142 192.643C144.988 192.79 145.758 193.011 146.53 193.342C144.511 193.929 142.453 194.773 140.324 195.876C138.23 196.979 136.134 198.19 134.079 199.513C131.983 200.835 129.928 202.194 127.87 203.59C127.574 203.811 127.245 204.031 126.95 204.215C125.226 205.354 123.571 206.419 121.954 207.374C120.045 208.476 118.172 209.394 116.373 210.166C114.57 210.901 112.88 211.268 111.302 211.268C109.87 211.268 108.549 210.901 107.37 210.203C110.346 209.247 113.396 207.816 116.482 205.832C119.048 204.211 121.592 202.565 124.109 200.937Z" fill="white"/>
<path fill-rule="evenodd" clip-rule="evenodd" d="M177.662 174.831L178.398 177.734L176.764 178.979L173.794 166.793L175.272 165.667L186.231 171.766L184.546 173.051L181.955 171.561L177.662 174.831ZM177.169 172.973L180.294 170.592L175.959 168.156L177.169 172.973Z" fill="white"/>
<path d="M243.07 162.595L245.026 163.104L247.432 153.859L250.934 154.77L251.402 152.971L242.441 150.64L241.973 152.438L245.476 153.35L243.07 162.595Z" fill="white"/>
<path d="M267.441 169.617C266.371 171.465 264.28 171.724 262.206 170.523C260.697 169.649 259.574 168.302 259.001 166.558L260.764 165.92C261.236 167.286 261.926 168.307 263.139 169.01C264.211 169.63 265.182 169.515 265.607 168.781L265.624 168.753C266.032 168.048 265.857 167.438 264.268 165.953C262.46 164.227 261.635 162.921 262.688 161.101L262.705 161.072C263.685 159.379 265.774 159.025 267.735 160.161C269.174 160.993 270.064 162.093 270.6 163.477L268.91 164.25C268.404 163.072 267.72 162.205 266.816 161.682C265.8 161.094 264.906 161.273 264.53 161.922L264.514 161.95C264.072 162.712 264.328 163.312 265.971 164.866C267.765 166.583 268.404 167.952 267.457 169.588L267.441 169.617Z" fill="white"/>
<path d="M272.9 177.9L278.999 170.543L281.786 172.854L282.973 171.422L275.842 165.511L274.656 166.942L277.442 169.253L271.344 176.609L272.9 177.9Z" fill="white"/>
<path d="M277.222 181.892L278.838 180.326L280.347 181.883L278.732 183.449L277.222 181.892Z" fill="white"/>
<path fill-rule="evenodd" clip-rule="evenodd" d="M207.483 172.59C207.13 172.784 206.834 173.034 206.593 173.338C206.354 173.643 206.231 174.007 206.231 174.424C206.231 175.418 206.593 176.246 207.316 176.907C208.042 177.566 208.929 178.087 209.993 178.471C211.052 178.856 212.192 179.132 213.412 179.291C214.635 179.453 215.744 179.535 216.739 179.535H217.707C218.539 180.752 219.815 181.788 221.537 182.642C223.255 183.492 225.321 183.919 227.731 183.919C230.14 183.919 232.206 183.492 233.925 182.642C235.641 181.788 236.922 180.752 237.756 179.535H238.721C239.717 179.535 240.826 179.453 242.047 179.291C243.267 179.132 244.41 178.856 245.471 178.471C246.529 178.087 247.418 177.566 248.143 176.907C248.866 176.246 249.226 175.418 249.226 174.424C249.226 174.007 249.107 173.643 248.866 173.338C248.624 173.034 248.325 172.784 247.95 172.59C247.578 172.398 247.187 172.265 246.773 172.181C246.352 172.101 245.967 172.059 245.615 172.059C244.809 172.059 243.919 172.221 242.942 172.544C241.959 172.864 241.178 173.427 240.601 174.231C240.539 174.488 240.594 174.639 240.77 174.688C240.946 174.735 241.115 174.68 241.272 174.52C241.758 173.974 242.4 173.548 243.205 173.243C244.006 172.936 244.809 172.784 245.615 172.784C245.902 172.784 246.21 172.817 246.529 172.879C246.848 172.945 247.155 173.044 247.447 173.171C247.735 173.296 247.977 173.474 248.168 173.7C248.361 173.925 248.457 174.197 248.457 174.52C248.457 175.29 248.119 175.925 247.447 176.422C246.773 176.923 245.942 177.318 244.965 177.605C243.983 177.892 242.955 178.087 241.879 178.185C240.802 178.28 239.879 178.328 239.107 178.328H238.431C238.593 178.009 238.698 177.685 238.747 177.366C238.794 177.042 238.819 176.739 238.819 176.448C238.819 175.741 238.675 175.139 238.383 174.639C238.096 174.141 237.726 173.722 237.274 173.386C236.825 173.05 236.334 172.8 235.805 172.639C235.274 172.478 234.751 172.398 234.238 172.398C233.63 172.398 233.02 172.519 232.407 172.76C231.795 172.999 231.347 173.332 231.058 173.749C231.024 173.877 231.065 173.974 231.178 174.039C231.29 174.103 231.425 174.068 231.585 173.941C232.036 173.586 232.461 173.354 232.865 173.243C233.266 173.129 233.689 173.075 234.143 173.075C234.559 173.075 235.001 173.145 235.465 173.291C235.933 173.434 236.355 173.643 236.747 173.917C237.13 174.189 237.442 174.534 237.685 174.951C237.924 175.371 238.044 175.866 238.044 176.448C238.044 176.739 237.996 177.042 237.9 177.366C237.804 177.685 237.645 177.992 237.416 178.28C236.747 178.246 235.98 178.174 235.128 178.062C234.278 177.948 233.433 177.797 232.598 177.605C231.762 177.413 230.952 177.17 230.167 176.882C229.377 176.593 228.726 176.256 228.214 175.866C228.824 175.162 229.129 174.392 229.129 173.554C229.129 173.075 228.983 172.694 228.696 172.425C228.409 172.15 228.084 172.014 227.731 172.014C227.376 172.014 227.055 172.15 226.766 172.425C226.48 172.694 226.332 173.075 226.332 173.554C226.332 174.392 226.639 175.162 227.249 175.866C226.702 176.256 226.042 176.593 225.272 176.882C224.5 177.17 223.696 177.413 222.862 177.605C222.028 177.797 221.185 177.948 220.335 178.062C219.48 178.174 218.715 178.246 218.043 178.28C217.818 177.992 217.657 177.685 217.558 177.366C217.464 177.042 217.417 176.739 217.417 176.448C217.417 175.866 217.536 175.371 217.775 174.951C218.017 174.534 218.332 174.189 218.715 173.917C219.101 173.643 219.518 173.434 219.97 173.291C220.42 173.145 220.869 173.075 221.319 173.075C221.768 173.075 222.196 173.129 222.594 173.243C223.001 173.354 223.424 173.586 223.874 173.941C224.031 174.068 224.172 174.103 224.283 174.039C224.395 173.974 224.439 173.877 224.403 173.749C224.114 173.332 223.666 172.999 223.055 172.76C222.445 172.519 221.834 172.398 221.224 172.398C220.71 172.398 220.187 172.478 219.657 172.639C219.13 172.8 218.636 173.05 218.185 173.386C217.735 173.722 217.366 174.141 217.076 174.639C216.787 175.139 216.642 175.741 216.642 176.448C216.642 176.739 216.669 177.042 216.717 177.366C216.763 177.685 216.869 178.009 217.027 178.328H216.356C215.585 178.328 214.659 178.28 213.582 178.185C212.508 178.087 211.476 177.892 210.499 177.605C209.517 177.318 208.689 176.923 208.017 176.422C207.34 175.925 207.004 175.29 207.004 174.52C207.004 174.197 207.1 173.925 207.295 173.7C207.483 173.474 207.725 173.296 208.017 173.171C208.306 173.044 208.611 172.945 208.929 172.879C209.252 172.817 209.558 172.784 209.849 172.784C210.654 172.784 211.453 172.936 212.257 173.243C213.059 173.548 213.705 173.974 214.186 174.52C214.347 174.68 214.516 174.735 214.691 174.688C214.87 174.639 214.926 174.488 214.862 174.231C214.282 173.427 213.502 172.864 212.523 172.544C211.543 172.221 210.654 172.059 209.849 172.059C209.495 172.059 209.102 172.101 208.664 172.181C208.233 172.265 207.838 172.398 207.483 172.59ZM223.874 178.403C225.482 177.898 226.766 177.218 227.731 176.352C228.696 177.218 229.982 177.898 231.585 178.403C233.193 178.899 234.785 179.242 236.355 179.437C235.361 180.303 234.086 181.028 232.525 181.604C230.968 182.183 229.369 182.474 227.731 182.474C226.093 182.474 224.493 182.183 222.934 181.604C221.375 181.028 220.1 180.303 219.101 179.437C220.677 179.242 222.27 178.899 223.874 178.403ZM227.009 173.7C227.009 173.474 227.063 173.243 227.175 172.999C227.286 172.76 227.473 172.639 227.731 172.639C227.987 172.639 228.173 172.76 228.284 172.999C228.396 173.243 228.455 173.474 228.455 173.7C228.455 174.377 228.214 174.951 227.731 175.434C227.249 174.951 227.009 174.377 227.009 173.7Z" fill="white"/>
<path fill-rule="evenodd" clip-rule="evenodd" d="M248.865 289.162C248.624 289.467 248.324 289.717 247.95 289.91C247.577 290.102 247.187 290.235 246.772 290.319C246.351 290.399 245.965 290.441 245.614 290.441C244.808 290.441 243.918 290.28 242.941 289.956C241.958 289.637 241.177 289.073 240.6 288.269C240.538 288.012 240.593 287.861 240.769 287.813C240.945 287.766 241.115 287.821 241.271 287.981C241.757 288.527 242.4 288.953 243.204 289.258C244.006 289.565 244.808 289.717 245.614 289.717C245.901 289.717 246.209 289.684 246.528 289.621C246.848 289.555 247.155 289.457 247.446 289.33C247.734 289.204 247.976 289.026 248.167 288.801C248.36 288.575 248.457 288.304 248.457 287.981C248.457 287.211 248.119 286.575 247.446 286.079C246.772 285.578 245.942 285.183 244.964 284.896C243.982 284.608 242.954 284.413 241.879 284.316C240.801 284.221 239.879 284.173 239.106 284.173H238.43C238.592 284.492 238.697 284.815 238.746 285.135C238.793 285.458 238.818 285.761 238.818 286.052C238.818 286.759 238.674 287.362 238.382 287.861C238.095 288.359 237.726 288.779 237.273 289.114C236.824 289.45 236.334 289.701 235.804 289.862C235.273 290.023 234.751 290.102 234.236 290.102C233.628 290.102 233.018 289.981 232.407 289.741C231.795 289.501 231.346 289.169 231.057 288.751C231.023 288.623 231.064 288.527 231.178 288.461C231.289 288.397 231.424 288.432 231.585 288.56C232.035 288.914 232.46 289.146 232.863 289.258C233.266 289.371 233.688 289.425 234.142 289.425C234.558 289.425 235 289.356 235.465 289.21C235.932 289.066 236.355 288.858 236.746 288.584C237.129 288.312 237.44 287.967 237.684 287.55C237.923 287.13 238.043 286.634 238.043 286.052C238.043 285.761 237.995 285.458 237.899 285.135C237.803 284.815 237.644 284.508 237.416 284.221C236.746 284.255 235.979 284.327 235.128 284.439C234.278 284.552 233.432 284.703 232.598 284.896C231.761 285.087 230.952 285.33 230.166 285.619C229.375 285.908 228.725 286.244 228.214 286.634C228.823 287.339 229.128 288.109 229.128 288.947C229.128 289.425 228.983 289.807 228.695 290.076C228.409 290.351 228.084 290.487 227.73 290.487C227.375 290.487 227.054 290.351 226.765 290.076C226.479 289.807 226.332 289.425 226.332 288.947C226.332 288.109 226.638 287.339 227.248 286.634C226.701 286.244 226.042 285.908 225.271 285.619C224.5 285.33 223.694 285.087 222.861 284.896C222.027 284.703 221.184 284.552 220.334 284.439C219.479 284.327 218.715 284.255 218.043 284.221C217.817 284.508 217.656 284.815 217.557 285.135C217.463 285.458 217.416 285.761 217.416 286.052C217.416 286.634 217.535 287.13 217.774 287.55C218.017 287.967 218.331 288.312 218.715 288.584C219.1 288.858 219.518 289.066 219.969 289.21C220.419 289.356 220.868 289.425 221.318 289.425C221.766 289.425 222.195 289.371 222.593 289.258C223 289.146 223.423 288.914 223.874 288.56C224.03 288.432 224.171 288.397 224.281 288.461C224.395 288.527 224.438 288.623 224.402 288.751C224.114 289.169 223.666 289.501 223.054 289.741C222.444 289.981 221.834 290.102 221.224 290.102C220.709 290.102 220.185 290.023 219.657 289.862C219.128 289.701 218.636 289.45 218.184 289.114C217.735 288.779 217.365 288.359 217.076 287.861C216.787 287.362 216.641 286.759 216.641 286.052C216.641 285.761 216.668 285.458 216.716 285.135C216.762 284.815 216.869 284.492 217.026 284.173H216.354C215.584 284.173 214.659 284.221 213.581 284.316C212.507 284.413 211.476 284.608 210.499 284.896C209.516 285.183 208.688 285.578 208.016 286.079C207.339 286.575 207.003 287.211 207.003 287.981C207.003 288.304 207.1 288.575 207.294 288.801C207.482 289.026 207.724 289.204 208.016 289.33C208.305 289.457 208.61 289.555 208.929 289.621C209.251 289.684 209.557 289.717 209.849 289.717C210.653 289.717 211.452 289.565 212.256 289.258C213.059 288.953 213.704 288.527 214.185 287.981C214.346 287.821 214.515 287.766 214.691 287.813C214.869 287.861 214.925 288.012 214.861 288.269C214.281 289.073 213.5 289.637 212.522 289.956C211.542 290.28 210.653 290.441 209.849 290.441C209.494 290.441 209.101 290.399 208.663 290.319C208.232 290.235 207.837 290.102 207.482 289.91C207.129 289.717 206.833 289.467 206.592 289.162C206.353 288.858 206.231 288.493 206.231 288.076C206.231 287.083 206.592 286.255 207.316 285.594C208.041 284.935 208.929 284.413 209.991 284.029C211.052 283.645 212.191 283.369 213.411 283.21C214.634 283.048 215.744 282.966 216.738 282.966H217.706C218.539 281.749 219.815 280.713 221.535 279.859C223.255 279.008 225.32 278.581 227.73 278.581C230.139 278.581 232.205 279.008 233.924 279.859C235.639 280.713 236.921 281.749 237.755 282.966H238.72C239.716 282.966 240.824 283.048 242.046 283.21C243.266 283.369 244.41 283.645 245.47 284.029C246.528 284.413 247.417 284.935 248.142 285.594C248.865 286.255 249.226 287.083 249.226 288.076C249.226 288.493 249.106 288.858 248.865 289.162ZM227.73 286.149C228.695 285.282 229.981 284.602 231.585 284.098C233.192 283.602 234.783 283.259 236.355 283.064C235.361 282.197 234.085 281.473 232.524 280.896C230.967 280.318 229.369 280.027 227.73 280.027C226.092 280.027 224.491 280.318 222.933 280.896C221.374 281.473 220.1 282.197 219.1 283.064C220.677 283.259 222.269 283.602 223.874 284.098C225.481 284.602 226.765 285.282 227.73 286.149ZM228.284 289.501C228.395 289.258 228.454 289.026 228.454 288.801C228.454 288.124 228.214 287.55 227.73 287.067C227.248 287.55 227.008 288.124 227.008 288.801C227.008 289.026 227.063 289.258 227.174 289.501C227.285 289.741 227.472 289.862 227.73 289.862C227.987 289.862 228.173 289.741 228.284 289.501Z" fill="white"/>
</svg>
