<svg width="455" height="455" viewBox="0 0 455 455" fill="none" xmlns="http://www.w3.org/2000/svg">
<path fill-rule="evenodd" clip-rule="evenodd" d="M314.791 228.395C314.791 276.11 276.111 314.791 228.395 314.791C180.681 314.791 142 276.11 142 228.395C142 180.68 180.681 142 228.395 142C276.111 142 314.791 180.68 314.791 228.395ZM200.092 185.386C197.182 185.386 194.21 185.788 191.255 186.579C182.991 188.794 176.133 193.151 171.944 198.85C167.407 205.021 166.119 212.426 168.226 220.285L168.246 220.349C170.091 226.665 175.012 231.656 180.222 236.939L180.223 236.94C187.628 244.45 195.285 252.215 195.286 264.764C195.212 267.47 193.331 269.852 190.711 270.553C190.187 270.694 189.649 270.765 189.11 270.765C186.326 270.765 183.877 268.883 183.154 266.189C182.924 265.333 182.881 264.457 183.026 263.576L184.801 251.329C185.151 249.316 185.059 247.289 184.526 245.3C182.886 239.178 177.318 234.901 170.987 234.901C169.765 234.901 168.54 235.064 167.348 235.383C159.879 237.385 155.43 245.091 157.432 252.561C159.999 262.139 170.713 272.32 185.515 272.32C188.423 272.32 191.397 271.918 194.351 271.128C203.841 268.584 211.547 263.103 215.492 256.09C218.704 250.381 219.371 243.836 217.421 237.164C215.571 230.831 210.634 225.928 205.406 220.736L205.403 220.734C198.015 213.397 190.375 205.81 190.375 193.25C190.374 190.328 192.19 187.878 194.894 187.154C195.419 187.013 195.958 186.942 196.496 186.942C199.281 186.942 201.73 188.823 202.452 191.517C202.681 192.375 202.724 193.25 202.579 194.13L200.806 206.377C200.454 208.389 200.546 210.418 201.079 212.407C202.72 218.529 208.288 222.805 214.619 222.805C215.842 222.805 217.065 222.643 218.257 222.324C225.727 220.322 230.176 212.615 228.174 205.146C225.607 195.567 214.893 185.386 200.092 185.386ZM275.721 187.924C282.161 183.643 290.884 185.401 295.164 191.841C296.567 193.951 297.647 196.486 298.316 199.277C306.563 231.03 274.247 271.412 252.681 271.412H243.713C245.562 267.01 242.152 260.255 238.081 252.19C228.671 233.548 215.73 207.91 256.046 188.185H261.47C254.094 208.174 256.636 224.317 258.933 238.904C260.376 248.065 261.723 256.613 260.454 265.114C273.149 260.492 294.845 242.5 289.214 222.008C289.045 221.359 288.769 220.731 288.383 220.15C287.893 219.411 287.264 218.8 286.507 218.327L276.146 211.561C274.403 210.493 272.944 209.083 271.804 207.368C268.295 202.09 268.768 195.086 272.954 190.336C273.762 189.419 274.693 188.608 275.721 187.924Z" fill="#F6F8F9"/>
</svg>
