<svg width="455" height="455" viewBox="0 0 455 455" fill="none" xmlns="http://www.w3.org/2000/svg">
<path d="M342.32 207.98C340.587 206.004 338.057 204.861 335.39 204.861H231.433C226.478 204.861 222.268 208.569 221.609 213.472C221.262 216.158 222.042 218.826 223.791 220.818C225.524 222.793 228.054 223.92 230.723 223.92H256.712C260.87 223.92 264.543 225.48 267.021 228.338C269.551 231.231 270.624 235.181 270.036 239.443C268.753 248.869 259.727 256.839 250.336 256.839H182.903L188.569 215.309C188.915 212.623 188.135 209.955 186.385 207.98C184.653 206.004 182.122 204.861 179.455 204.861C174.499 204.861 170.289 208.569 169.631 213.455L165.853 241.176C164.901 248.141 159.616 254.621 152.72 257.307C150.538 258.139 148.32 258.571 146.154 258.571C144.04 258.571 142.081 258.19 140.315 257.411C134.892 255.072 131.946 249.424 132.812 243.048L136.589 215.309C136.936 212.623 136.157 209.955 134.406 207.98C132.674 206.004 130.144 204.861 127.476 204.861C122.521 204.861 118.31 208.569 117.652 213.455L110.757 263.77H117.791L124.531 214.39C124.721 212.953 126.055 211.791 127.476 211.791C128.914 211.791 129.919 212.953 129.728 214.39L125.951 242.112C124.617 251.884 129.503 260.287 137.577 263.77C140.142 264.896 143.035 265.503 146.154 265.503C149.272 265.503 152.339 264.879 155.216 263.77C164.225 260.27 171.398 251.884 172.732 242.112L176.509 214.39C176.7 212.953 178.034 211.791 179.455 211.791C180.892 211.791 181.898 212.953 181.707 214.39L174.967 263.77H250.336C263.244 263.77 275.164 253.271 276.914 240.379C278.682 227.489 269.62 216.99 256.712 216.99H230.723C229.302 216.99 228.297 215.828 228.487 214.39C228.678 212.953 230.012 211.791 231.433 211.791H335.39C336.827 211.791 337.833 212.953 337.642 214.39C337.452 215.828 336.118 216.99 334.679 216.99H285.299L278.924 263.77H285.976L291.346 223.92H334.679C339.635 223.92 343.862 220.212 344.504 215.309C344.85 212.64 344.07 209.955 342.32 207.98ZM338.231 191H234.275C221.384 191 209.446 201.5 207.695 214.39C205.93 227.281 214.991 237.781 227.899 237.781H253.887C255.325 237.781 256.331 238.941 256.123 240.379C255.932 241.818 254.615 242.978 253.177 242.978H198.6L202.499 214.39C204.248 201.5 195.187 191 182.296 191C169.406 191 157.468 201.5 155.718 214.39L151.941 242.112C151.733 243.55 150.416 244.711 148.978 244.711C147.557 244.711 146.535 243.55 146.743 242.112L150.519 214.39C152.27 201.5 143.208 191 130.317 191C117.427 191 105.489 201.5 103.739 214.39L97 263.77H103.947L110.601 215.326C111.883 205.901 120.91 197.931 130.317 197.931C134.476 197.931 138.131 199.489 140.609 202.332C143.139 205.242 144.231 209.193 143.641 213.455L139.881 241.125C139.483 243.793 140.263 246.478 141.995 248.488C143.745 250.497 146.275 251.641 148.978 251.641C153.864 251.641 158.092 247.969 158.801 243.048L162.579 215.326C163.861 205.901 172.888 197.931 182.296 197.931C186.454 197.931 190.11 199.489 192.587 202.332C195.117 205.242 196.209 209.193 195.62 213.455L191.721 242.043L190.647 249.909H253.177C258.116 249.909 262.325 246.201 262.967 241.367C263.365 238.699 262.585 236.013 260.853 234.004C259.12 231.994 256.574 230.85 253.887 230.85H227.899C223.722 230.85 220.049 229.291 217.572 226.432C215.042 223.539 213.968 219.588 214.557 215.326C215.84 205.901 224.867 197.931 234.275 197.931H338.231C342.389 197.931 346.045 199.489 348.522 202.332C351.053 205.242 352.144 209.193 351.555 213.455C350.272 222.88 341.246 230.85 331.855 230.85H297.204L296.389 236.845L292.768 263.77H299.715L303.268 237.781H331.855C344.745 237.781 356.667 227.281 358.434 214.39C360.183 201.5 351.122 191 338.231 191Z" fill="white"/>
</svg>
