<svg width="455" height="455" viewBox="0 0 455 455" fill="none" xmlns="http://www.w3.org/2000/svg">
<path d="M297.355 278.999H290.924C290.986 280.648 291.36 282.021 292.043 283.115C292.725 284.21 293.599 285.091 294.663 285.757C295.728 286.423 296.942 286.899 298.309 287.185C299.673 287.471 301.071 287.612 302.501 287.612C303.898 287.612 305.271 287.477 306.622 287.208C307.971 286.94 309.172 286.47 310.22 285.805C311.268 285.138 312.117 284.258 312.768 283.163C313.419 282.068 313.745 280.711 313.745 279.094C313.745 277.952 313.522 276.992 313.078 276.215C312.633 275.437 312.046 274.787 311.316 274.263C310.584 273.74 309.75 273.319 308.814 273.002C307.877 272.685 306.915 272.415 305.931 272.192C304.978 271.971 304.041 271.764 303.121 271.574C302.198 271.383 301.382 271.169 300.667 270.931C299.952 270.693 299.372 270.384 298.928 270.003C298.482 269.623 298.261 269.131 298.261 268.528C298.261 268.02 298.387 267.616 298.641 267.314C298.896 267.013 299.206 266.783 299.571 266.624C299.936 266.466 300.341 266.362 300.786 266.315C301.231 266.267 301.644 266.243 302.025 266.243C303.231 266.243 304.279 266.474 305.169 266.933C306.058 267.394 306.551 268.274 306.646 269.575H313.078C312.951 268.052 312.561 266.79 311.911 265.791C311.26 264.792 310.441 263.991 309.457 263.388C308.472 262.785 307.352 262.357 306.099 262.103C304.843 261.849 303.549 261.722 302.215 261.722C300.881 261.722 299.578 261.841 298.309 262.078C297.037 262.316 295.894 262.729 294.879 263.316C293.861 263.904 293.044 264.704 292.424 265.72C291.805 266.735 291.495 268.036 291.495 269.623C291.495 270.701 291.717 271.614 292.163 272.359C292.607 273.105 293.194 273.723 293.925 274.215C294.655 274.707 295.489 275.104 296.427 275.405C297.363 275.707 298.324 275.968 299.309 276.19C301.723 276.698 303.605 277.206 304.955 277.713C306.305 278.221 306.979 278.982 306.979 279.998C306.979 280.601 306.836 281.101 306.551 281.497C306.265 281.894 305.908 282.211 305.479 282.448C305.049 282.687 304.574 282.862 304.049 282.972C303.526 283.084 303.025 283.139 302.548 283.139C301.882 283.139 301.239 283.06 300.619 282.9C300 282.742 299.452 282.496 298.975 282.164C298.498 281.83 298.11 281.401 297.808 280.879C297.506 280.355 297.355 279.728 297.355 278.999ZM284.998 262.388V255.011H278.231V262.388H274.135V266.91H278.231V281.426C278.231 282.663 278.438 283.663 278.851 284.424C279.263 285.186 279.827 285.773 280.543 286.185C281.257 286.598 282.082 286.875 283.02 287.017C283.956 287.16 284.95 287.232 285.998 287.232C286.664 287.232 287.347 287.216 288.046 287.185C288.744 287.152 289.38 287.09 289.951 286.994V281.758C289.634 281.822 289.3 281.87 288.951 281.901C288.602 281.934 288.237 281.949 287.855 281.949C286.712 281.949 285.95 281.758 285.568 281.378C285.187 280.997 284.998 280.236 284.998 279.094V266.91H289.951V262.388H284.998ZM267.37 271.05H273.991C273.896 269.464 273.516 268.091 272.848 266.933C272.182 265.776 271.315 264.808 270.252 264.03C269.188 263.253 267.98 262.673 266.631 262.293C265.28 261.912 263.875 261.722 262.414 261.722C260.414 261.722 258.634 262.055 257.078 262.721C255.521 263.388 254.204 264.316 253.124 265.506C252.043 266.696 251.226 268.107 250.67 269.741C250.114 271.376 249.836 273.145 249.836 275.048C249.836 276.889 250.138 278.578 250.742 280.116C251.344 281.656 252.186 282.981 253.267 284.09C254.346 285.202 255.656 286.066 257.197 286.685C258.738 287.303 260.429 287.612 262.271 287.612C265.542 287.612 268.227 286.756 270.323 285.043C272.42 283.329 273.689 280.839 274.135 277.57H267.608C267.384 279.094 266.837 280.307 265.963 281.211C265.09 282.116 263.844 282.568 262.224 282.568C261.176 282.568 260.286 282.33 259.555 281.854C258.825 281.378 258.246 280.767 257.816 280.021C257.388 279.276 257.078 278.443 256.888 277.523C256.697 276.603 256.602 275.699 256.602 274.81C256.602 273.891 256.697 272.962 256.888 272.026C257.078 271.09 257.403 270.234 257.864 269.456C258.325 268.678 258.92 268.045 259.651 267.552C260.381 267.061 261.286 266.815 262.367 266.815C265.256 266.815 266.924 268.226 267.37 271.05ZM242.074 272.05H231.068C231.099 271.574 231.203 271.035 231.377 270.431C231.552 269.83 231.854 269.258 232.283 268.718C232.711 268.178 233.284 267.727 233.998 267.362C234.713 266.997 235.61 266.815 236.69 266.815C238.341 266.815 239.573 267.259 240.383 268.147C241.192 269.036 241.756 270.336 242.074 272.05ZM231.068 276.333H248.839C248.966 274.43 248.808 272.606 248.363 270.86C247.918 269.115 247.195 267.56 246.195 266.195C245.195 264.832 243.915 263.745 242.36 262.936C240.802 262.126 238.978 261.722 236.88 261.722C235.006 261.722 233.299 262.055 231.759 262.721C230.218 263.388 228.892 264.3 227.781 265.458C226.669 266.617 225.81 267.989 225.208 269.575C224.604 271.161 224.303 272.875 224.303 274.715C224.303 276.619 224.596 278.364 225.185 279.95C225.772 281.537 226.605 282.9 227.685 284.043C228.765 285.186 230.083 286.066 231.64 286.685C233.195 287.303 234.942 287.612 236.88 287.612C239.675 287.612 242.058 286.979 244.027 285.709C245.996 284.44 247.457 282.33 248.411 279.378H242.456C242.232 280.141 241.628 280.862 240.644 281.545C239.659 282.228 238.484 282.568 237.119 282.568C235.213 282.568 233.751 282.077 232.736 281.092C231.719 280.109 231.163 278.522 231.068 276.333ZM223.115 258.581V253.013H216.349V258.581H223.115ZM212.299 289.85V295.418C212.935 295.545 213.649 295.609 214.443 295.609C216.158 295.609 217.571 295.458 218.683 295.157C219.795 294.854 220.677 294.395 221.328 293.776C221.978 293.157 222.439 292.388 222.709 291.468C222.979 290.547 223.115 289.453 223.115 288.184V262.388H216.349V287.85C216.349 288.771 216.087 289.366 215.562 289.635C215.039 289.905 214.427 290.04 213.729 290.04C213.125 290.04 212.65 289.976 212.299 289.85ZM196.445 274.715C196.445 273.731 196.54 272.764 196.731 271.812C196.92 270.86 197.246 270.019 197.707 269.289C198.167 268.56 198.779 267.965 199.541 267.505C200.304 267.044 201.257 266.815 202.4 266.815C203.544 266.815 204.503 267.044 205.282 267.505C206.06 267.965 206.679 268.56 207.14 269.289C207.601 270.019 207.926 270.86 208.117 271.812C208.308 272.764 208.403 273.731 208.403 274.715C208.403 275.699 208.308 276.658 208.117 277.594C207.926 278.53 207.601 279.372 207.14 280.116C206.679 280.862 206.06 281.457 205.282 281.901C204.503 282.346 203.544 282.568 202.4 282.568C201.257 282.568 200.304 282.346 199.541 281.901C198.779 281.457 198.167 280.862 197.707 280.116C197.246 279.372 196.92 278.53 196.731 277.594C196.54 276.658 196.445 275.699 196.445 274.715ZM189.679 274.715C189.679 276.683 189.981 278.459 190.585 280.046C191.187 281.633 192.044 282.989 193.157 284.115C194.268 285.242 195.602 286.106 197.159 286.708C198.715 287.311 200.462 287.612 202.4 287.612C204.337 287.612 206.092 287.311 207.665 286.708C209.237 286.106 210.579 285.242 211.691 284.115C212.803 282.989 213.66 281.633 214.263 280.046C214.866 278.459 215.168 276.683 215.168 274.715C215.168 272.748 214.866 270.964 214.263 269.36C213.66 267.759 212.803 266.394 211.691 265.268C210.579 264.142 209.237 263.268 207.665 262.65C206.092 262.031 204.337 261.722 202.4 261.722C200.462 261.722 198.715 262.031 197.159 262.65C195.602 263.268 194.268 264.142 193.157 265.268C192.044 266.394 191.187 267.759 190.585 269.36C189.981 270.964 189.679 272.748 189.679 274.715ZM152.626 269.004V258.819H158.438C159.296 258.819 160.121 258.883 160.916 259.01C161.709 259.136 162.408 259.382 163.012 259.746C163.616 260.112 164.099 260.627 164.466 261.294C164.83 261.96 165.014 262.832 165.014 263.911C165.014 264.99 164.83 265.863 164.466 266.528C164.099 267.195 163.616 267.711 163.012 268.075C162.408 268.441 161.709 268.686 160.916 268.813C160.121 268.941 159.296 269.004 158.438 269.004H152.626ZM145.146 253.013V286.994H152.626V274.81H160.487C162.614 274.81 164.425 274.501 165.919 273.883C167.411 273.263 168.625 272.446 169.563 271.431C170.499 270.415 171.183 269.25 171.613 267.933C172.041 266.617 172.255 265.276 172.255 263.911C172.255 262.515 172.041 261.167 171.613 259.866C171.183 258.565 170.499 257.407 169.563 256.392C168.625 255.376 167.411 254.559 165.919 253.94C164.425 253.322 162.614 253.013 160.487 253.013H145.146ZM263.64 218.244V250.227H270.405V237.329C270.405 234.823 270.818 233.021 271.643 231.927C272.469 230.832 273.803 230.285 275.646 230.285C277.265 230.285 278.392 230.785 279.028 231.784C279.663 232.783 279.981 234.299 279.981 236.33V250.227H286.746V235.092C286.746 233.569 286.611 232.181 286.341 230.928C286.072 229.674 285.603 228.612 284.936 227.738C284.27 226.867 283.355 226.185 282.197 225.692C281.037 225.201 279.552 224.954 277.742 224.954C276.472 224.954 275.169 225.281 273.835 225.93C272.501 226.581 271.405 227.62 270.548 229.048H270.405V218.244H263.64ZM257.602 225.621V218.244H250.836V225.621H246.739V230.142H250.836V244.659C250.836 245.896 251.043 246.895 251.455 247.656C251.867 248.419 252.431 249.005 253.147 249.418C253.861 249.831 254.687 250.108 255.624 250.25C256.561 250.393 257.554 250.465 258.602 250.465C259.269 250.465 259.951 250.449 260.651 250.417C261.348 250.385 261.985 250.322 262.556 250.227V244.991C262.238 245.055 261.904 245.103 261.555 245.134C261.207 245.166 260.841 245.182 260.46 245.182C259.316 245.182 258.554 244.991 258.173 244.611C257.792 244.23 257.602 243.469 257.602 242.326V230.142H262.556V225.621H257.602ZM239.115 238.185V240.708C239.115 241.089 239.075 241.597 238.997 242.231C238.917 242.866 238.702 243.492 238.354 244.111C238.003 244.729 237.464 245.262 236.733 245.706C236.002 246.151 234.97 246.371 233.637 246.371C233.096 246.371 232.571 246.324 232.064 246.229C231.556 246.133 231.112 245.967 230.73 245.729C230.349 245.491 230.046 245.166 229.825 244.754C229.602 244.341 229.491 243.834 229.491 243.231C229.491 242.596 229.602 242.072 229.825 241.66C230.046 241.248 230.34 240.907 230.707 240.637C231.071 240.368 231.5 240.154 231.992 239.995C232.484 239.835 232.985 239.709 233.494 239.613C234.033 239.518 234.573 239.439 235.113 239.375C235.653 239.313 236.169 239.232 236.662 239.137C237.154 239.042 237.615 238.923 238.043 238.78C238.472 238.637 238.829 238.44 239.115 238.185ZM223.488 233.188H230.253C230.38 231.855 230.826 230.903 231.587 230.333C232.35 229.761 233.398 229.476 234.732 229.476C235.335 229.476 235.899 229.516 236.424 229.595C236.947 229.674 237.408 229.833 237.806 230.07C238.202 230.309 238.52 230.642 238.758 231.071C238.997 231.498 239.115 232.078 239.115 232.808C239.147 233.506 238.941 234.037 238.495 234.402C238.051 234.767 237.447 235.044 236.685 235.235C235.924 235.425 235.049 235.567 234.065 235.663C233.08 235.758 232.079 235.886 231.064 236.044C230.046 236.203 229.039 236.417 228.038 236.687C227.038 236.956 226.148 237.36 225.37 237.9C224.592 238.44 223.957 239.161 223.465 240.065C222.972 240.97 222.726 242.12 222.726 243.517C222.726 244.785 222.94 245.88 223.369 246.8C223.798 247.72 224.393 248.483 225.156 249.085C225.918 249.687 226.807 250.132 227.823 250.417C228.84 250.703 229.936 250.845 231.112 250.845C232.635 250.845 234.129 250.623 235.59 250.179C237.051 249.735 238.321 248.958 239.401 247.847C239.433 248.26 239.489 248.664 239.568 249.06C239.647 249.457 239.75 249.846 239.877 250.227H246.739C246.42 249.72 246.198 248.958 246.071 247.942C245.944 246.927 245.88 245.865 245.88 244.754V231.95C245.88 230.46 245.548 229.262 244.88 228.358C244.214 227.453 243.355 226.747 242.307 226.239C241.259 225.733 240.099 225.391 238.829 225.217C237.559 225.042 236.304 224.954 235.065 224.954C233.7 224.954 232.342 225.09 230.992 225.359C229.641 225.629 228.427 226.081 227.348 226.716C226.267 227.35 225.377 228.191 224.679 229.238C223.98 230.285 223.583 231.602 223.488 233.188ZM215.168 235.283H204.162C204.194 234.806 204.297 234.267 204.472 233.664C204.646 233.062 204.949 232.491 205.378 231.95C205.806 231.411 206.378 230.959 207.092 230.594C207.808 230.229 208.704 230.047 209.784 230.047C211.436 230.047 212.668 230.492 213.477 231.38C214.287 232.269 214.851 233.569 215.168 235.283ZM204.162 239.566H221.933C222.06 237.662 221.902 235.838 221.458 234.093C221.012 232.348 220.29 230.793 219.29 229.428C218.289 228.065 217.01 226.977 215.454 226.168C213.897 225.359 212.072 224.954 209.975 224.954C208.101 224.954 206.393 225.288 204.853 225.953C203.312 226.62 201.986 227.533 200.875 228.691C199.763 229.85 198.905 231.222 198.302 232.808C197.699 234.394 197.397 236.108 197.397 237.947C197.397 239.852 197.69 241.597 198.279 243.183C198.866 244.77 199.699 246.133 200.78 247.275C201.859 248.419 203.177 249.299 204.735 249.918C206.29 250.536 208.037 250.845 209.975 250.845C212.77 250.845 215.152 250.212 217.121 248.942C219.091 247.673 220.552 245.562 221.505 242.611H215.55C215.327 243.373 214.723 244.095 213.739 244.777C212.754 245.461 211.579 245.801 210.213 245.801C208.308 245.801 206.846 245.309 205.83 244.325C204.814 243.342 204.258 241.755 204.162 239.566ZM150.244 238.947H143.002C142.971 241.041 143.351 242.849 144.145 244.373C144.938 245.896 146.011 247.15 147.361 248.133C148.711 249.116 150.267 249.839 152.03 250.297C153.793 250.758 155.611 250.988 157.486 250.988C159.804 250.988 161.845 250.718 163.608 250.179C165.371 249.64 166.848 248.887 168.039 247.918C169.231 246.951 170.127 245.801 170.731 244.468C171.334 243.135 171.636 241.692 171.636 240.136C171.636 238.233 171.231 236.67 170.422 235.449C169.611 234.228 168.65 233.252 167.538 232.522C166.426 231.792 165.307 231.26 164.18 230.928C163.051 230.594 162.17 230.364 161.535 230.238C159.407 229.699 157.683 229.254 156.365 228.905C155.048 228.556 154.015 228.208 153.269 227.858C152.522 227.509 152.022 227.128 151.769 226.716C151.514 226.303 151.387 225.764 151.387 225.097C151.387 224.367 151.545 223.764 151.864 223.289C152.18 222.813 152.585 222.416 153.079 222.099C153.57 221.782 154.118 221.56 154.722 221.432C155.326 221.306 155.929 221.242 156.533 221.242C157.453 221.242 158.304 221.322 159.082 221.48C159.86 221.639 160.551 221.909 161.154 222.289C161.757 222.67 162.242 223.194 162.607 223.86C162.972 224.527 163.187 225.367 163.25 225.621H170.492C170.404 224.51 170.119 222.742 169.372 221.361C168.625 219.981 167.617 218.847 166.347 217.958C165.077 217.07 163.624 216.428 161.988 216.03C160.352 215.634 158.644 215.435 156.866 215.435C155.342 215.435 153.817 215.642 152.292 216.055C150.768 216.467 149.401 217.102 148.195 217.958C146.988 218.814 146.011 219.886 145.265 221.171C144.519 222.456 144.145 223.971 144.145 225.716C144.145 227.271 144.438 228.596 145.027 229.69C145.614 230.785 146.384 231.697 147.337 232.427C148.291 233.156 149.37 233.751 150.578 234.211C151.784 234.672 153.023 235.061 154.294 235.377C155.533 235.727 156.754 236.044 157.962 236.33C159.169 236.614 160.249 236.948 161.202 237.329C162.155 237.71 162.925 238.185 163.512 238.757C164.099 239.327 164.394 240.073 164.394 240.994C164.394 241.85 164.172 242.557 163.727 243.111C163.282 243.667 162.726 244.103 162.059 244.42C161.393 244.738 160.678 244.951 159.915 245.063C159.153 245.174 158.438 245.229 157.772 245.229C156.787 245.229 155.834 245.111 154.913 244.872C153.991 244.634 153.189 244.271 152.507 243.778C151.823 243.286 151.275 242.644 150.863 241.85C150.45 241.058 150.244 240.09 150.244 238.947ZM173.813 262.388V286.994H180.578V275.904C180.578 274.795 180.689 273.763 180.911 272.811C181.134 271.86 181.507 271.027 182.03 270.313C182.555 269.598 183.246 269.036 184.103 268.622C184.961 268.211 186.01 268.004 187.249 268.004C187.66 268.004 188.09 268.028 188.534 268.075C188.979 268.123 189.36 268.178 189.679 268.242V261.96C189.138 261.802 188.646 261.722 188.201 261.722C187.343 261.722 186.517 261.849 185.724 262.103C184.929 262.357 184.182 262.714 183.484 263.174C182.786 263.634 182.166 264.19 181.626 264.839C181.086 265.49 180.657 266.195 180.339 266.957H180.244V262.388H173.813ZM172.963 225.646V250.252H179.728V237.354C179.728 234.848 180.141 233.047 180.967 231.952C181.793 230.858 183.127 230.31 184.97 230.31C186.589 230.31 187.716 230.81 188.352 231.809C188.987 232.808 189.305 234.324 189.305 236.355V250.252H196.07V235.117C196.07 233.594 195.935 232.207 195.665 230.953C195.395 229.699 194.926 228.637 194.26 227.763C193.593 226.892 192.679 226.21 191.521 225.717C190.361 225.226 188.876 224.979 187.066 224.979C185.636 224.979 184.238 225.306 182.874 225.955C181.507 226.606 180.396 227.645 179.538 229.073H179.395V225.646H172.963ZM237.128 176.014C237.128 184.293 230.385 191.029 222.097 191.029H200.624V207.31H192.398V177.281H230.759C231.458 177.281 232.027 176.713 232.027 176.014C232.027 175.316 231.458 174.748 230.759 174.748H151.503C150.804 174.748 150.235 175.316 150.235 176.014C150.235 176.713 150.804 177.281 151.503 177.281H174.833C183.12 177.281 189.863 184.016 189.863 192.295C189.863 200.574 183.12 207.31 174.833 207.31H145.134V193.561H183.495C184.194 193.561 184.762 192.993 184.762 192.295C184.762 191.597 184.194 191.029 183.495 191.029H160.165C151.877 191.029 145.134 184.293 145.134 176.014C145.134 167.736 151.877 161 160.165 161H222.097C230.385 161 237.128 167.736 237.128 176.014Z" fill="white"/>
</svg>
