<svg width="455" height="455" viewBox="0 0 455 455" fill="none" xmlns="http://www.w3.org/2000/svg">
<path d="M225.332 204.518L222.39 202.926C221.499 202.448 220.687 201.773 220.011 200.999C218.653 199.445 217.859 197.417 217.817 195.352C217.747 193.29 218.438 191.226 219.739 189.616C220.384 188.809 221.17 188.113 222.051 187.566C222.19 187.482 222.334 187.406 222.476 187.327C225.282 186.193 228.277 185.554 231.315 185.463V207.813C229.321 206.715 227.332 205.605 225.332 204.518ZM261.325 240.882C261.176 236.315 259.943 231.79 257.762 227.777C255.587 223.759 252.456 220.259 248.69 217.669C247.761 217.021 246.749 216.424 245.789 215.889L242.879 214.241L237.047 210.97C235.625 210.178 234.194 209.402 232.77 208.614V185.466C236.799 185.575 240.857 186.641 244.6 188.765C252.443 193.218 257.358 201.544 257.491 210.554L257.494 210.91L258.948 210.903C258.948 210.783 258.947 210.661 258.945 210.541L258.745 184.71L258.035 184.715L257.291 184.69C257.279 185.864 256.927 186.97 256.285 187.916C255.643 188.854 254.732 189.618 253.678 190.051C252.625 190.493 251.438 190.613 250.312 190.393C249.792 190.294 249.288 190.114 248.814 189.877C247.721 189.002 246.556 188.203 245.319 187.5C238.781 183.789 231.335 183.128 224.624 185.049L224.618 185.022C224.019 185.196 223.426 185.391 222.851 185.626C217.037 187.733 211.913 191.831 208.628 197.617C201.306 210.511 205.844 226.97 218.743 234.307C231.106 241.339 247.77 250.661 247.916 250.743C250.387 252.235 251.863 254.845 251.863 257.728C251.863 259.975 250.968 262.066 249.347 263.619C249.325 263.636 249.306 263.655 249.285 263.671C244.797 267.152 239.47 269.518 233.877 270.395C233.509 270.454 233.139 270.488 232.77 270.534V246.379C232.317 245.137 231.315 244.894 231.315 244.894V270.684C226.509 271.045 221.625 270.302 217.131 268.552C213.868 267.291 210.827 265.485 208.135 263.256C206.577 261.662 205.325 259.777 204.533 257.702C203.541 255.108 203.225 252.261 203.677 249.516C204.114 246.771 205.292 244.154 207.06 242.01C207.501 241.475 207.98 240.964 208.483 240.496C208.959 240.066 209.641 239.52 210.111 238.896C211.11 237.659 211.743 236.128 211.915 234.552C212.094 232.973 211.814 231.342 211.114 229.915C210.418 228.486 209.313 227.261 207.957 226.426C206.603 225.588 205.011 225.156 203.423 225.173C201.831 225.185 200.25 225.67 198.92 226.54C197.588 227.406 196.508 228.656 195.849 230.104C195.681 230.465 195.544 230.839 195.433 231.22C195.375 231.407 195.326 231.606 195.281 231.81C195.234 232.022 195.214 232.157 195.176 232.377C195.063 233.099 194.963 233.842 194.892 234.578C194.606 237.531 194.694 240.523 195.179 243.452C196.128 249.315 198.656 254.903 202.39 259.515C206.122 264.129 211.063 267.765 216.603 269.907C222.13 272.061 228.232 272.772 234.103 271.832C239.947 270.918 245.521 268.434 250.17 264.826C250.175 264.822 250.179 264.819 250.184 264.815C250.199 264.804 250.215 264.793 250.229 264.782L250.228 264.779C253.787 261.975 256.679 258.299 258.601 254.188C260.542 250.051 261.481 245.448 261.325 240.882Z" fill="white"/>
<path d="M328.931 242.081C328.931 256.119 317.51 267.539 303.473 267.539H291.107V212.257C291.107 197.418 279.035 185.345 264.195 185.345H263.468V267.539H258.382V268.994H330.385V242.081H328.931Z" fill="white"/>
<path d="M196.474 185.345H195.253V186.787L196.434 186.799H196.472C201.334 186.818 205.284 190.782 205.284 195.649C205.284 196.91 205.023 198.134 204.516 199.261L187.092 229.36L179.829 216.952L162.384 186.799H178.37V185.345H126V186.799H130.461L160.183 238.28V242.081C160.183 256.921 172.256 268.994 187.096 268.994H187.823V231.001L204.832 201.62L204.833 201.621C205.215 201.083 205.544 200.515 205.814 199.925L214.235 185.379L196.474 185.345Z" fill="white"/>
</svg>
