<svg width="455" height="455" viewBox="0 0 455 455" fill="none" xmlns="http://www.w3.org/2000/svg">
<path d="M238.232 203.238C238.153 203.187 238.074 203.136 237.995 203.085C238.074 202.876 238.154 202.668 238.314 202.25C237.939 202.586 237.711 202.79 237.46 203.015C237.592 202.501 237.697 202.006 237.821 201.528C237.878 201.519 237.937 201.511 237.997 201.503C238.771 201.4 239.42 201.507 239.6 201.687C239.43 201.845 239.24 201.985 239.034 202.106C238.767 202.483 238.499 202.861 238.232 203.238ZM236.509 202.64C236.351 202.342 236.273 202.048 236.263 201.767C236.648 201.72 236.966 201.667 237.277 201.615C237.173 202.008 236.948 202.356 236.509 202.64ZM234.263 205.951C234.149 205.942 234.015 205.837 233.943 205.738C233.643 205.324 233.684 203.565 234.015 203.116C234.317 202.706 234.524 202.345 234.437 201.888C234.515 201.889 234.601 201.888 234.697 201.884C234.972 201.874 235.219 201.86 235.444 201.844C235.532 202.187 235.536 202.556 235.467 202.971C235.409 203.32 235.795 203.721 235.887 204.12C236.057 204.852 235.01 206.014 234.263 205.951ZM230.164 205.445C229.574 205.243 228.982 205.044 228.393 204.837C227.088 204.378 225.782 203.925 224.483 203.45C224.054 203.293 223.645 203.08 223.229 202.889C222.413 202.515 222.551 201.908 222.769 201.222C222.782 201.181 222.796 201.144 222.812 201.108C222.526 201.036 222.218 200.956 221.915 200.875C222.659 200.582 223.165 200.298 223.165 200.298L225.247 200.555C225.149 200.6 225.049 200.651 224.952 200.704C225.456 200.902 225.88 201.286 226.256 201.714C226.926 202.48 227.54 203.298 228.249 204.024C228.531 204.313 229.009 204.405 229.385 204.61C229.699 204.782 229.993 204.987 230.296 205.177L230.164 205.445ZM226.766 200.742L227.866 200.924C227.797 201.199 227.724 201.491 227.651 201.783L227.438 201.76C227.371 201.566 227.304 201.372 227.225 201.143C227.025 201.223 226.826 201.303 226.601 201.394C226.483 201.194 226.363 200.992 226.172 200.669L226.766 200.742ZM228.57 203.245C228.786 202.53 228.836 201.633 229.994 201.998C230.027 202.81 229.234 203.531 228.57 203.245ZM195.249 181.842C195.198 182.217 195.079 182.366 194.81 182.445C194.795 182.332 194.733 182.228 194.638 182.159C194.593 182.127 194.55 181.9 194.529 181.79C194.47 181.483 194.396 181.099 194.044 180.891C193.935 180.827 193.813 180.789 193.676 180.778C193.672 180.669 193.626 180.565 193.546 180.489L193.358 180.308C193.348 180.298 193.337 180.289 193.326 180.28C193.42 180.328 193.513 180.376 193.605 180.425C194.032 180.653 194.459 180.911 194.872 181.161C194.937 181.2 195.003 181.24 195.07 181.28C195.07 181.352 195.089 181.423 195.127 181.488C195.169 181.561 195.23 181.618 195.301 181.654C195.276 181.712 195.257 181.774 195.249 181.842ZM271.493 188.812C271.314 188.667 271.148 188.516 270.988 188.371C270.614 188.031 270.261 187.71 269.818 187.535C269.597 187.447 269.365 187.425 269.124 187.431C269.137 187.41 269.147 187.387 269.156 187.364C269.215 187.206 269.174 187.028 269.051 186.911L268.837 186.706C268.833 186.701 268.828 186.697 268.824 186.693C268.832 186.693 268.839 186.693 268.846 186.692L268.86 186.692C269.013 186.684 269.15 186.595 269.218 186.459C269.287 186.322 269.276 186.159 269.191 186.032C269.097 185.892 269.013 185.733 268.925 185.564C268.58 184.908 268.109 184.01 266.74 184.379C266.722 184.384 266.706 184.39 266.689 184.396L265.932 183.295L266.66 183.073C266.853 183.015 266.977 182.829 266.959 182.629C266.939 182.428 266.782 182.269 266.582 182.248C266.353 182.224 266.269 182.179 266.246 182.164C266.238 182.11 266.264 181.97 266.28 181.885C266.326 181.636 266.39 181.296 266.22 180.976C266.11 180.77 265.854 180.692 265.648 180.801L264.431 181.445C264.309 181.509 264.227 181.629 264.209 181.765C264.202 181.824 264.207 181.884 264.224 181.939L263.454 182.111C263.401 182.046 263.332 182 263.255 181.975C263.235 181.65 263.183 181.33 263.05 181.038C262.955 180.83 262.814 180.662 262.688 180.514C262.427 180.205 262.308 180.064 262.491 179.684C262.551 179.56 262.547 179.414 262.48 179.294C262.412 179.173 262.29 179.093 262.153 179.079L259.601 178.819C259.493 178.675 259.434 178.511 259.435 178.344C259.435 178.142 259.525 177.946 259.695 177.778C259.798 177.676 259.841 177.529 259.81 177.387C259.779 177.246 259.678 177.13 259.542 177.08C258.875 176.836 258.614 176.436 258.695 175.781C258.721 175.576 258.594 175.382 258.396 175.324C258.198 175.265 257.986 175.357 257.895 175.543C257.73 175.882 256.956 176.251 256.739 176.195C256.617 176.142 256.492 175.985 256.361 175.82C256.116 175.511 255.733 175.029 255.068 175.114C254.825 174.723 254.384 174.73 254.169 174.733C254.044 174.735 253.927 174.737 253.875 174.7C253.816 174.659 253.751 174.634 253.684 174.626V174.498C253.898 174.437 254.133 174.333 254.164 174.047C254.193 173.787 254.169 173.536 254.146 173.294C254.139 173.212 254.13 173.128 254.125 173.047C254.124 173.032 254.122 173.017 254.119 173.002C254.156 172.98 254.194 172.956 254.233 172.933C254.37 172.849 254.448 172.695 254.434 172.535C254.421 172.375 254.318 172.237 254.168 172.178L253.358 171.858C253.33 171.847 253.301 171.839 253.272 171.834C253.261 170.752 252.847 169.803 252.046 169.045C251.936 168.94 251.777 168.903 251.631 168.948C251.577 168.965 251.521 168.981 251.464 168.997C251.1 169.099 250.601 169.239 250.452 169.694C250.378 169.917 250.42 170.143 250.499 170.336C250.365 170.39 250.235 170.448 250.107 170.505C249.337 170.849 248.829 171.077 248.163 170.354C248.053 170.235 247.885 170.189 247.731 170.235C247.641 170.262 247.565 170.317 247.512 170.39L247.213 169.853C247.168 169.772 247.097 169.708 247.012 169.67L244.217 168.45C244.389 168.051 244.552 167.671 244.753 167.204C244.816 167.058 244.791 166.889 244.689 166.766C244.587 166.644 244.425 166.589 244.269 166.625L243.594 166.78C243.602 166.769 243.61 166.757 243.619 166.745C243.758 166.544 243.872 166.336 244.017 166.074C244.088 165.946 244.168 165.802 244.261 165.639C244.36 165.466 244.325 165.248 244.177 165.114C244.03 164.981 243.809 164.969 243.647 165.085L243.286 165.345L243.361 164.525C243.375 164.374 243.306 164.226 243.18 164.139C243.055 164.052 242.893 164.04 242.756 164.106L241.839 164.549C241.302 164.227 240.711 164.292 240.079 164.742C239.989 164.807 239.897 164.875 239.809 164.94C239.437 165.217 239.053 165.503 238.706 165.551C238.317 165.606 237.87 165.484 237.396 165.356C237.269 165.322 237.14 165.286 237.01 165.254C236.998 165.23 236.986 165.201 236.98 165.176C236.882 164.759 236.689 164.5 236.407 164.407C236.196 164.337 235.99 164.381 235.819 164.459L235.508 163.983C235.416 163.841 235.247 163.768 235.08 163.798C234.913 163.828 234.78 163.954 234.742 164.119C234.696 164.315 234.649 164.395 234.628 164.421C234.567 164.414 234.427 164.359 234.106 164.152C233.95 164.052 233.746 164.065 233.605 164.185C233.463 164.305 233.415 164.503 233.488 164.674C233.508 164.72 233.526 164.763 233.544 164.804C233.179 164.782 232.916 164.811 232.667 164.912C232.436 164.633 232.196 164.425 231.887 164.387C231.493 164.338 231.152 164.583 230.781 164.887C230.743 164.899 230.653 164.906 230.591 164.911C230.514 164.918 230.426 164.925 230.338 164.942C230.159 164.977 230.021 165.124 229.999 165.305C229.982 165.445 230.034 165.581 230.136 165.672C230.109 165.709 230.088 165.751 230.074 165.796C230.069 165.814 230.063 165.831 230.059 165.848L229.255 165.289C229.287 165.202 229.29 165.107 229.262 165.017L229.179 164.752C229.363 164.838 229.534 164.918 229.704 164.998C229.863 165.073 230.051 165.041 230.178 164.92C230.304 164.798 230.342 164.611 230.273 164.449C230.092 164.024 229.911 163.597 229.791 163.313C229.711 163.125 229.508 163.021 229.309 163.065L228.071 163.343C227.954 163.369 227.854 163.444 227.795 163.548C227.689 163.737 227.592 163.908 227.501 164.069C227.412 164.01 227.304 163.986 227.198 164.004C227.082 164.023 226.979 164.089 226.914 164.188C226.794 164.368 226.733 164.574 226.679 164.756C226.552 165.179 226.539 165.177 226.322 165.137C226.108 165.097 225.879 164.965 225.637 164.824C225.524 164.759 225.408 164.691 225.287 164.629C225.119 164.514 224.929 164.536 224.782 164.575C224.734 164.497 224.686 164.407 224.634 164.309C224.588 164.222 224.541 164.132 224.485 164.037C224.4 163.891 224.237 163.809 224.07 163.829L224.001 163.837C224.001 163.702 223.991 163.565 223.955 163.426C223.871 163.11 223.45 162.776 223.096 162.851C222.79 162.915 222.489 163.27 222.463 163.594L222.46 163.641C222.456 163.688 222.452 163.737 222.448 163.783C222.393 163.768 222.332 163.751 222.275 163.735L222.243 163.726C222.07 163.677 221.905 163.688 221.771 163.697C221.726 163.7 221.682 163.703 221.645 163.703C221.528 163.703 221.416 163.752 221.337 163.837C221.256 163.922 221.216 164.037 221.223 164.154L221.273 164.933C221.169 164.981 221.083 165.04 221.02 165.083C220.87 165.185 220.825 165.206 220.784 165.194C220.606 165.142 220.415 165.213 220.313 165.368C220.234 165.335 220.147 165.327 220.063 165.345L218.553 165.67C218.53 165.675 218.507 165.682 218.485 165.691C218.349 165.553 218.176 165.485 217.994 165.458C218.178 165.278 218.445 165.17 218.799 165.038C219.111 164.922 219.433 164.801 219.706 164.58C219.797 164.507 219.853 164.399 219.862 164.283C219.871 164.166 219.831 164.052 219.752 163.966L218.782 162.903L218.952 162.768C219.093 162.656 219.147 162.467 219.088 162.297C219.028 162.128 218.868 162.014 218.689 162.014C218.588 162.014 218.512 162.009 218.445 162.005C218.302 161.997 218.153 161.988 218.001 162.068C217.757 162.197 217.575 162.371 217.413 162.524C217.166 162.759 216.971 162.944 216.585 162.982C216.423 162.999 216.27 163.025 216.134 163.049C215.623 163.139 215.467 163.151 215.261 162.848C215.148 162.682 214.934 162.618 214.749 162.695C214.43 162.828 214.175 163.059 213.95 163.264C213.471 163.7 213.298 163.823 212.857 163.505C212.727 163.412 212.556 163.399 212.414 163.473C212.216 163.576 212.017 163.68 211.819 163.783C211.302 164.053 210.767 164.332 210.24 164.599C210.24 164.599 210.239 164.599 210.239 164.6C209.935 164.433 209.634 164.254 209.29 164.049C209.168 163.977 209.042 163.901 208.909 163.823C208.846 163.776 208.77 163.747 208.688 163.74C208.515 163.727 208.142 163.856 208.019 164.162C207.826 164.642 207.236 164.697 206.991 164.698C206.268 164.701 205.75 165.031 205.294 165.321C205.06 165.47 204.84 165.611 204.607 165.7C204.415 165.773 203.897 166.127 204.019 166.557C204.105 166.858 204.061 166.917 203.594 167.133C203.466 167.192 203.334 167.253 203.213 167.332C202.549 167.765 201.892 168.086 201.26 168.286C200.743 168.449 200.41 168.699 200.243 169.047C200.042 169.468 200.136 169.938 200.224 170.254C200.241 170.319 200.208 170.488 200.167 170.547C200.064 170.626 199.876 170.706 199.762 170.735C199.303 170.345 198.804 170.147 198.276 170.147C198.256 170.146 198.235 170.148 198.215 170.148C198.189 170.115 198.158 170.086 198.123 170.061C198.04 170.003 197.956 169.938 197.882 169.88C197.651 169.698 197.39 169.493 197.099 169.689C196.702 169.957 196.411 170.064 195.924 169.902C195.549 169.777 195.158 169.877 194.813 169.966C194.59 170.023 194.379 170.077 194.211 170.066C193.434 170.014 192.766 170.177 192.169 170.564C191.673 170.886 191.242 171.349 190.814 172.023C190.753 172.119 190.733 172.237 190.76 172.348C190.786 172.459 190.857 172.555 190.955 172.614L191.747 173.084L188.826 174.314C188.73 174.354 188.652 174.429 188.607 174.524C188.541 174.665 188.489 174.807 188.439 174.944C188.36 175.162 188.278 175.387 188.173 175.478C187.811 175.79 187.669 176.104 187.75 176.41C187.805 176.619 187.987 176.89 188.537 176.998C188.649 177.02 188.701 177.046 188.72 177.058C188.727 177.125 188.685 177.291 188.656 177.404L188.64 177.47C188.609 177.597 188.637 177.73 188.718 177.833C188.798 177.935 188.921 177.995 189.051 177.995C189.165 177.995 189.276 177.989 189.384 177.983C189.591 177.973 189.787 177.962 189.945 177.999C190.126 178.04 190.316 178.124 190.547 178.231L190.032 178.778C189.92 178.897 189.887 179.071 189.947 179.223C190.006 179.375 190.149 179.479 190.312 179.49C190.434 179.498 190.545 179.505 190.651 179.511C190.864 179.523 191.049 179.534 191.227 179.554C191.292 179.561 191.358 179.567 191.424 179.573C191.623 179.59 191.811 179.607 191.953 179.663C192.378 179.833 192.787 180.014 193.174 180.204C193.098 180.184 193.016 180.185 192.938 180.21C192.791 180.256 192.68 180.379 192.65 180.531C192.62 180.682 192.584 180.715 192.196 180.792C191.803 180.869 191.145 180.998 190.934 181.822C190.9 181.957 190.934 182.102 191.027 182.207C191.049 182.232 191.074 182.253 191.1 182.272C190.857 182.54 190.592 182.864 190.672 183.225C190.684 183.278 190.689 183.318 190.691 183.346C190.646 183.353 190.587 183.357 190.542 183.36C190.394 183.372 190.185 183.388 190.004 183.486C189.946 183.464 189.866 183.435 189.821 183.411C189.734 183.209 189.54 182.826 189.162 182.789C188.751 182.75 188.493 183.139 188.339 183.372C188.32 183.4 188.26 183.449 188.207 183.491C188.135 183.549 188.053 183.615 187.977 183.701C187.611 184.118 187.243 184.545 186.887 184.958C186.759 185.106 186.631 185.254 186.503 185.403C186.375 185.552 186.366 185.771 186.483 185.929L186.617 186.112C186.69 186.213 186.804 186.274 186.924 186.284C186.766 186.532 186.934 186.791 187.019 186.921C187.045 186.961 187.092 187.035 187.108 187.07C187.109 187.082 187.109 187.098 187.108 187.115C186.923 187.142 186.727 187.153 186.523 187.164C186.47 187.167 186.418 187.17 186.366 187.173C186.318 187.176 186.245 187.169 186.175 187.162C185.972 187.141 185.721 187.116 185.491 187.255C184.899 187.615 184.323 188.002 183.713 188.412C183.488 188.564 183.256 188.719 183.016 188.879C182.918 188.944 182.851 189.049 182.832 189.166C182.814 189.282 182.845 189.402 182.919 189.494L183.414 190.118L183.237 190.225C183.044 190.342 182.976 190.588 183.083 190.787L183.11 190.837C183.155 190.921 183.2 191.004 183.244 191.088C183.321 191.232 183.475 191.319 183.637 191.312C183.687 191.309 183.751 191.313 183.818 191.317C183.932 191.323 184.06 191.33 184.189 191.312C184.22 191.456 184.275 191.591 184.321 191.707C184.352 191.783 184.4 191.902 184.414 191.969C184.257 192.066 184.189 192.23 184.21 192.457C184.211 192.466 184.212 192.476 184.212 192.481C184.212 192.678 184.348 192.849 184.54 192.893L184.565 192.899C184.555 192.908 184.546 192.916 184.539 192.92C184.194 193.014 183.956 193.185 183.833 193.427C183.661 193.763 183.764 194.123 183.856 194.366C183.955 194.627 184.109 194.803 184.313 194.888C184.443 194.942 184.57 194.951 184.692 194.936C184.632 195.047 184.623 195.182 184.676 195.304L184.736 195.444C184.809 195.613 184.984 195.716 185.168 195.697L187.407 195.464C187.592 195.445 187.743 195.307 187.779 195.125L187.963 194.185C188.376 194.447 188.77 194.698 189.162 194.947L186.698 195.878C186.496 195.954 186.384 196.169 186.437 196.378C186.567 196.888 186.567 196.888 186.57 196.898C186.614 197.051 186.742 197.166 186.899 197.195C187.323 197.273 187.464 197.536 187.675 197.993C187.843 198.357 188.034 198.771 188.479 198.996C188.61 199.062 188.767 199.056 188.892 198.979L188.892 198.978L189.475 199.668C189.572 199.781 189.721 199.836 189.868 199.812C190.015 199.788 190.138 199.687 190.192 199.549C190.278 199.329 190.495 199.178 190.745 199.002C191.126 198.735 191.615 198.393 191.685 197.695L192.726 198.136C192.906 198.213 193.116 198.155 193.232 197.997C193.308 197.894 193.393 197.778 193.485 197.652L193.487 197.656C193.549 197.801 193.687 197.899 193.845 197.911C194.001 197.922 194.153 197.845 194.235 197.71C194.317 197.578 194.39 197.447 194.461 197.321C194.578 197.111 194.684 196.921 194.803 196.77C194.878 196.811 194.965 196.861 195.028 196.897C195.148 196.967 195.273 197.039 195.384 197.093C195.499 197.149 195.633 197.149 195.748 197.095C195.864 197.04 195.948 196.937 195.979 196.813C195.999 196.731 196.013 196.647 196.027 196.566C196.036 196.514 196.048 196.444 196.062 196.383C196.106 196.407 196.164 196.444 196.239 196.5C196.498 196.693 196.826 196.573 197.023 196.502C197.223 196.428 197.421 196.354 197.615 196.279L197.376 196.958C197.333 197.079 197.348 197.213 197.415 197.321C197.482 197.43 197.595 197.503 197.722 197.519L197.83 197.532C198.013 197.554 198.274 197.587 198.397 197.631C198.379 197.686 198.334 197.787 198.225 197.948C198.153 198.055 198.134 198.19 198.173 198.313C198.206 198.416 198.276 198.501 198.369 198.553C197.819 199.023 197.589 199.678 197.668 200.535C197.681 200.668 197.756 200.788 197.871 200.858C197.986 200.927 198.127 200.938 198.252 200.887C198.328 200.855 198.393 200.822 198.445 200.796C198.471 200.783 198.505 200.767 198.525 200.757C198.566 200.758 198.607 200.76 198.649 200.761C198.626 200.773 198.601 200.784 198.581 200.794C198.468 200.846 198.313 200.918 198.192 201.057C198.042 201.232 197.915 201.424 197.792 201.609C197.599 201.899 197.418 202.172 197.204 202.292C196.528 202.67 196.371 203.237 196.233 203.737C196.176 203.942 196.123 204.135 196.035 204.323C195.968 204.467 195.988 204.637 196.086 204.762C196.184 204.887 196.344 204.947 196.501 204.916L197 204.818L196.927 205.132C196.884 205.321 196.974 205.515 197.146 205.603C197.318 205.692 197.529 205.652 197.657 205.507C197.792 205.353 197.912 205.214 198.018 205.09C198.167 204.917 198.296 204.767 198.42 204.633C198.416 204.835 198.412 205.108 198.614 205.304C198.661 205.349 198.71 205.39 198.762 205.429L196.899 206.007C196.803 206.037 196.722 206.1 196.668 206.184H196.289C196.165 206.184 196.047 206.238 195.966 206.333C195.886 206.428 195.851 206.553 195.872 206.676C195.901 206.848 195.928 207.024 195.956 207.202C196.023 207.628 196.093 208.068 196.182 208.508C196.262 208.904 196.48 209.207 196.794 209.362C197.135 209.532 197.556 209.511 197.981 209.306C198.08 209.258 198.19 209.22 198.278 209.193L199.116 209.618C199.314 209.718 199.555 209.65 199.67 209.46L199.83 209.196C199.94 209.015 199.898 208.779 199.732 208.647C199.591 208.534 199.451 208.422 199.3 208.302L201.56 207.738C201.691 207.705 201.798 207.612 201.849 207.488C201.911 207.337 201.936 207.181 201.958 207.044C202.008 206.731 202.03 206.589 202.348 206.476C203.063 206.223 203.773 205.578 204.036 204.942C204.157 204.65 204.251 204.616 204.29 204.602C204.43 204.551 204.702 204.591 204.923 204.632C205.099 204.664 205.276 204.582 205.365 204.428C205.455 204.273 205.438 204.079 205.323 203.943L204.927 203.473C205.416 202.9 206.037 202.557 206.55 202.557H206.558C206.378 202.916 206.197 203.277 206.01 203.65C205.926 203.817 205.961 204.019 206.097 204.147L206.523 204.55C206.617 204.639 206.747 204.68 206.876 204.661C207.004 204.642 207.117 204.565 207.181 204.452C207.286 204.27 207.386 204.093 207.489 203.914C207.709 204.246 207.924 204.561 208.167 204.858C208.347 205.078 208.664 205.123 209.165 204.999C209.392 204.943 209.607 204.862 209.857 204.768C209.974 204.724 210.095 204.679 210.234 204.629C210.339 204.592 210.425 204.514 210.473 204.414C210.645 204.056 211.216 203.594 211.892 203.264C212.607 202.915 213.19 202.833 213.397 202.932C213.543 203.001 213.716 202.982 213.842 202.881C213.918 202.821 213.99 202.765 214.06 202.713C214.213 202.595 214.358 202.483 214.496 202.355C214.562 202.293 214.643 202.228 214.729 202.16C215.005 201.94 215.317 201.691 215.404 201.317C215.522 200.801 215.763 200.671 216.472 200.518C217.179 200.367 217.37 201.204 218.099 201.394L218.099 201.394C218 201.438 217.897 201.482 217.79 201.528C218.031 201.723 218.228 201.986 218.366 202.306C218.509 202.641 218.953 202.933 219.323 203.064C219.806 203.236 220.369 203.173 220.864 203.321C221.11 203.394 221.382 203.677 221.471 203.927C221.772 204.769 222.837 205.537 223.638 205.432C224.859 205.272 225.91 205.667 226.857 206.424C227.814 207.189 228.765 207.964 229.765 208.668C230.425 209.133 230.695 209.68 230.64 210.482C230.591 211.197 230.746 211.927 230.675 212.637C230.51 214.27 230.303 215.902 230.029 217.52C229.916 218.188 229.187 218.075 228.705 218.184C228.515 218.227 228.241 217.81 228.018 217.823C227.818 217.834 227.619 217.875 227.42 217.921C226.135 217.659 226.766 218.192 225.941 218.074C225.116 217.955 224.735 217.875 224.037 218.074C223.339 218.272 223.529 218.255 222.768 218.114C222.007 217.973 221.499 218.255 220.04 218.14C218.58 218.026 219.722 218.319 218.961 218.382C218.199 218.446 218.961 218.382 217.501 218.168C216.042 217.954 215.026 219.048 215.026 219.048H213.821C213.821 219.048 212.235 218.89 211.917 218.39C211.6 217.891 209.823 218.39 209.823 218.39C209.823 218.39 209.11 218.431 208.539 218.653C207.968 218.874 206.994 218.699 206.994 218.699C206.994 218.699 204.44 219.247 203.298 219.12C202.156 218.994 199.624 220.103 196.747 220.477H266.487C266.487 220.477 264.111 220.082 263.519 219.869C262.926 219.656 260.85 220.086 259.666 219.619C258.482 219.153 255.765 219.017 254.369 219.048C252.973 219.08 253.036 219.207 252.148 219.048C251.259 218.889 250.054 218.89 249.102 219.048C248.15 219.207 248.658 218.7 247.389 218.47C246.119 218.24 245.295 218.953 243.835 219.048C242.376 219.143 242.756 218.763 242.312 218.47C241.955 218.234 239.623 218.362 238.021 218.287C237.849 218.228 237.667 218.186 237.492 218.146C237.365 218.118 237.207 218.204 237.08 218.199C237.058 218.195 237.038 218.191 237.017 218.187C236.522 218.005 236.054 217.896 235.68 218.209C235.484 218.257 235.295 218.316 235.08 218.366C234.404 218.1 233.803 217.757 233.658 217.002C233.423 215.775 233.218 214.524 233.189 213.278C233.154 211.833 233.368 210.384 233.381 208.935C233.386 208.361 233.495 208.101 234.079 207.936C235.503 207.533 236.74 206.791 237.659 205.594C239.249 203.521 241.369 202.452 243.955 202.283C245.679 202.17 247.398 201.302 249.137 202.227C249.154 202.236 249.253 202.054 249.297 202.061C249.638 202.118 249.978 202.172 250.319 202.23C250.386 201.946 250.252 201.706 249.978 201.503C250.573 201.6 251.181 201.704 251.769 201.833C252.045 201.894 252.323 201.991 252.618 202.094C253.371 202.358 254.223 202.657 255.14 202.295C255.2 202.271 255.249 202.254 255.288 202.242C255.287 202.279 255.285 202.325 255.281 202.381C255.274 202.502 255.317 202.62 255.402 202.706C255.486 202.792 255.604 202.838 255.724 202.832L256.505 202.794C256.506 202.808 256.507 202.821 256.507 202.834C256.522 203.155 256.537 203.458 256.732 203.699C256.93 203.943 257.232 203.988 257.552 204.037C257.596 204.043 257.639 204.05 257.684 204.057C257.755 204.394 257.843 204.819 257.942 205.288C257.971 205.429 258.071 205.546 258.205 205.597C258.34 205.648 258.491 205.628 258.607 205.542C258.664 205.5 258.718 205.461 258.769 205.423L260.228 205.916C260.297 206.042 260.387 206.15 260.455 206.208C260.715 206.43 261.073 206.734 261.479 206.715C261.991 206.69 262.273 205.969 262.321 205.778C262.422 205.373 262.473 204.962 262.517 204.599C262.534 204.464 262.55 204.336 262.567 204.218C262.597 204.01 262.471 203.812 262.271 203.752L260.377 203.18C260.48 203.006 260.508 202.805 260.524 202.632L260.913 203.049C261.023 203.167 261.191 203.212 261.346 203.165C261.501 203.117 261.615 202.985 261.64 202.825C261.646 202.784 261.652 202.746 261.658 202.71C261.753 202.718 261.853 202.714 261.958 202.683C262.043 202.659 262.162 202.598 262.245 202.445C262.348 202.257 262.38 201.935 262.318 201.728C261.977 200.589 261.362 199.747 260.485 199.217L260.911 199.189C261.04 199.18 261.157 199.113 261.231 199.007C261.304 198.901 261.325 198.767 261.288 198.644L260.641 196.511L261.204 196.314C261.42 196.239 261.537 196.007 261.469 195.789C261.438 195.687 261.406 195.587 261.376 195.489C261.533 195.48 261.681 195.452 261.804 195.429C261.932 195.405 262.2 195.355 262.251 195.392C262.251 195.392 262.301 195.436 262.328 195.633C262.351 195.788 262.457 195.919 262.605 195.972C262.754 196.025 262.919 195.991 263.035 195.884C263.147 195.78 263.229 195.718 263.286 195.68C263.306 195.743 263.326 195.818 263.342 195.876C263.401 196.097 263.468 196.347 263.625 196.536C263.725 196.656 263.884 196.711 264.037 196.679C264.125 196.661 264.202 196.616 264.261 196.552L264.277 196.576C264.393 196.747 264.615 196.809 264.803 196.723L265.353 196.472L266.504 197.904C266.585 198.003 266.705 198.061 266.833 198.061H266.834C266.961 198.061 267.082 198.004 267.162 197.905C267.873 197.029 268.491 196.267 269.249 195.331C269.332 195.229 269.362 195.094 269.332 194.966C269.301 194.838 269.212 194.731 269.092 194.678L267.313 193.89L268 193.522C268.078 193.835 268.187 194.058 268.416 194.224C268.727 194.449 269.139 194.473 269.962 194.52C270.11 194.529 270.249 194.461 270.333 194.341C270.417 194.221 270.433 194.065 270.375 193.931C270.366 193.91 270.357 193.888 270.348 193.867L270.545 193.847C270.661 193.836 270.767 193.777 270.838 193.686C271.09 193.361 271.159 193.041 271.043 192.734C270.951 192.493 270.762 192.325 270.611 192.191C270.608 192.188 270.606 192.186 270.603 192.184C270.707 192.133 270.785 192.042 270.819 191.932C270.856 191.815 270.84 191.688 270.775 191.583C270.619 191.33 270.59 191.174 270.616 191.112C270.625 191.087 270.697 190.96 271.141 190.848C271.271 190.815 271.377 190.722 271.428 190.599C271.479 190.475 271.469 190.334 271.4 190.22C271.359 190.152 271.319 190.086 271.285 190.028C271.382 189.817 271.461 189.643 271.527 189.499L271.611 189.317C271.692 189.141 271.644 188.933 271.493 188.812Z" fill="white"/>
<path d="M219.333 236.49V259.303C219.333 259.254 221.34 258.049 221.551 257.838C226.304 253.085 231.056 248.332 235.809 243.58C236.208 243.181 235.339 243.678 235.278 243.714C234.732 244.034 234.159 244.425 233.709 244.874C228.957 249.627 224.204 254.379 219.452 259.132C220.191 258.644 220.93 258.155 221.669 257.667V234.854C221.669 235.202 219.333 235.795 219.333 236.49Z" fill="white"/>
<path d="M233.591 236.49V259.303C233.591 258.955 235.927 258.363 235.927 257.667V234.854C235.927 235.202 233.591 235.795 233.591 236.49Z" fill="white"/>
<path d="M114.365 266.432H121.748C122.96 266.432 124.183 266.361 125.361 266.695C127.386 267.27 129.067 268.808 129.828 270.77C130.655 272.903 130.371 275.807 128.78 277.543C128.36 278.001 127.75 278.369 127.267 278.756C124.916 280.639 122.565 282.524 120.213 284.407C118.412 285.85 116.611 287.294 114.809 288.738C115.419 288.36 116.028 287.984 116.637 287.607V264.795C116.637 265.143 114.302 265.735 114.302 266.431V289.243C114.302 289.231 115.984 288.23 116.13 288.113C120.255 284.808 124.381 281.502 128.506 278.197C130.681 276.454 132.612 274.668 132.621 271.591C132.633 267.467 129.174 264.813 125.296 264.793C122.389 264.779 119.481 264.793 116.574 264.793C116.123 264.793 115.424 265.458 115.08 265.718C114.954 265.813 114.224 266.432 114.365 266.432Z" fill="white"/>
<path d="M119.041 278.056C122.531 281.785 126.02 285.515 129.51 289.244C129.738 289.488 131.905 287.672 131.846 287.608C128.356 283.879 124.867 280.149 121.377 276.42C121.149 276.176 118.982 277.992 119.041 278.056Z" fill="white"/>
<path d="M295.296 266.432H302.68C303.891 266.432 305.114 266.361 306.293 266.695C308.317 267.27 309.998 268.808 310.759 270.77C311.586 272.903 311.303 275.807 309.711 277.543C309.291 278.001 308.681 278.369 308.198 278.756C305.847 280.639 303.496 282.524 301.145 284.407C299.343 285.85 297.542 287.294 295.741 288.738C296.35 288.36 296.959 287.984 297.569 287.607V264.795C297.569 265.143 295.233 265.735 295.233 266.431V289.243C295.233 289.231 296.915 288.23 297.061 288.113C301.187 284.808 305.312 281.502 309.437 278.197C311.612 276.454 313.543 274.668 313.552 271.591C313.565 267.467 310.105 264.813 306.227 264.793C303.32 264.779 300.413 264.793 297.505 264.793C297.054 264.793 296.356 265.458 296.012 265.718C295.886 265.813 295.155 266.432 295.296 266.432Z" fill="white"/>
<path d="M299.973 278.056C303.462 281.785 306.952 285.515 310.441 289.244C310.669 289.488 312.836 287.672 312.777 287.608C309.288 283.879 305.798 280.149 302.309 276.42C302.08 276.176 299.914 277.992 299.973 278.056Z" fill="white"/>
<path d="M203.134 287.608V264.796C203.134 265.144 200.798 265.736 200.798 266.432V289.244C200.798 288.896 203.134 288.304 203.134 287.608Z" fill="white"/>
<path d="M236.443 266.432V286.365C236.443 287.022 236.143 288.565 236.443 289.172C236.638 289.567 237.494 289.882 237.883 290.095C241.817 292.255 246.218 293.735 250.691 294.18C257.798 294.887 264.094 292.45 269.638 288.114C269.895 287.912 270.338 287.689 269.945 287.661C269.548 287.633 268.611 288.508 268.318 288.738C260.139 295.135 248.005 292.987 239.635 288.131C239.18 287.866 238.913 287.795 238.779 287.369C238.511 286.521 238.779 285.16 238.779 284.279V264.796C238.779 265.144 236.443 265.736 236.443 266.432Z" fill="white"/>
<path d="M197.377 266.432H204.76C205.971 266.432 207.195 266.361 208.373 266.695C210.398 267.27 212.079 268.808 212.84 270.77C213.666 272.903 213.383 275.807 211.792 277.543C211.372 278.001 210.761 278.369 210.279 278.756C207.928 280.639 205.576 282.524 203.225 284.407C201.424 285.85 199.623 287.294 197.821 288.738C197.566 288.942 197.12 289.163 197.514 289.191C197.906 289.218 198.853 288.344 199.142 288.113C203.267 284.808 207.392 281.502 211.518 278.197C213.693 276.454 215.624 274.668 215.633 271.591C215.645 267.467 212.186 264.813 208.308 264.793C205.401 264.779 202.493 264.793 199.586 264.793C199.134 264.793 198.436 265.458 198.092 265.718C197.966 265.813 197.235 266.432 197.377 266.432Z" fill="white"/>
<path d="M221.212 287.608V264.796C221.212 265.144 218.875 265.736 218.875 266.432V289.244C218.875 288.896 221.212 288.304 221.212 287.608Z" fill="white"/>
<path d="M215.453 266.432H222.837C224.048 266.432 225.271 266.361 226.45 266.695C228.475 267.27 230.155 268.808 230.916 270.77C231.743 272.903 231.46 275.807 229.868 277.543C229.448 278.001 228.838 278.369 228.355 278.756C226.004 280.639 223.653 282.524 221.302 284.407C219.5 285.85 217.699 287.294 215.898 288.738C215.642 288.942 215.196 289.163 215.591 289.191C215.983 289.218 216.93 288.344 217.218 288.113C221.344 284.808 225.469 281.502 229.595 278.197C231.769 276.454 233.7 274.668 233.709 271.591C233.722 267.467 230.262 264.813 226.385 264.793C223.477 264.779 220.57 264.793 217.662 264.793C217.211 264.793 216.513 265.458 216.169 265.718C216.043 265.813 215.312 266.432 215.453 266.432Z" fill="white"/>
<path d="M156.363 266.432H163.747C164.958 266.432 166.181 266.361 167.36 266.695C169.384 267.27 171.065 268.808 171.826 270.77C172.653 272.903 172.37 275.807 170.778 277.543C170.358 278.001 169.748 278.369 169.265 278.756C166.914 280.639 164.563 282.524 162.212 284.407C160.41 285.85 158.609 287.294 156.808 288.738C157.417 288.36 158.026 287.984 158.636 287.607V264.795C158.636 265.143 156.3 265.735 156.3 266.431V289.243C156.3 289.231 157.982 288.23 158.128 288.113C162.253 284.808 166.379 281.502 170.504 278.197C172.679 276.454 174.61 274.668 174.619 271.591C174.632 267.467 171.172 264.813 167.294 264.793C164.387 264.779 161.479 264.793 158.572 264.793C158.121 264.793 157.423 265.458 157.078 265.718C156.952 265.813 156.222 266.432 156.363 266.432Z" fill="white"/>
<path d="M284.562 266.432V289.244C284.562 289.232 286.244 288.231 286.39 288.114C288.413 286.497 290.437 284.879 292.461 283.262C292.717 283.057 293.163 282.836 292.768 282.808C292.376 282.781 291.43 283.655 291.141 283.885C289.117 285.503 287.093 287.121 285.07 288.738C285.679 288.361 286.288 287.985 286.898 287.608V264.796C286.898 265.144 284.562 265.736 284.562 266.432Z" fill="white"/>
<path d="M276.071 266.433H293.18C293.632 266.433 294.33 265.769 294.674 265.509C294.8 265.414 295.53 264.794 295.389 264.794H278.28C277.828 264.794 277.13 265.458 276.786 265.718C276.66 265.813 275.929 266.433 276.071 266.433Z" fill="white"/>
<path d="M207.927 236.49V259.303C207.927 259.29 209.61 258.289 209.755 258.173C211.779 256.556 213.803 254.938 215.826 253.32C216.082 253.116 216.528 252.895 216.133 252.867C215.741 252.839 214.795 253.713 214.506 253.944C212.483 255.562 210.459 257.179 208.435 258.797C209.044 258.42 209.654 258.044 210.263 257.667V234.854C210.263 235.202 207.927 235.795 207.927 236.49Z" fill="white"/>
<path d="M199.436 236.492H216.545C216.997 236.492 217.695 235.827 218.039 235.567C218.165 235.472 218.896 234.853 218.754 234.853H201.645C201.194 234.853 200.496 235.517 200.151 235.777C200.025 235.872 199.294 236.492 199.436 236.492Z" fill="white"/>
<path d="M154.658 287.608C151.331 280.003 148.004 272.399 144.678 264.795C144.629 264.685 142.486 266.087 142.362 266.371C139.035 273.975 135.708 281.579 132.381 289.183C132.306 289.356 133.227 288.801 133.298 288.755C133.669 288.515 134.486 288.105 134.677 287.668C138.004 280.064 141.331 272.46 144.658 264.856C143.886 265.381 143.114 265.906 142.342 266.431C145.669 274.035 148.995 281.639 152.322 289.243C152.333 289.268 154.814 287.965 154.658 287.608Z" fill="white"/>
<path d="M110.535 285.733C107.561 288.591 101.972 287.925 98.7381 285.937C95.5058 283.95 93.4324 280.423 93.2914 276.63C93.2198 274.71 93.6333 272.793 94.5033 271.08C95.6138 268.893 97.2443 267.364 99.6605 266.77C103.558 265.811 107.551 267.018 110.417 269.773C110.691 270.036 112.78 268.163 112.753 268.137C106.786 262.401 97.4575 264.872 93.0024 271.273C87.9939 278.47 92.9318 288.721 101.711 289.226C105.896 289.467 109.702 287.258 112.635 284.439C113.043 284.046 112.161 284.538 112.104 284.572C111.553 284.895 110.997 285.289 110.535 285.733Z" fill="white"/>
<path d="M95.5663 285.197L95.3423 284.973L112.031 268.284L112.255 268.508L95.5663 285.197Z" fill="white"/>
<path d="M257.459 255.791C253.992 259.123 247.514 257.759 244.216 254.946C240.727 251.97 239.34 247.069 240.777 242.711C241.626 240.136 243.295 237.827 245.962 237.003C248.136 236.331 250.477 236.33 252.651 237.001C257.447 238.483 260.576 242.936 260.681 247.896C261.439 247.35 262.196 246.804 262.953 246.259H251.695C251.244 246.259 250.546 246.923 250.201 247.183C250.075 247.278 249.345 247.898 249.486 247.898H260.744C261.111 247.898 263.025 246.666 263.017 246.26C262.907 241.069 259.462 236.462 254.365 235.19C250.143 234.137 246.182 235.737 242.873 238.315C239.448 240.983 237.388 244.985 237.966 249.388C238.589 254.133 242.252 258.086 246.939 259.062C251.71 260.056 256.189 257.735 259.558 254.497C259.966 254.104 259.084 254.597 259.027 254.63C258.476 254.954 257.92 255.347 257.459 255.791Z" fill="white"/>
<path d="M242.489 255.256L242.265 255.032L258.954 238.344L259.178 238.568L242.489 255.256Z" fill="white"/>
<path d="M360.114 285.732C356.648 289.065 350.169 287.701 346.872 284.887C343.383 281.911 341.995 277.01 343.432 272.652C344.281 270.077 345.95 267.768 348.618 266.944C350.791 266.273 353.133 266.271 355.306 266.942C360.103 268.424 363.231 272.877 363.336 277.838C364.094 277.292 364.851 276.746 365.609 276.2H354.351C353.899 276.2 353.201 276.865 352.857 277.125C352.731 277.22 352 277.839 352.142 277.839H363.4C363.766 277.839 365.681 276.607 365.672 276.202C365.562 271.011 362.117 266.403 357.021 265.132C352.798 264.078 348.838 265.679 345.528 268.257C342.103 270.924 340.044 274.927 340.622 279.33C341.244 284.075 344.907 288.027 349.594 289.003C354.365 289.997 358.844 287.677 362.213 284.438C362.621 284.046 361.739 284.538 361.682 284.571C361.131 284.895 360.576 285.288 360.114 285.732Z" fill="white"/>
<path d="M345.145 285.197L344.921 284.973L361.609 268.284L361.833 268.508L345.145 285.197Z" fill="white"/>
<path d="M333.658 285.732C330.192 289.065 323.713 287.701 320.415 284.887C316.926 281.911 315.539 277.01 316.976 272.652C317.825 270.077 319.494 267.768 322.162 266.944C324.335 266.273 326.677 266.271 328.85 266.942C333.647 268.424 336.775 272.877 336.88 277.838C337.638 277.292 338.395 276.746 339.153 276.2H327.894C327.443 276.2 326.745 276.865 326.401 277.125C326.274 277.22 325.544 277.839 325.685 277.839H336.944C337.31 277.839 339.225 276.607 339.216 276.202C339.106 271.011 335.661 266.403 330.564 265.132C326.342 264.078 322.381 265.679 319.072 268.257C315.647 270.924 313.588 274.927 314.166 279.33C314.788 284.075 318.451 288.027 323.138 289.003C327.909 289.997 332.388 287.677 335.757 284.438C336.165 284.046 335.283 284.538 335.226 284.571C334.675 284.895 334.12 285.288 333.658 285.732Z" fill="white"/>
<path d="M318.689 285.197L318.465 284.973L335.153 268.284L335.377 268.508L318.689 285.197Z" fill="white"/>
<path d="M263.161 285.732C259.695 289.065 253.217 287.701 249.919 284.887C246.43 281.911 245.042 277.01 246.48 272.652C247.329 270.077 248.997 267.768 251.665 266.944C253.838 266.273 256.18 266.271 258.353 266.942C263.15 268.424 266.279 272.877 266.384 277.838C267.141 277.292 267.899 276.746 268.656 276.2H257.398C256.946 276.2 256.248 276.865 255.904 277.125C255.778 277.22 255.048 277.839 255.189 277.839H266.447C266.814 277.839 268.728 276.607 268.719 276.202C268.609 271.011 265.165 266.403 260.068 265.132C255.845 264.078 251.885 265.679 248.576 268.257C245.151 270.924 243.091 274.927 243.669 279.33C244.292 284.075 247.955 288.027 252.642 289.003C257.413 289.997 261.891 287.677 265.261 284.438C265.669 284.046 264.787 284.538 264.729 284.571C264.179 284.895 263.623 285.288 263.161 285.732Z" fill="white"/>
<path d="M248.192 285.197L247.968 284.973L264.657 268.284L264.881 268.508L248.192 285.197Z" fill="white"/>
<path d="M160.94 277.839C163.289 277.839 165.651 277.764 167.998 277.839C172.476 277.984 175.469 283.13 172.581 286.913C172.018 287.483 172.006 287.556 172.545 287.131C172.218 287.279 171.879 287.392 171.528 287.469C171.11 287.564 170.695 287.593 170.267 287.607C170.001 287.615 169.733 287.607 169.467 287.607H158.555C158.104 287.607 157.406 288.271 157.061 288.531C156.936 288.626 156.205 289.246 156.346 289.246C160.362 289.246 164.492 289.55 168.495 289.23C171.404 288.998 174.96 286.372 175.803 283.553C176.932 279.781 174.009 276.303 170.234 276.2C167.876 276.136 165.508 276.2 163.149 276.2C162.698 276.2 162 276.865 161.656 277.125C161.53 277.22 160.799 277.839 160.94 277.839Z" fill="white"/>
<path d="M147.128 277.332C142.463 281.069 137.799 284.807 133.134 288.544C132.879 288.749 132.433 288.969 132.827 288.997C133.219 289.025 134.166 288.151 134.454 287.92C139.119 284.183 143.783 280.445 148.448 276.708C148.703 276.503 149.149 276.282 148.755 276.255C148.363 276.227 147.416 277.1 147.128 277.332Z" fill="white"/>
<path d="M197.114 287.608C193.788 280.003 190.461 272.399 187.134 264.795C187.086 264.685 184.943 266.087 184.818 266.371C181.492 273.975 178.165 281.579 174.838 289.183C174.762 289.356 175.684 288.801 175.754 288.755C176.126 288.515 176.943 288.105 177.134 287.668C180.461 280.064 183.787 272.46 187.114 264.856C186.342 265.381 185.57 265.906 184.798 266.431C188.125 274.035 191.452 281.639 194.779 289.243C194.789 289.268 197.271 287.965 197.114 287.608Z" fill="white"/>
<path d="M189.584 277.332C184.919 281.069 180.255 284.807 175.59 288.544C175.335 288.749 174.889 288.969 175.283 288.997C175.675 289.025 176.622 288.151 176.91 287.92C181.575 284.183 186.239 280.445 190.904 276.708C191.159 276.503 191.605 276.282 191.211 276.255C190.819 276.227 189.872 277.1 189.584 277.332Z" fill="white"/>
</svg>
