<svg width="455" height="455" viewBox="0 0 455 455" fill="none" xmlns="http://www.w3.org/2000/svg">
<path d="M230.555 138.536C231.004 138.739 231.434 138.97 231.84 139.232C233.286 140.16 234.312 141.339 234.847 142.657C235.435 141.362 236.509 140.225 237.991 139.356C238.408 139.112 238.846 138.898 239.303 138.713C236.573 137.783 233.318 137.717 230.555 138.536ZM219.101 139.596C219.573 139.74 220.031 139.915 220.468 140.121C222.052 140.87 223.215 141.886 223.905 143.111C224.327 141.76 225.245 140.505 226.598 139.46C226.98 139.165 227.388 138.897 227.818 138.655C224.988 138.08 221.748 138.43 219.101 139.596ZM242.033 138.943C242.453 139.202 242.85 139.487 243.219 139.797C244.537 140.902 245.405 142.203 245.768 143.579C246.519 142.369 247.731 141.379 249.318 140.706C249.762 140.518 250.226 140.362 250.705 140.237C248.107 138.965 244.881 138.483 242.033 138.943ZM207.833 142.118C208.353 142.211 208.86 142.339 209.349 142.507C210.953 143.054 212.218 143.928 213.054 145.045C213.291 143.631 214.05 142.247 215.282 141.02C215.624 140.679 215.995 140.361 216.392 140.066C213.505 139.864 210.326 140.624 207.833 142.118ZM253.392 140.816C253.776 141.127 254.135 141.46 254.463 141.814C255.738 143.191 256.454 144.728 256.559 146.264C257.466 144.999 258.91 144.065 260.755 143.574C261.169 143.464 261.594 143.381 262.027 143.323C259.575 141.661 256.342 140.726 253.392 140.816ZM196.958 145.867C197.451 145.896 197.936 145.959 198.409 146.056C200.108 146.408 201.499 147.15 202.472 148.2C202.558 146.805 203.138 145.377 204.182 144.038C204.496 143.637 204.844 143.256 205.222 142.898C202.325 143.017 199.254 144.12 196.958 145.867ZM264.556 144.222C264.874 144.558 265.167 144.911 265.431 145.28C266.535 146.82 267.057 148.447 266.962 149.99C268.02 148.862 269.556 148.125 271.424 147.871C271.903 147.806 272.394 147.78 272.885 147.782C270.642 145.817 267.526 144.482 264.556 144.222ZM229.206 139.024C228.467 139.345 227.782 139.739 227.176 140.208C225.412 141.569 224.518 143.234 224.589 145.023C224.665 146.934 225.869 148.788 227.893 150.108C228.542 150.497 229.155 150.869 229.738 151.232C230.292 150.817 230.874 150.389 231.491 149.941C233.377 148.461 234.414 146.51 234.323 144.598C234.238 142.81 233.204 141.229 231.33 140.026C230.686 139.613 229.97 139.28 229.206 139.024ZM240.632 139.256C239.858 139.48 239.129 139.784 238.469 140.171C236.548 141.297 235.449 142.834 235.292 144.618C235.124 146.524 236.082 148.516 237.92 150.083C238.513 150.551 239.073 150.998 239.605 151.431C240.207 151.091 240.84 150.74 241.509 150.375C243.569 149.147 244.848 147.344 245.001 145.436C245.145 143.652 244.319 141.952 242.612 140.52C242.026 140.028 241.357 139.607 240.632 139.256ZM217.82 140.254C217.125 140.667 216.493 141.146 215.948 141.689C214.364 143.267 213.685 145.034 213.985 146.799C214.304 148.685 215.74 150.367 217.925 151.416C218.637 151.725 219.31 152.022 219.95 152.313C220.46 151.793 220.973 151.284 221.485 150.792C223.182 148.985 223.963 146.874 223.61 145.018C223.287 143.316 222.061 141.919 220.064 140.975C219.37 140.647 218.614 140.409 217.82 140.254ZM187.323 150.918C187.579 150.918 187.832 150.927 188.085 150.947C189.8 151.081 191.262 151.635 192.357 152.545C192.265 151.124 192.677 149.613 193.577 148.144C193.83 147.732 194.117 147.336 194.434 146.957C191.58 147.43 188.676 148.912 186.623 150.941C186.858 150.925 187.091 150.918 187.323 150.918ZM251.957 140.946C251.157 141.068 250.393 141.276 249.686 141.576C247.631 142.447 246.342 143.831 245.959 145.58C245.55 147.448 246.249 149.546 247.878 151.336C248.409 151.876 248.91 152.393 249.384 152.891C250.028 152.63 250.704 152.363 251.418 152.088C253.626 151.135 255.129 149.512 255.525 147.641C255.896 145.889 255.289 144.097 253.77 142.456C253.248 141.891 252.636 141.387 251.957 140.946ZM230.595 151.77C232.092 152.721 233.392 153.61 234.607 154.527C235.858 153.66 237.193 152.825 238.727 151.935C238.279 151.573 237.811 151.2 237.321 150.813C236.105 149.776 235.232 148.569 234.753 147.304C234.226 148.547 233.308 149.715 232.059 150.695C231.548 151.065 231.061 151.423 230.595 151.77ZM206.651 142.922C205.995 143.43 205.411 143.998 204.927 144.619C203.542 146.394 203.087 148.238 203.612 149.949C204.171 151.777 205.821 153.256 208.138 154.009C208.841 154.208 209.509 154.402 210.146 154.593C210.576 154.083 211.029 153.554 211.51 153.001C213.025 151.117 213.596 148.976 213.064 147.14C212.565 145.42 211.175 144.127 209.044 143.4C208.292 143.143 207.486 142.987 206.651 142.922ZM275.328 149.043C275.618 149.443 275.877 149.859 276.1 150.287C276.896 151.811 277.205 153.342 277.024 154.754C278.178 153.927 279.671 153.478 281.386 153.462C281.865 153.456 282.356 153.491 282.844 153.558C280.937 151.391 278.141 149.712 275.328 149.043ZM220.862 152.732C222.461 153.478 223.857 154.189 225.173 154.938C226.305 153.92 227.522 152.921 228.931 151.843C228.441 151.54 227.929 151.23 227.393 150.909C226.039 150.026 225.01 148.924 224.375 147.714C224.006 149.003 223.253 150.288 222.156 151.456C221.724 151.871 221.292 152.297 220.862 152.732ZM240.386 152.075C241.75 153.21 242.927 154.257 244.017 155.321C245.372 154.62 246.806 153.963 248.447 153.277C248.048 152.86 247.631 152.431 247.192 151.984C246.114 150.8 245.399 149.49 245.084 148.173C244.401 149.34 243.341 150.382 241.977 151.195C241.422 151.497 240.894 151.79 240.386 152.075ZM263.145 144.181C262.403 144.205 261.682 144.305 260.998 144.487C258.822 145.065 257.346 146.259 256.73 147.94C256.073 149.735 256.494 151.911 257.886 153.91C258.32 154.485 258.729 155.035 259.117 155.566C259.745 155.405 260.401 155.243 261.092 155.078C263.421 154.424 265.129 153.012 265.762 151.209C266.355 149.52 265.975 147.66 264.664 145.83C264.237 145.236 263.725 144.684 263.145 144.181ZM211.129 154.894C212.929 155.455 214.495 156.008 215.983 156.619C217.022 155.426 218.125 154.209 219.252 153.033C218.705 152.787 218.132 152.535 217.533 152.275C216.078 151.576 214.916 150.622 214.129 149.509C213.922 150.896 213.278 152.309 212.234 153.607C211.848 154.05 211.48 154.479 211.129 154.894ZM250.08 153.629C251.294 154.931 252.333 156.122 253.284 157.318C254.773 156.781 256.34 156.302 258.135 155.823C257.813 155.385 257.475 154.933 257.122 154.464C256.12 153.026 255.567 151.498 255.491 150.04C254.66 151.253 253.383 152.269 251.775 152.962C251.184 153.19 250.62 153.411 250.08 153.629ZM195.865 146.805C195.285 147.37 194.783 147.983 194.382 148.638C193.216 150.54 192.971 152.416 193.675 154.062C194.427 155.821 196.215 157.122 198.58 157.633C199.326 157.764 200.034 157.894 200.71 158.024C201.082 157.437 201.477 156.828 201.899 156.188C203.143 154.13 203.423 151.936 202.658 150.183C201.942 148.542 200.407 147.435 198.218 146.981C197.465 146.826 196.674 146.771 195.865 146.805ZM226.032 155.44C227.38 156.246 228.669 157.112 230.04 158.123C231.316 156.998 232.525 156.023 233.797 155.101C232.588 154.202 231.29 153.323 229.788 152.377C228.375 153.451 227.157 154.439 226.032 155.44ZM178.976 157.085C180.496 157.085 181.844 157.448 182.932 158.138C182.658 156.742 182.871 155.194 183.573 153.625C183.77 153.185 184.003 152.756 184.268 152.34C181.506 153.168 178.819 155.005 177.044 157.277C177.527 157.182 178.012 157.121 178.494 157.097C178.656 157.089 178.817 157.085 178.976 157.085ZM235.394 155.134C236.627 156.106 237.795 157.129 239.025 158.305C240.436 157.351 241.759 156.538 243.139 155.787C242.054 154.741 240.877 153.704 239.509 152.574C237.97 153.459 236.637 154.284 235.394 155.134ZM216.897 157.006C218.291 157.615 219.642 158.29 221.088 159.09C222.215 157.811 223.294 156.689 224.441 155.611C223.14 154.882 221.753 154.185 220.162 153.449C219.038 154.613 217.936 155.82 216.897 157.006ZM201.704 158.22C203.449 158.574 204.987 158.941 206.455 159.361C207.343 158.076 208.326 156.794 209.489 155.383C208.969 155.228 208.428 155.072 207.864 154.912C206.271 154.395 204.956 153.566 204.022 152.52C203.975 153.883 203.528 155.317 202.697 156.692C202.348 157.221 202.018 157.729 201.704 158.22ZM244.721 156.023C245.824 157.146 246.856 158.311 247.931 159.635C249.458 158.868 250.881 158.231 252.351 157.665C251.402 156.489 250.361 155.308 249.143 154.011C247.499 154.69 246.066 155.338 244.721 156.023ZM272.757 148.727C272.348 148.727 271.946 148.753 271.552 148.807C269.336 149.108 267.728 150.106 266.9 151.694C266.017 153.39 266.145 155.599 267.253 157.754C267.629 158.422 267.982 159.058 268.313 159.67C269.034 159.568 269.756 159.479 270.473 159.406C272.567 159.145 274.274 158.21 275.248 156.81C275.357 156.598 275.478 156.395 275.612 156.198C276.404 154.615 276.282 152.675 275.263 150.724C274.908 150.043 274.45 149.397 273.91 148.793C273.523 148.75 273.138 148.727 272.757 148.727ZM259.712 156.389C260.816 157.934 261.737 159.328 262.559 160.721C264.085 160.384 265.692 160.071 267.319 159.817C267.036 159.298 266.737 158.762 266.421 158.201C265.621 156.645 265.279 155.058 265.398 153.601C264.414 154.686 263.015 155.518 261.33 155.991C260.769 156.125 260.231 156.258 259.712 156.389ZM285.098 155.115C285.333 155.548 285.535 155.993 285.702 156.446C286.294 158.059 286.4 159.618 286.03 160.992C287.281 160.315 288.823 160.058 290.529 160.26C291.009 160.317 291.487 160.411 291.963 160.54C290.349 158.15 287.796 156.132 285.098 155.115ZM207.41 159.645C208.956 160.124 210.459 160.676 212.084 161.355C213.01 160.158 214.117 158.794 215.331 157.375C213.85 156.779 212.282 156.236 210.47 155.679C209.293 157.095 208.301 158.374 207.41 159.645ZM230.813 158.702C231.663 159.347 232.552 160.051 233.511 160.833C233.908 161.183 234.224 161.587 234.454 162.026C234.698 161.598 235.027 161.212 235.431 160.883C236.427 160.136 237.349 159.466 238.23 158.852C237.002 157.686 235.83 156.67 234.583 155.7C233.298 156.619 232.087 157.587 230.813 158.702ZM253.896 158.103C254.881 159.397 255.786 160.724 256.719 162.228C258.136 161.808 259.795 161.361 261.589 160.942C260.768 159.569 259.843 158.185 258.731 156.642C256.934 157.115 255.371 157.583 253.896 158.103ZM221.929 159.565C222.857 160.096 223.831 160.68 224.884 161.332C225.324 161.63 225.691 161.99 225.975 162.398C226.164 161.941 226.441 161.515 226.8 161.138C227.695 160.271 228.525 159.487 229.32 158.767C227.952 157.765 226.661 156.907 225.299 156.105C224.137 157.182 223.055 158.295 221.929 159.565ZM185.665 152.009C185.164 152.642 184.748 153.312 184.435 154.011C183.526 156.043 183.525 157.933 184.433 159.476C185.404 161.125 187.341 162.19 189.747 162.398C190.501 162.434 191.217 162.473 191.901 162.517C192.194 161.889 192.505 161.237 192.838 160.551C193.801 158.354 193.794 156.144 192.812 154.502C191.892 152.966 190.232 152.062 188.011 151.888C187.246 151.829 186.458 151.874 185.665 152.009ZM239.718 158.977C240.479 159.726 241.273 160.538 242.126 161.435C242.476 161.834 242.74 162.275 242.911 162.741C243.209 162.347 243.585 162.005 244.028 161.731C245.114 161.118 246.117 160.57 247.071 160.075C245.997 158.761 244.96 157.603 243.844 156.48C242.451 157.228 241.125 158.033 239.718 158.977ZM192.911 162.586C194.681 162.718 196.248 162.887 197.752 163.119C198.448 161.762 199.234 160.393 200.171 158.882C199.604 158.775 199.015 158.668 198.399 158.559C196.833 158.222 195.49 157.57 194.469 156.681C194.591 158.028 194.333 159.492 193.695 160.946C193.419 161.515 193.159 162.06 192.911 162.586ZM198.733 163.282C200.283 163.555 201.8 163.904 203.444 164.357C204.242 162.846 205.03 161.501 205.897 160.186C204.442 159.779 202.91 159.423 201.163 159.075C200.22 160.584 199.43 161.943 198.733 163.282ZM212.979 161.736C213.934 162.149 214.938 162.607 216.024 163.119C216.624 163.432 217.117 163.858 217.48 164.368C217.565 163.706 217.825 163.066 218.245 162.496C219.026 161.52 219.753 160.637 220.454 159.82C219.011 159.027 217.655 158.359 216.245 157.755C215.028 159.171 213.914 160.535 212.979 161.736ZM248.534 160.389C249.198 161.23 249.884 162.137 250.621 163.137C250.92 163.579 251.127 164.052 251.238 164.538C251.587 164.182 252.009 163.89 252.49 163.677C253.113 163.402 254.267 162.984 255.783 162.513C254.859 161.035 253.956 159.727 252.964 158.443C251.481 159.004 250.057 159.631 248.534 160.389ZM276.78 164.741C277.471 164.745 278.194 164.755 278.956 164.771C281.353 164.73 283.359 163.801 284.441 162.223C285.453 160.746 285.582 158.861 284.815 156.771C284.552 156.052 284.182 155.354 283.727 154.689C282.945 154.499 282.162 154.407 281.395 154.406C279.167 154.427 277.448 155.214 276.425 156.682C276.419 156.695 276.412 156.707 276.406 156.72C276.302 156.918 276.187 157.109 276.062 157.293C275.307 158.799 275.273 160.739 275.988 162.732C276.27 163.433 276.534 164.1 276.78 164.741ZM171.392 164.274C172.473 164.274 173.453 164.492 174.307 164.919C173.847 163.562 173.859 161.987 174.361 160.328C174.5 159.866 174.676 159.411 174.886 158.964C172.25 160.14 169.814 162.308 168.337 164.794C168.805 164.637 169.28 164.513 169.755 164.428C170.322 164.325 170.869 164.274 171.392 164.274ZM268.788 160.557C269.617 162.124 270.303 163.54 270.903 164.939C272.419 164.81 273.993 164.75 275.768 164.741C275.559 164.204 275.339 163.647 275.106 163.067C274.573 161.584 274.412 160.121 274.614 158.8C273.532 159.611 272.15 160.149 270.58 160.344C269.985 160.405 269.386 160.477 268.788 160.557ZM263.051 161.578C263.797 162.908 264.469 164.266 265.139 165.781C266.81 165.441 268.347 165.198 269.913 165.033C269.313 163.658 268.624 162.257 267.794 160.699C266.176 160.943 264.575 161.247 263.051 161.578ZM204.374 164.62C205.402 164.919 206.488 165.259 207.668 165.644C208.173 165.832 208.619 166.1 208.995 166.435C209.071 165.946 209.24 165.463 209.499 165.006C209.842 164.402 210.541 163.389 211.491 162.131C209.887 161.469 208.397 160.931 206.849 160.463C205.967 161.78 205.173 163.119 204.374 164.62ZM230.093 159.341C229.266 160.086 228.404 160.898 227.471 161.802C226.879 162.425 226.577 163.235 226.634 164.071C226.695 164.966 227.161 165.823 227.911 166.422C229.407 167.615 231.495 167.523 232.879 166.205C233.574 165.543 233.962 164.649 233.945 163.752C233.929 162.915 233.558 162.133 232.9 161.553C231.899 160.738 230.976 160.007 230.093 159.341ZM238.923 159.52C238.009 160.154 237.051 160.849 236.012 161.627C235.346 162.169 234.943 162.935 234.894 163.771C234.84 164.667 235.192 165.576 235.86 166.266C237.189 167.639 239.273 167.816 240.814 166.683C241.589 166.115 242.089 165.278 242.186 164.387C242.277 163.554 242.008 162.732 241.429 162.072C240.538 161.135 239.714 160.294 238.923 159.52ZM257.227 163.06C257.76 163.946 258.307 164.896 258.889 165.935C259.158 166.463 259.309 167.013 259.342 167.562C259.761 167.209 260.26 166.943 260.817 166.778C262.028 166.472 263.141 166.207 264.193 165.979C263.522 164.476 262.845 163.125 262.087 161.794C260.302 162.204 258.646 162.644 257.227 163.06ZM185.555 161.975C185.847 163.294 185.779 164.778 185.333 166.3C185.131 166.898 184.943 167.472 184.765 168.026C186.536 167.93 188.111 167.898 189.632 167.939C190.147 166.507 190.747 165.053 191.479 163.437C190.905 163.402 190.307 163.37 189.683 163.34C188.092 163.203 186.68 162.727 185.555 161.975ZM221.295 160.289C220.565 161.135 219.809 162.053 218.994 163.071C218.482 163.765 218.285 164.608 218.448 165.43C218.623 166.308 219.196 167.097 220.02 167.594C221.666 168.585 223.736 168.228 224.943 166.742C225.549 165.997 225.822 165.06 225.69 164.174C225.568 163.345 225.099 162.617 224.371 162.125C223.272 161.444 222.259 160.838 221.295 160.289ZM176.229 158.459C175.814 159.149 175.486 159.868 175.264 160.601C174.62 162.734 174.86 164.608 175.956 166.023C177.129 167.535 179.175 168.34 181.6 168.243C182.354 168.182 183.07 168.129 183.755 168.086C183.964 167.426 184.189 166.739 184.432 166.017C185.106 163.717 184.818 161.526 183.633 160.023C182.525 158.616 180.77 157.927 178.54 158.04C177.776 158.078 177 158.223 176.229 158.459ZM190.625 167.976C192.194 168.051 193.738 168.205 195.423 168.448C196.017 166.852 196.621 165.421 197.308 164.009C195.818 163.788 194.257 163.628 192.486 163.503C191.749 165.116 191.143 166.563 190.625 167.976ZM296.583 167.895C297.274 167.895 297.997 167.988 298.742 168.176C299.21 168.295 299.675 168.45 300.131 168.64C298.83 166.058 296.549 163.726 294 162.372C294.178 162.831 294.322 163.298 294.43 163.768C294.813 165.446 294.72 167.007 294.178 168.323C294.914 168.039 295.724 167.895 296.583 167.895ZM247.675 160.825C246.684 161.336 245.642 161.903 244.509 162.543C243.778 162.996 243.281 163.703 243.125 164.526C242.958 165.407 243.192 166.354 243.767 167.123C244.915 168.657 246.968 169.1 248.651 168.175C249.495 167.712 250.1 166.946 250.31 166.075C250.507 165.261 250.343 164.411 249.849 163.681C249.08 162.637 248.366 161.695 247.675 160.825ZM196.377 168.592C197.432 168.76 198.55 168.96 199.765 169.194C200.282 169.315 200.752 169.521 201.163 169.801C201.176 169.307 201.284 168.81 201.486 168.329C202.013 167.2 202.511 166.172 203 165.214C201.362 164.769 199.846 164.429 198.285 164.164C197.585 165.581 196.974 167.006 196.377 168.592ZM212.386 162.508C211.396 163.811 210.669 164.858 210.321 165.473C209.877 166.254 209.774 167.126 210.032 167.928C210.302 168.769 210.952 169.479 211.815 169.879C213.559 170.687 215.599 170.105 216.664 168.49C217.196 167.683 217.373 166.722 217.148 165.856C216.938 165.046 216.39 164.375 215.604 163.965C214.451 163.421 213.392 162.939 212.386 162.508ZM271.284 165.857C271.872 167.313 272.376 168.782 272.858 170.416C274.556 170.29 276.108 170.242 277.677 170.276C277.258 168.83 276.753 167.345 276.128 165.684C274.353 165.687 272.786 165.739 271.284 165.857ZM278.671 170.308C280.19 170.372 281.759 170.512 283.519 170.729C283.382 170.17 283.234 169.591 283.077 168.986C282.733 167.427 282.767 165.936 283.149 164.639C281.977 165.311 280.54 165.688 278.954 165.715C278.323 165.702 277.719 165.692 277.138 165.687C277.757 167.35 278.255 168.843 278.671 170.308ZM256.293 163.34C254.711 163.827 253.507 164.259 252.872 164.541C252.077 164.892 251.494 165.525 251.232 166.321C250.948 167.18 251.059 168.154 251.535 168.992C252.488 170.666 254.487 171.374 256.291 170.679C257.193 170.331 257.894 169.652 258.214 168.816C258.514 168.035 258.458 167.169 258.056 166.379C257.437 165.274 256.857 164.272 256.293 163.34ZM284.523 170.858C285.209 170.95 285.925 171.053 286.679 171.167C289.063 171.431 291.17 170.767 292.445 169.34C293.637 168.005 294.005 166.151 293.509 163.978C293.339 163.232 293.061 162.492 292.695 161.775C291.943 161.486 291.178 161.288 290.418 161.198C288.206 160.935 286.403 161.498 285.201 162.823C283.915 164.241 283.476 166.407 283.995 168.766C284.185 169.497 284.361 170.192 284.523 170.858ZM265.523 166.667C265.942 167.65 266.366 168.704 266.811 169.86C266.982 170.363 267.057 170.872 267.037 171.368C267.463 171.118 267.941 170.947 268.456 170.863C269.692 170.711 270.827 170.588 271.896 170.494C271.41 168.87 270.899 167.406 270.299 165.944C268.722 166.101 267.188 166.335 265.523 166.667ZM203.927 165.474C203.418 166.466 202.9 167.533 202.349 168.712C202.017 169.504 202.023 170.37 202.374 171.13C202.749 171.944 203.49 172.578 204.406 172.871C206.229 173.453 208.159 172.62 208.992 170.89C209.409 170.022 209.457 169.048 209.122 168.217C208.809 167.44 208.182 166.843 207.357 166.536C206.125 166.132 204.995 165.781 203.927 165.474ZM166.405 166.751C163.86 168.307 161.659 170.883 160.525 173.641C160.941 173.437 161.366 173.263 161.796 173.121C163.595 172.525 165.303 172.512 166.749 173.063C165.987 171.717 165.741 170.03 166.055 168.172C166.136 167.695 166.254 167.221 166.405 166.751ZM184.461 168.989C183.935 170.683 183.517 172.196 183.182 173.663C184.749 173.537 186.302 173.493 188.004 173.519C188.389 171.862 188.806 170.366 189.305 168.878C187.8 168.845 186.233 168.886 184.461 168.989ZM188.968 173.541C190.036 173.573 191.169 173.629 192.404 173.708C192.93 173.763 193.422 173.907 193.864 174.132C193.815 173.642 193.858 173.136 193.995 172.635C194.373 171.448 194.733 170.366 195.093 169.355C193.417 169.12 191.873 168.973 190.294 168.908C189.782 170.403 189.358 171.894 188.968 173.541ZM264.58 166.861C263.487 167.095 262.331 167.369 261.066 167.689C260.239 167.933 259.573 168.486 259.207 169.238C258.816 170.045 258.796 171.02 259.152 171.914C259.864 173.697 261.731 174.662 263.591 174.207C264.524 173.979 265.306 173.398 265.738 172.611C266.14 171.877 266.206 171.014 265.924 170.182C265.458 168.975 265.017 167.88 264.58 166.861ZM177.188 168.255C177.665 169.521 177.853 171.023 177.716 172.649C177.666 173.25 177.612 173.846 177.557 174.435C179.228 174.128 180.73 173.905 182.193 173.754C182.522 172.269 182.933 170.747 183.453 169.051C182.878 169.09 182.281 169.135 181.658 169.185C179.968 169.256 178.436 168.927 177.188 168.255ZM167.676 166.073C167.35 166.814 167.114 167.571 166.986 168.329C166.613 170.534 167.087 172.366 168.356 173.629C169.712 174.978 171.856 175.514 174.246 175.098C175.07 174.922 175.848 174.762 176.591 174.617C176.655 173.942 176.717 173.26 176.775 172.57C176.994 169.967 176.317 167.745 174.917 166.471C173.707 165.371 171.982 164.986 169.922 165.357C169.167 165.493 168.413 165.738 167.676 166.073ZM273.125 171.343C273.412 172.371 273.696 173.47 273.989 174.672C274.094 175.191 274.103 175.703 274.02 176.193C274.473 175.999 274.969 175.889 275.489 175.872C276.733 175.878 277.873 175.9 278.946 175.943C278.671 174.271 278.351 172.755 277.943 171.229C276.362 171.184 274.814 171.224 273.125 171.343ZM279.91 175.987C281.61 176.079 283.157 176.23 284.709 176.464C284.477 174.976 284.165 173.438 283.756 171.711C281.996 171.487 280.434 171.34 278.931 171.266C279.327 172.786 279.64 174.307 279.91 175.987ZM196.046 169.496C195.669 170.543 195.294 171.665 194.901 172.902C194.673 173.731 194.79 174.587 195.236 175.297C195.713 176.057 196.527 176.593 197.471 176.766C199.358 177.115 201.149 176.045 201.747 174.228C202.047 173.315 201.967 172.344 201.529 171.561C201.118 170.831 200.422 170.318 199.568 170.117C198.299 169.872 197.139 169.666 196.046 169.496ZM285.691 176.623C287.145 176.875 288.636 177.203 290.29 177.626C290.299 177.043 290.281 176.453 290.233 175.859C290.091 174.278 290.313 172.808 290.856 171.571C289.609 172.089 288.135 172.279 286.556 172.103C285.931 172.009 285.334 171.922 284.757 171.843C285.159 173.572 285.465 175.118 285.691 176.623ZM272.165 171.419C271.056 171.513 269.879 171.639 268.589 171.797C267.741 171.936 267.011 172.399 266.552 173.099C266.06 173.85 265.913 174.814 266.15 175.745C266.621 177.599 268.343 178.787 270.24 178.572C271.194 178.464 272.043 177.986 272.572 177.26C273.065 176.583 273.241 175.737 273.067 174.877C272.762 173.622 272.466 172.483 272.165 171.419ZM291.228 177.872C291.961 178.068 292.73 178.282 293.542 178.516C295.875 179.089 298.055 178.704 299.502 177.452C300.855 176.28 301.454 174.485 301.235 172.259C301.159 171.494 300.976 170.723 300.702 169.962C299.99 169.576 299.255 169.28 298.51 169.091C296.347 168.545 294.484 168.871 293.122 170.033C291.667 171.275 290.957 173.369 291.174 175.779C291.231 176.482 291.249 177.182 291.228 177.872ZM182.972 174.631C182.652 176.181 182.419 177.717 182.239 179.405C183.303 179.298 184.436 179.208 185.672 179.127C186.202 179.116 186.71 179.193 187.179 179.36C187.067 178.879 187.045 178.371 187.118 177.855C187.342 176.63 187.563 175.51 187.792 174.461C186.094 174.44 184.547 174.493 182.972 174.631ZM177.463 175.413C177.335 176.71 177.201 177.979 177.069 179.222C177.034 179.545 177.001 179.865 176.968 180.181C178.353 179.899 179.752 179.682 181.279 179.508C181.453 177.811 181.679 176.272 181.988 174.727C180.567 174.882 179.098 175.108 177.463 175.413ZM188.771 180.438C189.341 181.073 190.179 181.462 191.092 181.511C193.01 181.605 194.649 180.325 195.01 178.449C195.19 177.506 194.987 176.553 194.452 175.833C193.952 175.16 193.197 174.74 192.324 174.649C191.036 174.567 189.86 174.509 188.754 174.48C188.514 175.567 188.284 176.728 188.05 178.007C187.93 178.857 188.155 179.692 188.686 180.339C188.708 180.366 188.731 180.393 188.755 180.419C188.76 180.426 188.766 180.432 188.771 180.438ZM169.73 175.63C170.472 176.893 170.85 178.477 170.799 180.227C170.76 180.803 170.726 181.355 170.696 181.889C172.621 181.256 174.319 180.771 175.995 180.39C176.04 179.974 176.085 179.55 176.13 179.122C176.252 177.97 176.376 176.796 176.496 175.598C175.836 175.728 175.149 175.87 174.426 176.025C172.703 176.324 171.084 176.179 169.73 175.63ZM281.422 181.72C281.557 181.72 281.693 181.727 281.83 181.74C283.065 181.906 284.195 182.076 285.254 182.256C285.192 180.561 285.065 179.013 284.852 177.443C283.291 177.197 281.749 177.038 280.057 176.942C280.211 177.998 280.353 179.124 280.491 180.355C280.53 180.884 280.473 181.394 280.328 181.869C280.679 181.771 281.046 181.72 281.422 181.72ZM286.205 182.425C287.289 182.626 288.305 182.844 289.297 183.09C289.811 181.698 290.134 180.176 290.248 178.591C288.655 178.18 287.221 177.858 285.828 177.608C286.029 179.169 286.148 180.721 286.205 182.425ZM158.914 175.787C156.596 177.632 154.743 180.433 153.948 183.283C154.359 183.009 154.783 182.766 155.22 182.558C156.914 181.751 158.598 181.526 160.092 181.883C159.154 180.64 158.693 178.983 158.774 177.076C158.793 176.648 158.84 176.218 158.914 175.787ZM160.066 174.975C159.868 175.69 159.749 176.409 159.718 177.116C159.622 179.365 160.322 181.13 161.743 182.219C163.26 183.381 165.462 183.628 167.787 182.894C168.465 182.651 169.112 182.424 169.733 182.212C169.767 181.565 169.808 180.889 169.856 180.181C169.926 177.764 169.087 175.713 167.555 174.571C166.119 173.502 164.231 173.31 162.093 174.017C161.399 174.247 160.719 174.572 160.066 174.975ZM275.502 176.816C274.644 176.846 273.861 177.213 273.316 177.849C272.733 178.531 272.464 179.468 272.579 180.421C272.809 182.318 274.363 183.717 276.276 183.746C277.247 183.766 278.14 183.395 278.757 182.743C279.332 182.134 279.614 181.317 279.551 180.441C279.407 179.157 279.258 177.989 279.095 176.894C277.983 176.847 276.801 176.823 275.502 176.816ZM176.864 181.169C176.675 182.991 176.512 184.694 176.418 186.227C177.395 185.989 178.435 185.757 179.564 185.519C180.149 185.42 180.72 185.44 181.252 185.571C181.041 185.066 180.934 184.511 180.943 183.93C181.012 182.683 181.091 181.542 181.186 180.469C179.661 180.649 178.261 180.874 176.864 181.169ZM182.144 180.363C182.042 181.475 181.959 182.661 181.887 183.964C181.874 184.825 182.203 185.627 182.813 186.2C183.465 186.814 184.39 187.12 185.35 187.05C187.265 186.902 188.741 185.407 188.862 183.495C188.92 182.583 188.63 181.706 188.066 181.066C188.061 181.06 188.055 181.053 188.049 181.047C188.026 181.021 188.002 180.995 187.978 180.971C187.397 180.367 186.583 180.046 185.715 180.07C184.423 180.155 183.247 180.25 182.144 180.363ZM290.213 183.328C293.052 184.096 295.789 185.137 299.448 186.742C301.7 187.627 303.914 187.533 305.506 186.478C306.999 185.49 307.82 183.778 307.879 181.528C307.982 177.611 305.365 173.172 301.924 170.725C302.043 171.204 302.127 171.686 302.174 172.167C302.422 174.674 301.692 176.804 300.12 178.166C298.44 179.621 295.954 180.081 293.299 179.428C292.556 179.214 291.85 179.017 291.174 178.836C291.046 180.412 290.72 181.929 290.213 183.328ZM170.646 182.902C170.562 184.757 170.543 186.389 170.6 187.952C172.152 187.389 173.713 186.914 175.459 186.466C175.545 184.925 175.704 183.216 175.892 181.385C174.245 181.771 172.562 182.263 170.646 182.902ZM286.231 183.391C286.252 184.462 286.252 185.6 286.234 186.842C286.211 187.274 286.127 187.686 285.987 188.068C286.201 187.883 286.412 187.684 286.618 187.47C287.562 186.492 288.341 185.305 288.936 183.975C288.065 183.761 287.173 183.569 286.231 183.391ZM281.419 182.663C280.674 182.663 279.969 182.926 279.421 183.422C278.756 184.023 278.37 184.919 278.364 185.88C278.352 187.795 279.722 189.388 281.622 189.667C281.782 189.691 281.941 189.704 282.099 189.706V189.701C282.149 189.703 282.199 189.705 282.249 189.705C282.979 189.684 283.672 189.437 284.212 188.996C284.86 188.466 285.244 187.689 285.291 186.81C285.308 185.513 285.308 184.33 285.282 183.219C284.185 183.029 283.011 182.852 281.722 182.677C281.621 182.668 281.52 182.663 281.419 182.663ZM163.379 184.027C164.289 185.182 164.878 186.704 165.061 188.445C165.102 189.077 165.146 189.682 165.192 190.263C166.797 189.491 168.243 188.854 169.667 188.303C169.599 186.722 169.609 185.083 169.686 183.227C169.172 183.403 168.64 183.591 168.088 183.789C166.416 184.316 164.794 184.389 163.379 184.027ZM153.644 184.691C153.523 185.491 153.494 186.283 153.569 187.047C153.788 189.268 154.726 190.91 156.282 191.798C157.944 192.745 160.155 192.703 162.348 191.681C163.022 191.335 163.664 191.011 164.281 190.707C164.224 190.015 164.17 189.29 164.12 188.526C163.869 186.134 162.767 184.215 161.099 183.28C159.536 182.404 157.645 182.449 155.626 183.41C154.932 183.741 154.268 184.175 153.644 184.691ZM177.794 193.046C178.506 193.496 179.407 193.644 180.292 193.45C182.172 193.041 183.445 191.343 183.318 189.413C183.255 188.448 182.816 187.576 182.113 187.021C181.457 186.503 180.617 186.3 179.741 186.447C178.521 186.704 177.409 186.955 176.366 187.211C176.307 188.602 176.32 189.828 176.441 190.846C176.544 191.72 176.977 192.469 177.658 192.955C177.678 192.969 177.699 192.983 177.719 192.997C177.744 193.013 177.769 193.029 177.794 193.046ZM152.594 185.676C150.607 187.776 149.187 190.712 148.776 193.568C149.148 193.245 149.538 192.951 149.944 192.69C151.392 191.761 152.905 191.319 154.315 191.383C153.382 190.307 152.798 188.854 152.629 187.139C152.582 186.659 152.571 186.169 152.594 185.676ZM170.647 188.943C170.74 190.526 170.916 192.072 171.185 193.752C172.185 193.369 173.256 192.983 174.43 192.578C174.942 192.424 175.458 192.368 175.951 192.406C175.717 191.968 175.565 191.479 175.502 190.957C175.384 189.957 175.365 188.778 175.412 187.454C173.71 187.899 172.181 188.375 170.647 188.943ZM165.277 191.271C165.436 193.042 165.628 194.603 165.881 196.091C167.281 195.372 168.701 194.734 170.285 194.103C170.008 192.417 169.824 190.868 169.722 189.297C168.316 189.851 166.88 190.493 165.277 191.271ZM158.496 193.406C159.407 194.405 160.086 195.727 160.455 197.272C160.578 197.892 160.7 198.483 160.821 199.052C162.311 198.088 163.661 197.277 165.001 196.554C164.736 195.052 164.535 193.487 164.37 191.717C163.854 191.973 163.319 192.244 162.763 192.529C161.311 193.206 159.845 193.496 158.496 193.406ZM171.345 194.701C171.538 195.799 171.769 196.963 172.042 198.235C172.257 199.068 172.784 199.754 173.523 200.148C174.313 200.57 175.287 200.629 176.193 200.308C177.999 199.671 179.033 197.842 178.652 195.959C178.473 195.072 177.975 194.307 177.278 193.837C177.253 193.821 177.227 193.804 177.203 193.788C177.182 193.775 177.162 193.763 177.142 193.75C176.425 193.32 175.564 193.223 174.72 193.477C173.493 193.9 172.382 194.301 171.345 194.701ZM166.056 197.065C166.354 198.617 166.728 200.123 167.21 201.747C168.152 201.243 169.164 200.727 170.274 200.18C170.759 199.965 171.258 199.845 171.754 199.82C171.468 199.418 171.253 198.957 171.123 198.452C170.861 197.233 170.637 196.113 170.448 195.055C168.874 195.689 167.461 196.333 166.056 197.065ZM148.657 194.999C148.64 195.805 148.713 196.591 148.886 197.337C149.388 199.506 150.529 201.012 152.185 201.694C153.953 202.422 156.141 202.101 158.184 200.814C158.807 200.387 159.402 199.986 159.974 199.607C159.828 198.93 159.682 198.222 159.533 197.474C158.975 195.142 157.634 193.384 155.859 192.669C154.197 192 152.329 192.283 150.454 193.485C149.81 193.899 149.207 194.411 148.657 194.999ZM147.743 196.106C146.042 198.434 145.009 201.521 144.967 204.404C145.295 204.036 145.645 203.694 146.014 203.384C147.331 202.281 148.763 201.652 150.18 201.534C149.119 200.587 148.354 199.224 147.966 197.55C147.857 197.08 147.783 196.597 147.743 196.106ZM161.036 200.039C161.423 201.771 161.813 203.289 162.253 204.729C163.549 203.842 164.874 203.032 166.362 202.208C165.872 200.577 165.49 199.072 165.184 197.531C163.863 198.255 162.522 199.069 161.036 200.039ZM167.492 202.668C167.824 203.728 168.203 204.85 168.637 206.074C168.956 206.871 169.566 207.483 170.349 207.78C171.188 208.099 172.162 208.033 173.019 207.601C174.726 206.742 175.514 204.805 174.893 202.996C174.581 202.087 173.932 201.361 173.109 201.002C172.342 200.667 171.477 200.679 170.675 201.036C169.516 201.606 168.466 202.143 167.492 202.668ZM154.589 203.008C155.618 203.882 156.46 205.107 157.023 206.59C157.224 207.188 157.42 207.759 157.612 208.308C158.967 207.162 160.203 206.186 161.44 205.299C160.986 203.848 160.585 202.324 160.193 200.595C159.714 200.914 159.219 201.249 158.703 201.603C157.351 202.455 155.939 202.928 154.589 203.008ZM162.553 205.672C163.047 207.173 163.609 208.617 164.294 210.166C165.164 209.547 166.1 208.907 167.132 208.224C167.585 207.95 168.064 207.768 168.553 207.68C168.218 207.319 167.946 206.89 167.753 206.407C167.338 205.234 166.972 204.154 166.648 203.13C165.169 203.955 163.851 204.771 162.553 205.672ZM150.066 212.164C151.74 212.369 153.584 211.744 155.221 210.392C155.785 209.888 156.324 209.414 156.843 208.966C156.612 208.314 156.377 207.63 156.134 206.908C155.283 204.667 153.729 203.095 151.877 202.612C150.149 202.16 148.327 202.678 146.621 204.108C146.035 204.6 145.503 205.184 145.032 205.838C145.118 206.639 145.29 207.41 145.557 208.128C146.331 210.216 147.654 211.567 149.383 212.031C149.388 212.033 149.393 212.034 149.398 212.036C149.408 212.037 149.417 212.038 149.427 212.04C149.643 212.069 149.855 212.111 150.066 212.164ZM157.952 209.259C158.556 210.928 159.137 212.385 159.757 213.757C160.927 212.711 162.139 211.738 163.512 210.731C162.818 209.177 162.248 207.733 161.746 206.245C160.528 207.13 159.303 208.108 157.952 209.259ZM144.266 207.052C142.875 209.581 142.243 212.78 142.568 215.653C142.846 215.245 143.149 214.86 143.476 214.505C144.64 213.24 145.977 212.43 147.367 212.124C146.198 211.318 145.268 210.065 144.671 208.456C144.504 208.003 144.369 207.534 144.266 207.052ZM164.69 211.043C165.155 212.054 165.673 213.119 166.259 214.279C166.677 215.03 167.361 215.56 168.175 215.754C169.049 215.962 170.005 215.773 170.799 215.236C172.384 214.164 172.92 212.142 172.073 210.429C171.647 209.568 170.909 208.931 170.048 208.68C169.244 208.446 168.388 208.567 167.637 209.022C166.561 209.735 165.589 210.399 164.69 211.043ZM151.988 213.018C153.119 213.76 154.093 214.877 154.808 216.289C155.077 216.819 155.354 217.349 155.638 217.879C156.823 216.578 157.916 215.46 159.022 214.428C158.387 213.044 157.797 211.584 157.186 209.918C156.751 210.296 156.303 210.692 155.837 211.108C154.621 212.112 153.3 212.759 151.988 213.018ZM160.173 214.655C160.854 216.085 161.596 217.45 162.471 218.903C163.255 218.176 164.103 217.42 165.04 216.609C165.454 216.277 165.908 216.034 166.381 215.885C166.002 215.569 165.678 215.177 165.425 214.721C164.863 213.609 164.363 212.584 163.912 211.61C162.548 212.617 161.345 213.594 160.173 214.655ZM142.813 217.072C143 217.859 143.27 218.605 143.626 219.287C144.66 221.269 146.144 222.444 147.919 222.683C149.808 222.938 151.848 222.07 153.5 220.297C154.01 219.706 154.497 219.15 154.967 218.623C154.623 217.988 154.288 217.351 153.966 216.716C153.007 214.822 151.543 213.531 149.886 213.093C149.661 213.063 149.439 213.02 149.22 212.965C147.455 212.751 145.665 213.522 144.171 215.144C143.651 215.709 143.198 216.36 142.813 217.072ZM156.116 218.757C156.903 220.183 157.731 221.589 158.55 222.922C159.54 221.781 160.582 220.698 161.768 219.565C160.883 218.107 160.133 216.744 159.447 215.327C158.365 216.349 157.289 217.462 156.116 218.757ZM162.975 219.725C163.565 220.673 164.215 221.668 164.944 222.749C165.454 223.444 166.2 223.884 167.033 223.973C167.924 224.067 168.848 223.756 169.568 223.117C171.005 221.843 171.279 219.76 170.221 218.164C169.69 217.364 168.878 216.824 167.992 216.685C167.164 216.557 166.33 216.786 165.644 217.334C164.666 218.182 163.785 218.967 162.975 219.725ZM142.209 218.379C141.18 221.006 140.945 224.176 141.568 226.951C141.689 226.742 141.817 226.538 141.951 226.34C143.108 224.636 144.599 223.543 146.234 223.176C144.84 222.556 143.648 221.371 142.788 219.723C142.565 219.295 142.372 218.846 142.209 218.379ZM159.072 223.765C159.971 225.2 160.848 226.533 161.64 227.696C162.239 226.954 162.887 226.18 163.594 225.354C164.057 224.855 164.6 224.493 165.19 224.277C164.806 224.018 164.462 223.687 164.172 223.292C163.473 222.257 162.847 221.3 162.275 220.387C161.097 221.52 160.062 222.609 159.072 223.765ZM149.861 223.536C151.184 224.094 152.416 225.106 153.419 226.494C153.811 227.083 154.188 227.64 154.554 228.171C155.726 226.459 156.797 225.015 157.908 223.678C157.083 222.345 156.248 220.935 155.449 219.501C155.048 219.954 154.634 220.428 154.203 220.927C152.909 222.317 151.397 223.212 149.861 223.536ZM162.197 228.508C163.127 229.848 163.9 230.896 164.393 231.518C164.974 232.251 165.704 232.446 166.245 232.473C166.354 232.451 166.464 232.433 166.577 232.42C166.742 232.4 166.908 232.396 167.075 232.394C167.798 232.224 168.496 231.8 169.002 231.201C170.244 229.732 170.22 227.61 168.944 226.156C168.306 225.429 167.427 225.006 166.532 224.993C165.703 224.969 164.902 225.333 164.3 225.982C163.532 226.877 162.838 227.711 162.197 228.508ZM155.132 229.001C156.116 230.4 157.034 231.616 157.967 232.743C158.883 231.306 159.865 229.938 161.024 228.467C160.23 227.308 159.346 225.971 158.436 224.525C157.351 225.85 156.295 227.289 155.132 229.001ZM141.947 228.288C142.248 229.157 142.645 229.966 143.14 230.68C144.421 232.531 146.045 233.514 147.834 233.524H147.861C149.763 233.524 151.657 232.391 153.06 230.412C153.377 229.925 153.685 229.458 153.986 229.011C153.555 228.389 153.109 227.732 152.644 227.032C151.226 225.073 149.283 223.946 147.401 223.984C145.611 224.01 143.996 225.009 142.732 226.871C142.433 227.311 142.172 227.785 141.947 228.288ZM158.607 233.5C159.645 234.698 160.726 235.819 161.962 236.987C162.522 236.074 163.136 235.116 163.821 234.079C164.113 233.674 164.458 233.336 164.843 233.071C164.388 232.848 163.984 232.522 163.653 232.104C163.181 231.51 162.457 230.53 161.585 229.28C160.461 230.721 159.506 232.07 158.607 233.5ZM150.002 234.068C151.374 234.451 152.71 235.283 153.873 236.508C154.291 236.983 154.693 237.436 155.084 237.869C155.887 236.28 156.646 234.894 157.44 233.588C156.488 232.454 155.559 231.236 154.568 229.839C154.33 230.195 154.088 230.563 153.84 230.943C152.769 232.455 151.434 233.528 150.002 234.068ZM141.454 229.61C140.545 232.61 140.732 236.242 141.915 239.18C142.074 238.712 142.262 238.261 142.482 237.83C143.387 236.056 144.679 234.81 146.198 234.218C144.747 233.773 143.421 232.746 142.363 231.218C142.016 230.718 141.714 230.179 141.454 229.61ZM162.667 237.643C163.489 238.396 164.381 239.178 165.372 240.021C166.05 240.551 166.885 240.775 167.712 240.636C168.596 240.489 169.404 239.943 169.927 239.137C170.971 237.532 170.677 235.451 169.23 234.19C168.635 233.672 167.905 233.376 167.171 233.341C166.896 233.396 166.631 233.419 166.335 233.42C165.647 233.587 165.039 234.003 164.599 234.616C163.884 235.698 163.246 236.694 162.667 237.643ZM155.765 238.616C156.971 239.925 158.073 241.046 159.179 242.073C159.853 240.649 160.59 239.279 161.463 237.813C160.216 236.645 159.127 235.528 158.089 234.344C157.311 235.64 156.562 237.025 155.765 238.616ZM142.531 240.482C142.922 241.19 143.381 241.837 143.906 242.397C145.433 244.025 147.176 244.757 148.951 244.513C150.846 244.253 152.574 242.872 153.692 240.727C154.015 240.041 154.328 239.394 154.631 238.776C154.164 238.262 153.681 237.72 153.175 237.144C151.52 235.4 149.477 234.55 147.584 234.823C145.813 235.079 144.339 236.268 143.324 238.26C142.974 238.945 142.712 239.693 142.531 240.482ZM159.912 242.738C161.094 243.787 162.306 244.754 163.679 245.749C164.118 244.775 164.607 243.751 165.154 242.64C165.408 242.174 165.731 241.775 166.11 241.453C165.637 241.309 165.186 241.074 164.775 240.752C163.826 239.945 162.966 239.193 162.171 238.469C161.309 239.93 160.58 241.302 159.912 242.738ZM151.686 244.44C153.017 244.678 154.361 245.314 155.595 246.314C156.07 246.73 156.527 247.125 156.969 247.503C157.564 245.831 158.142 244.365 158.763 242.976C157.638 241.945 156.526 240.826 155.317 239.523C155.063 240.041 154.804 240.581 154.538 241.147C153.798 242.567 152.814 243.69 151.686 244.44ZM164.463 246.308C165.372 246.947 166.355 247.606 167.445 248.312C168.183 248.751 169.041 248.864 169.843 248.622C170.701 248.364 171.433 247.719 171.851 246.855C172.681 245.134 172.127 243.118 170.533 242.06C169.733 241.53 168.778 241.35 167.904 241.565C167.092 241.768 166.413 242.304 165.992 243.075C165.421 244.234 164.916 245.298 164.463 246.308ZM142.299 241.903C142.001 244.779 142.662 247.972 144.076 250.488C144.175 250.005 144.305 249.534 144.468 249.08C145.051 247.462 145.972 246.198 147.138 245.383C145.744 245.096 144.395 244.299 143.217 243.043C142.886 242.69 142.58 242.309 142.299 241.903ZM157.741 248.155C159.102 249.293 160.337 250.26 161.563 251.133C162.05 249.64 162.607 248.191 163.288 246.631C161.904 245.636 160.685 244.675 159.504 243.639C158.897 245.017 158.33 246.481 157.741 248.155ZM162.374 251.699C163.681 252.588 165.006 253.391 166.493 254.202C166.805 253.182 167.16 252.104 167.562 250.934C167.754 250.44 168.023 250.004 168.357 249.637C167.871 249.555 167.394 249.38 166.947 249.115C165.902 248.437 164.954 247.803 164.075 247.189C163.404 248.744 162.855 250.193 162.374 251.699ZM144.853 251.695C145.33 252.344 145.867 252.924 146.458 253.41C148.178 254.825 150.002 255.323 151.728 254.857C153.575 254.357 155.114 252.771 155.951 250.505C156.185 249.787 156.412 249.107 156.635 248.458C156.108 248.011 155.56 247.538 154.987 247.036C153.123 245.526 150.987 244.947 149.147 245.462C147.422 245.942 146.111 247.305 145.356 249.401C145.097 250.121 144.932 250.893 144.853 251.695ZM167.341 254.657C168.325 255.176 169.384 255.705 170.555 256.269C171.346 256.609 172.21 256.614 172.974 256.271C173.793 255.905 174.436 255.173 174.739 254.261C175.344 252.447 174.538 250.518 172.822 249.674C171.962 249.25 170.988 249.195 170.153 249.52C169.372 249.823 168.766 250.441 168.448 251.259C168.029 252.48 167.662 253.598 167.341 254.657ZM154.435 254.436C155.784 254.503 157.197 254.961 158.548 255.794C159.072 256.146 159.574 256.48 160.061 256.797C160.438 255.064 160.824 253.538 161.265 252.081C160.02 251.206 158.775 250.242 157.411 249.109C157.225 249.654 157.037 250.221 156.843 250.815C156.29 252.314 155.457 253.55 154.435 254.436ZM160.91 257.346C162.404 258.301 163.753 259.103 165.081 259.815C165.372 258.271 165.74 256.762 166.217 255.127C164.72 254.317 163.387 253.519 162.083 252.644C161.656 254.088 161.28 255.61 160.91 257.346ZM144.802 253.13C144.871 256.012 145.932 259.09 147.654 261.402C147.69 260.911 147.759 260.427 147.864 259.956C148.236 258.278 148.988 256.908 150.041 255.951C148.623 255.846 147.185 255.231 145.859 254.139C145.485 253.833 145.134 253.495 144.802 253.13ZM165.957 260.273C167.368 260.992 168.788 261.623 170.368 262.242C170.546 261.188 170.758 260.072 171.007 258.858C171.135 258.343 171.346 257.874 171.631 257.467C171.138 257.448 170.642 257.334 170.163 257.127C169.041 256.587 168.02 256.079 167.069 255.581C166.601 257.21 166.241 258.718 165.957 260.273ZM171.267 262.588C172.312 262.98 173.434 263.373 174.671 263.788C175.5 264.028 176.358 263.923 177.073 263.486C177.837 263.019 178.38 262.209 178.563 261.263C178.926 259.378 177.876 257.558 176.064 256.937C175.155 256.624 174.182 256.693 173.396 257.122C172.66 257.523 172.139 258.214 171.929 259.066C171.669 260.334 171.449 261.494 171.267 262.588ZM148.578 262.5C149.135 263.084 149.741 263.59 150.389 263.997C152.264 265.176 154.125 265.444 155.774 264.775C155.805 264.756 155.837 264.738 155.869 264.72C156.066 264.608 156.268 264.509 156.476 264.421C157.905 263.555 158.965 261.952 159.434 259.906C159.574 259.164 159.713 258.46 159.852 257.788C159.272 257.412 158.669 257.013 158.036 256.588C155.996 255.329 153.805 255.028 152.044 255.773C150.395 256.47 149.268 257.987 148.785 260.16C148.62 260.908 148.554 261.695 148.578 262.5ZM158.989 263.927C160.19 263.927 161.458 264.231 162.701 264.837C163.245 265.103 163.787 265.358 164.323 265.604C164.471 263.845 164.657 262.289 164.906 260.793C163.56 260.083 162.202 259.284 160.704 258.334C160.589 258.899 160.474 259.486 160.358 260.1C160.007 261.63 159.357 262.943 158.48 263.946C158.648 263.934 158.817 263.927 158.989 263.927ZM165.237 266.015C166.787 266.7 168.287 267.302 169.704 267.829C169.795 266.317 169.961 264.821 170.212 263.196C168.623 262.579 167.198 261.954 165.79 261.248C165.554 262.722 165.378 264.266 165.237 266.015ZM170.633 268.167C172.401 268.801 174.018 269.312 175.406 269.716C175.435 268.695 175.487 267.613 175.557 266.439C175.616 265.849 175.786 265.305 176.054 264.825C175.512 264.895 174.949 264.851 174.39 264.689C173.205 264.292 172.125 263.915 171.116 263.539C170.871 265.155 170.713 266.648 170.633 268.167ZM176.343 269.982C177.989 270.438 179.228 270.722 179.897 270.865C180.862 271.071 181.59 270.754 182.047 270.426C182.097 270.372 182.149 270.32 182.202 270.269C182.308 270.167 182.42 270.072 182.537 269.983C183.042 269.413 183.355 268.646 183.399 267.834C183.501 265.913 182.2 264.236 180.305 263.848C179.359 263.654 178.401 263.847 177.68 264.377C177.006 264.874 176.586 265.632 176.498 266.514C176.424 267.762 176.371 268.906 176.343 269.982ZM148.711 263.93C149.147 266.783 150.594 269.704 152.601 271.786C152.573 271.293 152.579 270.804 152.622 270.322C152.775 268.612 153.341 267.156 154.255 266.064C152.843 266.138 151.338 265.709 149.886 264.797C149.478 264.54 149.085 264.25 148.711 263.93ZM286.06 268.255C286.164 268.578 286.229 268.92 286.252 269.275C286.28 270.524 286.292 271.668 286.28 272.745C287.175 272.567 288.025 272.378 288.855 272.168C288.292 270.963 287.583 269.872 286.745 268.945C286.521 268.698 286.292 268.467 286.06 268.255ZM282.172 266.467C281.988 266.467 281.801 266.481 281.614 266.51C279.717 266.808 278.362 268.413 278.392 270.327C278.406 271.288 278.8 272.18 279.471 272.776C280.097 273.332 280.929 273.592 281.797 273.497C283.077 273.311 284.243 273.125 285.334 272.925C285.348 271.809 285.338 270.62 285.308 269.316C285.254 268.455 284.864 267.682 284.21 267.158C283.648 266.708 282.927 266.467 282.172 266.467ZM165.364 273.06C166.253 273.06 167.186 273.202 168.135 273.492C168.68 273.682 169.205 273.861 169.712 274.031C169.616 272.123 169.594 270.443 169.656 268.817C168.234 268.295 166.723 267.695 165.161 267.013C165.119 267.61 165.079 268.233 165.042 268.884C164.876 270.626 164.308 272.147 163.42 273.308C164.033 273.143 164.685 273.06 165.364 273.06ZM153.66 272.762C154.288 273.272 154.956 273.7 155.653 274.023C157.681 274.967 159.574 274.993 161.127 274.104C162.787 273.153 163.87 271.225 164.101 268.812C164.144 268.038 164.192 267.305 164.243 266.605C163.598 266.313 162.945 266.007 162.286 265.686C160.403 264.767 158.476 264.625 156.901 265.267C156.675 265.4 156.441 265.518 156.199 265.62C154.692 266.536 153.758 268.229 153.563 270.407C153.494 271.171 153.532 271.963 153.66 272.762ZM170.675 274.347C172.442 274.919 174.011 275.368 175.534 275.727C175.402 274.095 175.356 272.478 175.384 270.692C173.998 270.294 172.375 269.787 170.59 269.155C170.54 270.764 170.571 272.437 170.675 274.347ZM176.502 275.943C178.052 276.273 179.59 276.512 181.281 276.696C181.176 275.63 181.087 274.495 181.007 273.256C180.995 272.744 181.069 272.253 181.224 271.8C180.734 271.901 180.218 271.899 179.699 271.789C179.052 271.65 177.88 271.382 176.325 270.956C176.305 272.715 176.359 274.315 176.502 275.943ZM182.24 276.793C183.35 276.898 184.533 276.982 185.833 277.055C186.699 277.042 187.492 276.742 188.068 276.134C188.684 275.482 188.998 274.559 188.93 273.6C188.792 271.69 187.301 270.209 185.384 270.079C184.58 270.025 183.786 270.242 183.172 270.687C183.024 270.846 182.863 270.993 182.691 271.124C182.689 271.125 182.687 271.127 182.684 271.13C182.19 271.69 181.931 272.421 181.95 273.215C182.034 274.509 182.127 275.688 182.24 276.793ZM286.264 273.711C286.222 275.416 286.117 276.968 285.931 278.532C287.307 278.271 288.724 277.939 290.293 277.52C290.138 275.952 289.777 274.439 289.232 273.048C288.28 273.291 287.302 273.509 286.264 273.711ZM280.393 274.319C280.542 274.79 280.603 275.294 280.571 275.814C280.444 277.054 280.311 278.187 280.165 279.251C281.856 279.138 283.398 278.965 284.956 278.705C285.154 277.134 285.267 275.584 285.314 273.889C284.262 274.078 283.14 274.257 281.914 274.434C281.386 274.489 280.873 274.449 280.393 274.319ZM276.413 272.479C276.383 272.479 276.353 272.48 276.324 272.481C274.411 272.527 272.869 273.94 272.657 275.839C272.551 276.794 272.828 277.729 273.418 278.405C273.969 279.036 274.755 279.396 275.632 279.418C276.922 279.399 278.1 279.365 279.204 279.307C279.359 278.206 279.497 277.029 279.63 275.737C279.683 274.879 279.394 274.063 278.812 273.46C278.211 272.834 277.339 272.479 276.413 272.479ZM170.734 275.359C170.769 275.902 170.809 276.464 170.854 277.049C170.921 278.801 170.562 280.386 169.839 281.654C171.194 281.082 172.818 280.916 174.544 281.201C175.165 281.327 175.759 281.445 176.332 281.554C176.013 279.803 175.781 278.239 175.625 276.719C174.082 276.367 172.504 275.924 170.734 275.359ZM153.977 274.167C154.805 277.032 156.707 279.837 159.068 281.66C158.982 281.205 158.925 280.75 158.902 280.297C158.804 278.404 159.243 276.752 160.156 275.504C158.656 275.884 156.965 275.675 155.255 274.881C154.817 274.677 154.39 274.437 153.977 274.167ZM177.326 281.738C179.078 282.053 180.633 282.281 182.134 282.431C181.812 280.89 181.573 279.352 181.382 277.657C179.683 277.479 178.141 277.247 176.599 276.93C176.762 278.433 177.001 279.988 177.326 281.738ZM191.427 275.557C191.344 275.557 191.261 275.559 191.177 275.564C190.219 275.625 189.346 276.06 188.783 276.758C188.256 277.41 188.04 278.247 188.171 279.115C188.415 280.384 188.654 281.537 188.904 282.616C190.015 282.576 191.196 282.507 192.491 282.413C193.344 282.316 194.096 281.888 194.59 281.212C195.118 280.487 195.312 279.531 195.123 278.591C194.762 276.799 193.229 275.557 191.427 275.557ZM183.121 282.518C184.696 282.642 186.244 282.679 187.941 282.643C187.704 281.602 187.474 280.49 187.24 279.275C187.161 278.75 187.177 278.237 187.285 277.752C186.822 277.922 186.315 278.012 185.798 277.998C184.554 277.929 183.414 277.849 182.343 277.751C182.538 279.437 182.786 280.97 183.121 282.518ZM160.233 282.455C160.87 282.835 161.531 283.141 162.206 283.357C164.349 284.043 166.237 283.835 167.662 282.753C169.185 281.598 170.005 279.538 169.911 277.103C169.856 276.385 169.808 275.701 169.769 275.045C169.153 274.841 168.513 274.623 167.843 274.39C165.53 273.683 163.33 273.95 161.823 275.127C160.412 276.228 159.728 277.999 159.845 280.247C159.883 280.977 160.017 281.719 160.233 282.455ZM287.926 283.955C289.074 283.955 290.143 284.158 291.084 284.55C290.522 283.32 290.264 281.847 290.352 280.246C290.384 279.655 290.387 279.064 290.361 278.479C288.723 278.914 287.245 279.254 285.802 279.518C285.59 281.024 285.299 282.572 284.914 284.304C285.483 284.221 286.075 284.13 286.692 284.031C287.111 283.98 287.524 283.955 287.926 283.955ZM269.928 277.688C268.195 277.688 266.692 278.85 266.271 280.574C266.043 281.508 266.198 282.471 266.697 283.217C267.163 283.913 267.897 284.369 268.765 284.503C270.048 284.647 271.221 284.762 272.325 284.846C272.618 283.774 272.904 282.625 273.199 281.361C273.362 280.518 273.178 279.673 272.678 279C272.144 278.279 271.29 277.809 270.335 277.71C270.199 277.695 270.063 277.688 269.928 277.688ZM280.028 280.206C279.773 281.888 279.474 283.413 279.092 284.935C280.595 284.847 282.156 284.686 283.913 284.446C284.305 282.716 284.603 281.175 284.822 279.686C283.271 279.934 281.727 280.099 280.028 280.206ZM273.285 284.912C274.976 285.015 276.525 285.04 278.104 284.982C278.498 283.453 278.805 281.933 279.064 280.259C277.998 280.311 276.864 280.344 275.627 280.362C275.097 280.349 274.596 280.243 274.137 280.054C274.225 280.539 274.221 281.047 274.123 281.558C273.84 282.769 273.565 283.876 273.285 284.912ZM295.777 276.331C297.501 276.331 299.048 276.847 300.217 277.84C301.801 279.188 302.551 281.312 302.327 283.821C302.283 284.303 302.203 284.785 302.089 285.265C305.508 282.787 308.084 278.323 307.945 274.408C307.865 272.158 307.028 270.454 305.526 269.479C303.923 268.44 301.709 268.366 299.449 269.279C295.764 270.936 293.017 272.007 290.147 272.803C290.685 274.2 291.048 275.709 291.216 277.268C291.9 277.078 292.614 276.871 293.367 276.647C294.194 276.435 295.003 276.331 295.777 276.331ZM291.294 278.226C291.333 278.912 291.334 279.604 291.295 280.298C291.158 282.777 291.928 284.891 293.408 286.099C294.753 287.196 296.581 287.482 298.691 286.929C299.434 286.734 300.166 286.431 300.874 286.04C301.141 285.276 301.318 284.503 301.386 283.737C301.585 281.51 300.969 279.72 299.606 278.56C298.148 277.321 295.965 276.956 293.619 277.557C292.803 277.8 292.031 278.022 291.294 278.226ZM198.34 280.179C198.096 280.179 197.848 280.202 197.599 280.25C196.657 280.432 195.848 280.975 195.378 281.739C194.939 282.453 194.83 283.311 195.071 284.155C195.473 285.381 195.857 286.495 196.24 287.532C197.338 287.352 198.502 287.133 199.775 286.875C200.61 286.67 201.302 286.151 201.705 285.417C202.136 284.631 202.207 283.659 201.898 282.749C201.366 281.177 199.934 280.179 198.34 280.179ZM189.126 283.552C189.531 285.197 189.969 286.684 190.495 288.174C192.073 288.093 193.614 287.933 195.289 287.683C194.922 286.679 194.554 285.607 194.167 284.432C194.023 283.922 193.974 283.412 194.018 282.918C193.581 283.146 193.095 283.295 192.579 283.353C191.337 283.443 190.199 283.511 189.126 283.552ZM184.662 288.148C186.432 288.232 188.001 288.258 189.507 288.213C188.993 286.729 188.562 285.237 188.162 283.583C186.461 283.625 184.906 283.597 183.34 283.483C183.688 284.949 184.12 286.457 184.662 288.148ZM177.517 282.731C177.628 283.297 177.747 283.884 177.876 284.496C178.144 286.075 178.039 287.564 177.593 288.843C178.796 288.229 180.251 287.927 181.839 287.975C182.469 288.02 183.072 288.06 183.653 288.093C183.117 286.402 182.692 284.885 182.349 283.402C180.83 283.26 179.267 283.04 177.517 282.731ZM259.555 287.437C259.945 288.036 260.546 288.473 261.279 288.682C262.54 288.988 263.693 289.25 264.782 289.472C265.212 288.444 265.645 287.34 266.102 286.121C266.371 285.305 266.298 284.443 265.888 283.712C265.45 282.93 264.662 282.355 263.726 282.136C261.863 281.7 260.004 282.679 259.309 284.469C259.022 285.208 258.991 286.001 259.212 286.706C259.351 286.938 259.467 287.182 259.555 287.437ZM265.727 289.658C267.394 289.975 268.932 290.195 270.509 290.337C271.096 288.87 271.594 287.401 272.064 285.773C271 285.689 269.87 285.577 268.64 285.438C268.115 285.358 267.631 285.19 267.2 284.943C267.225 285.436 267.156 285.94 266.992 286.435C266.555 287.602 266.139 288.666 265.727 289.658ZM271.496 290.415C272.999 290.52 274.571 290.559 276.341 290.543C276.951 288.877 277.441 287.388 277.847 285.938C276.281 285.985 274.726 285.952 273.027 285.842C272.56 287.48 272.069 288.954 271.496 290.415ZM160.712 283.781C161.878 286.504 164.089 289.031 166.627 290.552C166.472 290.083 166.349 289.609 166.264 289.134C165.935 287.287 166.162 285.605 166.902 284.256C165.455 284.831 163.736 284.839 161.918 284.256C161.51 284.125 161.107 283.966 160.712 283.781ZM205.778 283.886C205.378 283.886 204.971 283.949 204.57 284.081C203.657 284.382 202.922 285.023 202.554 285.841C202.21 286.604 202.212 287.469 202.559 288.276C203.117 289.443 203.643 290.5 204.158 291.482C205.229 291.163 206.361 290.8 207.597 290.382C208.402 290.074 209.023 289.472 209.329 288.693C209.656 287.858 209.599 286.884 209.173 286.021C208.512 284.677 207.19 283.886 205.778 283.886ZM279.149 290.486C280.746 290.499 282.191 290.862 283.371 291.523C282.976 290.231 282.929 288.747 283.254 287.195C283.408 286.582 283.552 285.995 283.686 285.43C281.928 285.663 280.36 285.818 278.841 285.896C278.439 287.364 277.954 288.862 277.351 290.53C277.927 290.52 278.524 290.505 279.149 290.486ZM167.905 291.217C168.645 291.546 169.401 291.783 170.157 291.912C172.359 292.29 174.189 291.819 175.456 290.553C176.809 289.201 177.353 287.058 176.948 284.673C176.793 283.931 176.65 283.226 176.519 282.55C175.837 282.423 175.124 282.282 174.373 282.129C172.001 281.738 169.859 282.293 168.515 283.655C167.258 284.929 166.801 286.766 167.194 288.968C167.329 289.724 167.572 290.48 167.905 291.217ZM196.58 288.433C197.191 290.014 197.816 291.433 198.529 292.844C200.087 292.565 201.6 292.211 203.233 291.75C202.739 290.802 202.234 289.784 201.7 288.667C201.49 288.179 201.375 287.677 201.356 287.182C200.951 287.463 200.487 287.673 199.982 287.796C198.761 288.044 197.639 288.256 196.58 288.433ZM255.221 285.451C253.852 285.451 252.551 286.188 251.848 287.462C251.38 288.309 251.279 289.28 251.572 290.126C251.844 290.917 252.443 291.544 253.258 291.89C254.407 292.325 255.466 292.71 256.469 293.053C257.365 291.682 258.029 290.592 258.433 289.929C258.924 289.122 258.856 288.362 258.694 287.841C258.641 287.752 258.59 287.659 258.543 287.565C258.469 287.415 258.405 287.263 258.35 287.106C257.95 286.479 257.321 285.974 256.574 285.697C256.128 285.531 255.671 285.451 255.221 285.451ZM190.834 289.103C191.365 290.511 191.985 291.952 192.738 293.559C194.506 293.418 196.065 293.243 197.553 293.008C196.853 291.602 196.235 290.177 195.627 288.586C193.945 288.844 192.402 289.013 190.834 289.103ZM294.365 287.736C294.92 289.048 295.028 290.609 294.661 292.29C294.558 292.762 294.418 293.229 294.244 293.69C296.78 292.313 299.038 289.96 300.316 287.366C299.862 287.56 299.398 287.72 298.931 287.843C297.237 288.289 295.688 288.248 294.365 287.736ZM214.074 286.738C213.542 286.738 213.001 286.848 212.483 287.078C211.599 287.47 210.932 288.184 210.654 289.035C210.394 289.83 210.493 290.691 210.932 291.459C211.586 292.502 212.198 293.449 212.792 294.329C214.23 293.83 215.405 293.384 216.226 293.027C217.136 292.632 217.541 291.951 217.722 291.419C217.731 291.347 217.743 291.275 217.756 291.203C217.784 291.059 217.819 290.916 217.862 290.776C217.944 290.02 217.752 289.212 217.316 288.526C216.585 287.378 215.356 286.738 214.074 286.738ZM257.394 293.362C259.087 293.914 260.647 294.344 262.261 294.697C263.037 293.314 263.724 291.918 264.404 290.359C263.355 290.141 262.245 289.887 261.038 289.594C260.556 289.457 260.118 289.246 259.737 288.971C259.683 289.474 259.516 289.965 259.239 290.421C258.853 291.055 258.23 292.077 257.394 293.362ZM284.688 285.292C284.531 285.964 284.36 286.667 284.175 287.407C283.682 289.752 284.141 291.914 285.44 293.32C286.654 294.636 288.464 295.183 290.672 294.898C291.431 294.801 292.195 294.595 292.944 294.299C293.304 293.579 293.575 292.837 293.738 292.089C294.213 289.913 293.828 288.062 292.623 286.737C291.336 285.321 289.219 284.676 286.823 284.966C286.077 285.085 285.367 285.194 284.688 285.292ZM184.975 289.107C185.156 289.653 185.348 290.22 185.552 290.81C186.017 292.339 186.1 293.826 185.82 295.15C186.935 294.388 188.339 293.9 189.918 293.749C190.548 293.713 191.151 293.675 191.731 293.635C190.983 292.025 190.37 290.576 189.841 289.148C188.321 289.202 186.746 289.186 184.975 289.107ZM263.231 294.898C264.714 295.191 266.27 295.426 268.037 295.636C268.86 294.058 269.541 292.641 270.131 291.252C268.564 291.1 267.025 290.871 265.351 290.548C264.674 292.117 263.993 293.52 263.231 294.898ZM247.04 287.893C245.867 287.893 244.73 288.439 243.987 289.452C243.419 290.226 243.193 291.175 243.368 292.054C243.532 292.876 244.035 293.579 244.787 294.034C245.92 294.66 246.962 295.215 247.952 295.714C248.638 294.834 249.348 293.88 250.111 292.823C250.587 292.103 250.743 291.251 250.539 290.439C250.321 289.57 249.709 288.811 248.861 288.355C248.279 288.043 247.654 287.893 247.04 287.893ZM204.613 292.332C205.371 293.724 206.124 294.976 206.947 296.201C208.752 295.662 210.417 295.134 211.867 294.645C211.31 293.812 210.734 292.92 210.123 291.945C209.787 291.358 209.602 290.734 209.571 290.109C209.142 290.619 208.579 291.018 207.916 291.271C206.733 291.671 205.644 292.022 204.613 292.332ZM218.649 291.622C218.572 292.365 218.786 293.111 219.263 293.746C220.084 294.752 220.844 295.657 221.577 296.491C222.541 295.932 223.553 295.313 224.654 294.618C225.361 294.13 225.823 293.398 225.938 292.568C226.061 291.68 225.78 290.746 225.167 290.006C223.945 288.532 221.872 288.192 220.236 289.198C219.543 289.626 219.031 290.262 218.788 290.981C218.76 291.196 218.714 291.407 218.651 291.613C218.651 291.616 218.65 291.619 218.649 291.622ZM238.821 289.195C237.821 289.195 236.832 289.598 236.089 290.382C235.427 291.079 235.083 291.991 235.145 292.886C235.203 293.721 235.611 294.483 236.297 295.03C237.337 295.795 238.297 296.478 239.212 297.1C240 296.314 240.821 295.461 241.708 294.511C242.268 293.86 242.53 293.035 242.431 292.203C242.326 291.313 241.818 290.48 241.038 289.919C240.364 289.433 239.589 289.195 238.821 289.195ZM230.528 289.44C229.688 289.44 228.844 289.725 228.138 290.3C227.393 290.905 226.935 291.766 226.883 292.661C226.833 293.498 227.142 294.306 227.754 294.936C228.69 295.826 229.555 296.626 230.384 297.36C231.265 296.682 232.187 295.939 233.187 295.11C233.825 294.535 234.188 293.75 234.196 292.912C234.205 292.016 233.808 291.126 233.108 290.47C232.376 289.785 231.454 289.44 230.528 289.44ZM269.043 295.75C269.615 295.813 270.211 295.874 270.834 295.934C272.421 296.148 273.811 296.692 274.899 297.498C274.672 296.166 274.814 294.686 275.336 293.186C275.567 292.598 275.784 292.034 275.989 291.49C274.221 291.501 272.641 291.451 271.122 291.337C270.535 292.745 269.859 294.17 269.043 295.75ZM198.984 293.723C199.672 295.013 200.447 296.323 201.365 297.766C202.964 297.346 204.52 296.912 205.997 296.481C205.187 295.259 204.441 294.004 203.686 292.604C202.046 293.072 200.533 293.434 198.984 293.723ZM248.815 296.142C250.267 296.848 251.629 297.438 253.037 297.964C254.148 296.478 255.117 295.085 255.931 293.867C254.983 293.539 253.984 293.175 252.906 292.766C252.361 292.535 251.891 292.21 251.513 291.811C251.419 292.351 251.209 292.875 250.888 293.359C250.156 294.372 249.474 295.291 248.815 296.142ZM168.577 292.49C170.077 294.962 172.533 297.108 175.179 298.259C174.966 297.815 174.785 297.361 174.641 296.9C174.129 295.259 174.1 293.694 174.536 292.34C173.253 292.955 171.697 293.134 169.998 292.844C169.522 292.762 169.047 292.643 168.577 292.49ZM213.344 295.136C214.359 296.595 215.341 297.879 216.413 299.133C217.867 298.5 219.257 297.802 220.741 296.97C220.036 296.163 219.305 295.291 218.52 294.329C218.212 293.919 217.987 293.476 217.85 293.016C217.509 293.385 217.088 293.683 216.603 293.894C215.812 294.237 214.7 294.662 213.344 295.136ZM176.528 298.752C177.3 298.982 178.077 299.119 178.842 299.149C181.065 299.237 182.822 298.536 183.917 297.121C185.087 295.606 185.356 293.413 184.655 291.102C184.407 290.388 184.178 289.709 183.963 289.057C183.273 289.019 182.551 288.973 181.79 288.919C179.385 288.833 177.344 289.668 176.185 291.191C175.101 292.615 174.878 294.492 175.543 296.619C175.771 297.35 176.106 298.065 176.528 298.752ZM253.965 298.298C255.502 298.833 257.124 299.307 259.002 299.783C260.073 298.267 260.97 296.903 261.766 295.556C260.15 295.192 258.576 294.747 256.857 294.18C256.049 295.397 255.08 296.798 253.965 298.298ZM240.012 297.635C241.427 298.567 242.76 299.359 244.16 300.093C245.267 298.96 246.292 297.794 247.354 296.47C246.401 295.986 245.399 295.45 244.314 294.851C243.86 294.577 243.476 294.235 243.172 293.842C243.006 294.307 242.751 294.747 242.41 295.142C241.56 296.052 240.771 296.875 240.012 297.635ZM193.171 294.471C193.42 294.99 193.683 295.528 193.961 296.087C194.627 297.566 194.899 299.052 194.777 300.417C195.784 299.516 197.115 298.835 198.668 298.453C199.251 298.31 199.83 298.164 200.405 298.016C199.479 296.55 198.699 295.217 198.005 293.894C196.503 294.14 194.939 294.324 193.171 294.471ZM222.218 297.211C223.356 298.469 224.449 299.573 225.62 300.64C226.974 299.825 228.259 298.955 229.617 297.941C228.819 297.231 227.986 296.46 227.089 295.606C226.72 295.226 226.435 294.798 226.241 294.341C225.963 294.749 225.604 295.11 225.174 295.405C224.12 296.072 223.146 296.668 222.218 297.211ZM231.11 297.992C232.394 299.096 233.614 300.052 234.908 300.959C236.146 299.978 237.308 298.951 238.525 297.774C237.644 297.171 236.72 296.513 235.723 295.78C235.309 295.45 234.973 295.063 234.722 294.635C234.5 295.074 234.191 295.476 233.804 295.825C232.846 296.619 231.958 297.336 231.11 297.992ZM286.286 295.143C286.669 296.514 286.577 298.075 285.999 299.694C285.837 300.148 285.639 300.594 285.408 301.03C288.097 299.987 290.632 297.946 292.224 295.541C291.749 295.674 291.271 295.773 290.792 295.835C289.091 296.051 287.544 295.81 286.286 295.143ZM207.509 297.018C208.458 298.364 209.515 299.708 210.783 301.207C212.537 300.65 214.062 300.108 215.5 299.519C214.431 298.252 213.444 296.947 212.417 295.455C210.976 295.945 209.314 296.476 207.509 297.018ZM277.002 291.48C276.76 292.128 276.5 292.804 276.222 293.513C275.433 295.778 275.613 297.983 276.721 299.542C277.758 301.001 279.483 301.772 281.711 301.772H281.712C282.478 301.772 283.26 301.665 284.041 301.468C284.49 300.799 284.853 300.098 285.11 299.376C285.858 297.279 285.711 295.395 284.685 293.927C283.589 292.359 281.575 291.449 279.16 291.43C278.404 291.453 277.688 291.47 277.002 291.48ZM245.041 300.544C246.373 301.205 247.789 301.831 249.409 302.485C250.503 301.218 251.517 299.959 252.442 298.75C251.042 298.217 249.678 297.618 248.218 296.902C247.156 298.235 246.134 299.41 245.041 300.544ZM259.985 300.028C260.513 300.156 261.061 300.286 261.634 300.417C263.326 300.875 264.731 301.69 265.726 302.758C265.583 301.295 265.909 299.696 266.695 298.131C267.001 297.577 267.291 297.044 267.565 296.53C265.798 296.314 264.237 296.069 262.74 295.765C261.944 297.133 261.052 298.507 259.985 300.028ZM217.065 299.88C218.07 301.008 219.169 302.135 220.451 303.37C222.059 302.61 223.457 301.891 224.767 301.141C223.609 300.074 222.521 298.962 221.381 297.693C219.894 298.535 218.504 299.241 217.065 299.88ZM235.724 301.518C236.975 302.356 238.316 303.169 239.863 304.039C241.22 302.897 242.387 301.849 243.461 300.794C242.075 300.056 240.744 299.255 239.325 298.313C238.106 299.501 236.948 300.534 235.724 301.518ZM226.36 301.298C227.495 302.288 228.722 303.265 230.145 304.326C231.637 303.366 232.928 302.475 234.127 301.565C232.847 300.655 231.629 299.691 230.342 298.578C228.981 299.601 227.7 300.48 226.36 301.298ZM201.902 298.601C202.247 299.133 202.612 299.684 203 300.26C203.848 301.634 204.31 303.065 204.372 304.425C205.295 303.369 206.6 302.527 208.18 301.998C208.744 301.833 209.285 301.671 209.804 301.512C208.549 300.017 207.501 298.665 206.553 297.301C205.074 297.736 203.509 298.175 201.902 298.601ZM177.353 299.926C179.149 302.182 181.853 303.994 184.622 304.797C184.353 304.384 184.117 303.957 183.916 303.518C183.199 301.956 182.972 300.41 183.233 299.012C182.038 299.784 180.517 300.155 178.804 300.093C178.323 300.074 177.837 300.018 177.353 299.926ZM186.022 305.115C186.818 305.243 187.606 305.281 188.369 305.214C190.589 305.02 192.24 304.101 193.145 302.557C194.113 300.905 194.1 298.695 193.108 296.491C192.772 295.814 192.457 295.17 192.162 294.551C191.472 294.601 190.75 294.647 189.99 294.69C187.603 294.919 185.677 296.002 184.721 297.659C183.828 299.211 183.846 301.101 184.774 303.125C185.093 303.82 185.516 304.487 186.022 305.115ZM250.337 302.854C250.901 303.075 251.49 303.3 252.107 303.532C253.72 304.209 255.004 305.206 255.848 306.399C255.905 304.936 256.442 303.398 257.429 301.953C257.772 301.489 258.1 301.042 258.412 300.608C256.542 300.126 254.917 299.642 253.369 299.091C252.445 300.305 251.433 301.574 250.337 302.854ZM277.327 301.457C277.531 302.866 277.238 304.405 276.456 305.94C276.236 306.37 275.981 306.788 275.695 307.191C278.502 306.496 281.282 304.791 283.169 302.608C282.681 302.679 282.195 302.716 281.712 302.716C279.992 302.717 278.49 302.278 277.327 301.457ZM211.449 301.986C211.803 302.396 212.174 302.819 212.563 303.258C213.625 304.554 214.284 305.962 214.506 307.346C215.281 306.224 216.432 305.258 217.874 304.549C218.452 304.291 219.005 304.042 219.534 303.798C218.256 302.558 217.159 301.42 216.15 300.273C214.708 300.875 213.189 301.425 211.449 301.986ZM268.572 296.649C268.247 297.262 267.9 297.9 267.531 298.571C266.451 300.72 266.343 302.93 267.242 304.618C268.085 306.198 269.702 307.181 271.92 307.462C272.683 307.558 273.476 307.552 274.279 307.453C274.813 306.846 275.266 306.194 275.614 305.51C276.629 303.522 276.726 301.634 275.895 300.048C275.008 298.353 273.124 297.195 270.726 296.871C269.971 296.799 269.256 296.725 268.572 296.649ZM240.745 304.53C241.25 304.808 241.776 305.092 242.327 305.387C243.688 306.18 244.75 307.197 245.447 308.337C245.753 307.02 246.467 305.72 247.545 304.563C247.956 304.123 248.359 303.68 248.751 303.237C247.121 302.573 245.694 301.934 244.344 301.252C243.264 302.325 242.097 303.383 240.745 304.53ZM221.183 304.068C221.601 304.464 222.04 304.872 222.5 305.297C223.636 306.426 224.414 307.698 224.794 308.999C225.418 307.799 226.426 306.706 227.748 305.826C228.287 305.496 228.8 305.178 229.293 304.868C227.874 303.803 226.646 302.815 225.505 301.807C224.186 302.574 222.787 303.302 221.183 304.068ZM230.957 304.926C231.422 305.265 231.908 305.614 232.416 305.976C233.683 306.951 234.614 308.114 235.156 309.353C235.621 308.085 236.48 306.873 237.677 305.833C238.17 305.437 238.638 305.056 239.086 304.686C237.544 303.81 236.201 302.987 234.943 302.132C233.737 303.06 232.445 303.961 230.957 304.926ZM186.99 306.174C189.061 308.185 191.979 309.64 194.837 310.086C194.516 309.711 194.226 309.317 193.969 308.907C193.04 307.422 192.616 305.933 192.708 304.518C191.622 305.437 190.164 306.005 188.452 306.155C187.969 306.197 187.481 306.203 186.99 306.174ZM196.27 310.225C197.08 310.252 197.869 310.19 198.621 310.027C200.806 309.553 202.331 308.432 203.032 306.785C203.78 305.025 203.479 302.833 202.206 300.771C201.755 300.102 201.335 299.465 200.94 298.854C200.264 299.028 199.58 299.201 198.894 299.37C196.498 299.96 194.712 301.313 193.994 303.085C193.337 304.705 193.606 306.545 194.77 308.406C195.177 309.057 195.685 309.666 196.27 310.225ZM267.336 306.337C267.454 307.889 266.949 309.534 265.851 311.095C265.604 311.445 265.332 311.782 265.038 312.105C267.984 311.803 271.056 310.445 273.263 308.475C272.771 308.485 272.281 308.46 271.802 308.399C269.94 308.163 268.403 307.446 267.336 306.337ZM259.397 300.856C259.019 301.383 258.621 301.929 258.198 302.5C256.835 304.497 256.434 306.677 257.107 308.465C257.739 310.14 259.226 311.321 261.407 311.879C262.115 312.06 262.863 312.154 263.63 312.166C264.182 311.671 264.671 311.131 265.078 310.551C266.373 308.711 266.736 306.847 266.127 305.163C265.477 303.366 263.756 301.969 261.404 301.333C260.702 301.172 260.035 301.013 259.397 300.856ZM210.469 302.295C209.832 302.493 209.166 302.693 208.463 302.899C206.169 303.667 204.533 305.163 203.991 306.995C203.483 308.712 203.955 310.55 205.355 312.312C205.85 312.934 206.444 313.501 207.113 314.006C207.939 313.933 208.737 313.77 209.48 313.509C211.603 312.761 212.981 311.456 213.464 309.732C213.979 307.891 213.389 305.755 211.844 303.871C211.359 303.324 210.903 302.8 210.469 302.295ZM197.371 311.154C199.689 312.883 202.779 313.957 205.683 314.046C205.295 313.686 204.938 313.304 204.617 312.9C203.561 311.574 202.969 310.155 202.868 308.764C201.905 309.826 200.519 310.582 198.82 310.95C198.348 311.052 197.863 311.119 197.371 311.154ZM246.353 310.964C246.765 312.692 248.105 314.103 250.141 314.944C250.85 315.237 251.617 315.437 252.419 315.552C253.092 315.105 253.7 314.595 254.216 314.026C255.72 312.371 256.311 310.573 255.924 308.825C255.511 306.958 253.992 305.348 251.759 304.41C251.028 304.135 250.337 303.87 249.681 303.61C249.213 304.143 248.731 304.677 248.236 305.208C246.791 306.756 246.084 308.572 246.241 310.276C246.292 310.504 246.33 310.734 246.353 310.964ZM253.855 315.669C256.835 315.734 260.081 314.752 262.523 313.042C262.063 312.989 261.612 312.906 261.172 312.794C259.337 312.324 257.891 311.413 256.972 310.169C256.886 311.713 256.184 313.266 254.915 314.661C254.591 315.019 254.235 315.355 253.855 315.669ZM220.265 304.5C219.635 304.792 218.974 305.092 218.274 305.403C216.116 306.465 214.694 308.16 214.392 310.049C214.11 311.817 214.805 313.578 216.403 315.141C216.953 315.679 217.589 316.152 218.288 316.559C219.081 316.397 219.835 316.151 220.526 315.817C222.535 314.845 223.754 313.398 224.049 311.633C224.365 309.746 223.563 307.685 221.847 305.979C221.29 305.465 220.764 304.974 220.265 304.5ZM208.303 314.797C210.806 316.261 213.982 316.989 216.861 316.759C216.462 316.469 216.088 316.155 215.743 315.817C214.502 314.603 213.731 313.228 213.48 311.819C212.654 312.947 211.395 313.836 209.793 314.399C209.313 314.568 208.815 314.7 208.303 314.797ZM239.969 305.181C239.438 305.623 238.877 306.079 238.283 306.557C236.473 308.129 235.533 310.13 235.719 312.034C235.893 313.816 237.006 315.343 238.938 316.452C239.601 316.833 240.333 317.129 241.109 317.346C241.831 316.989 242.495 316.561 243.077 316.064C244.77 314.616 245.581 312.909 245.421 311.125C245.421 311.122 245.42 311.121 245.42 311.118C245.416 311.104 245.414 311.089 245.411 311.075C245.364 310.861 245.329 310.646 245.307 310.429C244.919 308.788 243.698 307.279 241.867 306.211C241.201 305.856 240.57 305.514 239.969 305.181ZM230.105 305.472C229.521 305.843 228.906 306.224 228.256 306.622C226.259 307.95 225.071 309.815 225.013 311.727C224.958 313.517 225.868 315.174 227.644 316.519C228.255 316.981 228.943 317.37 229.685 317.684C230.446 317.421 231.159 317.082 231.8 316.662C233.662 315.442 234.682 313.852 234.751 312.063C234.824 310.151 233.768 308.209 231.855 306.735C231.239 306.298 230.657 305.878 230.105 305.472ZM242.513 317.647C245.366 318.079 248.586 317.569 251.172 316.273C250.692 316.152 250.227 316.001 249.78 315.816C248.192 315.16 246.97 314.186 246.202 312.986C245.851 314.362 244.994 315.667 243.691 316.782C243.324 317.095 242.93 317.383 242.513 317.647ZM219.575 317.205C222.233 318.345 225.476 318.666 228.301 318.065C227.869 317.828 227.459 317.563 227.074 317.272C225.703 316.233 224.77 314.977 224.339 313.621C223.65 314.867 222.488 315.916 220.938 316.667C220.502 316.877 220.047 317.056 219.575 317.205ZM231.038 318.159C233.813 318.953 237.064 318.857 239.785 317.902C239.327 317.721 238.886 317.511 238.467 317.271C236.976 316.416 235.893 315.289 235.293 314C234.77 315.322 233.754 316.511 232.316 317.452C231.913 317.717 231.486 317.952 231.038 318.159ZM234.984 319.659C233.133 319.659 231.29 319.34 229.649 318.696C225.999 319.845 221.489 319.4 218.124 317.558C214.367 318.227 209.955 317.218 206.832 314.981C202.997 315.218 198.711 313.729 195.878 311.158C192.047 310.929 187.992 308.907 185.512 305.99C181.754 305.28 177.997 302.763 175.911 299.556C172.271 298.372 168.859 295.389 167.19 291.935C163.679 290.264 160.629 286.788 159.43 283.077C156.119 280.98 153.506 277.115 152.784 273.268C149.87 270.773 147.858 266.713 147.644 262.891C145.076 260.055 143.602 255.779 143.876 251.964C141.69 248.821 140.771 244.384 141.529 240.623C139.636 236.972 139.374 232.022 140.931 228.25C139.787 224.658 140.121 220.27 141.81 216.94C141.018 213.186 141.895 208.741 144.053 205.579C143.743 201.766 145.178 197.477 147.719 194.617C147.898 190.793 149.872 186.715 152.763 184.192C153.445 180.364 155.992 176.502 159.254 174.365C160.401 170.616 163.436 167.076 166.956 165.362C168.591 161.892 171.976 158.879 175.605 157.661C177.661 154.435 181.396 151.883 185.148 151.138C187.6 148.199 191.637 146.14 195.464 145.876C198.268 143.284 202.532 141.75 206.361 141.951C209.464 139.676 213.876 138.624 217.647 139.256C220.994 137.382 225.501 136.895 229.161 138.012C232.709 136.582 237.231 136.673 240.717 138.247C244.421 137.278 248.903 137.947 252.172 139.956C256.031 139.466 260.474 140.747 263.485 143.224H263.556C267.457 143.224 271.706 145.062 274.375 147.894C278.175 148.422 282.06 150.754 284.303 153.856C287.994 154.858 291.544 157.662 293.372 161.022C296.909 162.487 300.077 165.727 301.47 169.302C305.676 171.723 308.946 176.893 308.823 181.552C308.756 184.087 307.763 186.116 306.027 187.266C304.174 188.494 301.643 188.619 299.085 187.613C295.422 186.008 292.698 184.974 289.861 184.213C289.214 185.703 288.352 187.033 287.298 188.126C285.742 189.737 283.92 190.647 282.261 190.649C282.009 190.654 281.746 190.64 281.484 190.602C279.114 190.253 277.404 188.264 277.42 185.874C277.423 185.397 277.5 184.932 277.644 184.495C277.205 184.63 276.744 184.703 276.262 184.69C273.872 184.653 271.929 182.905 271.642 180.534C271.585 180.062 271.603 179.592 271.69 179.142C271.272 179.331 270.819 179.457 270.347 179.511C267.971 179.779 265.823 178.294 265.235 175.977C265.118 175.515 265.075 175.046 265.104 174.587C264.713 174.829 264.278 175.012 263.815 175.125C261.487 175.692 259.163 174.488 258.275 172.264C258.081 171.776 257.975 171.268 257.957 170.765C257.574 171.098 257.125 171.369 256.63 171.559C254.386 172.426 251.899 171.541 250.715 169.459C250.477 169.041 250.311 168.596 250.219 168.142C249.902 168.479 249.527 168.771 249.106 169.002C247.005 170.155 244.443 169.603 243.011 167.689C242.726 167.307 242.506 166.89 242.358 166.455C242.088 166.827 241.758 167.162 241.373 167.444C239.447 168.859 236.842 168.64 235.181 166.922C234.85 166.581 234.58 166.195 234.378 165.784C234.16 166.187 233.874 166.561 233.531 166.889C231.803 168.538 229.19 168.651 227.322 167.16C226.95 166.863 226.633 166.514 226.379 166.131C226.213 166.559 225.977 166.968 225.676 167.338C224.167 169.192 221.584 169.639 219.533 168.403C218.976 168.067 218.508 167.623 218.157 167.111C218.077 167.771 217.839 168.424 217.452 169.01C216.129 171.017 213.59 171.743 211.417 170.737C210.981 170.534 210.587 170.268 210.248 169.953C210.186 170.411 210.051 170.866 209.843 171.299C208.804 173.458 206.397 174.499 204.119 173.771C203.665 173.626 203.243 173.413 202.87 173.145C202.867 173.605 202.792 174.07 202.644 174.523C201.897 176.794 199.647 178.131 197.299 177.695C196.832 177.609 196.389 177.452 195.985 177.234C196.042 177.69 196.027 178.16 195.937 178.627C195.487 180.973 193.409 182.578 191.041 182.454C190.566 182.428 190.105 182.329 189.676 182.165C189.789 182.61 189.834 183.079 189.805 183.555C189.654 185.94 187.811 187.806 185.423 187.991C184.898 188.031 184.383 187.981 183.897 187.848C184.101 188.313 184.225 188.822 184.261 189.351C184.418 191.751 182.833 193.863 180.493 194.373C180.024 194.475 179.549 194.501 179.089 194.455C179.316 194.858 179.483 195.302 179.578 195.772C180.053 198.121 178.762 200.403 176.508 201.199C176.058 201.358 175.594 201.443 175.135 201.455C175.411 201.823 175.632 202.239 175.787 202.689C176.562 204.951 175.577 207.371 173.443 208.445C173.019 208.659 172.57 208.801 172.117 208.872C172.436 209.2 172.709 209.584 172.92 210.01C173.978 212.152 173.309 214.678 171.329 216.018C170.934 216.285 170.507 216.484 170.066 216.611C170.425 216.898 170.744 217.245 171.008 217.642C172.329 219.634 171.988 222.234 170.195 223.824C169.747 224.221 169.233 224.52 168.692 224.706C169.043 224.93 169.368 225.208 169.653 225.533C171.24 227.341 171.269 229.981 169.723 231.811C169.415 232.175 169.057 232.486 168.666 232.734C169.089 232.915 169.49 233.165 169.849 233.478C171.656 235.051 172.022 237.648 170.72 239.652C170.46 240.052 170.143 240.401 169.787 240.691C170.229 240.815 170.658 241.01 171.056 241.274C173.047 242.594 173.739 245.115 172.701 247.266C172.494 247.694 172.225 248.08 171.909 248.412C172.363 248.478 172.813 248.617 173.239 248.827C175.383 249.881 176.391 252.292 175.636 254.56C175.485 255.012 175.268 255.43 174.995 255.8C175.455 255.808 175.92 255.889 176.37 256.044C178.632 256.819 179.944 259.09 179.49 261.442C179.391 261.957 179.205 262.442 178.948 262.876C179.451 262.802 179.974 262.817 180.495 262.923C182.851 263.406 184.468 265.492 184.341 267.884C184.316 268.36 184.216 268.825 184.052 269.259C184.5 269.147 184.972 269.104 185.449 269.136C187.839 269.3 189.699 271.148 189.871 273.532C189.905 274.008 189.865 274.478 189.755 274.924C190.183 274.755 190.642 274.652 191.118 274.622C193.484 274.476 195.577 276.062 196.049 278.404C196.142 278.87 196.161 279.34 196.109 279.796C196.511 279.575 196.953 279.414 197.42 279.323C199.764 278.866 202.024 280.181 202.793 282.445C202.946 282.896 203.025 283.361 203.032 283.821C203.402 283.549 203.822 283.334 204.275 283.184C206.547 282.438 208.962 283.454 210.021 285.603C210.309 286.187 210.463 286.813 210.481 287.433C210.906 286.92 211.458 286.5 212.1 286.215C214.3 285.24 216.828 285.999 218.113 288.019C218.368 288.421 218.557 288.857 218.676 289.306C218.974 288.955 219.334 288.645 219.742 288.395C221.781 287.139 224.369 287.563 225.894 289.404C226.199 289.771 226.438 290.177 226.608 290.604C226.858 290.219 227.173 289.867 227.542 289.567C229.397 288.059 232.01 288.149 233.752 289.781C234.1 290.106 234.389 290.477 234.611 290.878C234.81 290.465 235.076 290.077 235.404 289.732C237.047 288.001 239.648 287.756 241.591 289.152C241.977 289.431 242.311 289.763 242.584 290.133C242.728 289.697 242.944 289.278 243.226 288.893C244.64 286.966 247.199 286.389 249.308 287.524C249.771 287.772 250.179 288.093 250.516 288.468C250.595 287.966 250.764 287.47 251.022 287.005C252.183 284.901 254.655 283.976 256.903 284.812C257.35 284.978 257.764 285.21 258.13 285.494C258.157 285.034 258.256 284.573 258.429 284.128C259.296 281.894 261.61 280.666 263.942 281.217C264.406 281.326 264.842 281.504 265.236 281.742C265.203 281.283 265.24 280.814 265.354 280.351C265.921 278.028 268.06 276.525 270.433 276.77C270.906 276.82 271.36 276.941 271.78 277.127C271.688 276.677 271.666 276.207 271.719 275.735C271.984 273.36 273.91 271.595 276.301 271.537C276.774 271.525 277.245 271.587 277.684 271.719C277.536 271.284 277.455 270.819 277.448 270.342C277.41 267.953 279.101 265.948 281.468 265.577C281.76 265.532 282.051 265.514 282.34 265.526L282.341 265.509C284.067 265.586 285.879 266.582 287.445 268.311C288.381 269.346 289.167 270.572 289.78 271.924C292.65 271.134 295.386 270.07 299.078 268.411C301.643 267.374 304.174 267.476 306.041 268.687C307.787 269.82 308.798 271.84 308.889 274.374C309.055 279.032 305.833 284.233 301.649 286.692C300.289 290.28 297.151 293.548 293.628 295.047C291.83 298.423 288.308 301.26 284.625 302.296C282.41 305.417 278.547 307.786 274.752 308.349C272.111 311.203 267.883 313.079 263.984 313.118C260.995 315.654 256.527 316.994 252.641 316.54C249.391 318.578 244.915 319.287 241.204 318.355C239.33 319.221 237.152 319.659 234.984 319.659Z" fill="white" fill-opacity="0.3"/>
<path d="M215.762 197.912H212.804V196.993H219.727V197.912H216.769V205.805H215.762V197.912Z" fill="white"/>
<path d="M226.628 196.993H227.623V200.908H232.708V196.993H233.703V205.805H232.708V201.84H227.623V205.805H226.628V196.993Z" fill="white"/>
<path d="M241.234 196.993H247.603V197.9H242.228V200.908H247.037V201.815H242.228V204.899H247.667V205.805H241.234V196.993Z" fill="white"/>
<path d="M195.97 256.228V256.203C195.97 253.711 197.832 251.646 200.426 251.646C202.024 251.646 202.981 252.213 203.863 253.044L203.183 253.773C202.44 253.069 201.609 252.565 200.413 252.565C198.462 252.565 197.002 254.151 197.002 256.178V256.203C197.002 258.243 198.475 259.841 200.413 259.841C201.622 259.841 202.415 259.376 203.259 258.57L203.913 259.212C202.994 260.143 201.987 260.76 200.388 260.76C197.845 260.76 195.97 258.758 195.97 256.228Z" fill="white"/>
<path d="M218.002 256.228V256.203C218.002 254.202 216.542 252.565 214.528 252.565C212.514 252.565 211.079 254.176 211.079 256.178V256.203C211.079 258.205 212.539 259.841 214.553 259.841C216.567 259.841 218.002 258.23 218.002 256.228ZM210.046 256.228V256.203C210.046 253.773 211.872 251.646 214.553 251.646C217.234 251.646 219.034 253.749 219.034 256.178C219.047 256.19 219.047 256.19 219.034 256.203C219.034 258.632 217.209 260.76 214.528 260.76C211.847 260.76 210.046 258.658 210.046 256.228Z" fill="white"/>
<path d="M226.175 251.797H227.107L232.659 258.859V251.797H233.628V260.608H232.835L227.145 253.383V260.608H226.175V251.797Z" fill="white"/>
<path d="M244.217 259.69C246.445 259.69 247.868 258.179 247.868 256.228V256.202C247.868 254.251 246.445 252.716 244.217 252.716H242.153V259.69H244.217ZM241.158 251.797H244.217C246.987 251.797 248.9 253.698 248.9 256.178V256.202C248.9 258.683 246.987 260.608 244.217 260.608H241.158V251.797Z" fill="white"/>
<path d="M263.606 256.228V256.203C263.606 254.202 262.146 252.565 260.132 252.565C258.118 252.565 256.683 254.176 256.683 256.178V256.203C256.683 258.205 258.143 259.841 260.157 259.841C262.171 259.841 263.606 258.23 263.606 256.228ZM255.65 256.228V256.203C255.65 253.773 257.476 251.646 260.157 251.646C262.838 251.646 264.638 253.749 264.638 256.178C264.651 256.19 264.651 256.19 264.638 256.203C264.638 258.632 262.813 260.76 260.132 260.76C257.451 260.76 255.65 258.658 255.65 256.228Z" fill="white"/>
<path d="M126 227.913V227.838C126 220.231 131.854 214.264 139.761 214.264C145.094 214.264 148.525 216.501 150.837 219.709L145.392 223.923C143.901 222.058 142.185 220.865 139.686 220.865C136.032 220.865 133.458 223.96 133.458 227.764V227.838C133.458 231.754 136.032 234.812 139.686 234.812C142.409 234.812 144.012 233.544 145.579 231.642L151.023 235.521C148.562 238.915 145.243 241.414 139.462 241.414C132.004 241.414 126 235.708 126 227.913Z" fill="white"/>
<path d="M157.844 214.786H165.079V224.557H174.365V214.786H181.6V240.891H174.365V230.971H165.079V240.891H157.844V214.786Z" fill="white"/>
<path d="M205.313 230.598L202.405 223.177L199.459 230.598H205.313ZM198.974 214.6H205.948L217.061 240.891H209.304L207.402 236.23H197.333L195.469 240.891H187.861L198.974 214.6Z" fill="white"/>
<path d="M235.331 227.317C237.792 227.317 239.209 226.123 239.209 224.221V224.147C239.209 222.095 237.717 221.051 235.293 221.051H230.557V227.317H235.331ZM223.322 214.786H235.666C239.657 214.786 242.416 215.83 244.169 217.62C245.698 219.112 246.481 221.126 246.481 223.699V223.774C246.481 227.764 244.356 230.412 241.111 231.792L247.339 240.891H238.985L233.727 232.985H230.557V240.891H223.322V214.786Z" fill="white"/>
<path d="M253.861 214.786H261.096V234.551H273.739V240.891H253.861V214.786Z" fill="white"/>
<path d="M280.56 214.786H301.557V220.939H287.72V224.893H300.251V230.598H287.72V234.738H301.743V240.891H280.56V214.786Z" fill="white"/>
<path d="M307.184 237.013L311.212 232.202C313.785 234.254 316.657 235.335 319.677 235.335C321.616 235.335 322.661 234.664 322.661 233.545V233.47C322.661 232.389 321.803 231.792 318.26 230.972C312.703 229.704 308.415 228.137 308.415 222.767V222.693C308.415 217.844 312.256 214.339 318.521 214.339C322.959 214.339 326.427 215.532 329.261 217.807L325.644 222.916C323.257 221.238 320.647 220.343 318.335 220.343C316.582 220.343 315.724 221.089 315.724 222.021V222.096C315.724 223.289 316.619 223.811 320.237 224.632C326.241 225.937 329.97 227.877 329.97 232.762V232.836C329.97 238.169 325.756 241.339 319.416 241.339C314.792 241.339 310.391 239.885 307.184 237.013Z" fill="white"/>
</svg>
