<svg width="455" height="455" viewBox="0 0 455 455" fill="none" xmlns="http://www.w3.org/2000/svg">
<path d="M156.442 246.027L163.588 233.649C165.395 230.521 165.395 226.633 163.588 223.504L155.804 210.02C154.543 207.836 154.543 205.145 155.804 202.962L168.25 181.405H187.484L191.012 183.442L181.661 199.639H181.677C182.67 199.639 192.931 182.928 192.931 182.928L187.86 180H167.438L152.955 205.086L140.895 184.198L135.824 187.125L125.613 204.811L146.456 240.911C148.283 244.077 151.661 246.027 155.316 246.027H156.442Z" fill="white"/>
<path d="M219.315 221.898L209.104 204.213H167.419C163.764 204.213 160.386 206.163 158.558 209.328L157.995 210.304L165.142 222.681C166.031 224.221 167.315 225.506 168.855 226.395C170.395 227.284 172.149 227.754 173.928 227.754H190.037C192.559 227.754 194.889 229.099 196.15 231.283L208.081 251.947L198.464 268.604L194.935 270.642L185.8 254.82L185.792 254.834C185.295 255.695 194.421 272.56 194.421 272.56L199.492 269.633L209.703 251.947L195.735 227.754H219.315V221.898Z" fill="white"/>
<path d="M188.207 229.481H173.914C170.301 229.481 166.935 231.425 165.129 234.554L157.556 247.67C156.295 249.853 153.965 251.199 151.443 251.199H127.022L117.405 234.542V230.467H135.191L135.183 230.453C134.686 229.592 116 229.062 116 229.062V234.918L126.211 252.603H154.707L142.435 273.861L147.506 276.788L167.927 276.788L188.77 240.687C190.597 237.522 190.597 233.622 188.77 230.457L188.207 229.481Z" fill="white"/>
<path d="M238.679 234.618V241.336H227.327V272.56H225.092L219.348 269.243V241.336H207.944V234.618H238.679Z" fill="white"/>
<path d="M252.818 244.482V251.401C252.354 251.349 251.943 251.315 251.582 251.298C251.222 251.28 250.93 251.272 250.707 251.272C247.755 251.272 245.773 252.233 244.761 254.155C244.194 255.236 243.912 256.901 243.912 259.148V272.559H236.524V244.502H243.525V249.393C244.658 247.523 245.644 246.244 246.485 245.557C247.858 244.408 250.635 243.705 252.818 244.482Z" fill="white"/>
<path d="M262.799 244.502V261.414C262.799 263.01 262.986 264.211 263.362 265.018C264.028 266.442 265.334 267.154 267.281 267.154C269.773 267.154 271.482 266.142 272.404 264.117C272.881 263.019 273.121 261.568 273.121 259.766V244.502H280.56V272.559H273.429V268.596C273.361 268.682 273.19 268.939 272.916 269.368C272.643 269.797 272.317 270.175 271.941 270.5C270.795 271.53 269.686 272.234 268.617 272.611C267.547 272.988 266.294 273.177 264.856 273.177C260.715 273.177 257.926 271.684 256.489 268.699C255.684 267.051 255.282 264.623 255.282 261.414V244.502H262.799Z" fill="white"/>
<path d="M297.516 234.271C297.893 234.297 298.409 234.335 299.061 234.387V240.359C298.649 240.307 297.958 240.269 296.989 240.243C296.019 240.217 295.35 240.432 294.981 240.886C294.612 241.341 294.427 241.843 294.427 242.392V244.483H299.241V249.934H294.427V272.56H287.143V249.934H283.024V244.483H287.04V242.958C287.04 239.955 287.546 237.887 288.558 236.755C289.622 235.073 292.188 234.232 296.255 234.232C296.719 234.232 297.139 234.245 297.516 234.271Z" fill="white"/>
<path d="M330.425 265.073C331.574 263.548 332.15 261.38 332.15 258.57C332.15 255.76 331.574 253.596 330.425 252.08C329.275 250.564 327.628 249.805 325.483 249.805C323.337 249.805 321.686 250.564 320.528 252.08C319.369 253.596 318.79 255.76 318.79 258.57C318.79 261.38 319.369 263.548 320.528 265.073C321.686 266.598 323.337 267.36 325.483 267.36C327.628 267.36 329.275 266.598 330.425 265.073ZM336.294 269.128C333.926 272.051 330.33 273.512 325.509 273.512C320.686 273.512 317.091 272.051 314.723 269.128C312.355 266.205 311.171 262.685 311.171 258.57C311.171 254.524 312.355 251.018 314.723 248.051C317.091 245.085 320.686 243.602 325.509 243.602C330.33 243.602 333.926 245.085 336.294 248.051C338.662 251.018 339.846 254.524 339.846 258.57C339.846 262.685 338.662 266.205 336.294 269.128Z" fill="white"/>
<path d="M308.838 272.561V237.703L303.607 234.683H301.618V272.561H308.838Z" fill="white"/>
</svg>
