<svg width="455" height="455" viewBox="0 0 455 455" fill="none" xmlns="http://www.w3.org/2000/svg">
<path d="M188.655 260.122C188.39 261.057 187.934 261.909 187.285 262.679H209.082L211.82 254.034C209.71 255.049 207.559 255.749 205.368 256.135C203.175 256.52 200.74 256.713 198.061 256.713V224.749C198.061 223.288 198.488 221.625 199.34 219.757L199.827 218.844H187.285C188.462 220.387 189.051 222.355 189.051 224.749V256.469C189.051 257.972 188.919 259.189 188.655 260.122Z" fill="white"/>
<path d="M264.194 281.769L266.569 282.438L269.979 274.95H245.503C246.639 276.615 247.208 278.582 247.208 280.855V312.636C247.208 313.895 247.076 315.011 246.812 315.985C246.549 316.958 246.132 317.892 245.564 318.785H257.923L257.376 317.811C256.603 316.228 256.219 314.523 256.219 312.696V298.877C257.152 298.877 258.136 298.968 259.171 299.151C260.206 299.333 261.232 299.587 262.246 299.912L264.072 300.459L268.091 293.519H256.219V280.794C258.735 280.794 261.394 281.12 264.194 281.769Z" fill="white"/>
<path d="M207.291 200.515C197.548 200.515 189.65 192.617 189.65 182.874C189.65 173.131 197.548 165.233 207.291 165.233C217.035 165.233 224.932 173.131 224.932 182.874C224.932 192.617 217.035 200.515 207.291 200.515ZM228.374 139.65C236.043 139.65 242.26 145.868 242.26 153.536C242.26 161.206 236.043 167.422 228.374 167.422C220.705 167.422 214.488 161.206 214.488 153.536C214.488 145.868 220.705 139.65 228.374 139.65ZM249.456 165.233C259.2 165.233 267.098 173.131 267.098 182.874C267.098 192.617 259.2 200.515 249.456 200.515C239.714 200.515 231.816 192.617 231.816 182.874C231.816 173.131 239.714 165.233 249.456 165.233ZM233.962 228.669C234.723 228.385 235.358 228.079 235.803 227.825C236.026 227.713 236.2 227.577 236.319 227.505C236.438 227.426 236.502 227.384 236.502 227.384C236.502 227.384 236.438 227.342 236.319 227.263C236.2 227.191 236.026 227.055 235.803 226.943C235.358 226.689 234.723 226.384 233.962 226.099C233.859 226.061 233.738 226.032 233.631 225.995V220.829C233.738 220.793 233.859 220.764 233.962 220.726C234.723 220.441 235.358 220.136 235.803 219.882C236.026 219.771 236.2 219.633 236.319 219.561C236.438 219.483 236.501 219.441 236.501 219.441C236.501 219.441 236.438 219.4 236.319 219.321C236.2 219.249 236.026 219.111 235.803 219.001C235.358 218.747 234.723 218.441 233.962 218.156C233.859 218.118 233.738 218.088 233.631 218.053V203.783C237.964 205.326 244.224 207.165 249.458 207.165C262.852 207.165 273.748 196.268 273.748 182.874C273.748 169.479 262.852 158.584 249.458 158.584C249.052 158.584 248.65 158.595 248.248 158.613C248.665 156.986 248.91 155.292 248.91 153.536C248.91 142.212 239.698 133 228.374 133C217.05 133 207.838 142.212 207.838 153.536C207.838 155.292 208.083 156.986 208.499 158.613C208.099 158.595 207.697 158.584 207.291 158.584C193.897 158.584 183 169.479 183 182.874C183 196.268 193.897 207.165 207.291 207.165C212.525 207.165 218.785 205.326 223.117 203.783V218.059C223.011 218.095 222.889 218.124 222.786 218.163C222.024 218.446 221.389 218.75 220.945 219.003C220.722 219.114 220.548 219.25 220.429 219.322C220.31 219.4 220.246 219.441 220.246 219.441C220.246 219.441 220.31 219.483 220.429 219.56C220.548 219.632 220.722 219.769 220.945 219.88C221.389 220.132 222.024 220.436 222.786 220.72C222.889 220.757 223.011 220.787 223.117 220.823V226.002C223.011 226.039 222.889 226.067 222.787 226.105C222.024 226.39 221.389 226.694 220.945 226.945C220.723 227.056 220.548 227.193 220.429 227.264C220.31 227.343 220.246 227.384 220.246 227.384C220.246 227.384 220.31 227.426 220.429 227.504C220.548 227.575 220.723 227.712 220.945 227.823C221.389 228.075 222.024 228.379 222.787 228.663C222.889 228.701 223.011 228.73 223.117 228.766V233.945C223.011 233.981 222.889 234.011 222.786 234.048C222.024 234.332 221.389 234.636 220.945 234.889C220.722 234.999 220.548 235.136 220.429 235.208C220.31 235.285 220.246 235.327 220.246 235.327C220.246 235.327 220.31 235.368 220.429 235.447C220.548 235.518 220.722 235.655 220.945 235.765C221.389 236.018 222.024 236.322 222.786 236.605C222.889 236.644 223.011 236.673 223.117 236.709V297.868H220.703C218.732 297.868 217.134 296.271 217.134 294.3V288.824H214.095V297.868H211.668C210.355 297.868 209.291 296.804 209.291 295.491V293.7C207.183 293.7 205.475 291.991 205.475 289.884C205.475 289.298 205 288.824 204.415 288.824H189.646V302.179H196.147V305.429H189.646V318.786H204.415C205 318.786 205.475 318.31 205.475 317.725C205.475 315.618 207.183 313.909 209.291 313.909V312.118C209.291 310.804 210.355 309.74 211.668 309.74H214.095V318.786H217.134V313.309C217.134 311.338 218.732 309.74 220.703 309.74H223.117V322.422L223.499 322.586C226.612 323.925 230.137 323.925 233.248 322.586L233.631 322.422V236.716C233.738 236.68 233.859 236.65 233.962 236.612C234.723 236.327 235.358 236.021 235.803 235.769C236.026 235.657 236.2 235.519 236.319 235.447C236.438 235.37 236.501 235.327 236.501 235.327C236.501 235.327 236.438 235.285 236.319 235.207C236.2 235.135 236.026 234.997 235.803 234.886C235.358 234.632 234.723 234.327 233.962 234.043C233.859 234.004 233.738 233.975 233.631 233.939V228.773C233.738 228.736 233.859 228.707 233.962 228.669Z" fill="white"/>
<path d="M258.761 248.966C257.411 250.075 255.928 250.629 254.313 250.629C253.059 250.629 251.854 250.226 250.697 249.418C249.54 248.61 248.961 247.519 248.961 246.145C248.961 245.23 249.159 244.56 249.557 244.139C249.955 243.717 250.227 243.433 250.372 243.288C250.516 243.144 250.751 242.957 251.077 242.728C251.402 242.5 251.745 242.288 252.108 242.095C254.252 243.349 256.217 244.747 258.002 246.29L259.774 247.917L258.761 248.966ZM252.161 231.482C252.583 231.036 253.12 230.814 253.771 230.814C254.494 230.814 255.072 231.019 255.506 231.428C255.94 231.838 256.157 232.392 256.157 233.091C256.157 233.284 256.115 233.687 256.031 234.303C255.946 234.918 255.627 235.465 255.072 235.947C254.517 236.431 254.187 236.702 254.078 236.762C253.97 236.822 253.854 236.888 253.735 236.96C253.445 236.792 253.12 236.545 252.758 236.219C252.397 235.894 252.101 235.423 251.873 234.809C251.643 234.194 251.529 233.67 251.529 233.236C251.529 232.513 251.74 231.929 252.161 231.482ZM268.126 234.176H268.941C269.318 234.176 269.614 234.195 269.825 234.235C270.038 234.275 270.592 234.399 271.489 234.61V233.2C271.489 233.056 271.496 232.851 271.508 232.585C271.52 232.32 271.538 232.066 271.562 231.825L269.156 232.006H265.314C263.902 232.006 262.621 231.958 261.473 231.861V233.29L261.401 234.646C262.57 234.332 263.751 234.176 264.944 234.176C264.944 234.781 264.932 235.266 264.908 235.628C264.883 235.991 264.811 236.844 264.692 238.187C264.571 239.531 263.932 241.364 262.775 243.686L261.211 242.312C260.459 241.685 259.646 241.059 258.774 240.432C257.902 239.805 257.077 239.239 256.302 238.733C256.638 238.491 256.917 238.28 257.134 238.1C257.351 237.919 257.651 237.624 258.037 237.213C258.423 236.804 258.809 236.189 259.195 235.369C259.58 234.55 259.774 233.705 259.774 232.838C259.774 231.561 259.376 230.458 258.58 229.529C257.784 228.601 256.94 228.042 256.049 227.848C255.157 227.655 254.615 227.546 254.421 227.522C254.228 227.499 253.975 227.486 253.662 227.486C252.939 227.486 252.022 227.63 250.914 227.92C249.805 228.209 248.804 228.927 247.913 230.072C247.02 231.217 246.575 232.513 246.575 233.959C246.575 235.454 246.93 236.683 247.641 237.647C248.352 238.612 248.949 239.287 249.431 239.672L248.635 240.07C247.839 240.504 247.171 240.945 246.629 241.39C246.086 241.836 245.52 242.463 244.929 243.27C244.338 244.078 244.043 245.156 244.043 246.506C244.043 247.881 244.441 249.165 245.238 250.358C246.036 251.551 246.972 252.383 248.047 252.853C249.122 253.324 250.046 253.643 250.819 253.811C251.592 253.98 252.401 254.065 253.247 254.065C257.014 254.065 259.986 252.763 262.16 250.159L262.52 250.67L263.097 251.436L263.529 252.02L264.105 252.677C264.729 253.432 265.288 253.858 265.78 253.954C266.272 254.052 266.602 254.088 266.771 254.065C267.203 254.065 267.66 253.888 268.14 253.535C268.621 253.182 269.544 252.384 270.913 251.142L271.562 250.485L271.059 250.521C270.387 250.521 269.794 250.4 269.279 250.159C268.764 249.918 268.194 249.497 267.571 248.894L267.139 248.351C266.468 247.484 266.043 246.947 265.863 246.742C265.684 246.537 265.449 246.302 265.162 246.036C266.126 244.181 266.861 242.253 267.367 240.251C267.874 238.25 268.126 236.225 268.126 234.176Z" fill="white"/>
<path d="M270.317 260.061H244.826V262.499H270.317V260.061Z" fill="white"/>
</svg>
