<svg width="455" height="455" viewBox="0 0 455 455" fill="none" xmlns="http://www.w3.org/2000/svg">
<path d="M259.259 158.074C259.259 156.109 258.479 154.225 257.09 152.835L255.619 151.364L251.778 148.195L251.835 171.298L249.113 170.777C244.763 169.943 241.617 166.137 241.617 161.707V123L240.162 124.421L227.857 137.929C226.468 139.318 225.427 140.294 225.427 142.259V151.704C222.747 145.216 216.36 140.648 208.903 140.648C199.032 140.648 191.03 148.65 191.03 158.521C191.03 168.392 199.032 176.394 208.903 176.394L257.79 221.683H259.245V198.97L259.259 198.983V158.074Z" fill="white"/>
<path d="M219.592 171.039C222.251 168.893 224.237 165.901 225.179 162.584C225.651 160.928 225.885 159.192 225.806 157.459C225.777 157.027 225.807 156.588 225.733 156.161L225.557 154.871C225.361 154.027 225.205 153.166 224.884 152.355C224.631 151.52 224.23 150.743 223.86 149.953L223.198 148.823C222.986 148.44 222.697 148.108 222.45 147.747C221.395 146.358 220.172 145.067 218.728 144.059C217.296 143.041 215.722 142.217 214.049 141.646C212.364 141.111 210.607 140.822 208.829 140.762C207.052 140.768 205.278 141.002 203.561 141.489C201.855 142.013 200.232 142.797 198.741 143.789C197.239 144.772 195.945 146.051 194.816 147.446C194.551 147.809 194.243 148.143 194.012 148.531L193.293 149.675C192.885 150.478 192.446 151.272 192.155 152.13C191.798 152.963 191.605 153.852 191.374 154.727L191.149 156.068C191.059 156.514 191.073 156.972 191.03 157.424C190.892 159.237 191.08 161.071 191.525 162.84C192.413 166.381 194.426 169.647 197.221 172.051C194.356 169.732 192.218 166.505 191.207 162.926C190.7 161.138 190.451 159.268 190.536 157.403C190.566 156.938 190.539 156.467 190.617 156.006L190.809 154.616C191.018 153.706 191.192 152.779 191.536 151.905C191.812 151.006 192.241 150.168 192.643 149.319L193.357 148.102C193.588 147.691 193.896 147.332 194.163 146.944C195.299 145.449 196.62 144.066 198.173 142.979C199.715 141.885 201.412 141.001 203.214 140.389C205.028 139.814 206.92 139.504 208.829 139.444C210.738 139.449 212.648 139.704 214.494 140.232C216.329 140.796 218.074 141.641 219.674 142.71C221.287 143.771 222.677 145.142 223.888 146.643C224.173 147.033 224.5 147.395 224.75 147.81L225.521 149.041C225.961 149.903 226.429 150.759 226.742 151.681C227.123 152.577 227.334 153.531 227.577 154.473L227.819 155.913C227.913 156.393 227.901 156.883 227.946 157.368C228.089 159.313 227.886 161.282 227.407 163.182C226.449 166.985 224.284 170.486 221.282 173.062L219.592 171.039Z" fill="black"/>
<path d="M260.87 194.351C260.126 194.397 258.814 193.738 257.807 193.139V192.144C257.932 192.434 259.427 193.35 259.427 193.35L260.561 193.495L260.541 193.514C260.541 193.514 261.154 194.002 261.536 194.233C261.365 194.292 261.154 194.338 260.87 194.351ZM250.38 171.301L247.658 170.78C244.258 170.128 241.596 167.65 240.601 164.487L241.016 164.177L247.276 159.551L247.507 159.38C248.245 159.281 249.45 159.07 250.38 158.701V171.301ZM263.612 192.045C263.823 191.419 264.073 190.701 264.099 190.595C264.139 190.43 263.374 190.391 263.025 190.654C262.676 190.925 262.202 191.985 262.202 191.985L261.002 193.092L261.78 191.893C261.78 191.893 262.419 190.279 262.01 190.068C261.595 189.864 261.002 190.602 261.002 190.602C261.002 190.602 260.528 190.49 260.225 190.984C259.922 191.478 259.111 192.275 258.057 192.071C257.905 192.038 257.826 192.051 257.807 192.084V156.586C257.807 154.622 257.022 152.738 255.638 151.347L250.38 146.095V156.322C250.255 156.395 240.627 163.643 240.627 163.643L240.41 163.802C240.252 163.129 240.159 162.424 240.159 161.706V124.422L226.143 138.445C224.753 139.829 223.969 141.713 223.969 143.677V148.263C225.036 150.042 226.664 153.502 226.664 158.174C226.664 158.57 226.657 158.938 226.637 159.281C226.829 159.466 226.961 159.631 226.993 159.742C227.132 160.177 226.255 165.001 226.255 165.001C226.255 165.001 225.899 164.843 223.969 164.619C222.795 164.513 221.827 164.546 221.827 164.546C221.827 164.546 219.396 163.413 218.288 158.781C217.873 153.535 216.72 149.39 209.392 149.634C204.694 146.589 199.989 153.252 199.383 155.064C200.411 160.369 197.083 164.045 201.333 167.94C202.394 170.905 202.427 174.24 202.427 174.24C202.427 174.24 199.574 178.516 199.205 181.916C199.132 182.562 199.284 183.274 199.594 183.999L181.4 191.313C180.642 191.702 179.877 192.144 179.12 192.526C178.718 192.73 178.316 192.941 177.92 193.152C178.368 193.02 178.81 192.882 179.251 192.743C179.621 192.981 180.806 193.652 182.013 193.237C183.047 192.882 184.339 191.432 184.984 190.641L185.255 190.529L192.457 187.603L199.666 184.684L199.884 184.598C201.432 187.498 205.182 190.536 207.191 191.287C208.411 192.717 210.045 195.465 212.977 195.715C214.249 198.061 214.717 201.527 214.717 201.527C214.717 201.527 212.167 204.934 211.672 207.847C208.589 211.827 207.811 221.685 207.811 221.685H257.793V198.971L257.807 198.984V196.17C258.696 196.097 260.067 195.669 260.455 195.669C260.923 195.669 263.21 194.865 263.335 194.457C263.46 194.041 264.053 192.335 264.099 192.17C264.119 192.071 263.882 192.025 263.612 192.045Z" fill="black"/>
<path d="M225.535 207.846C225.095 205.429 222.57 205.045 222.57 205.045C222.57 205.045 225.7 204.166 227.567 205.979C227.028 206.071 225.628 206.215 225.535 207.846ZM206.707 156.477C206.707 156.477 207.626 154.611 209.114 154.611C210.018 154.611 210.538 154.894 210.836 155.195C211.097 155.458 211.092 155.893 210.811 156.133C210.705 156.222 210.592 156.346 210.485 156.516C209.892 157.466 207.969 157.644 206.707 156.477ZM258.892 192.305C257.989 191.112 256.915 190.823 256.915 190.823C256.915 190.823 256.341 188.299 255.959 184.727C255.57 181.156 256.012 175.449 254.364 172.154C254.241 168.531 252.934 168.47 251.781 168.418C250.687 168.367 243.946 166.595 236.268 167.684L234.761 168.797L231.635 171.11C230.528 171.792 229.434 172.494 228.31 173.153C229.27 172.271 230.263 171.433 231.24 170.575L234.37 168.267L240.627 163.646L246.883 159.024L250.01 156.714C250.736 156.268 251.457 155.817 252.182 155.371C252.033 155.231 251.032 154.367 249.834 155.125C249.121 155.576 248.268 156.82 247.642 157.853L246.43 158.747L240.174 163.369L234.478 167.576C233.567 167.133 231.631 166.338 229.324 166.276C226.214 166.19 223.024 168.286 222.827 168.411C222.932 168.319 223.934 167.39 222.57 166.691C221.601 166.283 220.249 166.087 220.249 166.087C219.24 167.67 218.451 170.889 218.945 171.133C219.413 171.37 220.474 170.724 220.586 170.652C220.468 170.783 218.563 172.958 216.889 174.25C215.156 175.587 216.286 169.145 215.712 167.913C215.159 166.72 213.337 171.343 213.186 171.692C213.239 171.403 213.874 168.481 213.077 167.46C212.372 166.538 209.495 165.092 209.495 165.092C210.632 165.245 211.453 165.276 212.035 165.258C212.686 165.232 213.776 164.839 213.735 163.691C213.694 162.538 212.583 162.452 212.583 162.452C213.259 162.287 213.499 162.003 213.499 162.003C213.499 162.003 212.201 162.384 210.415 161.426C210.415 161.426 211.866 160.107 212.436 160.236C213.007 160.365 213.252 160.24 213.252 160.24C213.252 160.24 213.12 159.66 212.705 159.437C212.29 159.214 211.745 159.605 210.989 158.861C211.733 159.065 211.881 158.618 212.59 158.629C213.299 158.639 213.607 157.932 213.229 157.374C212.852 156.817 211.861 155.639 211.861 155.324C211.861 154.962 212.17 154.545 212.483 154.474C211.387 151.858 209.221 151.733 207.558 152.003C205.861 152.278 204.026 155.963 204.118 157.986C205.311 160.291 204.594 161.924 205.009 162.734C205.425 163.545 207.387 164.557 207.387 164.557C207.387 164.557 205.437 164.135 204.856 164.135C204.283 164.135 204.448 166.362 206.346 170.065C208.164 173.623 210.669 176.279 210.86 176.484C210.662 176.338 207.381 174.019 206.346 174.019C205.272 174.019 200.244 180.114 200.415 182.506C200.427 182.688 200.468 182.888 200.521 183.094L199.419 183.542L192.211 186.466L185.004 189.39L183.608 189.956C182.401 189.951 180.895 190.029 180.137 190.402C178.865 191.029 179.08 192.333 179.121 192.533C179.88 192.148 180.641 191.769 181.4 191.382L185.004 189.92L192.211 186.997L199.419 184.072L203.022 182.608C204.264 182.222 205.497 181.813 206.75 181.454C205.601 182.069 204.431 182.635 203.271 183.223L200.925 184.174C202.047 186.591 204.694 189.568 205.357 189.505C206.174 189.425 204.856 185.959 204.856 185.959C204.856 185.959 208.81 192.878 210.873 193.788C212.935 194.697 215.65 193.293 215.65 193.293C214.082 195.185 213.838 197.247 215.071 198.809C216.309 200.378 218.286 201.201 217.957 202.275C217.627 203.343 217.021 205.431 217.021 205.431C217.021 205.431 216.309 202.848 215.538 202.848C214.774 202.848 212.468 206.308 212.244 209.056C212.026 211.797 216.751 211.692 217.957 212.351C219.163 213.01 222.899 216.963 226.378 216.963C229.851 216.963 232.783 213.774 233.554 212.68C234.319 211.58 238.826 210.591 239.485 209.161C240.144 207.738 240.032 202.025 237.838 202.025C235.703 202.025 233.475 207.698 233.337 208.048C233.37 207.85 233.64 206.295 233.33 203.125C233.001 199.718 230.589 195.982 231.578 195.982C232.566 195.982 234.543 198.618 236.519 198.618C237.293 198.618 237.656 197.435 237.831 195.867L236.167 194.73L232.954 192.539C231.946 191.717 230.923 190.917 229.93 190.071C231.079 190.688 232.197 191.349 233.329 191.99L236.539 194.186L242.961 198.573L249.384 202.96L252.596 205.153C253.255 205.692 253.918 206.225 254.578 206.762C254.661 206.576 255.148 205.346 254.038 204.464C253.377 203.939 251.921 203.543 250.74 203.291L249.497 202.442L243.074 198.055L237.937 194.545C238.052 192.329 237.948 189.821 238.095 188.72C238.385 186.539 236.777 186.743 236.573 185.221C236.368 183.699 235.544 183.864 234.965 182.955C234.391 182.052 235.169 181.432 233.851 180.029C232.533 178.632 228.283 180.391 228.283 180.391C228.283 180.391 229.271 178.302 230.806 177.973C232.342 177.643 236.078 177.755 240.361 177.426C244.645 177.096 247.281 176.437 247.281 176.437C247.281 176.437 253.323 190.934 255.735 192.8C258.154 194.664 261.778 194.559 261.778 194.117C261.778 193.676 259.801 193.498 258.892 192.305Z" fill="white"/>
<path d="M287.358 273.5V273.011H287.357C287.318 273.011 283.201 272.987 283.201 271.056V238.299H291.758C295.864 238.3 295.913 244.591 295.913 244.655H296.401V237.811H267.312V244.655H267.801C267.801 244.591 267.855 238.3 271.955 238.299H280.512V271.065H280.468C280.468 272.977 276.401 273.002 276.356 273.002V273.49H276.357V273.5H287.358Z" fill="white"/>
<path d="M185.783 273.011V273.5H195.277V273.011H194.583C193.864 273.011 191.874 272.84 191.346 272.048C191.185 271.805 191.176 271.512 191.325 271.153L194.986 262.284L204.077 273.647L212.643 262.941C214.041 266.318 215.263 269.262 216.046 271.149C216.06 271.193 216.08 271.237 216.094 271.276C216.192 271.579 216.168 271.833 216.026 272.048C215.498 272.835 213.508 273.011 212.79 273.011V273.256V273.5H232.678V273.011C232.639 273.011 228.522 272.987 228.522 271.056V240.255C228.522 238.334 232.594 238.3 232.674 238.299H232.678V237.811H221.678V238.299H221.682C221.766 238.3 225.833 238.334 225.833 240.255V271.056C225.833 272.341 224.005 272.782 222.773 272.933C221.524 272.792 219.576 272.373 218.887 271.172L217.198 267.057C217.085 266.781 216.973 266.525 216.861 266.278L205.172 237.962L205.109 237.811H202.224L202.366 238.148C202.601 238.71 202.953 239.556 203.398 240.627L190.855 271.01C189.963 272.986 185.827 273.011 185.783 273.011ZM203.661 241.27C203.661 241.271 203.661 241.271 203.662 241.272C205.749 246.298 209.455 255.25 212.428 262.427L206.102 270.333L206.101 270.332L205.823 270.679C205.652 270.894 205.397 271.022 205.119 271.022C204.845 271.022 204.586 270.899 204.415 270.684L195.868 260.153L195.867 260.151L203.661 241.27Z" fill="white"/>
<path d="M238.325 240.387L238.33 240.382C238.442 240.558 238.565 240.744 238.692 240.935C238.692 240.935 238.692 240.935 238.692 240.936V271.056C238.692 272.987 234.58 273.011 234.536 273.011V273.5H243.336V273.256V273.011C243.297 273.011 239.186 272.987 239.181 271.059V241.683C244.569 249.917 256.307 267.853 260.003 273.5H262.887L262.638 273.124L262.639 273.123L261.201 270.912V240.248C261.212 238.325 265.317 238.299 265.356 238.299V238.055V237.811H256.556V238.299C256.6 238.299 260.711 238.324 260.711 240.255H260.712V270.16L258.668 267.017C258.489 266.742 258.316 266.486 258.145 266.238L258.144 266.239L239.654 237.923L239.586 237.811H232.683V238.299C232.727 238.299 236.971 238.324 238.325 240.387Z" fill="white"/>
<path d="M156.165 309.665C156.16 309.738 155.642 317.013 151.521 317.013H134.164V299.902H147.121C151.222 299.903 151.276 306.194 151.276 306.257H151.765V293.057H151.276C151.276 293.12 151.222 299.413 147.12 299.413H134.164V282.301H150.544C154.664 282.303 155.182 288.613 155.187 288.677L155.432 288.657L155.676 288.637L155.168 281.812H127.32V282.301H127.324C127.408 282.302 131.475 282.336 131.475 284.257V315.058C131.475 316.989 127.364 317.013 127.32 317.013V317.502H156.15L156.654 309.694L156.41 309.68L156.165 309.665Z" fill="white"/>
<path d="M275.213 281.812H246.123V288.657H246.612C246.612 288.594 246.665 282.303 250.767 282.301H259.323V315.058C259.323 316.989 255.212 317.013 255.168 317.013V317.502H266.168V317.013C266.129 317.013 262.012 316.989 262.012 315.058V282.301H270.569C274.67 282.303 274.724 288.594 274.724 288.657H275.213V281.812Z" fill="white"/>
<path d="M126.36 306.79L126.353 306.757C126.287 306.482 126.205 306.217 126.114 305.958C125.198 303.325 123.037 301.42 120.424 299.816C118.765 298.798 116.927 297.899 115.109 297.012C110.247 294.64 105.653 292.399 105.653 288.237C105.653 287.902 105.709 287.52 105.819 287.114C105.826 287.089 105.83 287.064 105.838 287.039C105.839 287.035 105.84 287.031 105.841 287.028C105.864 286.95 105.893 286.87 105.92 286.79C105.957 286.679 105.999 286.565 106.047 286.449C106.084 286.359 106.121 286.268 106.162 286.177C106.169 286.164 106.173 286.152 106.18 286.139C106.261 285.964 106.357 285.789 106.462 285.611C106.627 285.33 106.817 285.049 107.039 284.773C107.063 284.744 107.089 284.714 107.114 284.685C107.185 284.6 107.261 284.515 107.337 284.432C107.41 284.35 107.487 284.27 107.568 284.19C107.612 284.145 107.66 284.101 107.706 284.057C107.783 283.983 107.861 283.909 107.943 283.835C108.032 283.758 108.128 283.683 108.224 283.608C108.271 283.57 108.315 283.53 108.365 283.494C108.375 283.484 108.385 283.479 108.395 283.469C108.43 283.444 108.469 283.418 108.505 283.393C108.616 283.312 108.73 283.235 108.847 283.159C108.939 283.1 109.035 283.042 109.132 282.985C109.231 282.927 109.332 282.87 109.436 282.814C109.485 282.788 109.534 282.761 109.583 282.736C109.798 282.619 110.028 282.516 110.262 282.423C110.287 282.412 110.315 282.402 110.341 282.392C110.524 282.319 110.715 282.252 110.91 282.188C110.943 282.177 110.975 282.165 111.01 282.154C111.264 282.071 111.529 281.998 111.807 281.939L111.807 281.937C111.811 281.936 111.814 281.935 111.818 281.934C111.859 281.922 111.901 281.915 111.944 281.907L112.018 281.893C112.75 281.739 113.537 281.653 114.376 281.638C114.488 281.629 114.595 281.628 114.713 281.629C117.232 281.629 120.185 282.745 121.745 284.294C121.746 284.294 121.746 284.295 121.747 284.295L121.746 284.295C121.763 284.313 121.779 284.33 121.796 284.347C121.909 284.462 122.018 284.579 122.124 284.697C122.178 284.758 122.232 284.82 122.285 284.883C122.514 285.154 122.724 285.431 122.914 285.711C122.959 285.776 123.001 285.841 123.044 285.906C123.101 285.995 123.157 286.085 123.211 286.173C123.278 286.285 123.344 286.397 123.406 286.508C123.432 286.553 123.457 286.599 123.482 286.645C123.566 286.801 123.647 286.956 123.72 287.109C123.721 287.111 123.722 287.113 123.723 287.116C123.778 287.22 123.827 287.327 123.873 287.432C123.883 287.454 123.892 287.476 123.901 287.498C123.982 287.678 124.053 287.854 124.12 288.025C124.142 288.081 124.164 288.136 124.184 288.19C124.253 288.377 124.318 288.56 124.372 288.73C124.421 288.872 124.46 289.009 124.494 289.136C124.494 289.136 124.499 289.141 124.499 289.145C124.538 289.272 124.568 289.39 124.592 289.502C124.621 289.615 124.651 289.723 124.67 289.82C124.675 289.838 124.677 289.853 124.682 289.87C124.76 290.229 124.793 290.461 124.798 290.496L124.807 290.547L125.05 290.521H125.294V290.519H125.296V281.812H125.05H124.807V281.827C124.802 282.448 124.631 284.09 123.854 284.476C123.419 284.692 122.822 284.506 122.069 283.924L122.068 283.926C120.432 282.311 117.343 281.14 114.713 281.14C114.587 281.14 114.461 281.14 114.352 281.15C113.498 281.165 112.68 281.254 111.919 281.414L111.854 281.427C111.797 281.437 111.741 281.448 111.697 281.46C111.683 281.463 111.671 281.468 111.657 281.471C111.642 281.475 111.628 281.48 111.612 281.48C106.772 282.487 103.648 285.762 103.648 289.85C103.648 294.225 108.297 296.611 113.215 299.134C118.803 301.999 124.577 304.961 124.577 311.077C124.577 312.818 122.94 315.816 119.309 317.084C119.29 317.091 119.271 317.098 119.252 317.104L119.205 317.117C117.975 317.494 116.637 317.685 115.229 317.685C113.485 317.685 111.883 317.399 110.467 316.834L110.413 316.817C109.716 316.538 109.058 316.189 108.457 315.779L108.458 315.776C108.282 315.659 108.116 315.536 107.95 315.409C107.935 315.399 107.925 315.39 107.911 315.38C107.749 315.253 107.588 315.121 107.436 314.984C107.275 314.847 107.124 314.7 106.972 314.554C106.82 314.407 106.674 314.255 106.537 314.099C106.405 313.962 106.283 313.816 106.16 313.669C106.151 313.659 106.141 313.644 106.131 313.63C106.004 313.478 105.882 313.322 105.769 313.165C105.754 313.151 105.745 313.136 105.735 313.121C105.618 312.965 105.505 312.803 105.403 312.642C105.398 312.637 105.395 312.635 105.394 312.634C105.384 312.618 105.374 312.601 105.363 312.584C105.263 312.434 105.169 312.284 105.08 312.129C104.98 311.967 104.884 311.801 104.792 311.635C104.771 311.597 104.752 311.559 104.731 311.521C104.652 311.374 104.575 311.227 104.503 311.077C104.396 310.861 104.295 310.643 104.198 310.425C104.189 310.404 104.18 310.381 104.171 310.36C104.091 310.177 104.015 309.994 103.943 309.81C103.922 309.757 103.901 309.704 103.881 309.651C103.817 309.486 103.758 309.321 103.7 309.157C103.685 309.112 103.668 309.069 103.653 309.025C103.581 308.815 103.514 308.606 103.452 308.398C103.393 308.222 103.344 308.046 103.3 307.875C103.293 307.853 103.287 307.832 103.281 307.811C103.262 307.74 103.244 307.67 103.226 307.6C103.205 307.518 103.182 307.436 103.163 307.357C103.113 307.156 103.068 306.959 103.025 306.764C103.005 306.672 102.985 306.581 102.967 306.49C102.948 306.399 102.93 306.308 102.913 306.218C102.891 306.107 102.87 305.996 102.85 305.888C102.844 305.856 102.84 305.826 102.834 305.794C102.795 305.57 102.761 305.353 102.73 305.143C102.718 305.06 102.706 304.975 102.695 304.894C102.506 303.505 102.49 302.476 102.49 302.164L102.014 302.209H102V311.523L102.068 311.596C102.088 311.62 104.288 313.943 108.15 316.162C108.153 316.162 108.156 316.165 108.16 316.167C108.167 316.172 108.174 316.177 108.181 316.182C108.817 316.617 109.513 316.985 110.231 317.27L110.318 317.306H110.329C111.792 317.882 113.441 318.174 115.229 318.174C116.676 318.174 118.053 317.979 119.322 317.593L119.369 317.58C119.369 317.58 119.37 317.58 119.37 317.579L119.371 317.58C123.688 316.26 126.587 312.73 126.587 308.794V308.793C126.587 308.099 126.51 307.425 126.36 306.79Z" fill="white"/>
<path d="M244.744 306.79L244.741 306.778L244.737 306.757C244.477 305.67 244.007 304.706 243.39 303.83C241.274 300.816 237.339 298.887 233.495 297.012C228.63 294.641 224.039 292.397 224.039 288.236C224.039 288.216 224.041 288.195 224.041 288.175C224.042 288.095 224.046 288.014 224.054 287.93C224.056 287.913 224.057 287.896 224.059 287.879C224.062 287.836 224.069 287.793 224.075 287.75C224.082 287.69 224.091 287.63 224.102 287.569C224.114 287.5 224.128 287.429 224.144 287.356C224.16 287.287 224.177 287.217 224.195 287.146C224.208 287.097 224.22 287.048 224.235 286.998C224.273 286.869 224.315 286.739 224.365 286.607C224.386 286.551 224.412 286.494 224.436 286.437C224.46 286.377 224.486 286.317 224.513 286.256C224.545 286.18 224.584 286.104 224.621 286.027C224.664 285.94 224.71 285.853 224.758 285.765C224.78 285.724 224.803 285.682 224.826 285.641C224.998 285.346 225.198 285.051 225.431 284.762C225.438 284.754 225.445 284.745 225.452 284.737C225.541 284.629 225.637 284.522 225.735 284.415C225.799 284.345 225.865 284.275 225.935 284.206C225.997 284.143 226.062 284.082 226.128 284.02C226.19 283.961 226.251 283.903 226.317 283.844C226.438 283.738 226.565 283.636 226.697 283.534C226.715 283.521 226.73 283.507 226.748 283.494C226.756 283.486 226.765 283.48 226.772 283.473C226.775 283.472 226.776 283.47 226.778 283.469C226.787 283.462 226.797 283.456 226.805 283.45C226.944 283.347 227.093 283.248 227.244 283.151C227.325 283.098 227.41 283.047 227.495 282.997C227.609 282.929 227.724 282.864 227.844 282.8C227.885 282.779 227.925 282.756 227.965 282.736C228.18 282.619 228.41 282.516 228.645 282.423C228.665 282.414 228.687 282.407 228.707 282.399C228.902 282.32 229.105 282.248 229.315 282.18C229.341 282.172 229.365 282.163 229.393 282.154C229.647 282.071 229.911 281.998 230.19 281.939V281.938C230.193 281.937 230.197 281.935 230.202 281.934C230.243 281.922 230.285 281.915 230.327 281.907L230.402 281.893C231.134 281.739 231.921 281.653 232.76 281.638C232.872 281.629 232.982 281.628 233.097 281.629C235.615 281.629 238.569 282.745 240.13 284.294V284.294L240.129 284.295C240.178 284.345 240.226 284.398 240.275 284.449C240.345 284.521 240.414 284.594 240.481 284.669C240.516 284.707 240.55 284.745 240.584 284.784C240.638 284.846 240.689 284.908 240.74 284.969C240.766 285.001 240.791 285.032 240.816 285.064C240.964 285.244 241.101 285.428 241.229 285.612C241.249 285.64 241.27 285.669 241.29 285.697C241.351 285.788 241.411 285.88 241.468 285.97C241.477 285.983 241.484 285.995 241.493 286.009C241.558 286.11 241.621 286.213 241.679 286.31C241.703 286.348 241.724 286.387 241.746 286.426C241.786 286.496 241.824 286.566 241.862 286.636C241.99 286.87 242.108 287.103 242.212 287.332C242.412 287.765 242.57 288.18 242.7 288.56C242.702 288.566 242.704 288.572 242.706 288.578C242.74 288.681 242.772 288.779 242.802 288.876C242.814 288.916 242.827 288.956 242.839 288.996C242.877 289.127 242.915 289.256 242.945 289.375C242.96 289.419 242.97 289.463 242.979 289.502C242.985 289.525 242.99 289.545 242.995 289.567C243.016 289.653 243.037 289.737 243.054 289.813C243.056 289.82 243.057 289.827 243.059 289.834C243.143 290.216 243.176 290.459 243.181 290.496L243.192 290.55L243.434 290.521H243.679V281.812H243.434H243.19V281.827C243.19 282.448 243.018 284.09 242.236 284.476C241.806 284.692 241.205 284.506 240.452 283.924L240.451 283.925C238.815 282.31 235.726 281.14 233.097 281.14C232.971 281.14 232.845 281.14 232.736 281.15C231.883 281.165 231.064 281.254 230.302 281.414L230.237 281.427C230.181 281.437 230.125 281.448 230.082 281.46C230.068 281.463 230.057 281.467 230.045 281.47C230.027 281.475 230.012 281.48 229.994 281.48C225.154 282.487 222.03 285.762 222.03 289.85C222.03 294.225 226.679 296.611 231.602 299.134C237.186 301.999 242.965 304.961 242.965 311.077C242.965 312.821 241.318 315.826 237.674 317.091C237.661 317.095 237.648 317.1 237.636 317.104L237.589 317.117C236.359 317.494 235.021 317.685 233.613 317.685C231.869 317.685 230.267 317.399 228.851 316.834L228.797 316.817C228.101 316.538 227.442 316.189 226.841 315.779C226.84 315.778 226.84 315.778 226.84 315.778L226.841 315.776C224.039 313.874 222.554 310.871 221.766 308.164C221.227 306.314 221.012 304.599 220.928 303.463C220.927 303.459 220.927 303.455 220.927 303.451C220.92 303.353 220.914 303.259 220.909 303.169C220.88 302.696 220.876 302.359 220.876 302.209H220.874V302.164L220.398 302.209H220.387V302.21H220.386C220.386 302.252 220.386 302.314 220.387 302.385V311.523L220.45 311.596C220.475 311.62 222.684 313.951 226.552 316.172C226.556 316.176 226.561 316.179 226.565 316.182C227.201 316.617 227.897 316.985 228.615 317.27L228.702 317.306H228.714C230.177 317.882 231.825 318.174 233.613 318.174C235.06 318.174 236.437 317.979 237.706 317.593L237.753 317.58C238.151 317.458 238.532 317.312 238.905 317.154C242.575 315.601 244.971 312.367 244.971 308.793C244.971 308.356 244.937 307.928 244.877 307.513C244.842 307.268 244.8 307.025 244.744 306.79Z" fill="white"/>
<path d="M185.389 314.205C185.39 314.204 185.391 314.203 185.392 314.202C185.475 314.104 185.553 314.002 185.626 313.899C185.659 313.858 185.684 313.81 185.716 313.768C185.829 313.613 185.938 313.455 186.041 313.293C186.074 313.24 186.112 313.194 186.145 313.141C186.205 313.04 186.265 312.935 186.323 312.83C186.349 312.783 186.374 312.735 186.399 312.688C186.456 312.584 186.509 312.48 186.56 312.373C186.608 312.279 186.647 312.18 186.691 312.084C186.713 312.033 186.738 311.983 186.759 311.932C186.869 311.673 186.968 311.411 187.049 311.142C187.123 310.903 187.183 310.659 187.236 310.412C187.254 310.333 187.271 310.254 187.287 310.174C187.291 310.156 187.295 310.138 187.298 310.12C187.328 309.978 187.352 309.836 187.367 309.694C187.382 309.626 187.392 309.553 187.396 309.479C187.399 309.464 187.399 309.447 187.401 309.432C187.405 309.385 187.408 309.339 187.413 309.293C187.42 309.207 187.43 309.123 187.436 309.034C187.45 308.844 187.455 308.653 187.455 308.457C187.455 308.188 187.438 307.921 187.415 307.655C187.405 307.555 187.393 307.455 187.381 307.356C187.372 307.285 187.368 307.213 187.357 307.142C187.343 307.015 187.318 306.893 187.293 306.771C187.292 306.76 187.289 306.75 187.287 306.74C187.265 306.627 187.237 306.516 187.211 306.405C187.186 306.295 187.167 306.183 187.137 306.076C187.112 305.983 187.083 305.891 187.059 305.803C187.049 305.768 187.039 305.739 187.029 305.715C186.99 305.593 186.947 305.47 186.903 305.353C186.862 305.24 186.817 305.13 186.772 305.019C186.759 304.986 186.747 304.952 186.733 304.919C186.67 304.771 186.603 304.625 186.531 304.483C186.491 304.395 186.446 304.311 186.399 304.227C186.37 304.173 186.341 304.12 186.311 304.067C186.274 303.998 186.236 303.93 186.193 303.862C186.145 303.774 186.091 303.686 186.032 303.598C186.007 303.558 185.981 303.521 185.955 303.481C185.928 303.44 185.901 303.398 185.873 303.357C185.856 303.332 185.84 303.305 185.822 303.28C185.7 303.106 185.571 302.939 185.438 302.775C185.401 302.729 185.363 302.685 185.326 302.639C185.297 302.606 185.27 302.57 185.24 302.537C185.167 302.454 185.093 302.37 185.015 302.287C184.961 302.228 184.904 302.172 184.848 302.115C184.825 302.091 184.803 302.067 184.779 302.043C184.761 302.025 184.745 302.007 184.727 301.989C184.629 301.896 184.526 301.803 184.429 301.711C184.386 301.672 184.338 301.64 184.294 301.602C184.169 301.495 184.04 301.393 183.909 301.293C183.848 301.246 183.792 301.193 183.73 301.148C183.66 301.1 183.591 301.052 183.522 301.003C183.487 300.979 183.452 300.955 183.417 300.931C183.223 300.802 183.023 300.682 182.819 300.568C182.731 300.518 182.641 300.472 182.551 300.425C182.404 300.349 182.254 300.277 182.103 300.209C182.015 300.17 181.928 300.129 181.839 300.093C181.622 300.003 181.403 299.92 181.178 299.848C181.169 299.845 181.161 299.843 181.152 299.84C181.1 299.824 181.048 299.81 180.996 299.794C180.925 299.773 180.853 299.749 180.781 299.731C180.776 299.726 180.772 299.726 180.767 299.726C180.679 299.701 180.595 299.682 180.508 299.662C180.425 299.637 180.341 299.623 180.258 299.604C180.256 299.603 180.254 299.603 180.251 299.602C180.224 299.597 180.197 299.593 180.17 299.588C180.091 299.572 180.013 299.555 179.931 299.545C179.794 299.52 179.652 299.496 179.511 299.481C179.501 299.476 179.491 299.476 179.481 299.481C179.474 299.48 179.467 299.48 179.46 299.479C179.385 299.47 179.309 299.462 179.233 299.455C179.21 299.453 179.187 299.448 179.164 299.447C179.134 299.442 179.1 299.437 179.07 299.437C179.231 299.384 179.393 299.325 179.554 299.261C179.561 299.259 179.568 299.255 179.575 299.252C179.666 299.216 179.755 299.175 179.845 299.135C179.88 299.12 179.915 299.107 179.95 299.09C180.03 299.056 180.108 299.012 180.186 298.974C180.309 298.914 180.433 298.856 180.553 298.79C180.676 298.725 180.799 298.658 180.918 298.582C180.975 298.547 181.03 298.506 181.086 298.471C181.171 298.416 181.255 298.361 181.338 298.303C181.377 298.276 181.417 298.253 181.457 298.225C181.549 298.161 181.637 298.093 181.725 298.029C181.774 297.99 181.823 297.951 181.872 297.912C181.884 297.902 181.897 297.89 181.909 297.88C181.945 297.851 181.978 297.82 182.013 297.79C182.046 297.762 182.079 297.736 182.111 297.707C182.211 297.624 182.304 297.531 182.4 297.441C182.467 297.377 182.54 297.32 182.607 297.253C183.225 296.633 183.739 295.938 184.148 295.191C184.726 294.136 185.09 292.977 185.21 291.765C185.21 291.761 185.211 291.757 185.211 291.754C185.238 291.478 185.25 291.199 185.252 290.919C185.252 290.898 185.255 290.878 185.255 290.857C185.255 290.649 185.238 290.446 185.224 290.242C184.946 286.139 181.93 282.778 177.987 281.99C177.412 281.875 176.818 281.812 176.21 281.812H158.61V282.301H158.614C158.698 282.302 162.766 282.336 162.766 284.257V315.058C162.766 316.989 158.654 317.013 158.61 317.013V317.502H178.414C178.608 317.502 178.798 317.497 178.987 317.483C179.075 317.477 179.159 317.467 179.245 317.46C179.291 317.456 179.338 317.453 179.385 317.447C179.401 317.446 179.417 317.445 179.432 317.444C179.505 317.439 179.579 317.429 179.647 317.414C179.789 317.399 179.931 317.375 180.072 317.346C180.092 317.342 180.11 317.337 180.129 317.334C180.208 317.318 180.285 317.301 180.364 317.284C180.612 317.23 180.856 317.17 181.094 317.096C181.364 317.016 181.626 316.916 181.884 316.806C181.936 316.784 181.987 316.76 182.039 316.736C182.135 316.693 182.232 316.655 182.326 316.608C182.433 316.556 182.538 316.502 182.643 316.446C182.689 316.421 182.735 316.397 182.78 316.371C182.886 316.313 182.992 316.253 183.094 316.192C183.147 316.16 183.194 316.121 183.246 316.088C183.408 315.985 183.566 315.877 183.72 315.763C183.763 315.732 183.81 315.706 183.852 315.674C183.954 315.6 184.057 315.522 184.155 315.439C184.156 315.438 184.157 315.437 184.159 315.436C184.607 315.065 185.019 314.654 185.389 314.205ZM165.455 299.902H176.212C184.356 299.903 184.766 307.03 184.766 308.457C184.766 317.013 180.991 317.013 176.21 317.013H165.455V299.902ZM174.012 282.301C182.155 282.303 182.566 289.429 182.566 290.857C182.566 299.413 178.791 299.413 174.011 299.413H165.455V282.301H174.012Z" fill="white"/>
<path d="M217.909 315.17L217.906 315.167L216.221 311.059C216.107 310.783 215.995 310.527 215.884 310.279L204.195 281.964L204.132 281.812H201.247L201.389 282.15C201.623 282.712 201.976 283.557 202.42 284.629V284.629L189.879 315.012C188.986 316.989 184.849 317.013 184.805 317.013V317.502H194.3V317.013H193.605C192.887 317.013 190.897 316.842 190.369 316.05C190.208 315.807 190.198 315.514 190.348 315.155L194.008 306.289L202.677 317.121L203.1 317.649L203.205 317.518L205.505 314.647V314.643L211.666 306.942C213.064 310.32 214.286 313.263 215.068 315.151C215.083 315.195 215.103 315.238 215.117 315.278C215.215 315.581 215.191 315.835 215.049 316.05C214.521 316.837 212.531 317.013 211.812 317.013V317.258V317.502H222.9V317.013C222.857 317.013 218.935 316.989 217.909 315.17ZM205.125 314.335L205.124 314.334L204.846 314.681C204.674 314.896 204.42 315.023 204.142 315.023C203.868 315.023 203.609 314.901 203.437 314.686L194.892 304.155L194.89 304.153L202.684 285.272C202.684 285.273 202.684 285.273 202.685 285.274C202.89 285.768 203.11 286.301 203.344 286.863C203.423 287.049 203.501 287.239 203.579 287.43C203.692 287.704 203.809 287.977 203.922 288.261C204.024 288.496 204.122 288.74 204.225 288.985C204.533 289.728 204.855 290.505 205.193 291.312C205.334 291.649 205.471 291.976 205.598 292.294C205.897 293.013 206.2 293.751 206.513 294.499C206.62 294.763 206.728 295.023 206.835 295.286C206.889 295.409 206.938 295.531 206.987 295.653C207.085 295.878 207.177 296.103 207.27 296.328C207.27 296.333 207.275 296.342 207.275 296.348C207.363 296.563 207.451 296.773 207.539 296.988C207.583 297.086 207.622 297.188 207.662 297.286C207.798 297.609 207.93 297.932 208.063 298.254C208.121 298.391 208.18 298.523 208.234 298.66C209.329 301.305 210.434 303.97 211.45 306.429L205.125 314.335Z" fill="white"/>
<path d="M163.919 267.394L163.982 267.463C164.007 267.487 166.222 269.824 170.098 272.053C170.103 272.058 170.108 272.058 170.113 272.063L170.114 272.062C170.745 272.491 171.435 272.857 172.15 273.141L172.237 273.176H172.245C173.708 273.751 175.357 274.043 177.145 274.043C178.592 274.043 179.969 273.847 181.237 273.462L181.285 273.449C185.601 272.13 188.503 268.599 188.503 264.663C188.503 264.278 188.477 263.902 188.431 263.534C188.394 263.235 188.344 262.942 188.276 262.656L188.272 262.645L188.268 262.626C187.508 259.442 185.009 257.272 181.973 255.466C180.412 254.537 178.712 253.702 177.026 252.878C172.162 250.507 167.571 248.268 167.571 244.108C167.571 244.083 167.573 244.057 167.573 244.033C167.575 243.963 167.579 243.893 167.585 243.82C167.585 243.815 167.585 243.81 167.586 243.805C167.59 243.761 167.595 243.712 167.6 243.663C167.603 243.643 167.606 243.623 167.609 243.603C167.618 243.533 167.628 243.463 167.641 243.391C167.647 243.355 167.654 243.318 167.662 243.282C167.672 243.235 167.685 243.186 167.697 243.138C167.699 243.13 167.7 243.123 167.703 243.115C167.726 243.007 167.761 242.893 167.795 242.78C167.819 242.705 167.843 242.631 167.871 242.554C167.887 242.509 167.903 242.464 167.92 242.419C167.929 242.394 167.942 242.369 167.952 242.343C168.011 242.192 168.08 242.041 168.156 241.89C168.193 241.816 168.231 241.743 168.271 241.67C168.288 241.64 168.301 241.609 168.319 241.58C168.324 241.57 168.329 241.56 168.334 241.551C168.434 241.379 168.539 241.207 168.658 241.04C168.746 240.914 168.839 240.789 168.937 240.665C168.964 240.632 168.992 240.599 169.02 240.566C169.096 240.473 169.178 240.382 169.261 240.291C169.328 240.217 169.397 240.145 169.469 240.074C170.006 239.533 170.665 239.03 171.469 238.617C171.491 238.605 171.514 238.594 171.536 238.583C172.178 238.259 172.907 237.991 173.734 237.803C173.774 237.792 173.815 237.785 173.855 237.777L173.934 237.762C174.666 237.608 175.454 237.522 176.293 237.507C176.405 237.498 176.516 237.497 176.629 237.498C179.147 237.498 182.1 238.614 183.661 240.162C183.669 240.171 183.678 240.181 183.686 240.189C183.803 240.306 183.913 240.426 184.021 240.547C184.074 240.605 184.127 240.663 184.177 240.722C184.212 240.764 184.244 240.806 184.279 240.848C184.407 241.001 184.528 241.157 184.641 241.313C184.696 241.389 184.749 241.463 184.801 241.539C184.861 241.627 184.921 241.715 184.977 241.802C185.012 241.856 185.045 241.91 185.078 241.964C185.143 242.067 185.207 242.172 185.267 242.277C185.295 242.326 185.321 242.374 185.348 242.423C185.41 242.535 185.472 242.647 185.528 242.759C185.606 242.905 185.675 243.052 185.744 243.198V243.203C185.801 243.327 185.854 243.447 185.905 243.567C185.916 243.594 185.928 243.621 185.94 243.648C185.977 243.744 186.013 243.835 186.05 243.927C186.07 243.979 186.091 244.031 186.109 244.083C186.13 244.14 186.15 244.194 186.17 244.249C186.204 244.347 186.237 244.444 186.268 244.537C186.285 244.587 186.3 244.636 186.316 244.685C186.337 244.753 186.357 244.819 186.376 244.884C186.471 245.208 186.544 245.501 186.594 245.736C186.604 245.775 186.614 245.809 186.618 245.843C186.628 245.882 186.638 245.922 186.643 245.956C186.653 245.995 186.657 246.029 186.663 246.063C186.667 246.078 186.668 246.091 186.671 246.105C186.696 246.249 186.71 246.344 186.713 246.365L186.724 246.419L186.956 246.391H187.21V237.679H186.721V237.693C186.721 238.314 186.55 239.962 185.768 240.348C185.339 240.558 184.745 240.374 184 239.81C183.999 239.809 183.997 239.807 183.996 239.805C182.362 238.185 179.264 237.009 176.629 237.009C176.503 237.009 176.377 237.009 176.267 237.019C175.414 237.034 174.595 237.123 173.833 237.283L173.765 237.296C173.713 237.307 173.66 237.317 173.619 237.328V237.326C168.725 238.314 165.562 241.61 165.562 245.721C165.562 250.097 170.211 252.478 175.134 255.006C180.717 257.87 186.496 260.828 186.496 266.945C186.496 268.7 184.839 271.716 181.167 272.973C181.157 272.973 181.143 272.978 181.133 272.982V272.983L181.121 272.986C179.891 273.363 178.553 273.554 177.145 273.554C175.401 273.554 173.799 273.268 172.383 272.703L172.328 272.687C171.631 272.407 170.974 272.058 170.372 271.647C165.482 268.328 164.597 261.652 164.439 259.029C164.437 258.987 164.435 258.95 164.433 258.91C164.431 258.865 164.428 258.818 164.426 258.776C164.41 258.441 164.408 258.201 164.408 258.08H164.406V258.034L163.917 258.079C163.917 258.122 163.918 258.183 163.919 258.254V267.394Z" fill="white"/>
<path d="M348.978 284.257C348.978 282.326 353.089 282.301 353.134 282.301V281.812H344.334V282.301C344.372 282.301 348.483 282.326 348.489 284.254V314.162L346.443 311.019C346.268 310.75 346.1 310.5 345.933 310.257L345.922 310.242L327.432 281.925L327.359 281.812H320.46V282.301C320.504 282.301 324.748 282.326 326.102 284.389L326.107 284.384C326.22 284.56 326.341 284.745 326.468 284.935V315.066C326.458 316.569 323.954 316.911 322.837 316.989H322.822C321.702 316.911 319.174 316.573 318.378 315.17L318.375 315.167L316.69 311.059C316.576 310.783 316.464 310.527 316.353 310.279L304.664 281.964L304.6 281.812H301.716L301.858 282.15C302.092 282.712 302.444 283.557 302.889 284.629V284.629L290.348 315.011C289.804 316.224 288.042 316.701 286.746 316.891C285.543 316.705 284.013 316.236 284.013 315.058V284.257C284.013 282.336 288.085 282.302 288.164 282.301H288.169V281.812H277.168V282.301H277.173C277.257 282.302 281.324 282.336 281.324 284.257V315.058C281.324 316.989 277.212 317.013 277.168 317.013V317.502H294.768V317.013H294.074C293.356 317.013 291.366 316.842 290.838 316.05C290.677 315.807 290.667 315.514 290.817 315.155L294.478 306.286L303.569 317.649L312.135 306.942C313.532 310.32 314.755 313.263 315.537 315.151C315.552 315.195 315.571 315.238 315.586 315.278C315.684 315.581 315.66 315.835 315.518 316.05C314.99 316.837 313 317.013 312.281 317.013V317.258V317.502H331.113V317.013C331.07 317.013 326.958 316.989 326.958 315.058H326.957V285.688C326.957 285.689 326.957 285.689 326.958 285.689C332.35 293.927 344.084 311.86 347.78 317.502H350.66L350.415 317.126L350.415 317.125L350.415 317.125L348.978 314.914V284.257H348.978ZM305.594 314.335L305.593 314.334L305.314 314.681C305.143 314.896 304.889 315.023 304.61 315.023C304.336 315.023 304.077 314.901 303.906 314.686L295.357 304.157L303.153 285.272C303.153 285.273 303.153 285.273 303.153 285.274C305.241 290.3 308.947 299.251 311.919 306.429L305.594 314.335Z" fill="white"/>
<path d="M295.15 221.599H162.795V222.258H295.15V221.599Z" fill="white"/>
<path d="M295.15 332.925H162.795V333.584H295.15V332.925Z" fill="white"/>
</svg>
