<svg width="455" height="455" viewBox="0 0 455 455" fill="none" xmlns="http://www.w3.org/2000/svg">
<path d="M150.519 230.592L154.46 222.284C153.909 222.206 153.325 222.426 152.978 222.899C152.837 223.089 138.808 241.452 127.285 241.452C121.879 241.452 119.152 238.914 119.152 233.901C119.152 221.544 132.361 209.47 140.038 209.47C141.803 209.47 142.591 209.848 142.591 212.102C142.591 219.243 127.428 227.975 121.596 230.733C120.807 231.112 120.476 232.042 120.839 232.83C121.217 233.618 122.147 233.965 122.935 233.587C125.268 232.483 145.743 222.521 145.743 212.102C145.743 209.47 144.75 206.317 140.038 206.317C129.981 206.317 116 220.22 116 233.901C116 240.711 120.113 244.604 127.285 244.604C135.845 244.604 145.034 236.455 150.519 230.592Z" fill="white"/>
<path d="M339.144 227.413C338.496 226.833 337.501 226.882 336.918 227.53C336.792 227.668 324.26 241.458 313.591 241.458L313.586 241.458L313.58 241.452C308.174 241.452 305.447 238.914 305.447 233.901C305.447 221.544 318.655 209.47 326.332 209.47C328.097 209.47 328.886 209.848 328.886 212.102C328.886 219.243 313.722 227.975 307.89 230.733C307.102 231.112 306.771 232.042 307.133 232.83C307.512 233.618 308.442 233.965 309.23 233.587C311.562 232.483 332.038 222.521 332.038 212.102C332.038 209.47 331.045 206.317 326.332 206.317C316.275 206.317 302.294 220.22 302.294 233.901C302.294 240.702 306.398 244.593 313.551 244.603C313.567 244.604 313.576 244.61 313.591 244.61C325.649 244.61 338.711 230.25 339.261 229.639C339.843 228.992 339.79 227.995 339.144 227.413Z" fill="white"/>
<path d="M206.35 244.604C212.545 244.604 217.415 239.923 219.858 236.991C219.654 235.557 219.638 233.996 219.779 232.341C219.433 232.436 219.117 232.656 218.913 232.988C218.85 233.082 213.474 241.452 206.35 241.452C202.551 241.452 201.747 237.353 201.747 233.901C201.747 221.544 214.972 209.47 222.633 209.47C222.948 209.47 223.515 209.517 223.704 209.785C223.988 210.163 223.925 211.093 223.752 211.629C223.5 212.464 223.972 213.348 224.792 213.6C225.628 213.867 226.51 213.395 226.762 212.575C226.857 212.291 227.598 209.754 226.258 207.925C225.722 207.184 224.65 206.317 222.633 206.317C212.592 206.317 198.595 220.22 198.595 233.901C198.595 243.832 204.537 244.604 206.35 244.604Z" fill="white"/>
<path d="M181.792 209.47C183.558 209.47 184.346 209.848 184.346 212.102C184.346 215.081 181.54 219.022 178.561 223.183C174.936 228.29 171.169 233.555 171.169 238.835C171.169 241.468 172.161 244.604 176.89 244.604C183.227 244.604 192.258 234.705 197.838 227.754C198.658 224.618 200.045 221.607 201.826 218.849C201.196 218.675 200.518 218.911 200.124 219.479C194.166 227.975 182.596 241.452 176.89 241.452C175.109 241.452 174.321 241.073 174.321 238.835C174.321 234.564 177.789 229.709 181.13 225.011C184.409 220.425 187.498 216.09 187.498 212.102C187.498 209.47 186.505 206.317 181.792 206.317C175.724 206.317 166.613 216.484 160.529 224.239L160.513 224.271L155.39 235.052C155.989 235.178 156.62 234.926 156.982 234.39C163.539 224.759 176.086 209.47 181.792 209.47Z" fill="white"/>
<path d="M296.827 229.677C294.951 227.202 295.708 222.426 296.165 220.802C296.37 220.062 296.023 219.274 295.329 218.958C294.62 218.627 293.801 218.848 293.359 219.478C289.261 225.326 277.581 240.143 270.961 241.373C267.698 235.398 272.017 228.731 275.847 222.82C278.479 218.785 280.734 215.301 280.734 212.102C280.734 207.783 277.612 206.112 277.486 206.033C276.73 205.639 275.8 205.938 275.39 206.695C274.98 207.452 275.264 208.398 276.005 208.823C276.068 208.855 277.581 209.737 277.581 212.102C277.581 214.372 275.453 217.65 273.215 221.118C268.896 227.754 263.537 236.013 268.801 243.91C269.1 244.352 269.589 244.604 270.11 244.604C277.029 244.604 287.149 232.829 292.492 225.941C292.603 227.864 293.075 229.929 294.305 231.568C295.739 233.46 297.899 234.484 300.736 234.579C300.72 234.358 300.72 234.138 300.72 233.901C300.72 233.082 300.768 232.246 300.862 231.426C298.986 231.364 297.678 230.796 296.827 229.677Z" fill="white"/>
<path d="M262.165 210.857C262.544 210.069 262.229 209.123 261.456 208.729C260.684 208.351 259.738 208.666 259.344 209.439C259.281 209.549 253.417 221.229 249.697 229.883C248.152 233.46 247.364 236.471 247.364 238.836C247.364 241.468 248.358 244.605 253.086 244.605C257.846 244.605 262.37 240.254 265.05 237.054C265.034 235.1 265.397 233.177 266.011 231.317C265.586 231.364 265.176 231.617 264.924 231.995C263.237 234.627 257.799 241.452 253.086 241.452C251.305 241.452 250.517 241.074 250.517 238.836C250.517 236.913 251.211 234.312 252.597 231.128C256.286 222.553 262.103 210.968 262.165 210.857Z" fill="white"/>
<path d="M166.816 203.618C166.028 203.246 165.089 203.58 164.716 204.366L147.508 240.62C147.134 241.407 147.47 242.347 148.256 242.719C148.475 242.823 148.704 242.872 148.93 242.872C149.52 242.872 150.086 242.539 150.356 241.972L167.564 205.718C167.938 204.931 167.602 203.991 166.816 203.618Z" fill="white"/>
<path d="M222.885 241.231C224.225 243.406 226.321 244.604 228.812 244.604C235.322 244.604 242.352 238.882 246.261 235.115C246.655 233.381 247.317 231.443 248.215 229.346C247.743 229.299 247.254 229.472 246.923 229.866C246.828 229.992 236.866 241.452 228.812 241.452C227.425 241.452 226.337 240.821 225.581 239.592C223.705 236.55 223.799 229.598 228.213 220.866L245.425 184.628C253.622 167.699 259.344 164.153 262.701 164.153C263.647 164.153 264.12 164.468 264.419 165.288C264.75 166.217 264.782 167.557 264.514 169.228C262.938 178.875 251.368 199.618 231.759 217.083L229.647 221.544C229.537 221.749 229.442 221.938 229.348 222.142C229.868 222.379 230.53 222.316 231.003 221.906C249.839 206.034 263.915 184.738 267.146 172.034C267.966 168.787 268.076 166.091 267.383 164.2C266.626 162.135 264.971 161 262.701 161C256.427 161 249.839 168.283 242.573 183.257L225.391 219.479C220.962 228.211 220.001 236.55 222.885 241.231Z" fill="white"/>
<path d="M266.184 198.553C265.397 198.182 264.456 198.516 264.084 199.301L261.789 204.139C261.415 204.925 261.75 205.866 262.537 206.238C262.755 206.341 262.985 206.391 263.211 206.391C263.801 206.391 264.367 206.058 264.636 205.49L266.932 200.652C267.306 199.866 266.97 198.925 266.184 198.553Z" fill="white"/>
<path d="M288.705 269.775C276.83 281.651 259.907 286.985 243.367 284.066L162.382 269.775H288.705ZM254.143 290.434C235.709 294.121 216.602 292.366 199.148 285.385L162.733 270.819L257.475 289.767L254.143 290.434ZM203.043 289.599C190.409 289.111 178.295 284.438 168.606 276.315L164.02 272.47L204.724 289.664L203.043 289.599ZM207.576 260.948C226.049 257.465 245.136 259.431 262.512 266.605L265.653 267.902L169.035 268.214L207.576 260.948ZM270.571 266.791C269.745 266.424 268.518 265.889 266.789 265.158L266.791 265.149L263.655 263.85C251.502 258.833 238.677 256.28 225.524 256.28C219.328 256.28 213.102 256.862 207.026 258.012L170.719 264.86V264.858C163.338 265.888 159.746 265.748 159.746 265.748C159.746 270.512 162.038 274.928 165.801 277.849C166.098 278.08 166.394 278.33 166.688 278.604C166.751 278.663 166.813 278.712 166.875 278.756C176.997 287.17 189.789 292.07 202.935 292.59L204.438 292.644C206.788 292.807 209.356 292.42 210.534 292.206C218.547 294.26 226.784 295.307 235.139 295.307C241.708 295.307 248.292 294.65 254.727 293.366L255.593 293.187C255.891 293.127 256.175 293.068 256.474 293.008C257.011 292.888 257.534 292.739 258.056 292.59C264.596 290.619 268.312 287.692 268.312 287.692L261.012 287.132C264.805 286.529 268.494 285.546 272.031 284.17C278.988 281.467 285.378 277.331 290.813 271.882L295.919 266.791H270.571Z" fill="white"/>
</svg>
