<svg width="455" height="455" viewBox="0 0 455 455" fill="none" xmlns="http://www.w3.org/2000/svg">
<path d="M368.168 196.347C365.892 199.636 363.308 202.757 360.556 205.712C357.805 208.673 354.952 211.545 352.04 214.359C349.121 217.165 346.174 219.954 343.136 222.618C340.093 225.284 336.958 227.846 333.712 230.26C331.957 231.566 330.177 232.839 328.37 234.069C328.747 233.229 329.164 232.391 329.609 231.562C330.506 229.908 331.513 228.284 332.587 226.694C334.758 223.53 337.127 220.458 339.58 217.446C342.043 214.441 344.536 211.443 347.052 208.456L349.744 205.192C349.776 205.157 349.796 205.136 349.796 205.136C355.461 198.381 360.363 193.151 363.958 189.557C366.246 187.378 368.861 185.199 370.714 185.199C371.912 185.199 372.674 185.852 372.565 187.269C372.565 187.269 372.427 188.985 371.022 191.79C370.171 193.339 369.202 194.86 368.168 196.347ZM174.938 218.094C167.42 224.195 158.705 231.822 154.456 235.635C159.794 228.553 167.638 213.955 172.976 206.328C175.701 206.655 178.86 206.873 181.366 206.873C184.634 206.764 188.665 206.328 191.825 205.13V205.239C186.159 209.161 180.93 213.192 174.938 218.094ZM273.86 205.239C279.526 198.484 284.755 193.254 288.35 189.659C290.638 187.481 293.58 185.301 295.432 185.301C296.63 185.301 297.393 185.955 297.284 187.371C296.848 192.165 287.152 200.88 276.693 209.924C271.681 214.281 267.541 217.004 257.192 226.048C263.075 218.203 265.907 214.717 273.86 205.239ZM287.478 231.93C289.657 229.86 291.291 228.771 292.271 228.771C293.252 228.771 293.688 229.316 293.579 230.297C293.47 231.822 291.836 234.11 289.112 235.961C286.824 237.486 283.883 238.686 281.703 239.23C283.011 237.051 285.735 233.564 287.478 231.93ZM371.802 184C368.643 184 365.266 186.397 362.76 188.358C356.441 193.588 345.874 204.374 338.03 213.525C338.03 213.525 335.517 216.837 333.012 220.443C331.91 221.847 330.826 223.272 329.782 224.737C328.62 226.355 327.485 228.006 326.436 229.745C325.388 231.482 324.402 233.299 323.696 235.322C323.455 236.007 323.256 236.719 323.103 237.456C319.84 239.418 316.487 241.241 313.002 242.71C312.076 243.097 311.141 243.456 310.196 243.768C309.259 244.096 308.279 244.322 307.298 244.319C306.674 244.329 306.061 244.266 305.509 244.173C305.196 244.041 305.018 243.921 305.018 243.921C304.365 243.377 304.692 242.069 305.237 240.979C307.633 235.968 315.037 226.257 318.843 221.357C321.557 217.861 326.305 212.207 329.123 208.973C330.507 207.471 331.91 205.985 333.327 204.517C334.849 202.944 336.41 201.41 338.003 199.912C339.589 198.407 341.217 196.947 342.905 195.565C344.581 194.166 346.324 192.852 348.148 191.66C349.059 191.066 349.995 190.507 350.963 190.01C351.927 189.502 352.925 189.056 353.962 188.712C354.047 188.684 354.099 188.597 354.082 188.508C354.064 188.413 353.97 188.348 353.873 188.367C351.668 188.788 349.571 189.659 347.578 190.678C345.585 191.707 343.69 192.908 341.853 194.181C340.028 195.471 338.263 196.841 336.541 198.259C334.827 199.685 333.168 201.172 331.536 202.686C328.267 205.712 325.192 208.927 322.176 212.19C320.689 213.84 319.222 215.507 317.779 217.194L316.462 218.751L316.458 218.754C314.933 220.389 308.069 228.233 306.98 229.539C303.821 232.155 300.007 235.532 299.571 235.968C299.403 236.136 299.235 236.305 299.126 236.475C297.125 238.239 294.777 240.067 292.816 241.409C288.022 244.678 284.319 245.44 282.901 245.44C281.268 245.44 280.397 244.568 280.397 242.934C280.397 242.28 280.613 241.299 281.05 240.428C283.556 239.774 287.26 238.467 290.42 236.942C293.688 235.308 297.174 233.129 297.392 230.297C297.501 228.879 296.63 227.355 294.232 227.355H294.124C291.182 227.355 287.914 228.771 284.754 230.405C282.684 231.495 280.613 232.802 279.415 233.673C278.409 234.412 277.65 234.985 276.885 235.622C276.762 235.718 276.631 235.826 276.475 235.961C276.416 236.015 276.344 236.08 276.281 236.138C275.995 236.387 275.702 236.65 275.384 236.942C275.376 236.951 275.368 236.959 275.359 236.967C274.161 238.038 272.615 239.381 271.246 240.428C268.74 242.389 267.323 243.152 266.016 243.806C265.145 244.242 263.946 244.678 263.402 244.242C262.965 243.914 263.075 243.152 263.837 241.845C264.491 240.755 265.69 239.12 267.433 237.051C269.176 234.873 271.464 232.367 271.791 230.405C272.008 228.553 270.701 227.463 268.413 227.463C265.145 227.463 260.351 230.514 256.537 233.347C252.724 236.179 249.13 239.339 246.514 241.518L246.405 241.409C249.02 237.595 253.596 230.95 255.449 228.879C263.51 221.798 271.028 216.569 277.673 211.121C288.677 201.97 299.136 193.254 300.007 188.025C300.335 186.064 299.463 184.103 296.63 184.103C293.471 184.103 290.421 186.282 287.37 188.461C281.705 192.382 268.413 206.328 262.094 213.628C257.192 219.184 252.616 225.067 248.912 229.969C246.405 232.039 242.266 235.635 241.83 236.071C241.793 236.107 241.757 236.143 241.721 236.179C239.979 237.705 237.255 239.993 235.185 241.409C230.392 244.678 226.578 245.33 225.162 245.33C223.419 245.33 222.438 244.459 222.656 242.825C222.983 240.21 225.815 236.071 228.757 233.129C231.808 229.969 234.314 228.335 235.512 228.553C236.819 228.771 236.384 230.079 235.185 232.148C234.205 233.783 234.205 235.308 236.056 235.308C237.472 235.308 239.325 233.673 239.76 231.603C240.197 229.533 239.325 227.899 236.819 227.463C233.987 227.028 230.5 228.444 226.796 230.405C224.944 231.386 222.765 232.802 221.566 233.673C220.237 234.649 219.337 235.34 218.286 236.266C216.996 237.361 215.247 238.988 213.396 240.428C211.653 241.845 209.801 243.043 208.493 243.696C207.622 244.133 206.424 244.459 205.77 244.133C204.898 243.696 205.225 242.172 205.878 240.973C207.704 237.424 211.21 232.181 215.053 227.223C216.847 227.097 218.62 226.867 220.384 226.631C222.252 226.375 224.115 226.125 225.967 225.835C229.674 225.29 233.366 224.723 237.059 224.425C238.905 224.28 240.753 224.21 242.58 224.332C244.387 224.478 246.243 224.775 247.748 225.806L247.752 225.809C247.838 225.868 247.955 225.857 248.029 225.78C248.111 225.694 248.107 225.558 248.021 225.475C247.31 224.8 246.437 224.306 245.527 223.957C244.617 223.605 243.671 223.364 242.72 223.202C240.817 222.867 238.896 222.792 236.991 222.796C233.179 222.828 229.412 223.229 225.677 223.672C223.807 223.881 221.949 224.148 220.094 224.372C219.074 224.498 218.057 224.614 217.041 224.727C221.17 219.688 226.691 213.742 227.886 212.647C227.777 212.32 227.341 211.993 226.251 211.993C223.963 211.993 221.349 214.499 219.388 216.46C217.578 218.192 213.785 222.445 211.279 225.316C210.536 225.376 209.793 225.427 209.054 225.449C208.145 225.491 207.243 225.468 206.352 225.391C205.464 225.292 204.592 225.132 203.785 224.699C203.713 224.66 203.622 224.668 203.558 224.724C203.475 224.797 203.468 224.923 203.541 225.005L203.543 225.009C204.207 225.76 205.16 226.236 206.092 226.548C207.036 226.877 208.011 227.039 208.976 227.168C209.194 227.193 209.411 227.204 209.629 227.222C209.436 227.449 209.272 227.641 209.147 227.79C207.717 229.494 203.264 233.455 200.322 236.071C200.137 236.229 199.986 236.374 199.864 236.506C198.334 237.934 197.33 238.816 195.203 240.537C193.351 242.062 191.498 243.261 190.409 243.806C189.32 244.35 188.339 244.568 187.794 244.133C187.358 243.696 187.468 242.934 188.121 241.736C188.775 240.646 190.082 238.686 191.934 236.397C194.113 233.673 195.856 231.603 197.817 229.425C199.125 228.008 198.907 227.682 196.619 227.682C194.549 227.682 193.132 228.117 190.3 230.079C187.852 231.711 184.258 234.679 182.827 235.945C182.776 235.986 182.725 236.028 182.673 236.071C181.474 237.161 179.623 238.795 177.443 240.537C173.957 243.37 170.907 245.004 169.163 245.004C168.292 245.004 167.747 244.459 167.747 243.588C167.856 239.557 173.739 231.822 179.405 224.74C184.525 218.312 192.369 209.815 197.599 204.367C200.104 201.861 201.085 200.336 201.739 198.92C202.283 197.722 202.174 195.978 201.412 196.196C200.867 196.414 201.629 197.068 200.213 198.811C198.906 200.554 196.618 202.297 192.914 203.822C189.101 205.347 184.634 205.674 181.692 205.783C179.623 205.893 176.463 205.674 173.739 205.239C174.284 204.585 174.72 204.149 175.264 203.495C176.79 201.752 177.007 200.88 175.373 200.663C174.284 200.554 172.867 201.752 171.887 202.624C171.124 203.277 170.362 204.04 169.817 204.585C164.915 203.822 156.526 202.08 147.483 201.752C135.54 201.293 127.109 204.446 122.764 209.873H109.405V210.968H139.801V209.873H127.091C131.986 205.838 139.527 203.931 147.265 203.931C156.744 203.931 163.607 204.694 168.837 205.674C158.051 215.697 148.464 225.503 138.441 232.802C127.001 241.299 112.293 248.055 102.924 248.055C102.924 248.055 97.4665 248.273 94.6222 247.801C93.3252 247.517 92.0625 247.1 90.8641 246.546C87.9319 245.172 85.4565 242.966 83.6024 240.322C81.7384 237.669 80.6595 234.463 80.4526 231.137C80.4459 231.033 80.3629 230.948 80.2568 230.94C80.1404 230.933 80.041 231.021 80.0334 231.136L80.033 231.142C79.8145 234.541 80.687 238.053 82.4843 241.044C84.2697 244.056 87.0967 246.419 90.3033 247.794C90.4609 247.863 90.6243 247.918 90.7842 247.982C90.8299 248.009 90.8725 248.033 90.9214 248.06C94.0703 249.77 101.834 249.361 101.834 249.361C113.165 249.361 128.2 241.953 138.985 233.892C148.681 226.81 162.844 212.756 166.876 208.834H166.985C161.102 216.134 150.207 234.436 143.888 243.261C143.234 244.133 142.689 245.44 143.561 246.202C144.541 246.856 145.086 245.984 146.393 244.786C152.604 238.903 158.922 233.238 167.203 226.048C174.393 219.838 181.802 213.737 189.101 208.289H189.21C183.654 212.974 175.483 221.907 171.124 227.573C166.44 233.564 162.954 238.686 163.062 242.608C163.172 245.767 165.241 246.747 167.966 246.638C171.016 246.53 174.72 244.024 176.899 242.28C179.617 240.106 181.575 238.366 182.991 237.059C182.994 237.056 182.997 237.054 183.001 237.051C184.091 236.071 185.289 235.089 186.923 233.783C188.557 232.475 190.845 230.841 191.608 230.514C189.864 232.039 185.616 236.507 183.437 239.883C182.565 241.19 181.803 242.608 181.803 244.024C181.803 245.767 182.783 246.856 185.071 246.856C188.666 246.856 192.37 244.133 194.549 242.389C196.728 240.646 199.452 238.249 200.759 236.942C200.8 236.901 200.855 236.848 200.918 236.785C202.209 235.603 203.504 234.417 205.225 233.02C202.066 237.161 199.56 241.082 199.342 243.806C199.233 245.44 200.105 246.856 202.61 246.856C206.75 246.856 210.673 243.914 212.633 242.389C214.757 240.771 217.629 238.217 218.989 236.899C219.467 236.486 219.931 236.071 220.15 235.852L220.259 235.961C218.516 238.032 217.317 240.32 217.099 242.498C216.881 245.44 218.843 247.074 222.874 247.074H222.983C226.687 247.074 231.808 245.004 235.621 242.389C237.581 241.082 240.632 238.467 242.049 237.161C242.198 237.012 242.332 236.876 242.454 236.748C242.464 236.74 242.473 236.733 242.484 236.724C243.682 235.635 244.989 234.436 246.623 233.02V233.129C245.317 234.763 244.226 236.179 243.355 237.486C241.503 240.21 239.979 242.716 238.889 244.786C238.126 246.312 238.779 246.53 240.305 246.53C241.503 246.53 242.157 246.312 243.138 245.549C247.932 241.845 250.546 239.339 255.339 235.635C258.825 232.911 261.877 231.059 263.837 230.079C264.927 229.533 266.125 229.098 266.67 229.425C267.215 229.751 266.997 230.405 266.561 230.95C265.253 232.585 263.619 234.327 261.985 236.289C259.915 238.795 257.518 241.518 257.409 243.914C257.3 245.767 258.499 246.747 260.678 246.747C264.055 246.747 268.304 244.024 270.482 242.389C272.446 240.893 275.127 238.519 276.469 237.254C277.079 236.716 277.764 236.087 277.999 235.852L278.109 235.961C275.929 238.577 274.949 240.537 274.84 242.716C274.731 245.549 276.583 247.074 280.613 247.074C284.319 247.074 288.349 245.658 292.926 242.608C294.886 241.299 298.371 238.467 299.79 237.161C300.16 236.851 300.454 236.543 300.606 236.275C301.757 235.222 303.224 233.863 304.692 232.59L304.801 232.699C303.384 234.442 301.859 236.512 300.879 238.146C299.571 240.325 298.808 242.178 298.7 243.703C298.591 245.664 299.707 246.494 301.716 246.757C303.628 247.007 306.374 246.862 312.904 244.036C313.091 243.959 313.28 243.886 313.466 243.806C316.738 242.386 319.856 240.683 322.888 238.85C322.787 239.885 322.797 240.955 323.037 242.058C323.302 243.258 323.911 244.457 324.799 245.349C325.676 246.257 326.767 246.834 327.827 247.193C328.894 247.558 329.951 247.732 330.985 247.85C332.019 247.972 333.042 248.013 334.055 247.97C336.082 247.89 338.055 247.53 339.982 247.065C341.913 246.598 343.795 245.987 345.639 245.297C347.489 244.616 349.295 243.834 351.076 243.005C352.857 242.177 354.602 241.277 356.333 240.354C358.062 239.425 359.752 238.429 361.441 237.431C361.446 237.428 361.451 237.425 361.455 237.423C361.626 237.311 361.675 237.081 361.563 236.91C361.452 236.739 361.222 236.69 361.051 236.802C359.417 237.864 357.73 238.843 356.02 239.777C354.314 240.717 352.562 241.572 350.784 242.362C347.225 243.929 343.527 245.21 339.738 245.937C337.847 246.297 335.928 246.496 334.043 246.456C333.101 246.427 332.165 246.354 331.27 246.151C330.378 245.946 329.532 245.589 328.836 245.105C328.136 244.619 327.613 244.007 327.274 243.378C326.938 242.742 326.754 242.09 326.662 241.37C326.453 239.931 326.807 238.258 327.367 236.586C327.454 236.335 327.553 236.082 327.648 235.829C333.326 232.074 338.73 227.923 343.915 223.521C347.014 220.872 350.002 218.117 352.971 215.334C355.931 212.545 358.838 209.693 361.651 206.742C363.059 205.267 364.444 203.769 365.821 202.258C367.193 200.74 368.551 199.203 369.834 197.586C371.114 195.97 372.334 194.283 373.352 192.422C373.853 191.487 374.327 190.518 374.659 189.454C374.751 189.167 374.831 188.871 374.901 188.568C375.006 188.186 375.071 187.922 375.071 187.922C375.399 185.961 374.636 184 371.802 184Z" fill="white"/>
<path d="M128.527 231.059C129.725 231.385 130.488 231.276 130.597 230.95C130.706 230.622 130.161 230.731 129.289 230.404C125.041 228.944 122.899 226.351 122.067 223.563H139.801V222.468H109.405V223.563H120.234C121.529 227.005 124.361 229.837 128.527 231.059Z" fill="white"/>
<path d="M175.435 268.426C174.874 268.895 173.996 269.13 172.8 269.13H171.164V263.827H172.504C173.928 263.827 174.916 264.08 175.469 264.587C176.036 265.102 176.321 265.738 176.321 266.495C176.321 267.275 176.025 267.919 175.435 268.426ZM171.164 256.512H172.095C172.989 256.512 173.67 256.726 174.14 257.154C174.609 257.581 174.844 258.208 174.844 259.034C174.844 259.881 174.615 260.523 174.157 260.958C173.699 261.394 172.978 261.611 171.993 261.611H171.164V256.512ZM175.912 262.179C176.873 261.309 177.354 260.245 177.354 258.988C177.354 258.298 177.207 257.617 176.912 256.944C176.623 256.277 176.233 255.721 175.741 255.274C175.257 254.843 174.663 254.536 173.958 254.355C173.261 254.172 172.326 254.081 171.153 254.081H168.518V271.618H172.527C173.724 271.618 174.719 271.508 175.514 271.288C176.241 271.061 176.896 270.656 177.479 270.073C178.449 269.126 178.933 267.968 178.933 266.598C178.933 265.552 178.66 264.636 178.115 263.848C177.577 263.054 176.843 262.497 175.912 262.179Z" fill="white"/>
<path d="M196.548 254.081H193.902V271.618H201.704V269.13H196.548V254.081Z" fill="white"/>
<path d="M228.021 267.542C226.756 268.813 225.205 269.449 223.364 269.449C221.669 269.449 220.173 268.824 218.878 267.576C217.576 266.328 216.925 264.736 216.925 262.799C216.925 260.953 217.553 259.402 218.81 258.146C220.067 256.875 221.608 256.239 223.433 256.239C225.265 256.239 226.802 256.875 228.044 258.146C229.293 259.41 229.918 260.976 229.918 262.844C229.918 264.691 229.286 266.256 228.021 267.542ZM223.466 253.752C220.937 253.752 218.772 254.638 216.97 256.41C215.16 258.182 214.256 260.302 214.256 262.771C214.256 265.58 215.247 267.851 217.232 269.584C219.033 271.153 221.067 271.936 223.331 271.936C225.89 271.936 228.074 271.054 229.884 269.29C231.686 267.533 232.587 265.394 232.587 262.872C232.587 260.367 231.69 258.22 229.896 256.432C228.108 254.646 225.965 253.752 223.466 253.752Z" fill="white"/>
<path d="M248.885 256.954C247.408 258.704 246.67 260.696 246.67 262.929C246.67 265.42 247.552 267.547 249.317 269.312C251.088 271.061 253.228 271.935 255.733 271.935C257.399 271.935 258.989 271.506 260.504 270.646V267.449C260.072 267.812 259.662 268.123 259.271 268.38C258.882 268.638 258.505 268.842 258.142 268.994C257.49 269.297 256.699 269.448 255.767 269.448C253.966 269.448 252.443 268.816 251.202 267.551C249.96 266.287 249.34 264.735 249.34 262.894C249.34 261.032 249.96 259.457 251.202 258.17C252.435 256.875 253.954 256.228 255.757 256.228C257.391 256.228 258.974 256.868 260.504 258.147V255.018C259.035 254.166 257.513 253.74 255.938 253.74C253.053 253.74 250.702 254.812 248.885 256.954Z" fill="white"/>
<path d="M288.966 254.081H285.434L278.608 261.078V254.081H275.962V271.618H278.608V264.36L279.153 263.815L285.468 271.618H289.012L281.038 262.02L288.966 254.081Z" fill="white"/>
<path d="M113.89 220.608V214.202H115.602V213.144H111.048V214.202H112.764V220.608H113.89Z" fill="white"/>
<path d="M121.558 213.144V220.608H122.685V217.122H125.904V220.608H127.031V213.144H125.904V216.063H122.685V213.144H121.558Z" fill="white"/>
<path d="M137.889 214.202V213.144H133.77V220.608H137.889V219.549H134.896V217.055H137.802V215.996H134.896V214.202H137.889Z" fill="white"/>
<path d="M199.529 223.771C199.597 223.826 199.696 223.816 199.751 223.749C202.879 219.938 206.295 216.392 209.854 213.01C211.635 211.32 213.454 209.674 215.306 208.069C217.155 206.47 219.051 204.887 220.951 203.413L220.967 203.4C221.009 203.367 221.051 203.332 221.091 203.294C221.749 202.668 221.775 201.625 221.148 200.968C220.522 200.309 219.481 200.283 218.822 200.909C216.986 202.656 215.261 204.423 213.546 206.234C211.839 208.043 210.172 209.887 208.551 211.768C205.312 215.532 202.239 219.441 199.498 223.562C199.455 223.629 199.466 223.72 199.529 223.771Z" fill="white"/>
<path d="M334.613 263.266H304.216V264.361H334.613V263.266Z" fill="white"/>
<path d="M151.438 263.266H121.042V264.361H151.438V263.266Z" fill="white"/>
</svg>
