<svg width="455" height="455" viewBox="0 0 455 455" fill="none" xmlns="http://www.w3.org/2000/svg">
<path d="M196.004 242.921C192.233 245.014 187.875 245.467 183.73 244.196C179.535 242.909 176.132 240.045 174.149 236.13C165.625 219.306 156.148 200.598 149.344 187.153C147.367 183.247 147.075 178.82 148.52 174.688C149.764 171.135 152.15 168.216 155.324 166.309C161.191 163.323 167.71 161.703 174.484 161.625C174.657 161.623 174.828 161.622 175.001 161.622C200.255 161.622 218.374 182.553 218.374 204.93C218.38 220.702 209.809 235.259 196.004 242.921ZM174.987 160C150.141 160 130 180.141 130 204.987C130 229.832 150.141 249.973 174.987 249.973C199.832 249.973 219.973 229.832 219.973 204.987C219.973 180.141 199.832 160 174.987 160Z" fill="white"/>
<path d="M325.048 162.573H208.164V164.116H219.576L262.083 247.439H271.794L279.022 232.693L275.741 226.188C264.884 204.663 250.014 175.183 248.569 172.269C246.662 168.422 244.154 165.683 241.168 164.116L291.858 164.126C298.789 164.319 304.217 170.076 304.217 177.232C304.217 182.071 302.888 186.895 302.888 186.895L314.716 164.116H325.048V162.573Z" fill="white"/>
<path d="M160.081 293.094C155.923 293.094 152.763 289.665 152.763 285.289V285.236C152.763 280.888 155.896 277.486 160.081 277.486C162.647 277.486 164.429 278.565 166.022 280.078L167.481 278.512C165.591 276.729 163.538 275.514 160.108 275.514C154.545 275.514 150.548 279.942 150.548 285.289V285.344C150.548 290.772 154.572 295.066 160.028 295.066C163.457 295.066 165.617 293.743 167.589 291.744L166.184 290.367C164.375 292.095 162.673 293.094 160.081 293.094Z" fill="white"/>
<path d="M195.049 275.837H192.916V294.741H205.689V292.769H195.049V275.837Z" fill="white"/>
<path d="M244.006 286.829C244.006 290.96 241.791 293.066 238.308 293.066C234.716 293.066 232.529 290.771 232.529 286.693V275.837H230.395V286.829C230.395 292.176 233.582 295.038 238.254 295.038C242.979 295.038 246.139 292.176 246.139 286.666V275.837H244.006V286.829Z" fill="white"/>
<path d="M285.888 289.447C285.888 291.554 284.105 292.824 281.243 292.824H274.897V286.153H280.865C284.159 286.153 285.888 287.342 285.888 289.394V289.447ZM274.897 277.754H280.648C283.349 277.754 284.834 278.97 284.834 280.833V280.887C284.834 283.101 283.052 284.262 280.486 284.262H274.897V277.754ZM283.997 284.965C285.482 284.317 286.995 283.047 286.995 280.59V280.536C286.995 279.321 286.563 278.322 285.78 277.511C284.7 276.458 282.998 275.837 280.838 275.837H272.79V294.741H281.188C285.32 294.741 288.049 292.824 288.049 289.583V289.529C288.049 286.936 286.239 285.64 283.997 284.965Z" fill="white"/>
<path d="M288.577 261.795H146.85V263.338H288.577V261.795Z" fill="white"/>
</svg>
