<svg width="455" height="455" viewBox="0 0 455 455" fill="none" xmlns="http://www.w3.org/2000/svg">
<path d="M187.404 213.442H187.386C178.767 236.567 194.473 240.703 194.473 240.703H194.492C203.013 217.857 187.404 213.442 187.404 213.442Z" fill="white"/>
<path d="M242.68 201.04H242.697C251.219 178.194 235.61 173.779 235.61 173.779H235.592C226.972 196.904 242.68 201.04 242.68 201.04Z" fill="white"/>
<path d="M244.204 213.442C239.544 213.442 235.955 219.12 235.097 224.961L247.5 224.967C248.109 222.539 247.406 217.194 244.204 213.442Z" fill="white"/>
<path d="M274.891 220.021C273.741 215.83 270.749 214.074 267.599 213.537C265.013 216.091 264.508 221.651 264.428 224.535V237.222C264.428 239.991 267.864 240.659 267.864 240.659V240.861H253.737V240.659C253.737 240.659 257.172 239.991 257.172 237.222V218.525C257.172 215.757 253.737 215.088 253.737 215.088C253.737 215.088 259.973 214.834 264.428 211.652V214.42C266.394 213.267 268.654 212.606 271.06 212.606C273.891 212.606 275.76 213.515 277.946 215.075C277.501 218.302 274.891 220.021 274.891 220.021ZM240.744 241.722C233.152 241.722 226.998 235.182 226.998 227.116C226.998 219.05 233.152 212.511 240.744 212.511C248.064 212.511 254.045 218.592 254.464 226.257H234.954C234.516 232.007 236.848 237.521 243.544 237.521C250.027 237.521 253.552 232.416 253.552 232.416C251.555 237.861 246.575 241.722 240.744 241.722ZM243.258 261.445C243.258 261.445 238.494 261.127 236.462 264.73L236.464 277.84C236.464 281.67 236.962 283.802 237.916 284.772C241.281 284.88 243.024 282.879 243.024 282.879C243.024 282.879 243.024 282.88 243.024 282.88C242.574 284.677 240.804 285.274 240.783 285.281C240.427 285.292 240.063 285.298 239.688 285.298C234.02 285.298 229.259 282.425 229.258 278.186L229.252 277.84L229.225 264.223C228.737 262.006 225.861 261.445 225.861 261.445V261.242H229.219L229.206 254.369C229.206 251.601 225.769 250.933 225.769 250.933C225.769 250.933 232.006 250.678 236.46 247.497L236.462 261.242H243.258V261.445ZM225.96 284.342H211.832V284.14C211.832 284.14 215.269 283.471 215.269 280.703V266.396C215.269 263.628 211.832 262.96 211.832 262.96C211.832 262.96 218.069 262.705 222.524 259.524V280.703C222.524 283.471 225.96 284.14 225.96 284.14V284.342ZM190.877 241.721C183.292 241.721 177.144 235.183 177.144 227.116C177.144 219.05 183.292 212.511 190.877 212.511C198.462 212.511 204.61 219.05 204.61 227.116C204.61 235.183 198.462 241.721 190.877 241.721ZM223.144 253.414C223.144 255.759 221.242 257.662 218.896 257.662C216.551 257.662 214.649 255.759 214.649 253.414C214.649 251.068 216.551 249.167 218.896 249.167C221.242 249.167 223.144 251.068 223.144 253.414ZM200.865 213.37H214.754V213.573C214.754 213.573 213.064 213.903 212.054 215.054L219.391 231.977C221.969 227.013 223.88 219.559 223.536 213.37H228.691L220.959 231.043L216.663 240.861H214.945L203.763 215.303C202.796 213.949 200.865 213.573 200.865 213.573V213.37ZM213.009 172.849C219.596 172.849 223.319 174.567 223.319 174.567V184.876C223.319 184.876 217.257 172.419 209.621 173.755C207.266 180.183 215.135 182.013 221.15 188.694C227.662 195.93 221.913 202.059 213.895 202.059C207.308 202.059 202.7 198.622 202.7 198.622V191.749C202.7 191.749 208.016 202.913 217.174 201.259C219.528 194.832 210.936 192.894 204.922 186.212C198.41 178.977 204.991 172.849 213.009 172.849ZM239.083 172.848C246.667 172.848 252.816 179.387 252.816 187.453C252.816 195.52 246.667 202.059 239.083 202.059C231.498 202.059 225.35 195.52 225.35 187.453C225.35 179.387 231.498 172.848 239.083 172.848ZM227.545 149C184.166 149 149 184.166 149 227.546C149 270.925 184.166 306.091 227.545 306.091C270.924 306.091 306.09 270.925 306.09 227.546C306.09 184.166 270.924 149 227.545 149Z" fill="white"/>
</svg>
