<svg width="431" height="250" viewBox="0 0 431 250" fill="none" xmlns="http://www.w3.org/2000/svg">
<path d="M91.6152 67.7633L75.6919 51.84C74.6051 50.7532 73.131 50.1426 71.5939 50.1426H88.9803C90.5174 50.1426 91.9914 50.7532 93.0783 51.84L109.002 67.7633C110.088 68.8502 111.563 69.4608 113.1 69.4608H95.7132C94.1762 69.4608 92.7021 68.8502 91.6152 67.7633Z" fill="white"/>
<path fill-rule="evenodd" clip-rule="evenodd" d="M71.5939 50.6241H70.1309V49.6582H88.9803C90.6454 49.6582 92.2424 50.3197 93.4198 51.4971L109.343 67.4204C110.339 68.4167 111.691 68.9764 113.1 68.9764H114.563V69.9423H95.7132C94.0481 69.9423 92.4512 69.2808 91.2737 68.1034L75.3504 52.1801C74.3542 51.1838 73.0029 50.6241 71.5939 50.6241ZM74.94 50.6241C75.3328 50.8715 75.7 51.1636 76.0334 51.4971L91.9567 67.4204C92.953 68.4167 94.3043 68.9764 95.7132 68.9764H109.754C109.361 68.729 108.994 68.4369 108.66 68.1034L92.7368 52.1801C91.7405 51.1838 90.3893 50.6241 88.9803 50.6241H74.94Z" fill="white"/>
<path d="M337.922 67.7633L321.999 51.84C320.912 50.7532 319.438 50.1426 317.901 50.1426H335.287C336.824 50.1426 338.298 50.7532 339.385 51.84L355.308 67.7633C356.395 68.8502 357.869 69.4608 359.406 69.4608H342.02C340.483 69.4608 339.009 68.8502 337.922 67.7633Z" fill="white"/>
<path fill-rule="evenodd" clip-rule="evenodd" d="M317.901 50.6241H316.438V49.6582H335.287C336.952 49.6582 338.549 50.3197 339.726 51.4971L355.65 67.4204C356.646 68.4167 357.997 68.9764 359.406 68.9764H360.869V69.9423H342.02C340.355 69.9423 338.758 69.2808 337.58 68.1034L321.657 52.1801C320.661 51.1838 319.31 50.6241 317.901 50.6241ZM321.247 50.6241C321.639 50.8715 322.007 51.1636 322.34 51.4971L338.263 67.4204C339.26 68.4167 340.611 68.9764 342.02 68.9764H356.06C355.667 68.729 355.3 68.4369 354.967 68.1034L339.043 52.1801C338.047 51.1838 336.696 50.6241 335.287 50.6241H321.247Z" fill="white"/>
<path d="M227.809 58.1032L211.885 42.1799C210.798 41.093 209.324 40.4824 207.787 40.4824H225.174C226.711 40.4824 228.185 41.093 229.272 42.1799L245.195 58.1032C246.282 59.19 247.756 59.8006 249.293 59.8006H231.907C230.37 59.8006 228.895 59.19 227.809 58.1032Z" fill="white"/>
<path fill-rule="evenodd" clip-rule="evenodd" d="M207.787 40.9659H206.324V40H225.174C226.839 40 228.436 40.6615 229.613 41.8389L245.536 57.7622C246.533 58.7585 247.884 59.3182 249.293 59.3182H250.756V60.2841H231.907C230.241 60.2841 228.645 59.6226 227.467 58.4452L211.544 42.5219C210.548 41.5256 209.196 40.9659 207.787 40.9659ZM211.133 40.9659C211.526 41.2133 211.893 41.5054 212.227 41.8389L228.15 57.7622C229.146 58.7585 230.498 59.3182 231.907 59.3182H245.947C245.554 59.0708 245.187 58.7787 244.853 58.4452L228.93 42.5219C227.934 41.5256 226.583 40.9659 225.174 40.9659H211.133Z" fill="white"/>
<path d="M279.002 58.1032L263.079 42.1799C261.992 41.093 260.518 40.4824 258.981 40.4824H276.367C277.904 40.4824 279.378 41.093 280.465 42.1799L296.388 58.1032C297.475 59.19 298.949 59.8006 300.486 59.8006H283.1C281.563 59.8006 280.089 59.19 279.002 58.1032Z" fill="white"/>
<path fill-rule="evenodd" clip-rule="evenodd" d="M258.981 40.9659H257.518V40H276.367C278.032 40 279.629 40.6615 280.807 41.8389L296.73 57.7622C297.726 58.7585 299.077 59.3182 300.486 59.3182H301.949V60.2841H283.1C281.435 60.2841 279.838 59.6226 278.66 58.4452L262.737 42.5219C261.741 41.5256 260.39 40.9659 258.981 40.9659ZM262.327 40.9659C262.72 41.2133 263.087 41.5054 263.42 41.8389L279.343 57.7622C280.34 58.7585 281.691 59.3182 283.1 59.3182H297.14C296.747 59.0708 296.38 58.7787 296.047 58.4452L280.124 42.5219C279.127 41.5256 277.776 40.9659 276.367 40.9659H262.327Z" fill="white"/>
<path d="M145.706 42.1811L120.124 67.7635C119.037 68.8503 117.563 69.4609 116.026 69.4609L133.412 69.4609C134.949 69.4609 136.423 68.8503 137.51 67.7635L163.092 42.1811C164.179 41.0943 165.653 40.4837 167.19 40.4837L149.804 40.4837C148.267 40.4837 146.793 41.0943 145.706 42.1811Z" fill="white"/>
<path fill-rule="evenodd" clip-rule="evenodd" d="M116.026 68.9775L114.562 68.9775L114.562 69.9434L133.412 69.9434C135.077 69.9434 136.674 69.2819 137.851 68.1045L163.434 42.5221C164.43 41.5258 165.781 40.9661 167.19 40.9661L168.653 40.9661L168.653 40.0002L149.804 40.0002C148.139 40.0002 146.542 40.6616 145.364 41.8391L119.782 67.4215C118.786 68.4177 117.435 68.9775 116.026 68.9775ZM119.372 68.9774C119.764 68.73 120.132 68.4379 120.465 68.1045L146.047 42.5221C147.044 41.5258 148.395 40.9661 149.804 40.9661L163.844 40.9661C163.451 41.2135 163.084 41.5056 162.751 41.8391L137.168 67.4215C136.172 68.4177 134.821 68.9774 133.412 68.9774L119.372 68.9774Z" fill="white"/>
<path d="M200.294 42.1811L225.876 67.7635C226.963 68.8503 228.437 69.4609 229.974 69.4609L212.588 69.4609C211.051 69.4609 209.577 68.8503 208.49 67.7635L182.908 42.1811C181.821 41.0943 180.347 40.4837 178.81 40.4837L196.196 40.4837C197.733 40.4837 199.207 41.0943 200.294 42.1811Z" fill="white"/>
<path fill-rule="evenodd" clip-rule="evenodd" d="M229.974 68.9775L231.438 68.9775L231.438 69.9434L212.588 69.9434C210.923 69.9434 209.326 69.2819 208.149 68.1045L182.566 42.5221C181.57 41.5258 180.219 40.9661 178.81 40.9661L177.347 40.9661L177.347 40.0002L196.196 40.0002C197.861 40.0002 199.458 40.6616 200.636 41.8391L226.218 67.4215C227.214 68.4177 228.565 68.9775 229.974 68.9775ZM226.628 68.9774C226.236 68.73 225.868 68.4379 225.535 68.1045L199.953 42.5221C198.956 41.5258 197.605 40.9661 196.196 40.9661L182.156 40.9661C182.549 41.2135 182.916 41.5056 183.249 41.8391L208.832 67.4215C209.828 68.4177 211.179 68.9774 212.588 68.9774L226.628 68.9774Z" fill="white"/>
<path d="M109.001 48.4441L102.737 42.1799C101.65 41.093 100.176 40.4824 98.6389 40.4824H116.025C117.562 40.4824 119.036 41.093 120.123 42.1799L126.387 48.4441C127.474 49.5309 128.948 50.1415 130.485 50.1415H113.099C111.562 50.1415 110.088 49.5309 109.001 48.4441Z" fill="white"/>
<path fill-rule="evenodd" clip-rule="evenodd" d="M98.6389 40.9659H97.1758V40H116.025C117.69 40 119.287 40.6615 120.465 41.8389L126.729 48.1031C127.725 49.0994 129.076 49.6591 130.485 49.6591H131.949V50.625H113.099C111.434 50.625 109.837 49.9635 108.66 48.7861L102.395 42.5219C101.399 41.5256 100.048 40.9659 98.6389 40.9659ZM101.985 40.9659C102.378 41.2133 102.745 41.5054 103.078 41.8389L109.343 48.1031C110.339 49.0994 111.69 49.6591 113.099 49.6591H127.139C126.747 49.4117 126.379 49.1196 126.046 48.7861L119.782 42.5219C118.785 41.5256 117.434 40.9659 116.025 40.9659H101.985Z" fill="white"/>
<path d="M336.956 48.4441L330.692 42.1799C329.605 41.093 328.131 40.4824 326.594 40.4824H343.98C345.517 40.4824 346.991 41.093 348.078 42.1799L354.343 48.4441C355.429 49.5309 356.903 50.1415 358.441 50.1415H341.054C339.517 50.1415 338.043 49.5309 336.956 48.4441Z" fill="white"/>
<path fill-rule="evenodd" clip-rule="evenodd" d="M326.594 40.9659H325.131V40H343.98C345.645 40 347.242 40.6615 348.42 41.8389L354.684 48.1031C355.68 49.0994 357.032 49.6591 358.441 49.6591H359.904V50.625H341.054C339.389 50.625 337.792 49.9635 336.615 48.7861L330.35 42.5219C329.354 41.5256 328.003 40.9659 326.594 40.9659ZM329.94 40.9659C330.333 41.2133 330.7 41.5054 331.033 41.8389L337.298 48.1031C338.294 49.0994 339.645 49.6591 341.054 49.6591H355.094C354.702 49.4117 354.334 49.1196 354.001 48.7861L347.737 42.5219C346.741 41.5256 345.389 40.9659 343.98 40.9659H329.94Z" fill="white"/>
<path fill-rule="evenodd" clip-rule="evenodd" d="M86.5508 49.6582H122.289V50.6241H86.5508V49.6582Z" fill="white"/>
<path fill-rule="evenodd" clip-rule="evenodd" d="M318.369 49.6582H354.108V50.6241H318.369V49.6582Z" fill="white"/>
<path fill-rule="evenodd" clip-rule="evenodd" d="M74.4766 40H110.215V40.9659H74.4766V40Z" fill="white"/>
<path fill-rule="evenodd" clip-rule="evenodd" d="M306.295 40H342.034V40.9659H306.295V40Z" fill="white"/>
<path fill-rule="evenodd" clip-rule="evenodd" d="M167.205 69.9434L131.466 69.9434L131.466 68.9774L167.205 68.9775L167.205 69.9434Z" fill="white"/>
<path fill-rule="evenodd" clip-rule="evenodd" d="M300.5 69.9434L264.761 69.9434L264.761 68.9774L300.5 68.9775L300.5 69.9434Z" fill="white"/>
<path fill-rule="evenodd" clip-rule="evenodd" d="M342.035 50.625L306.297 50.625L306.297 49.6591L342.035 49.6591L342.035 50.625Z" fill="white"/>
<path fill-rule="evenodd" clip-rule="evenodd" d="M200.045 69.9434L177.829 69.9434L177.829 68.9775L200.045 68.9775L200.045 69.9434Z" fill="white"/>
<path fill-rule="evenodd" clip-rule="evenodd" d="M255.102 60.2832L232.886 60.2832L232.886 59.3173L255.102 59.3173L255.102 60.2832Z" fill="white"/>
<path fill-rule="evenodd" clip-rule="evenodd" d="M193.285 40.9668L171.069 40.9668L171.069 40.0009L193.285 40.0009L193.285 40.9668Z" fill="white"/>
<path d="M73.0293 40.4824H85.5861V42.4142H73.0293V40.4824Z" fill="white"/>
<path fill-rule="evenodd" clip-rule="evenodd" d="M72.5449 40H86.0676V42.8977H72.5449V40ZM73.5108 40.9659V41.9318H85.1017V40.9659H73.5108Z" fill="white"/>
<path d="M306.779 40.4824H319.336V42.4142H306.779V40.4824Z" fill="white"/>
<path fill-rule="evenodd" clip-rule="evenodd" d="M306.295 40H319.818V42.8977H306.295V40ZM307.261 40.9659V41.9318H318.852V40.9659H307.261Z" fill="white"/>
<path d="M168.654 69.4609L156.097 69.4609L156.097 67.5291L168.654 67.5291L168.654 69.4609Z" fill="white"/>
<path fill-rule="evenodd" clip-rule="evenodd" d="M169.137 69.9434L155.614 69.9434L155.614 67.0456L169.137 67.0456L169.137 69.9434ZM168.171 68.9775L168.171 68.0115L156.58 68.0115L156.58 68.9774L168.171 68.9775Z" fill="white"/>
<path d="M301.949 69.4609L289.392 69.4609L289.392 67.5291L301.949 67.5291L301.949 69.4609Z" fill="white"/>
<path fill-rule="evenodd" clip-rule="evenodd" d="M302.432 69.9434L288.909 69.9434L288.909 67.0456L302.432 67.0456L302.432 69.9434ZM301.466 68.9775L301.466 68.0115L289.875 68.0115L289.875 68.9774L301.466 68.9775Z" fill="white"/>
<path d="M301.949 42.4141L289.392 42.4141L289.392 40.4822L301.949 40.4822L301.949 42.4141Z" fill="white"/>
<path fill-rule="evenodd" clip-rule="evenodd" d="M302.432 42.8984L288.909 42.8984L288.909 40.0007L302.432 40.0007L302.432 42.8984ZM301.466 41.9325L301.466 40.9666L289.875 40.9666L289.875 41.9325L301.466 41.9325Z" fill="white"/>
<path d="M201.494 69.4609L188.937 69.4609L188.937 67.5291L201.494 67.5291L201.494 69.4609Z" fill="white"/>
<path fill-rule="evenodd" clip-rule="evenodd" d="M201.977 69.9434L188.454 69.9434L188.454 67.0456L201.977 67.0456L201.977 69.9434ZM201.011 68.9775L201.011 68.0115L189.42 68.0115L189.42 68.9774L201.011 68.9775Z" fill="white"/>
<path d="M184.107 69.4609L171.551 69.4609L171.551 40.0007L171.551 40.431C171.551 42.0075 172.193 43.5159 173.329 44.6086L182.329 53.2621C183.465 54.3548 184.107 55.8632 184.107 57.4397L184.107 69.4609Z" fill="white"/>
<path fill-rule="evenodd" clip-rule="evenodd" d="M184.592 69.9434L171.069 69.9434L171.069 40.0002L172.035 40.0002L172.035 40.4305C172.035 41.8756 172.624 43.2583 173.665 44.2599L182.665 52.9135C183.896 54.0972 184.592 55.7313 184.592 57.4392L184.592 69.9434ZM172.035 43.7766L172.035 68.9774L183.626 68.9775L183.626 57.4392C183.626 55.9941 183.037 54.6113 181.996 53.6097L172.996 44.9562C172.626 44.6003 172.304 44.2037 172.035 43.7766Z" fill="white"/>
<path d="M242.062 40.4824L254.619 40.4824L254.619 59.8006L254.619 59.3034C254.619 57.7664 254.009 56.2923 252.922 55.2054L243.76 46.0435C242.673 44.9567 242.063 43.4826 242.063 41.9455L242.062 40.4824Z" fill="white"/>
<path fill-rule="evenodd" clip-rule="evenodd" d="M241.58 40L255.103 40L255.103 59.3034C255.103 59.3036 255.103 59.3032 255.103 59.3034L255.103 59.8011L254.137 59.8011L254.137 59.304C254.137 59.3038 254.137 59.3041 254.137 59.304C254.137 57.8952 253.577 56.5436 252.581 55.5475L243.419 46.3855C242.242 45.2081 241.58 43.6112 241.58 41.946L241.58 40ZM254.137 55.9579L254.137 40.9659L242.546 40.9659L242.546 41.946C242.546 43.355 243.106 44.7063 244.102 45.7025L253.264 54.8645C253.597 55.198 253.89 55.5651 254.137 55.9579Z" fill="white"/>
<path d="M270.074 69.4609L257.517 69.4609L257.517 50.1428L257.517 50.6399C257.517 52.177 258.128 53.6511 259.215 54.7379L268.377 63.8998C269.464 64.9867 270.074 66.4608 270.074 67.9979L270.074 69.4609Z" fill="white"/>
<path fill-rule="evenodd" clip-rule="evenodd" d="M270.557 69.9434L257.034 69.9434L257.034 50.6399C257.034 50.6398 257.034 50.6401 257.034 50.6399L257.034 50.1422L258 50.1422L258 50.6394C258 50.6396 258 50.6392 258 50.6394C258 52.0482 258.56 53.3997 259.556 54.3959L268.718 63.5578C269.895 64.7352 270.557 66.3322 270.557 67.9973L270.557 69.9434ZM258 53.9854L258 68.9774L269.591 68.9775L269.591 67.9973C269.591 66.5884 269.031 65.2371 268.035 64.2408L258.873 55.0789C258.539 54.7454 258.247 54.3783 258 53.9854Z" fill="white"/>
<path d="M319.336 69.4609L306.779 69.4609L306.779 50.1428L306.779 50.6399C306.779 52.177 307.39 53.6511 308.477 54.7379L317.638 63.8998C318.725 64.9867 319.336 66.4608 319.336 67.9979L319.336 69.4609Z" fill="white"/>
<path fill-rule="evenodd" clip-rule="evenodd" d="M319.818 69.9434L306.296 69.9434L306.296 50.6399C306.296 50.6398 306.296 50.6401 306.296 50.6399L306.296 50.1422L307.262 50.1422L307.262 50.6394C307.262 50.6396 307.262 50.6392 307.262 50.6394C307.262 52.0482 307.821 53.3997 308.818 54.3959L317.979 63.5578C319.157 64.7352 319.818 66.3322 319.818 67.9973L319.818 69.9434ZM307.262 53.9854L307.262 68.9774L318.852 68.9775L318.852 67.9973C318.852 66.5884 318.293 65.2371 317.296 64.2408L308.135 55.0789C307.801 54.7454 307.509 54.3783 307.262 53.9854Z" fill="white"/>
<path fill-rule="evenodd" clip-rule="evenodd" d="M254.137 68.9782V56.9043H255.103V69.9441H230.473V68.9782H254.137Z" fill="white"/>
<path fill-rule="evenodd" clip-rule="evenodd" d="M257.999 40.9652L257.999 53.0391L257.034 53.0391L257.034 39.9993L290.357 39.9993L290.357 40.9652L257.999 40.9652Z" fill="white"/>
<path d="M159.098 187.572H171.8L177.221 182.151C177.816 181.555 178.624 181.221 179.466 181.221H195.616V187.572H171.8L170.87 188.502C169.629 189.742 169.629 191.753 170.87 192.993L171.8 193.923H195.616V200.274H179.466C178.624 200.274 177.816 199.939 177.221 199.344L171.8 193.923H159.098V187.572Z" fill="white"/>
<path fill-rule="evenodd" clip-rule="evenodd" d="M179.467 181.418C178.678 181.418 177.92 181.732 177.362 182.29L172.28 187.372H195.419V181.418H179.467ZM171.883 187.769H195.816V181.021H179.467C178.572 181.021 177.714 181.377 177.081 182.01L171.719 187.372H158.9V194.12H171.719L177.081 199.483C177.714 200.116 178.572 200.471 179.467 200.471H195.816V193.724H171.883L171.011 192.852C169.849 191.689 169.849 189.804 171.011 188.641L171.883 187.769ZM171.322 187.769H159.297V193.724H171.322L170.73 193.132C169.413 191.815 169.413 189.678 170.73 188.361L171.322 187.769ZM172.28 194.12L177.362 199.203C177.92 199.761 178.678 200.075 179.467 200.075H195.419V194.12H172.28Z" fill="white"/>
<path d="M235.311 187.572H248.013L253.433 182.151C254.029 181.555 254.837 181.221 255.679 181.221H271.829V187.572H248.013L247.082 188.502C245.842 189.742 245.842 191.753 247.082 192.993L248.013 193.923H271.829V200.274H255.679C254.837 200.274 254.029 199.939 253.433 199.344L248.013 193.923H235.311V187.572Z" fill="white"/>
<path fill-rule="evenodd" clip-rule="evenodd" d="M255.68 181.418C254.891 181.418 254.133 181.732 253.575 182.29L248.493 187.372H271.632V181.418H255.68ZM248.096 187.769H272.029V181.021H255.68C254.785 181.021 253.927 181.377 253.294 182.01L247.932 187.372H235.113V194.12H247.932L253.294 199.483C253.927 200.116 254.785 200.471 255.68 200.471H272.029V193.724H248.096L247.224 192.852C246.061 191.689 246.061 189.804 247.224 188.641L248.096 187.769ZM247.535 187.769H235.51V193.724H247.535L246.943 193.132C245.626 191.815 245.626 189.678 246.943 188.361L247.535 187.769ZM248.493 194.12L253.575 199.203C254.133 199.761 254.891 200.075 255.68 200.075H271.632V194.12H248.493Z" fill="white"/>
<path d="M273.416 187.572H286.118L291.539 182.151C292.134 181.555 292.942 181.221 293.784 181.221H309.934V187.572H286.118L285.188 188.502C283.948 189.742 283.948 191.753 285.188 192.993L286.118 193.923H305.171C307.802 193.923 309.934 196.055 309.934 198.686V203.449C309.934 201.695 308.513 200.274 306.759 200.274H293.784C292.942 200.274 292.134 199.939 291.539 199.344L286.118 193.923H273.416V187.572Z" fill="white"/>
<path fill-rule="evenodd" clip-rule="evenodd" d="M293.786 181.418C292.996 181.418 292.239 181.732 291.681 182.29L286.598 187.372H309.737V181.418H293.786ZM286.201 187.769H310.134V181.021H293.786C292.891 181.021 292.033 181.377 291.4 182.01L286.037 187.372H273.219V194.12H286.037L291.4 199.483C292.033 200.116 292.891 200.471 293.786 200.471H306.76C308.404 200.471 309.737 201.804 309.737 203.448H310.134V198.685C310.134 195.945 307.913 193.724 305.172 193.724H286.201L285.329 192.852C284.167 191.689 284.167 189.804 285.329 188.641L286.201 187.769ZM285.64 187.769H273.616V193.724H285.64L285.049 193.132C283.731 191.815 283.731 189.678 285.049 188.361L285.64 187.769ZM286.598 194.12L291.681 199.203C292.239 199.761 292.996 200.075 293.786 200.075H306.76C308.049 200.075 309.169 200.797 309.737 201.859V198.685C309.737 196.164 307.693 194.12 305.172 194.12H286.598Z" fill="white"/>
<path d="M120.992 187.572H133.694L139.115 182.151C139.711 181.555 140.518 181.221 141.361 181.221H157.51V187.572H133.694L132.764 188.502C131.524 189.742 131.524 191.753 132.764 192.993L133.694 193.923H157.51V200.274H141.361C140.518 200.274 139.711 199.939 139.115 199.344L133.694 193.923H120.992V187.572Z" fill="white"/>
<path fill-rule="evenodd" clip-rule="evenodd" d="M141.36 181.418C140.57 181.418 139.813 181.732 139.255 182.29L134.173 187.372H157.311V181.418H141.36ZM133.776 187.769H157.708V181.021H141.36C140.465 181.021 139.607 181.377 138.974 182.01L133.611 187.372H120.793V194.12H133.611L138.974 199.483C139.607 200.116 140.465 200.471 141.36 200.471H157.708V193.724H133.776L132.904 192.852C131.741 191.689 131.741 189.804 132.904 188.641L133.776 187.769ZM133.214 187.769H121.19V193.724H133.214L132.623 193.132C131.305 191.815 131.305 189.678 132.623 188.361L133.214 187.769ZM134.173 194.12L139.255 199.203C139.813 199.761 140.57 200.075 141.36 200.075H157.311V194.12H134.173Z" fill="white"/>
<path d="M197.205 187.572H209.907L215.328 182.151C215.924 181.555 216.731 181.221 217.573 181.221H228.96C231.591 181.221 233.723 183.353 233.723 185.984V189.953C233.723 188.638 232.657 187.572 231.342 187.572H209.907L208.977 188.502C207.737 189.742 207.737 191.753 208.977 192.993L209.907 193.923H231.342C232.657 193.923 233.723 192.856 233.723 191.541V195.51C233.723 198.141 231.591 200.274 228.96 200.274H216.258L209.907 193.923H197.205V187.572Z" fill="white"/>
<path fill-rule="evenodd" clip-rule="evenodd" d="M217.573 181.418C216.783 181.418 216.026 181.732 215.468 182.29L210.385 187.372H231.341C232.26 187.372 233.067 187.853 233.524 188.577V185.983C233.524 183.462 231.48 181.418 228.959 181.418H217.573ZM233.921 189.953V185.983C233.921 183.243 231.7 181.021 228.959 181.021H217.573C216.678 181.021 215.82 181.377 215.187 182.01L209.824 187.372H197.006V194.12H209.824L216.175 200.471H228.959C231.7 200.471 233.921 198.25 233.921 195.51V191.54H233.524C233.524 192.746 232.547 193.724 231.341 193.724H209.989L209.117 192.852C207.954 191.689 207.954 189.804 209.117 188.641L209.989 187.769H231.341C232.547 187.769 233.524 188.747 233.524 189.953H233.921ZM209.427 187.769H197.403V193.724H209.427L208.836 193.132C207.518 191.815 207.518 189.678 208.836 188.361L209.427 187.769ZM210.385 194.12L216.34 200.075H228.959C231.48 200.075 233.524 198.031 233.524 195.51V192.916C233.067 193.64 232.26 194.12 231.341 194.12H210.385Z" fill="white"/>
<path d="M318.805 188.502L324.225 193.923H348.042V203.45C348.042 201.696 346.62 200.274 344.866 200.274H331.892C331.05 200.274 330.242 199.94 329.646 199.344L324.225 193.923H311.523V187.572H316.559C317.401 187.572 318.209 187.907 318.805 188.502Z" fill="white"/>
<path fill-rule="evenodd" clip-rule="evenodd" d="M311.322 187.373H316.556C317.451 187.373 318.309 187.729 318.942 188.361L324.305 193.724H348.238V203.449H347.841C347.841 201.805 346.508 200.472 344.864 200.472H331.889C330.994 200.472 330.136 200.117 329.503 199.484L324.141 194.121H311.322V187.373ZM323.744 193.724L318.661 188.642C318.103 188.084 317.346 187.77 316.556 187.77H311.719V193.724H323.744ZM324.702 194.121L329.784 199.203C330.342 199.761 331.1 200.075 331.889 200.075H344.864C346.152 200.075 347.272 200.798 347.841 201.86V194.121H324.702Z" fill="white"/>
<path d="M82.8848 187.572H95.5868L101.008 182.151C101.603 181.555 102.411 181.221 103.253 181.221H114.64C117.27 181.221 119.403 183.353 119.403 185.984V189.953C119.403 188.638 118.337 187.572 117.021 187.572H95.5868L94.6567 188.502C93.4166 189.742 93.4166 191.753 94.6567 192.993L95.5868 193.923H117.021C118.337 193.923 119.403 192.856 119.403 191.541V195.51C119.403 198.141 117.27 200.274 114.64 200.274H101.938L95.5868 193.923H82.8848V187.572Z" fill="white"/>
<path fill-rule="evenodd" clip-rule="evenodd" d="M103.254 181.418C102.465 181.418 101.708 181.732 101.149 182.29L96.0671 187.372H117.023C117.942 187.372 118.749 187.853 119.206 188.577V185.983C119.206 183.462 117.162 181.418 114.641 181.418H103.254ZM119.603 189.953V185.983C119.603 183.243 117.381 181.021 114.641 181.021H103.254C102.36 181.021 101.501 181.377 100.869 182.01L95.5058 187.372H82.6875V194.12H95.5058L101.857 200.471H114.641C117.381 200.471 119.603 198.25 119.603 195.51V191.54H119.206C119.206 192.746 118.228 193.724 117.023 193.724H95.6702L94.7982 192.852C93.6356 191.689 93.6356 189.804 94.7982 188.641L95.6702 187.769H117.023C118.228 187.769 119.206 188.747 119.206 189.953H119.603ZM95.1088 187.769H83.0844V193.724H95.1088L94.5176 193.132C93.1999 191.815 93.1999 189.678 94.5176 188.361L95.1088 187.769ZM96.0671 194.12L102.021 200.075H114.641C117.162 200.075 119.206 198.031 119.206 195.51V192.916C118.749 193.64 117.942 194.12 117.023 194.12H96.0671Z" fill="white"/>
<path fill-rule="evenodd" clip-rule="evenodd" d="M158.9 208.212V181.221H159.297V208.212H158.9Z" fill="white"/>
<path fill-rule="evenodd" clip-rule="evenodd" d="M235.113 208.212V181.221H235.51V208.212H235.113Z" fill="white"/>
<path fill-rule="evenodd" clip-rule="evenodd" d="M120.793 208.212V181.221H121.19V208.212H120.793Z" fill="white"/>
<path fill-rule="evenodd" clip-rule="evenodd" d="M197.006 208.212V181.221H197.403V208.212H197.006Z" fill="white"/>
<path fill-rule="evenodd" clip-rule="evenodd" d="M311.322 208.212V181.221H311.719V208.212H311.322Z" fill="white"/>
<path fill-rule="evenodd" clip-rule="evenodd" d="M347.842 209.8V181.221H348.239V209.8H347.842Z" fill="white"/>
<path fill-rule="evenodd" clip-rule="evenodd" d="M83.0844 181.021V208.41H82.6875V181.021H83.0844Z" fill="white"/>
<path fill-rule="evenodd" clip-rule="evenodd" d="M233.523 195.511L233.523 187.572L233.92 187.572L233.92 195.511L233.523 195.511Z" fill="white"/>
<path fill-rule="evenodd" clip-rule="evenodd" d="M119.205 195.511L119.205 187.572L119.602 187.572L119.602 195.511L119.205 195.511Z" fill="white"/>
<path d="M235.311 209.799H271.829V203.448H238.486C236.732 203.448 235.311 202.027 235.311 200.273V209.799Z" fill="white"/>
<path fill-rule="evenodd" clip-rule="evenodd" d="M235.51 193.922V200.273C235.51 201.917 236.843 203.25 238.487 203.25H272.029V209.998H235.113V193.922H235.51ZM235.51 201.862V209.601H271.632V203.647H238.487C237.198 203.647 236.078 202.924 235.51 201.862Z" fill="white"/>
<path d="M273.416 209.799H306.759C308.513 209.799 309.934 208.378 309.934 206.624V203.448H276.592C274.838 203.448 273.416 202.027 273.416 200.273V209.799Z" fill="white"/>
<path fill-rule="evenodd" clip-rule="evenodd" d="M273.616 193.922V200.273C273.616 201.917 274.949 203.25 276.593 203.25H310.134V206.624C310.134 208.487 308.623 209.998 306.76 209.998H273.219V193.922H273.616ZM273.616 201.862V209.601H306.76C308.404 209.601 309.737 208.268 309.737 206.624V203.647H276.593C275.304 203.647 274.184 202.924 273.616 201.862Z" fill="white"/>
<path d="M126.413 202.518L121.922 198.027C121.327 197.432 120.992 196.624 120.992 195.782V209.799H157.51V203.448H128.659C127.816 203.448 127.009 203.114 126.413 202.518Z" fill="white"/>
<path fill-rule="evenodd" clip-rule="evenodd" d="M121.19 193.922V195.782C121.19 196.572 121.504 197.329 122.062 197.887L126.553 202.378C127.111 202.936 127.868 203.25 128.658 203.25H157.708V209.998H120.793V193.922H121.19ZM121.19 197.37V209.601H157.311V203.647H128.658C127.763 203.647 126.905 203.291 126.272 202.659L121.781 198.168C121.544 197.93 121.345 197.661 121.19 197.37Z" fill="white"/>
<path d="M202.626 202.518L198.135 198.027C197.54 197.432 197.205 196.624 197.205 195.782V209.799H203.556V204.764C203.556 203.922 203.222 203.114 202.626 202.518Z" fill="white"/>
<path fill-rule="evenodd" clip-rule="evenodd" d="M197.403 193.922V195.782C197.403 196.572 197.716 197.329 198.275 197.887L202.766 202.378C203.398 203.011 203.754 203.869 203.754 204.764V209.998H197.006V193.922H197.403ZM197.403 197.37V209.601H203.357V204.764C203.357 203.974 203.043 203.217 202.485 202.659L197.994 198.168C197.757 197.93 197.558 197.661 197.403 197.37Z" fill="white"/>
<path d="M316.944 202.518L312.454 198.027C311.858 197.432 311.523 196.624 311.523 195.782V209.799H317.874V204.764C317.874 203.922 317.54 203.114 316.944 202.518Z" fill="white"/>
<path fill-rule="evenodd" clip-rule="evenodd" d="M311.719 193.922V195.782C311.719 196.572 312.033 197.329 312.591 197.887L317.082 202.378C317.715 203.011 318.07 203.869 318.07 204.764V209.998H311.322V193.922H311.719ZM311.719 197.37V209.601H317.673V204.764C317.673 203.974 317.36 203.217 316.801 202.659L312.31 198.168C312.073 197.93 311.874 197.661 311.719 197.37Z" fill="white"/>
<path d="M342.62 188.501L347.111 192.992C347.706 193.588 348.041 194.395 348.041 195.237L348.041 181.22L341.69 181.22L341.69 186.256C341.69 187.098 342.025 187.906 342.62 188.501Z" fill="white"/>
<path fill-rule="evenodd" clip-rule="evenodd" d="M347.841 197.098L347.841 195.237C347.841 194.448 347.528 193.691 346.969 193.132L342.479 188.642C341.846 188.009 341.49 187.151 341.49 186.256L341.49 181.022L348.238 181.022L348.238 197.098L347.841 197.098ZM347.841 193.65L347.841 181.419L341.887 181.419L341.887 186.256C341.887 187.045 342.201 187.803 342.759 188.361L347.25 192.852C347.488 193.089 347.686 193.359 347.841 193.65Z" fill="white"/>
<path d="M88.3057 202.518L83.8148 198.027C83.2193 197.432 82.8848 196.624 82.8848 195.782V209.799H89.2358V204.764C89.2358 203.922 88.9012 203.114 88.3057 202.518Z" fill="white"/>
<path fill-rule="evenodd" clip-rule="evenodd" d="M83.0844 193.922V195.782C83.0844 196.572 83.3981 197.329 83.9564 197.887L88.4472 202.378C89.08 203.011 89.4354 203.869 89.4354 204.764V209.998H82.6875V193.922H83.0844ZM83.0844 197.37V209.601H89.0385V204.764C89.0385 203.974 88.7249 203.217 88.1666 202.659L83.6757 198.168C83.4382 197.93 83.2397 197.661 83.0844 197.37Z" fill="white"/>
<path d="M164.519 202.518L160.028 198.027C159.432 197.432 159.098 196.624 159.098 195.782V209.799H165.449V204.764C165.449 203.922 165.114 203.114 164.519 202.518Z" fill="white"/>
<path fill-rule="evenodd" clip-rule="evenodd" d="M159.297 193.922V195.782C159.297 196.572 159.611 197.329 160.169 197.887L164.66 202.378C165.293 203.011 165.648 203.869 165.648 204.764V209.998H158.9V193.922H159.297ZM159.297 197.37V209.601H165.251V204.764C165.251 203.974 164.938 203.217 164.379 202.659L159.889 198.168C159.651 197.93 159.453 197.661 159.297 197.37Z" fill="white"/>
<path d="M224.852 208.871L218.501 202.52C219.096 203.116 219.904 203.45 220.746 203.45H233.721V209.801H227.097C226.255 209.801 225.447 209.467 224.852 208.871Z" fill="white"/>
<path fill-rule="evenodd" clip-rule="evenodd" d="M211.355 195.652L211.636 195.371L218.645 202.38C219.203 202.938 219.96 203.252 220.75 203.252H233.923V210H227.101C226.206 210 225.348 209.644 224.715 209.011L211.355 195.652ZM219.768 203.502L224.996 208.731C225.554 209.289 226.311 209.603 227.101 209.603H233.526V203.649H220.75C220.414 203.649 220.083 203.599 219.768 203.502Z" fill="white"/>
<path d="M110.535 208.871L104.184 202.52C104.78 203.116 105.588 203.45 106.43 203.45H119.404V209.801H112.781C111.939 209.801 111.131 209.467 110.535 208.871Z" fill="white"/>
<path fill-rule="evenodd" clip-rule="evenodd" d="M97.0371 195.652L97.3178 195.371L104.326 202.38C104.885 202.938 105.642 203.252 106.432 203.252H119.604V210H112.783C111.888 210 111.03 209.644 110.397 209.011L97.0371 195.652ZM105.449 203.502L110.677 208.731C111.236 209.289 111.993 209.603 112.783 209.603H119.208V203.649H106.432C106.096 203.649 105.765 203.599 105.449 203.502Z" fill="white"/>
<path fill-rule="evenodd" clip-rule="evenodd" d="M135.627 105H120V134.041L132.154 146L152.991 146V118.667H158.199V134.041L170.354 146H187.717V132.333L187.718 134.041L199.872 146H205.081V142.584L208.553 146H217.235V105L151.256 105V108.417L147.782 105H139.101L139.1 108.418L139.1 108.417L135.627 105ZM187.717 132.333H172.09V118.667H173.825V130.626H182.507L187.716 125.501L187.717 118.667H203.344V132.333L201.609 132.333V120.374H187.718L187.717 132.333ZM139.1 118.666L139.1 118.667H133.891V132.333H139.1L139.1 118.666Z" fill="white"/>
<path d="M218.972 105H232.863V108.417H236.336L236.337 105H250.228V118.667H236.337L236.336 118.663V122.084H232.863V132.333H236.336V146H231.127L218.972 134.041V122.084H217.236V108.417H218.972V105Z" fill="white"/>
<path fill-rule="evenodd" clip-rule="evenodd" d="M250.228 120.374H236.337V134.041L248.491 146L269.328 146L281.483 134.042V146H295.374V118.667H297.109L297.109 146H311L311 116.959L298.846 105H295.373V110.124L290.165 105H264.12L251.966 116.958V132.333L251.964 132.333L250.228 132.333V120.374ZM267.592 118.667L265.856 118.667V132.333H267.592L267.592 118.667Z" fill="white"/>
</svg>
