<svg width="431" height="250" viewBox="0 0 431 250" fill="none" xmlns="http://www.w3.org/2000/svg">
<g clip-path="url(#clip0_1987_1225)">
<path d="M221.297 161.047C221.297 159.289 222.722 157.864 224.48 157.864C226.238 157.864 227.663 159.289 227.663 161.047V163.169C227.663 161.411 229.088 159.986 230.846 159.986C232.605 159.986 234.03 161.411 234.03 163.169V166.352V165.225C234.03 163.467 235.455 162.042 237.213 162.042C238.971 162.042 240.396 163.467 240.396 165.225V175.902C240.396 184.692 233.27 191.818 224.48 191.818C220.085 191.818 216.106 190.036 213.225 187.157L201.835 172.813C200.832 171.55 200.936 169.737 202.075 168.596C203.315 167.357 205.323 167.357 206.563 168.596L211.046 173.079C212.479 174.513 214.929 173.498 214.929 171.471V166.352V148.314C214.929 146.556 216.354 145.131 218.112 145.131C219.871 145.131 221.296 146.556 221.296 148.314V163.169" stroke="white" stroke-width="4.24428" stroke-miterlimit="10" stroke-linecap="round" stroke-linejoin="round"/>
<path d="M203.358 160.289C200.585 161.65 197.141 161.176 194.834 158.871C191.933 155.97 191.933 151.267 194.834 148.367C197.735 145.466 202.438 145.466 205.339 148.367C206.789 149.818 207.514 151.718 207.514 153.618V157.864" stroke="#105BFB" stroke-width="2.12214" stroke-miterlimit="10" stroke-linecap="round" stroke-linejoin="round"/>
<path d="M210.696 154.68L207.513 157.863L204.33 154.68" stroke="#105BFB" stroke-width="2.12214" stroke-miterlimit="10" stroke-linecap="round" stroke-linejoin="round"/>
</g>
<path d="M296.635 161.047C296.635 159.289 298.06 157.864 299.818 157.864C301.576 157.864 303.001 159.289 303.001 161.047V163.169C303.001 161.411 304.426 159.986 306.184 159.986C307.942 159.986 309.367 161.411 309.367 163.169V166.352V165.225C309.367 163.467 310.792 162.042 312.551 162.042C314.309 162.042 315.734 163.467 315.734 165.225V175.902C315.734 184.692 308.608 191.818 299.818 191.818C295.423 191.818 291.444 190.036 288.563 187.157L277.173 172.813C276.17 171.55 276.274 169.737 277.413 168.596C278.653 167.357 280.661 167.357 281.901 168.596L286.384 173.079C287.817 174.513 290.267 173.498 290.267 171.471V166.352V148.314C290.267 146.556 291.692 145.131 293.45 145.131C295.209 145.131 296.634 146.556 296.634 148.314V163.169" stroke="white" stroke-width="4.24428" stroke-miterlimit="10" stroke-linecap="round" stroke-linejoin="round"/>
<path d="M273.301 163.17L284.973 151.498" stroke="#105BFB" stroke-width="2.12214" stroke-miterlimit="10" stroke-linecap="round" stroke-linejoin="round"/>
<path d="M284.973 155.742V151.498H280.729" stroke="#105BFB" stroke-width="2.12214" stroke-miterlimit="10" stroke-linecap="round" stroke-linejoin="round"/>
<path d="M273.301 158.924V163.168H277.545" stroke="#105BFB" stroke-width="2.12214" stroke-miterlimit="10" stroke-linecap="round" stroke-linejoin="round"/>
<g clip-path="url(#clip1_1987_1225)">
<path d="M119.443 174.839V167.411C119.443 165.653 118.018 164.228 116.259 164.228C114.501 164.228 113.076 165.653 113.076 167.411V175.9C113.076 184.69 120.202 191.816 128.992 191.816C137.782 191.816 144.908 184.69 144.908 175.9V158.923C144.908 157.165 143.483 155.74 141.725 155.74C139.967 155.74 138.542 157.165 138.542 158.923V168.472V152.556C138.542 150.798 137.117 149.373 135.359 149.373C133.6 149.373 132.175 150.798 132.175 152.556V166.35V164.228V148.312C132.175 146.554 130.75 145.129 128.992 145.129C127.234 145.129 125.809 146.554 125.809 148.312V164.228V166.35V150.434C125.809 148.676 124.384 147.251 122.626 147.251C120.868 147.251 119.443 148.676 119.443 150.434V166.35" stroke="white" stroke-width="4.24428" stroke-miterlimit="10" stroke-linecap="round" stroke-linejoin="round"/>
<path d="M153.396 144.068V158.923" stroke="#105BFB" stroke-width="2.12214" stroke-miterlimit="10" stroke-linecap="round" stroke-linejoin="round"/>
<path d="M151.275 146.19L153.398 144.068L155.52 146.19" stroke="#105BFB" stroke-width="2.12214" stroke-miterlimit="10" stroke-linecap="round" stroke-linejoin="round"/>
<path d="M151.275 156.801L153.398 158.923L155.52 156.801" stroke="#105BFB" stroke-width="2.12214" stroke-miterlimit="10" stroke-linecap="round" stroke-linejoin="round"/>
<path d="M160.824 151.496H145.969" stroke="#105BFB" stroke-width="2.12214" stroke-miterlimit="10" stroke-linecap="round" stroke-linejoin="round"/>
<path d="M158.703 149.373L160.825 151.495L158.703 153.617" stroke="#105BFB" stroke-width="2.12214" stroke-miterlimit="10" stroke-linecap="round" stroke-linejoin="round"/>
<path d="M148.091 149.373L145.969 151.495L148.091 153.617" stroke="#105BFB" stroke-width="2.12214" stroke-miterlimit="10" stroke-linecap="round" stroke-linejoin="round"/>
</g>
<g clip-path="url(#clip2_1987_1225)">
<path d="M295.593 72.674C298.051 71.847 299.832 69.4267 299.832 66.7096C299.832 64.023 298.07 61.4722 295.496 60.6997L289.404 58.8715C288.434 58.394 287.354 58.1319 286.229 58.133C286.164 58.1298 286.102 58.133 286.038 58.1309C285.974 58.133 285.911 58.1287 285.847 58.133C284.722 58.1319 283.643 58.394 282.672 58.8715L276.58 60.6997C274.007 61.4722 272.244 64.023 272.244 66.7096C272.244 69.4267 274.025 71.847 276.483 72.674" stroke="#105BFB" stroke-width="2.12214" stroke-miterlimit="10" stroke-linecap="round" stroke-linejoin="round"/>
<path d="M310.435 72.9761C314.537 72.9761 317.863 69.6507 317.863 65.5486C317.863 61.4465 314.537 58.1211 310.435 58.1211C306.333 58.1211 303.008 61.4465 303.008 65.5486C303.008 69.6507 306.333 72.9761 310.435 72.9761Z" stroke="#105BFB" stroke-width="2.12214" stroke-miterlimit="10" stroke-linecap="round" stroke-linejoin="round"/>
<path d="M310.436 61.3047V65.549L312.558 67.6711" stroke="#105BFB" stroke-width="2.12214" stroke-miterlimit="10" stroke-linecap="round" stroke-linejoin="round"/>
<path d="M298.764 80.4034C297.006 80.4034 295.581 81.8284 295.581 83.5866V67.6706C295.581 65.9124 294.156 64.4874 292.398 64.4874C290.64 64.4874 289.214 65.9124 289.214 67.6706V81.4645V65.5484C289.214 63.7903 287.789 62.3652 286.031 62.3652C284.273 62.3652 282.848 63.7903 282.848 65.5484V66.6095V80.4034V67.6706C282.848 65.9124 281.423 64.4874 279.665 64.4874C277.907 64.4874 276.482 65.9124 276.482 67.6706V89.9531V84.6477C276.482 82.5256 275.057 81.4645 273.298 81.4645C271.54 81.4645 270.115 82.8895 270.115 84.6477V89.9531C270.115 98.743 277.241 105.869 286.031 105.869C294.821 105.869 301.947 98.743 301.947 89.9531V83.5866C301.947 81.8284 300.522 80.4034 298.764 80.4034Z" stroke="white" stroke-width="4.24428" stroke-miterlimit="10" stroke-linecap="round" stroke-linejoin="round"/>
</g>
<path d="M219.197 71.9612C221.698 70.8198 223.436 68.2972 223.436 65.3686C223.436 60.5174 218.76 57.0371 214.113 58.4313L206.55 60.6999C203.977 61.4723 202.215 63.8407 202.215 66.5273C202.215 69.2799 204.042 71.6053 206.55 72.3565" stroke="#105BFB" stroke-width="2.12214" stroke-miterlimit="10" stroke-linecap="round" stroke-linejoin="round"/>
<path d="M201.148 72.977C199.811 71.205 199.025 69.0086 199.025 66.6106C199.025 64.2125 199.811 62.0161 201.148 60.2441" stroke="#105BFB" stroke-width="2.12214" stroke-miterlimit="10" stroke-linecap="round" stroke-linejoin="round"/>
<path d="M223.43 58.1211C225.397 60.0353 226.613 62.655 226.613 65.5486C226.613 68.4421 225.397 71.0619 223.43 72.9761" stroke="#105BFB" stroke-width="2.12214" stroke-miterlimit="10" stroke-linecap="round" stroke-linejoin="round"/>
<path d="M228.735 80.4034C226.977 80.4034 225.552 81.8284 225.552 83.5866V81.4645C225.552 79.7063 224.127 78.2813 222.368 78.2813C220.61 78.2813 219.185 79.7063 219.185 81.4645V79.3424V65.5484C219.185 63.7903 217.76 62.3652 216.002 62.3652C214.244 62.3652 212.819 63.7903 212.819 65.5484V66.6095V80.4034V67.6706C212.819 65.9124 211.394 64.4874 209.636 64.4874C207.877 64.4874 206.452 65.9124 206.452 67.6706V89.9531V84.6477C206.452 82.5256 205.027 81.4645 203.269 81.4645C201.511 81.4645 200.086 82.8895 200.086 84.6477V89.9531C200.086 98.743 207.212 105.869 216.002 105.869C224.792 105.869 231.918 98.743 231.918 89.9531V83.5866C231.918 81.8284 230.493 80.4034 228.735 80.4034Z" stroke="white" stroke-width="4.24428" stroke-miterlimit="10" stroke-linecap="round" stroke-linejoin="round"/>
<path d="M127.937 72.2638C125.425 71.0728 123.688 68.5136 123.688 65.5486C123.688 61.4465 127.013 58.1211 131.115 58.1211C135.217 58.1211 138.542 61.4465 138.542 65.5486C138.542 68.5136 136.805 71.0728 134.293 72.2638" stroke="#105BFB" stroke-width="2.12214" stroke-miterlimit="10" stroke-linecap="round" stroke-linejoin="round"/>
<path d="M127.931 82.5256C127.931 80.7674 126.506 79.3424 124.748 79.3424C122.989 79.3424 121.564 80.7674 121.564 82.5256V89.9531C121.564 98.743 128.691 105.869 137.481 105.869C146.27 105.869 153.397 98.743 153.397 89.9531V82.5256C153.397 80.7674 151.972 79.3424 150.213 79.3424C148.455 79.3424 147.03 80.7674 147.03 82.5256V80.4034C147.03 78.6452 145.605 77.2202 143.847 77.2202C142.089 77.2202 140.664 78.6452 140.664 80.4034V78.2813C140.664 76.5231 139.239 75.0981 137.481 75.0981C135.722 75.0981 134.297 76.5231 134.297 78.2813V65.5484C134.297 63.7903 132.872 62.3652 131.114 62.3652C129.356 62.3652 127.931 63.7903 127.931 65.5484V88.892V82.5256Z" stroke="white" stroke-width="4.24428" stroke-miterlimit="10" stroke-linecap="round" stroke-linejoin="round"/>
<defs>
<clipPath id="clip0_1987_1225">
<rect width="53.0535" height="53.0535" fill="white" transform="translate(189.475 141.947)"/>
</clipPath>
<clipPath id="clip1_1987_1225">
<rect width="53.0535" height="53.0535" fill="white" transform="translate(110.955 141.947)"/>
</clipPath>
<clipPath id="clip2_1987_1225">
<rect width="53.0535" height="53.0535" fill="white" transform="translate(267.994 56)"/>
</clipPath>
</defs>
</svg>
